<svg xmlns="http://www.w3.org/2000/svg" xmlns:xlink="http://www.w3.org/1999/xlink" viewBox="0 0 174.13 213.23"><defs><style>.cls-1{fill:none;}.cls-2{isolation:isolate;}.Graphic-Style,.cls-11,.cls-3,.cls-7{mix-blend-mode:multiply;}.cls-3{fill:url(#radial-gradient);}.cls-4{clip-path:url(#clip-path);}.cls-5{fill:#f68cb2;}.Graphic-Style{fill:#c8c8c8;}.cls-6{fill:#f2ae75;}.cls-11,.cls-7{fill:#f6ccb8;}.cls-8{fill:#43414d;}.cls-18,.cls-19,.cls-9{fill:#fff;}.cls-10{fill:#3c2415;}.cls-11{opacity:0.8;}.cls-12{fill:#3c2417;}.cls-13{fill:#f05d44;}.cls-14{fill:#32303a;}.cls-15{fill:#686671;}.cls-16{fill:#adadae;}.cls-17{fill:#bddfdf;}.cls-18{opacity:0.5;}.cls-19{opacity:0.2;}</style><radialGradient id="radial-gradient" cx="32.06" cy="113.39" r="84.66" gradientTransform="translate(53.57 19.51) scale(0.96)" gradientUnits="userSpaceOnUse"><stop offset="0" stop-color="#adadae"/><stop offset="0.4" stop-color="#aeaeaf" stop-opacity="0.99"/><stop offset="0.55" stop-color="#b1b1b2" stop-opacity="0.95"/><stop offset="0.65" stop-color="#b7b7b8" stop-opacity="0.88"/><stop offset="0.73" stop-color="#bfbfbf" stop-opacity="0.79"/><stop offset="0.81" stop-color="#c9c9ca" stop-opacity="0.66"/><stop offset="0.87" stop-color="#d6d6d6" stop-opacity="0.5"/><stop offset="0.93" stop-color="#e5e5e5" stop-opacity="0.32"/><stop offset="0.98" stop-color="#f6f6f6" stop-opacity="0.11"/><stop offset="1" stop-color="#fff" stop-opacity="0"/></radialGradient><clipPath id="clip-path"><path class="cls-1" d="M133.1,59.43a56.51,56.51,0,1,0-97.49,0,72.55,72.55,0,1,0,97.49,0Z"/></clipPath></defs><title>avatar</title><g class="cls-2"><g id="people"><g id="woman"><circle id="shadow" class="cls-3" cx="84.41" cy="128.59" r="81.44"/><g class="cls-4"><circle class="cls-5" cx="84.36" cy="113.16" r="72.55" transform="translate(-55.31 92.79) rotate(-45)"/><path class="Graphic-Style" d="M139.1,171.07H127.51a1.88,1.88,0,0,0-1-3.45h-2a5,5,0,0,0,3.88-4.86v-4.41l6.9-14.36a15.26,15.26,0,0,0,.92-14c-1.84-4.21-4.73-9.91-7.82-15.55v-2.68a5,5,0,0,0-4.31-4.93c-3.6-6.15-6.92-11.25-8.55-12.82-6-5.77-13-5.56-19.33-6v0h0l-.23.63-1.17-.09V79.86l.17-.11a7,7,0,0,0,1.53.2c27.19.22,22.15-64.32,2.12-65.25-.52,0-1,0-1.5,0-10.05-7.6-32.21-2.47-37.41,19-3.32,13.67.93,26.24,7,46.49,2.13-1.41,3.31-4.62,4.18-8.75A29.43,29.43,0,0,0,78,79.25V81.8h0v6.75l-1.14.09-.27-.74-.13.1c-6.3.47-13.23.31-19.2,6-1.63,1.57-4.93,6.63-8.51,12.75h-.85a3.5,3.5,0,0,0-3.5,3.5v4.18c-3.09,5.64-6,11.34-7.82,15.55a15.26,15.26,0,0,0,.92,14l6.9,14.36v5.91a3.49,3.49,0,0,0,2.59,3.36h-.7a1.88,1.88,0,0,0-1,3.45H33.62a7.56,7.56,0,0,0,0,15.12H139.1a7.56,7.56,0,0,0,0-15.12Z"/><g id="woman-2" data-name="woman"><g id="woman-3" data-name="woman"><polygon class="cls-6" points="92.76 88.55 92.76 77.84 75.96 77.84 75.96 88.55 71.76 88.88 75.96 115.96 92.76 115.96 96.96 88.88 92.76 88.55"/><polygon class="cls-7" points="75.96 77.91 75.96 81.8 92.76 88.55 92.76 77.91 75.96 77.91"/><path class="cls-8" d="M134.18,130c-4.83-11.08-17-32.45-20.68-36-6-5.77-13-5.56-19.33-6l0,.27L84.36,115,74.58,88.25l0-.27c-6.33.48-13.32.28-19.33,6-3.69,3.54-15.85,24.91-20.68,36a15.26,15.26,0,0,0,.92,14l12.37,25.75H81.69l2.67-10.08L87,169.74h33.86L133.26,144A15.26,15.26,0,0,0,134.18,130Z"/><polygon class="cls-9" points="64.95 94.73 74.16 98.21 70.54 103.25 84.36 114.91 74.55 87.9 64.95 94.73"/><polygon class="cls-9" points="103.77 94.73 94.15 88.01 84.36 114.91 98.18 103.25 94.56 98.21 103.77 94.73"/><path class="cls-10" d="M94.46,79.95C88.67,79.9,84,72.71,84,63.79S71.62,13.54,96.58,14.7C116.61,15.63,121.65,80.17,94.46,79.95Z"/><path class="cls-6" d="M104,48.66V39.93c0-9.28-10.74-21-19.24-21s-19.24,11.72-19.24,21v8.74a4.24,4.24,0,0,0-4.28,4.2v4.37a4.24,4.24,0,0,0,4.28,4.2c0,9.28,10.74,21.34,19.24,21.34S104,70.71,104,61.43a4.24,4.24,0,0,0,4.28-4.2V52.86A4.24,4.24,0,0,0,104,48.66Z"/><path class="cls-11" d="M84.78,67.23V82.77c8.5,0,19.24-12.06,19.24-21.34a4.24,4.24,0,0,0,4.28-4.2V52.86a4.24,4.24,0,0,0-4.28-4.2V39.93c0-9.28-10.74-21-19.24-21v34A57.12,57.12,0,0,0,80.5,66.39Z"/><circle class="cls-7" cx="73.75" cy="54.54" r="3.32" transform="translate(-1.86 2.61) rotate(-2)"/><circle class="cls-12" cx="73.75" cy="53.7" r="3.32" transform="translate(-1.83 2.61) rotate(-2)"/><circle class="cls-9" cx="74.88" cy="52.67" r="0.83" transform="translate(-1.79 2.65) rotate(-2)"/><path class="cls-12" d="M77.79,51.05a4.84,4.84,0,0,0-3.9-2.68,5.2,5.2,0,0,0-4.74,2.2H68.9a2.46,2.46,0,0,1-.71-.19,3.28,3.28,0,0,1-1-.65.11.11,0,0,0-.12,0,.1.1,0,0,0,0,.14,3.63,3.63,0,0,0,.19.35,3.42,3.42,0,0,0,.56.71,3.29,3.29,0,0,0,.78.56,2.55,2.55,0,0,0,.31.13l.15,0a.54.54,0,0,0,.54-.29,4.54,4.54,0,0,1,4.2-2.15A4,4,0,0,1,77,51.39a.42.42,0,0,0,.77-.33Z"/><circle class="cls-7" cx="94.75" cy="54.54" r="3.32" transform="translate(-1.85 3.34) rotate(-2)"/><circle class="cls-12" cx="94.75" cy="53.7" r="3.32" transform="translate(-1.82 3.34) rotate(-2)"/><circle class="cls-9" cx="95.88" cy="52.67" r="0.83" transform="translate(-1.78 3.38) rotate(-2)"/><path class="cls-12" d="M90.72,51.05a4.84,4.84,0,0,1,3.9-2.68,5.2,5.2,0,0,1,4.74,2.2h.25a2.46,2.46,0,0,0,.71-.19,3.28,3.28,0,0,0,1-.65.11.11,0,0,1,.12,0,.1.1,0,0,1,0,.14,3.63,3.63,0,0,1-.19.35,3.42,3.42,0,0,1-.56.71,3.29,3.29,0,0,1-.78.56,2.55,2.55,0,0,1-.31.13l-.15,0a.54.54,0,0,1-.54-.29,4.54,4.54,0,0,0-4.2-2.15,4,4,0,0,0-3.22,2.18.42.42,0,1,1-.77-.33Z"/><path class="cls-13" d="M91.08,70c0,3.3-3,6-6.72,6s-6.72-2.67-6.72-6Z"/><path class="cls-9" d="M78.68,70h11.2a0,0,0,0,1,0,0v1.24a1,1,0,0,1-1,1h-9.2a1,1,0,0,1-1-1V70A0,0,0,0,1,78.68,70Z"/><path class="cls-14" d="M103.92,46.75c-1.69-1.15-4.78-1.15-7.57-1.14-4.7,0-7.85.92-9.37,2.74a6.25,6.25,0,0,0-4.33,0c-1.52-1.81-4.67-2.74-9.37-2.74-2.79,0-5.88,0-7.57,1.14h-3v3.19l1.28.71c0,5,2.46,10.75,9.25,10.75,5.58,0,9-3,10.28-9a5.69,5.69,0,0,0,.12-1.26,1.31,1.31,0,0,1,2.28,0,5.69,5.69,0,0,0,.12,1.26c1.24,6,4.7,9,10.28,9,6.79,0,9.22-5.77,9.25-10.75l1.28-.71V46.75ZM82.06,52.09c-1.09,5.25-4,7.8-8.8,7.8-7.37,0-7.74-7.77-7.74-9.32a3.22,3.22,0,0,1,.76-2.38c1-1,4.57-1.06,7-1.06,5.32,0,7.42,1.21,8.25,2.23A3.14,3.14,0,0,1,82.06,52.09Zm14.28,7.8c-4.83,0-7.71-2.55-8.8-7.8a3.14,3.14,0,0,1,.55-2.74c.83-1,2.93-2.23,8.25-2.23,2.73,0,5.89,0,7,1.06a3.22,3.22,0,0,1,.76,2.38C104.08,52.13,103.71,59.89,96.34,59.89Z"/><path class="cls-10" d="M64.67,80.17c-6.07-20.26-10.31-32.83-7-46.49C64.11,7.13,96.53,5.55,99.81,22.21c.7,3.55,9.17,23.28,4.24,25.54,0,0-7-8.3-10.86-16.07C64.67,31.59,74.21,73.87,64.67,80.17Z"/></g><path id="desk" class="cls-15" d="M137.1,171.07H31.62a7.56,7.56,0,1,0,0,15.12H137.1a7.56,7.56,0,0,0,0-15.12Z"/><g id="computer"><path class="cls-16" d="M124.48,171.39H44.24a1.88,1.88,0,0,1,0-3.76h80.24a1.88,1.88,0,0,1,0,3.76Z"/><rect class="cls-17" x="42.36" y="106.78" width="84" height="60.98" rx="5" ry="5"/><circle class="cls-18" cx="84.36" cy="135.33" r="6.87"/><path class="cls-19" d="M107.26,106.78H45.86a3.5,3.5,0,0,0-3.5,3.5v54a3.5,3.5,0,0,0,3.5,3.5H58A69.71,69.71,0,0,1,107.26,106.78Z"/></g></g></g></g></g></g></svg>