<svg xmlns="http://www.w3.org/2000/svg" xmlns:xlink="http://www.w3.org/1999/xlink" viewBox="0 0 174.13 213.23"><defs><style>.cls-1{fill:none;}.cls-2{isolation:isolate;}.Graphic-Style,.cls-10,.cls-3,.cls-7{mix-blend-mode:multiply;}.cls-3{fill:url(#radial-gradient);}.cls-4{clip-path:url(#clip-path);}.cls-5{fill:#c0b2da;}.Graphic-Style{fill:#c8c8c8;}.cls-6{fill:#bf8858;}.cls-10,.cls-7{fill:#f6ccb8;}.cls-8{fill:#42404d;}.cls-17,.cls-18,.cls-9{fill:#fff;}.cls-10{opacity:0.8;}.cls-11{fill:#3c2417;}.cls-12{fill:#2d1b10;}.cls-13{fill:#f05d44;}.cls-14{fill:#686671;}.cls-15{fill:#adadae;}.cls-16{fill:#f7cdb9;}.cls-17{opacity:0.5;}.cls-18{opacity:0.2;}</style><radialGradient id="radial-gradient" cx="30.37" cy="119.58" r="84.66" gradientTransform="translate(61.33 19.44) scale(0.96)" gradientUnits="userSpaceOnUse"><stop offset="0" stop-color="#adadae"/><stop offset="0.4" stop-color="#aeaeaf" stop-opacity="0.99"/><stop offset="0.55" stop-color="#b1b1b2" stop-opacity="0.95"/><stop offset="0.65" stop-color="#b7b7b8" stop-opacity="0.88"/><stop offset="0.73" stop-color="#bfbfbf" stop-opacity="0.79"/><stop offset="0.81" stop-color="#c9c9ca" stop-opacity="0.66"/><stop offset="0.87" stop-color="#d6d6d6" stop-opacity="0.5"/><stop offset="0.93" stop-color="#e5e5e5" stop-opacity="0.32"/><stop offset="0.98" stop-color="#f6f6f6" stop-opacity="0.11"/><stop offset="1" stop-color="#fff" stop-opacity="0"/></radialGradient><clipPath id="clip-path"><path class="cls-1" d="M139.29,65.31a56.51,56.51,0,1,0-97.49,0,72.55,72.55,0,1,0,97.49,0Z"/></clipPath></defs><title>avatar</title><g class="cls-2"><g id="people"><g id="woman"><circle id="shadow" class="cls-3" cx="90.54" cy="134.47" r="81.44"/><g class="cls-4"><circle class="cls-5" cx="90.54" cy="119.04" r="72.55" transform="translate(-57.66 98.89) rotate(-45)"/><path class="Graphic-Style" d="M146.79,177H133.19a1.88,1.88,0,0,0-.52-3.68h-2a5,5,0,0,0,3.88-4.86v-4.18l6.9-14.36a15.26,15.26,0,0,0,.92-14c-1.84-4.21-4.73-9.91-7.82-15.55v-2.91a5,5,0,0,0-4.45-4.94c-3.55-6-6.79-11-8.41-12.58-6-5.77-13-5.56-19.33-6l-1.41-.11v-8.4c.63-.47,1.24-1,1.84-1.51A29.23,29.23,0,0,0,105,81.63q.7-.78,1.35-1.62.32-.42.63-.84.62-.85,1.17-1.74a19.64,19.64,0,0,0,3.28-10,4.24,4.24,0,0,0,4.28-4.2V58.91a4.19,4.19,0,0,0-2.88-4,.85.85,0,0,0,.12-.22c4-12.93,2-26-6-33a6.09,6.09,0,0,0,.89-4.69,5.67,5.67,0,0,0-3.67-6.59,6,6,0,0,0-5.82-5.74,6.39,6.39,0,0,0-11.63-.52A5.44,5.44,0,0,0,80,9.51c0,.1,0,.2,0,.3a6.28,6.28,0,0,0-3,9.9,5.33,5.33,0,0,0-1.05,3.18c0,.09,0,.18,0,.27-6.76,7.23-8.29,19.46-4.52,31.58a.85.85,0,0,0,.12.22,4.19,4.19,0,0,0-2.88,4v4.37a4.24,4.24,0,0,0,4.28,4.2c0,6.45,5.18,14.23,11.2,18.38V89.1h0v4.65l-1.41.11h0c-6.33.48-13.32.28-19.33,6-1.61,1.55-4.85,6.5-8.38,12.52H54a3.5,3.5,0,0,0-3.5,3.5v4.41c-3.09,5.64-6,11.34-7.82,15.55a15.26,15.26,0,0,0,.92,14l6.9,14.37v5.68a3.49,3.49,0,0,0,2.59,3.36h-.7A1.88,1.88,0,0,0,51.9,177H41.32a7.56,7.56,0,0,0,0,15.12H146.79a7.56,7.56,0,0,0,0-15.12Z"/><g id="woman-2" data-name="woman"><g id="woman-3" data-name="woman"><polygon class="cls-6" points="98.94 93.75 98.94 83.04 82.14 83.04 82.14 93.75 77.94 94.08 82.14 121.16 98.94 121.16 103.14 94.08 98.94 93.75"/><polygon class="cls-7" points="82.14 83.11 82.14 89.1 98.94 93.75 98.94 83.11 82.14 83.11"/><path class="cls-8" d="M140.36,135.89c-4.83-11.08-17-32.45-20.68-36-6-5.77-13-5.56-19.33-6l0,.27-9.78,26.74L80.77,94.13l0-.27c-6.33.48-13.32.28-19.33,6-3.69,3.54-15.85,24.91-20.68,36a15.26,15.26,0,0,0,.92,14L54,175.62H87.87l2.67-10.08,2.67,10.08h33.86l12.37-25.75A15.26,15.26,0,0,0,140.36,135.89Z"/><polygon class="cls-9" points="71.13 100.7 80.34 104.18 76.73 109.22 90.54 120.88 80.73 93.86 71.13 100.7"/><polygon class="cls-9" points="109.95 100.7 100.34 93.98 90.54 120.88 104.36 109.22 100.75 104.18 109.95 100.7"/><path class="cls-6" d="M109.43,54.71V46c0-9.28-10.74-21-19.24-21S70.94,36.7,70.94,46v8.74a4.24,4.24,0,0,0-4.28,4.2v4.37a4.24,4.24,0,0,0,4.28,4.2c0,9.28,10.74,21.34,19.24,21.34s19.24-12.06,19.24-21.34a4.24,4.24,0,0,0,4.28-4.2V58.91A4.24,4.24,0,0,0,109.43,54.71Z"/><path class="cls-10" d="M90.19,73.28V88.82c8.5,0,19.24-12.06,19.24-21.34a4.24,4.24,0,0,0,4.28-4.2V58.91a4.24,4.24,0,0,0-4.28-4.2V46c0-9.28-10.74-21-19.24-21V59a57.12,57.12,0,0,0-4.28,13.44Z"/><circle class="cls-7" cx="79.69" cy="60.39" r="3.32" transform="translate(-2.06 2.82) rotate(-2)"/><circle class="cls-11" cx="79.69" cy="59.55" r="3.32" transform="translate(-2.03 2.82) rotate(-2)"/><circle class="cls-9" cx="80.81" cy="58.52" r="0.83" transform="matrix(1, -0.03, 0.03, 1, -1.99, 2.86)"/><path class="cls-11" d="M83.72,56.9a4.84,4.84,0,0,0-3.9-2.68,5.2,5.2,0,0,0-4.74,2.2h-.25a2.46,2.46,0,0,1-.71-.19,3.28,3.28,0,0,1-1-.65.11.11,0,0,0-.12,0,.1.1,0,0,0,0,.14,3.64,3.64,0,0,0,.19.35,3.41,3.41,0,0,0,.56.71,3.29,3.29,0,0,0,.78.56,2.57,2.57,0,0,0,.31.13l.15,0a.54.54,0,0,0,.54-.29,4.54,4.54,0,0,1,4.2-2.15A4,4,0,0,1,83,57.24a.42.42,0,1,0,.77-.33Z"/><circle class="cls-7" cx="100.69" cy="60.39" r="3.32" transform="translate(-2.05 3.55) rotate(-2)"/><circle class="cls-11" cx="100.69" cy="59.55" r="3.32" transform="translate(-2.02 3.55) rotate(-2)"/><circle class="cls-9" cx="101.81" cy="58.52" r="0.83" transform="translate(-1.98 3.59) rotate(-2)"/><path class="cls-11" d="M96.65,56.9a4.84,4.84,0,0,1,3.9-2.68,5.2,5.2,0,0,1,4.74,2.2h.25a2.46,2.46,0,0,0,.71-.19,3.28,3.28,0,0,0,1-.65.11.11,0,0,1,.12,0,.1.1,0,0,1,0,.14,3.64,3.64,0,0,1-.19.35,3.41,3.41,0,0,1-.56.71,3.29,3.29,0,0,1-.78.56,2.57,2.57,0,0,1-.31.13l-.15,0a.54.54,0,0,1-.54-.29,4.54,4.54,0,0,0-4.2-2.15,4,4,0,0,0-3.22,2.18.42.42,0,1,1-.77-.33Z"/><path class="cls-12" d="M106,18.37a6.17,6.17,0,0,0-.14-1.3,5.67,5.67,0,0,0-3.67-6.59,6,6,0,0,0-5.82-5.74,6.39,6.39,0,0,0-11.63-.52A5.44,5.44,0,0,0,78,9.51c0,.1,0,.2,0,.3a6.28,6.28,0,0,0-3,9.9,5.36,5.36,0,0,0,6.47,8.09,4.65,4.65,0,0,0,6.1,4.25A6.43,6.43,0,0,0,99,29a6.2,6.2,0,0,0,3.86-5.24A6.16,6.16,0,0,0,106,18.37Z"/><path class="cls-11" d="M90.19,16.64c-19.65,0-26.64,19.21-20.76,38.1a.84.84,0,0,0,1.64-.19c.76-10.72,5.19-19.74,19.12-15.17,13.93-4.57,18.36,4.45,19.12,15.17a.84.84,0,0,0,1.64.19C116.83,35.85,109.84,16.64,90.19,16.64Z"/><path class="cls-13" d="M96.88,76.38c0,3.3-3,6-6.72,6s-6.72-2.67-6.72-6Z"/><path class="cls-9" d="M84.48,76.38h11.2a0,0,0,0,1,0,0v1.24a1,1,0,0,1-1,1h-9.2a1,1,0,0,1-1-1V76.38A0,0,0,0,1,84.48,76.38Z"/></g><path id="desk" class="cls-14" d="M144.79,177H39.32a7.56,7.56,0,0,0,0,15.12H144.79a7.56,7.56,0,0,0,0-15.12Z"/><g id="computer"><path class="cls-15" d="M130.66,177H50.42a1.88,1.88,0,0,1,0-3.76h80.24a1.88,1.88,0,1,1,0,3.76Z"/><rect class="cls-16" x="48.54" y="112.43" width="84" height="60.98" rx="5" ry="5"/><circle class="cls-17" cx="90.54" cy="140.98" r="6.87"/><path class="cls-18" d="M113.44,112.43H52a3.5,3.5,0,0,0-3.5,3.5v54a3.5,3.5,0,0,0,3.5,3.5h12.1A69.71,69.71,0,0,1,113.44,112.43Z"/></g></g></g></g></g></g></svg>