<?xml version="1.0" encoding="utf-8"?>
<!-- Generator: Adobe Illustrator 21.0.0, SVG Export Plug-In . SVG Version: 6.00 Build 0)  -->
<svg version="1.1" id="Layer_1" xmlns="http://www.w3.org/2000/svg" xmlns:xlink="http://www.w3.org/1999/xlink" x="0px" y="0px"
	 viewBox="0 0 174.1 216.2" style="enable-background:new 0 0 174.1 216.2;" xml:space="preserve">
<style type="text/css">
	.st0{fill:url(#shadow_1_);}
	.st1{clip-path:url(#SVGID_2_);}
	.st2{fill:#F4B350;}
	.st3{fill:#C8C8C8;}
	.st4{fill:#32303A;}
	.st5{fill:#F2AE75;}
	.st6{fill:#DEB4A0;}
	.st7{fill:#FFFFFF;}
	.st8{fill:#96281B;}
	.st9{fill:#E6E7E8;}
	.st10{fill:#4F4C4D;}
	.st11{fill:#727071;}
	.st12{fill:#383643;}
	.st13{fill:#BF8858;}
	.st14{opacity:0.8;fill:#F6CCB8;enable-background:new    ;}
	.st15{fill:#3C2415;}
	.st16{fill:#3C2417;}
	.st17{fill:#F6CCB8;}
</style>
<title>avatar</title>
<g>
	<g id="people">
		<g id="man">
			
				<radialGradient id="shadow_1_" cx="-2862.7188" cy="1940.9683" r="84.7134" gradientTransform="matrix(0.96 0 0 0.96 2834.51 -1727.13)" gradientUnits="userSpaceOnUse">
				<stop  offset="0" style="stop-color:#ADADAE"/>
				<stop  offset="0.4" style="stop-color:#AEAEAF;stop-opacity:0.99"/>
				<stop  offset="0.55" style="stop-color:#B1B1B2;stop-opacity:0.95"/>
				<stop  offset="0.65" style="stop-color:#B7B7B8;stop-opacity:0.88"/>
				<stop  offset="0.73" style="stop-color:#BFBFBF;stop-opacity:0.79"/>
				<stop  offset="0.81" style="stop-color:#C9C9CA;stop-opacity:0.66"/>
				<stop  offset="0.87" style="stop-color:#D6D6D6;stop-opacity:0.5"/>
				<stop  offset="0.93" style="stop-color:#E5E5E5;stop-opacity:0.32"/>
				<stop  offset="0.98" style="stop-color:#F6F6F6;stop-opacity:0.11"/>
				<stop  offset="1" style="stop-color:#FFFFFF;stop-opacity:0"/>
			</radialGradient>
			<circle id="shadow" class="st0" cx="86.3" cy="136.4" r="81.4"/>
			<g>
				<g>
					<defs>
						<path id="SVGID_1_" d="M135,66.3c15.8-26.9,6.8-61.5-20.1-77.3S53.3-17.8,37.5,9.1c-10.4,17.7-10.4,39.5,0,57.2
							c-29.7,26.9-31.9,72.8-5,102.5s72.8,31.9,102.5,5s31.9-72.8,5-102.5C138.4,69.6,136.8,67.9,135,66.3z"/>
					</defs>
					<clipPath id="SVGID_2_">
						<use xlink:href="#SVGID_1_"  style="overflow:visible;"/>
					</clipPath>
					<g class="st1">
						
							<ellipse transform="matrix(0.7071 -0.7071 0.7071 0.7071 -59.5637 96.196)" class="st2" cx="86.3" cy="120" rx="72.6" ry="72.5"/>
						<path class="st3" d="M151.3,133c-5.6-11.4-14.8-21.7-23.3-29.8l0,0c-3.4-3.6-9.8-5-18.5-7.8v-0.6l-8.5-4.4h-2.2v-3.6
							c11.5-4.6,12.3-17.5,12.6-22.4c1.6-0.6,2.7-2.2,2.7-3.9V58c1.3-4.8,2.8-15-1-24c1.9-3.3,2.6-7,2-10.7c-0.2-0.9-1.1-1.5-2-1.3
							c-0.3,0-0.6,0.1-0.8,0.3c-3.3,2.5-5.2-0.5-13-5.8C88,8.7,78.1,13.1,73.5,19.6C59.7,26.2,61.7,47.1,63.6,56v4.2
							c0.1,2,1.3,3.6,3.2,4.1c0.3,4.8,1.2,17.1,11.8,21.9v4h-2.2l-8.5,4.4v0.6l-2.2,0.7l0,0c-12.8,4-21.9,5.2-23.3,13.2
							c-2.6,15.3-5.5,32.5-7.2,51c-0.6,24.1,1.6,54.1,1.6,54.1h1.6l2.5,14.2c0.6,3.5,3.3,6,6.1,5.5c2.7-0.5,4.4-3.7,3.8-7.2
							l-0.3-1.8c0.3,0.1,0.5,0.1,0.8,0.1c1.2-0.1,2-1.1,1.9-2.3c-0.4-3.2-1.9-6.2-4.3-8.4H50c0-0.1,0.3-19.2,0.8-40.6
							c1-6.2,1.7-11,2.3-14.6c0.1,20.4,0,45.8-0.5,55h33.6l2.5-11.8l2.5,11.7h33.6c-0.6-9-0.7-33.8-0.6-54h0.2
							c5.2,0,19.7,0.8,24.1-2.8C151.6,154.7,158,146.6,151.3,133z M136.5,142.9c-1.1,0.9-7.5,0.5-12.1,0.2c0-7.8,0.1-12.9,0.1-12.9
							c0.2-0.1,0.3-0.2,0.4-0.3c3.7,2.9,7.1,6.1,10.3,9.6C137.5,142,136.6,142.9,136.5,142.9L136.5,142.9z"/>
						<g id="man-2">
							<rect x="74.4" y="90.3" class="st4" width="24.6" height="10.4"/>
							<polygon class="st5" points="99.9,93.5 96.8,92 96.8,82 76.6,82 76.6,92 73.4,93.4 74.3,121.7 76.6,121.7 76.6,126 96.8,126 
								96.8,121.7 99.1,121.7 							"/>
							<polygon class="st6" points="76.6,82 76.6,88.8 96.8,91.3 96.8,82 							"/>
							<path class="st7" d="M73.1,93.5l0.8,2.8c1.3,3.7,4.6,9.8,12.5,9.8c8.9,0,12.3-7.8,13.3-11.1l0.4-1.5
								c16.4,6.2,11.4,57.5,11.4,57.5l0.1,42.6H60.3L61,151C61,151,56.8,99.7,73.1,93.5z"/>
							<polygon class="st8" points="81.8,104.7 83.8,108.4 89.6,108.4 91.5,104.7 86.7,100.8 							"/>
							<path class="st9" d="M86.6,100.9l6.2,6.5l10.6-12.7l-6.6-3.3l-2.5,2.3L86.6,100.9z"/>
							<polygon class="st9" points="76.5,91.4 86.7,100.8 80.5,107.3 69.9,94.7 							"/>
							<polygon class="st8" points="83.8,109.3 81.3,186.5 86.7,192.4 92,186.5 89.6,109.3 							"/>
							<path class="st4" d="M44.8,108.4c1.6-9.4,12-9.4,28.4-15.6l13.5,54.7l13.5-54.7c16.4,6.2,26.8,6.2,28.4,15.6
								c2.6,15.2-6.2,21.9-6.2,21.8s-0.7,67.5,0.4,83.8H89.2l-2.6-11.8L84.1,214H50.6c1-16.3,0.3-83.8,0.3-83.8
								S42.1,123.6,44.8,108.4z"/>
							<polygon class="st10" points="107.5,94.7 107.1,104.3 102.3,108.3 106.1,113.4 86.8,147.5 99,90.3 							"/>
							<polygon class="st10" points="65.9,94.7 66.2,104.3 71,108.3 67.3,113.4 86.5,147.5 74.3,90.3 							"/>
							<path class="st11" d="M115.2,133.9v25.5c0,2.8-2.2,5-5,5H100c-2.8,0-5-2.2-5-5v-25.5c0-2.8,2.2-5,5-5h10.2
								C113,128.9,115.2,131.2,115.2,133.9z"/>
							<path class="st3" d="M100.2,128.9h9.7c1.7,0,3.2,0.8,4.2,2.1c-0.9-0.6-2-1-3.1-1h-9.7c-2.9,0-5.3,2.4-5.3,5.3l0,0v25
								c0,1.1,0.4,2.2,1.1,3.1c-1.3-1-2.1-2.6-2.1-4.3v-25C95.1,131.2,97.4,128.9,100.2,128.9z"/>
							<path class="st12" d="M106.7,133.3v0.1c0,0.8-0.6,1.5-1.5,1.5H105c-0.8,0-1.5-0.6-1.5-1.5v-0.1c0-0.8,0.6-1.5,1.5-1.5h0.2
								C106.1,131.8,106.8,132.5,106.7,133.3z"/>
							<path class="st13" d="M48.7,226.6l-3.1-17.8l-9.9,1.8l3.1,17.8c0.6,3.5,3.3,6,6.1,5.5C47.7,233.4,49.4,230.1,48.7,226.6z"/>
							<path class="st13" d="M51.1,222.6c-0.5-6.3-6.4-10.2-6.6-10.4c-1-0.6-2.3-0.4-2.9,0.6c0,0.1,0,0.1,0,0.1
								c-0.7,1-0.4,2.3,0.6,3c0.1,0,4.3,3,4.7,7.1c0.1,1.2,1,2.1,2.2,2c1.2-0.1,2.1-1,2-2.2C51.1,222.7,51.1,222.7,51.1,222.6
								L51.1,222.6z"/>
							<path class="st4" d="M63.7,95.9c-12.8,4-21.9,5.2-23.3,13.2c-2.6,15.3-5.5,32.5-7.2,51c-0.6,24.1,1.6,54.1,1.6,54.1H48
								c0-0.1,0.3-19.2,0.8-40.6c2.4-15.6,3.5-22.5,3.6-22.6l14.2-45C66.4,105.5,64.8,98.7,63.7,95.9z"/>
							<path class="st5" d="M111,143.6c0,0,4,0.5,7,0.7l2.2,0.1l1.9,0.1h1.9l0.3,12.6H122l-2.3-0.1l-2.6-0.2
								c-3.6-0.2-7.8-0.7-7.8-0.7c-2.7-0.3-4.4-3.5-3.8-6.9S108.5,143.4,111,143.6z"/>
							<path class="st5" d="M115.1,140.5c2,0.4,3.7,1.5,4.9,3.2c0.8,0.9,1.4,1.9,2,3c0.5,0.9,0.4,2.1-0.3,2.9
								c-0.5,0.5-1.3,0.5-1.8,0c-0.1-0.1-0.2-0.3-0.3-0.5c0,0-0.1-0.3-0.4-0.7c-0.3-0.5-0.6-1-1-1.5c-0.8-1.2-2.1-2-3.5-2.3
								c-0.8-0.1-1.3-1.2-1.2-2.3S114.4,140.3,115.1,140.5z"/>
							<path class="st4" d="M122.5,160c5.2,0,19.7,0.8,24.1-2.8c3-2.5,9.4-10.6,2.7-24.3c-5.6-11.4-14.8-21.7-23.3-29.8l-15,16.8
								c7.9,7.4,14.8,11.3,22.2,19.6c2.3,2.5,1.4,3.3,1.3,3.4c-1.2,1-8.4,0.5-13.1,0.1l-1.2,16.7C120.9,159.9,121.7,159.9,122.5,160
								z"/>
							<path class="st5" d="M108.8,51.9l0.7-8.9c0-11.6-11.1-21-22.7-21s-22.7,9.4-22.7,21l0.7,8.9c-0.6,0.2-1.2,0.5-1.7,0.9
								c-1,0.8-1.5,2-1.5,3.2v4.4c0,2.3,1.9,4.2,4.2,4.2c0,11,13.2,21.3,21,21.3s21-10.3,21-21.3c2.3,0,4.2-1.9,4.2-4.2V56
								C112,54.1,110.7,52.4,108.8,51.9z"/>
							<path class="st14" d="M108.8,52l0.7-8.9c0-11.6-11.1-21-22.7-21v29.8c-3.1,6.5-5,16-5,16h5v18c7.9,0,21-10.3,21-21.3
								c2.3,0,4.2-1.9,4.2-4.2V56C112,54.1,110.7,52.4,108.8,52z"/>
							<path class="st15" d="M87,17.9c-33.9-4.5-27,34-24.7,41.2c0.6,1.3,1.3,2.4,2.2,3.4c0.7,1.3-1.8,26,22.5,26s21.8-24.7,22.5-26
								c0.9-1,1.6-2.2,2.2-3.4C114,51.8,118.9,22.1,87,17.9z M106.8,61.7c0,2.7-1.7,6.8-4.2,8.6c-1,0.8-2.4,0.9-3.6,0.4
								c-2-0.8-6.5-1.6-12-1.6s-10,0.7-12,1.6c-1.2,0.5-2.6,0.4-3.6-0.4c-2.4-1.8-4.1-5.8-4.1-8.6c0,0-3.3-12-0.8-20.9
								c1.3-4.4,6.7-6.9,11.1-5.8c3,0.8,6.2,1.1,9.4,1.1s6.4-0.4,9.5-1.1c4.5-1.1,9.9,1.4,11.1,5.8
								C110.1,49.6,106.8,61.7,106.8,61.7L106.8,61.7z"/>
							<path class="st16" d="M97.3,16.5c7.7,5.3,9.6,8.3,13,5.8c0.8-0.6,1.8-0.5,2.4,0.2c0.1,0.3,0.2,0.5,0.3,0.8
								c2.3,18.2-20,25.4-41.1,10.3C62,26.5,77.5,2.9,97.3,16.5z"/>
							<path class="st5" d="M81.4,73.6h11c0.2,0,0.4,0.2,0.4,0.4c0,0.1,0,0.2-0.1,0.3C91.9,75,90.2,76,86.9,76s-5-1-5.8-1.7
								c-0.1-0.1-0.1-0.3,0-0.5C81.1,73.8,81.2,73.7,81.4,73.6z"/>
							
								<ellipse transform="matrix(0.9994 -3.489918e-02 3.489918e-02 0.9994 -1.9323 2.7252)" class="st17" cx="77.1" cy="56.7" rx="3.3" ry="3.3"/>
							
								<ellipse transform="matrix(0.9994 -3.489918e-02 3.489918e-02 0.9994 -1.903 2.7234)" class="st16" cx="77.1" cy="55.9" rx="3.3" ry="3.3"/>
							
								<ellipse transform="matrix(0.9994 -3.489918e-02 3.489918e-02 0.9994 -1.8655 2.7644)" class="st7" cx="78.3" cy="54.8" rx="0.8" ry="0.8"/>
							
								<ellipse transform="matrix(0.9994 -3.489918e-02 3.489918e-02 0.9994 -1.9201 3.3996)" class="st17" cx="96.4" cy="56.7" rx="3.3" ry="3.3"/>
							
								<ellipse transform="matrix(0.9994 -3.489918e-02 3.489918e-02 0.9994 -1.8908 3.3977)" class="st16" cx="96.4" cy="55.9" rx="3.3" ry="3.3"/>
							
								<ellipse transform="matrix(0.9994 -3.489918e-02 3.489918e-02 0.9994 -1.8529 3.4391)" class="st7" cx="97.6" cy="54.8" rx="0.8" ry="0.8"/>
							<path class="st4" d="M110.2,48.4h-4.6c-2-0.9-4.1-1.3-6.3-1.2c-4.7,0-7.9,0.9-9.5,2.7c-1.9-1.2-4.4-1.2-6.4,0
								c-1.6-1.7-4.8-2.6-9.5-2.6c-2.2-0.1-4.3,0.3-6.3,1.2h-4.8v3.3l1.5,0.5c-0.1,0.6-0.2,1.2-0.2,1.8c0,4.1,1,9.5,9.6,9.5
								c7.6,0,9.7-4.7,10.6-9.3c0.2-0.7,0.2-1.3,0.1-2c0.6-0.4,1.3-0.5,2-0.5s1.4,0.2,2,0.5c-0.1,0.7,0,1.3,0.1,2
								c1,4.6,3,9.3,10.6,9.3c8.6,0,9.6-5.4,9.6-9.5c0-0.6-0.1-1.2-0.2-1.8l1.5-0.5L110.2,48.4z M82.8,53.9c-1,4.8-2.9,8-9,8
								c-6.9,0-7.9-3.8-7.9-7.8c0-1.3,0-5.2,7.9-5.2c5.4,0,7.6,1.3,8.4,2.3C82.8,52,83.1,53,82.8,53.9z M99.3,61.9
								c-6.1,0-8-3.2-9.1-7.9c-0.2-1,0-2,0.6-2.8c0.8-1,3-2.3,8.4-2.3c7.9,0,7.9,3.9,7.9,5.2C107.2,58.1,106.2,61.9,99.3,61.9
								L99.3,61.9z"/>
						</g>
					</g>
				</g>
			</g>
		</g>
	</g>
</g>
</svg>
