<svg xmlns="http://www.w3.org/2000/svg" xmlns:xlink="http://www.w3.org/1999/xlink" viewBox="0 0 174.13 212.23"><defs><style>.cls-1{fill:none;}.cls-2{isolation:isolate;}.Graphic-Style,.cls-13,.cls-14,.cls-3,.cls-7{mix-blend-mode:multiply;}.cls-3{fill:url(#radial-gradient);}.cls-4{clip-path:url(#clip-path);}.cls-5{fill:#ffcaac;}.Graphic-Style{fill:#c8c8c8;}.cls-13,.cls-6,.cls-7{fill:#f6ccb8;}.cls-21,.cls-22,.cls-8{fill:#fff;}.cls-9{fill:#f15d44;}.cls-10{fill:#e6e7e8;}.cls-11{fill:#42404d;}.cls-12{fill:#4f4c4d;}.cls-13{opacity:0.8;}.cls-14{fill:#f7cdb9;}.cls-15{fill:#3c2415;}.cls-16{fill:#4f3c30;}.cls-17{fill:#43414d;}.cls-18{fill:#686671;}.cls-19{fill:#adadae;}.cls-20{fill:#e1e1e1;}.cls-21{opacity:0.5;}.cls-22{opacity:0.2;}</style><radialGradient id="radial-gradient" cx="49.26" cy="118.74" r="84.66" gradientTransform="translate(43.77 19.4) scale(0.96)" gradientUnits="userSpaceOnUse"><stop offset="0" stop-color="#adadae"/><stop offset="0.4" stop-color="#aeaeaf" stop-opacity="0.99"/><stop offset="0.55" stop-color="#b1b1b2" stop-opacity="0.95"/><stop offset="0.65" stop-color="#b7b7b8" stop-opacity="0.88"/><stop offset="0.73" stop-color="#bfbfbf" stop-opacity="0.79"/><stop offset="0.81" stop-color="#c9c9ca" stop-opacity="0.66"/><stop offset="0.87" stop-color="#d6d6d6" stop-opacity="0.5"/><stop offset="0.93" stop-color="#e5e5e5" stop-opacity="0.32"/><stop offset="0.98" stop-color="#f6f6f6" stop-opacity="0.11"/><stop offset="1" stop-color="#fff" stop-opacity="0"/></radialGradient><clipPath id="clip-path"><path class="cls-1" d="M139.91,64.47a56.51,56.51,0,1,0-97.49,0,72.55,72.55,0,1,0,97.49,0Z"/></clipPath></defs><title>avatar</title><g class="cls-2"><g id="people"><g id="man"><circle id="shadow" class="cls-3" cx="91.16" cy="133.63" r="81.44"/><g class="cls-4"><circle class="cls-5" cx="91.16" cy="118.2" r="72.55" transform="translate(-56.88 99.08) rotate(-45)"/><path class="Graphic-Style" d="M145.9,176.11h-12.1a1.87,1.87,0,0,0,.4-3.43,11.09,11.09,0,0,0,.68-.89c3-4.49,10-18.64,13.44-29.05a22.9,22.9,0,0,0-.07-14.49c-3.09-9.11-9-28.26-10.63-31.91-3.11-6.79-12.06-7.65-23.69-10.81l0-1-8.48-4.36-.4,1.89-1.72-.86-.1.1V77.59c11.65-5,12-18.58,12.26-22.86a4.18,4.18,0,0,0,2.86-4V48C120.82,36.42,124.1-5.15,84.66,7,63.76,0,65.75,36.16,68,47.67v3.1a4.18,4.18,0,0,0,2.92,4c.25,4.3.62,17.83,12.21,22.82v3.77l-.11-.1-1.73.86-.4-1.89-8.48,4.36,0,1c-11.63,3.16-20.58,4-23.69,10.81-1.65,3.65-7.54,22.8-10.63,31.91A22.91,22.91,0,0,0,38,142.74c3.41,10.41,10.41,24.56,13.44,29a11,11,0,0,0,.68.89,1.87,1.87,0,0,0,.4,3.43H40.42a7.56,7.56,0,1,0,0,15.12H145.9a7.56,7.56,0,0,0,0-15.12Z"/><g id="man-2" data-name="man"><g id="man-3" data-name="man"><polygon class="cls-6" points="104.39 83.33 101.25 81.88 101.25 71.06 81.09 71.06 81.09 81.88 77.94 83.24 78.78 111.56 81.09 111.56 81.09 115.91 101.25 115.91 101.25 111.56 103.55 111.56 104.39 83.33"/><polygon class="cls-7" points="81.09 71.06 81.09 79.97 101.25 81.23 101.25 71.06 81.09 71.06"/><path class="cls-8" d="M104.67,83.4l-.75,2.81C102.63,89.92,99.3,96,91.41,96c-8.9,0-12.3-7.73-13.35-11.08l-.4-1.52c-16.4,6.16-11.37,57.51-11.37,57.51l-.1,42.65h51.38l-.69-42.65S121.07,89.56,104.67,83.4Z"/><polygon class="cls-9" points="96.02 94.61 94.08 98.32 88.19 98.32 86.31 94.61 91.16 90.64 96.02 94.61"/><path class="cls-10" d="M91.16,90.64,85,97.17,74.36,84.52,81,81.23l2.49,2.3Z"/><polygon class="cls-10" points="101.35 81.23 91.16 90.64 97.36 97.17 107.96 84.52 101.35 81.23"/><polygon class="cls-9" points="94.08 99.2 96.48 176.38 91.16 182.25 85.85 176.38 88.19 99.2 94.08 99.2"/><path class="cls-11" d="M146.32,142.73a22.9,22.9,0,0,0-.07-14.49c-3.09-9.11-9-28.26-10.63-31.91-3.7-8.06-15.6-7.76-30.47-12.87l-1.61-.56h0c-.87,5.11-12.39,54.47-12.39,54.47S79.65,88,78.77,82.9h0l-1.61.56C62.3,88.58,50.4,88.28,46.7,96.34c-1.65,3.65-7.54,22.8-10.63,31.91A22.91,22.91,0,0,0,36,142.74c3.41,10.41,10.41,24.56,13.44,29,2.69,4,7.39,5.45,10.79,4.32-.46,2.15-.61,3.75-.13,3.75H91.16v0h31.05c.49,0,.34-1.6-.13-3.75,3.4,1.12,8.1-.32,10.79-4.32C135.91,167.29,142.91,153.14,146.32,142.73Z"/><polygon class="cls-12" points="70.36 84.56 70.69 94.19 75.5 98.15 71.76 103.27 91.04 137.37 78.85 80.19 70.36 84.56"/><polygon class="cls-12" points="111.96 84.56 111.63 94.19 106.82 98.15 110.57 103.27 91.29 137.37 103.48 80.19 111.96 84.56"/><g id="man-4" data-name="man"><path class="cls-6" d="M113.16,42.33l.68-8.87c0-11.6-11.09-21-22.68-21s-22.68,9.4-22.68,21l.68,8.86a4.11,4.11,0,0,0-1.72.87A4.18,4.18,0,0,0,66,46.4v4.37A4.19,4.19,0,0,0,70.14,55c0,11,13.16,21.34,21,21.34s21-10.38,21-21.34a4.2,4.2,0,0,0,4.17-4.2V46.4A4.19,4.19,0,0,0,113.16,42.33Z"/><path class="cls-13" d="M113.16,42.33l.68-8.87c0-11.6-11.09-21-22.68-21V42.28c-3.06,6.52-5,16-5,16h5V76.3c7.87,0,21-10.38,21-21.34a4.2,4.2,0,0,0,4.17-4.2V46.4A4.19,4.19,0,0,0,113.16,42.33Z"/><circle class="cls-14" cx="81.58" cy="47.23" r="3.32" transform="translate(-1.6 2.88) rotate(-2)"/><circle class="cls-15" cx="81.58" cy="46.39" r="3.32" transform="translate(-1.57 2.87) rotate(-2)"/><circle class="cls-8" cx="82.7" cy="47.88" r="0.83" transform="translate(-1.62 2.92) rotate(-2)"/><circle class="cls-14" cx="100.9" cy="47.23" r="3.32" transform="translate(-1.59 3.55) rotate(-2)"/><circle class="cls-15" cx="100.9" cy="46.39" r="3.32" transform="translate(-1.56 3.55) rotate(-2)"/><circle class="cls-8" cx="102.02" cy="47.88" r="0.83" transform="translate(-1.61 3.59) rotate(-2)"/><path class="cls-16" d="M82.66,7C59.91-.58,64.28,42.86,66.54,50.1a13.17,13.17,0,0,0,2.19,3.36c.69,1.29-1.82,26,22.47,26s21.78-24.69,22.47-26a13.17,13.17,0,0,0,2.19-3.36C118.11,42.86,125-6,82.66,7Zm28.26,45.76c0,2.75-1.69,6.83-4.1,8.64a3.63,3.63,0,0,1-3.6.4c-2-.86-6.48-1.62-12-1.62s-10,.77-12,1.63a3.63,3.63,0,0,1-3.6-.4c-2.4-1.81-4.1-5.89-4.1-8.64,0,0-3.35-12.07-.83-20.93,1.25-4.39,6.63-6.86,11.05-5.75a40,40,0,0,0,9.5,1.08A40.05,40.05,0,0,0,100.7,26c4.43-1.11,9.81,1.36,11.05,5.75C114.27,40.67,110.92,52.73,110.92,52.73Z"/><path class="cls-6" d="M85.68,64.1h11a.38.38,0,0,1,.26.66c-.79.71-2.49,1.74-5.76,1.74s-5-1-5.76-1.74A.38.38,0,0,1,85.68,64.1Z"/><path class="cls-17" d="M114,40.49h-4.55a13.43,13.43,0,0,0-6.26-1.23c-4.68,0-7.86.9-9.49,2.65a6.19,6.19,0,0,0-6.43,0c-1.63-1.74-4.81-2.64-9.48-2.64a13.43,13.43,0,0,0-6.26,1.23H66.93v3.27l1.5.53a7.58,7.58,0,0,0-.22,1.84c0,4.94,1.56,7.8,9.55,7.8,6.75,0,9.43-1.93,10.61-7.63a5.56,5.56,0,0,0,.06-2,3.69,3.69,0,0,1,2-.45,3.63,3.63,0,0,1,2,.47,5.57,5.57,0,0,0,.07,2c1.18,5.7,3.86,7.63,10.61,7.63,8,0,9.55-2.86,9.55-7.8a7.57,7.57,0,0,0-.22-1.85l1.47-.52ZM86.74,46c-1,4.94-3,6.29-9,6.29-7.33,0-7.87-2.42-7.87-6.12,0-1.28,0-5.19,7.87-5.19,5.43,0,7.57,1.23,8.41,2.26A3.16,3.16,0,0,1,86.74,46Zm16.43,6.29c-6,0-7.94-1.35-9-6.29a3.16,3.16,0,0,1,.55-2.76c.84-1,3-2.26,8.41-2.26,7.87,0,7.87,3.91,7.87,5.19C111,49.83,110.49,52.25,103.16,52.25Z"/></g></g><path id="desk" class="cls-18" d="M143.9,176.11H38.42a7.56,7.56,0,1,0,0,15.12H143.9a7.56,7.56,0,0,0,0-15.12Z"/><g id="computer"><path class="cls-19" d="M131.28,176.19H51a1.88,1.88,0,1,1,0-3.76h80.24a1.88,1.88,0,1,1,0,3.76Z"/><rect class="cls-20" x="49.16" y="111.58" width="84" height="60.98" rx="5" ry="5"/><circle class="cls-21" cx="91.16" cy="140.14" r="6.87"/><path class="cls-22" d="M114.06,111.58H52.66a3.5,3.5,0,0,0-3.5,3.5v54a3.5,3.5,0,0,0,3.5,3.5h12.1A69.71,69.71,0,0,1,114.06,111.58Z"/></g></g></g></g></g></g></svg>