<?xml version="1.0" encoding="utf-8"?>
<!-- Generator: Adobe Illustrator 21.0.0, SVG Export Plug-In . SVG Version: 6.00 Build 0)  -->
<svg version="1.1" id="Layer_1" xmlns="http://www.w3.org/2000/svg" xmlns:xlink="http://www.w3.org/1999/xlink" x="0px" y="0px"
	 viewBox="0 0 517 220" style="enable-background:new 0 0 517 220;" xml:space="preserve">
<style type="text/css">
	.st0{fill:#F5D077;}
	.st1{fill:#FFFFFF;}
	.st2{fill:#FFFFFF;stroke:#FFFFFF;stroke-width:9.000000e-02;stroke-miterlimit:10;}
	.st3{fill:none;stroke:#FFFFFF;stroke-width:1.11;stroke-linecap:round;stroke-miterlimit:10;}
	.st4{fill:none;stroke:#FFFFFF;stroke-width:1.29;stroke-linecap:round;stroke-miterlimit:10;}
	.st5{fill:#FCFBFA;}
	.st6{font-family:'Lato-Bold';}
	.st7{font-size:10.18px;}
	.st8{fill:#201600;}
	.st9{font-size:6.12px;}
</style>
<title>image</title>
<rect class="st0" width="517" height="220"/>
<g>
	<circle class="st1" cx="452" cy="11.1" r="0.6"/>
	<circle class="st1" cx="446.9" cy="11.1" r="0.6"/>
	<circle class="st1" cx="441.8" cy="11.1" r="0.6"/>
	<circle class="st1" cx="436.8" cy="11.1" r="0.6"/>
	<circle class="st1" cx="431.7" cy="11.1" r="0.6"/>
	<circle class="st1" cx="426.7" cy="11.1" r="0.6"/>
	<circle class="st1" cx="421.6" cy="11.1" r="0.6"/>
	<circle class="st1" cx="416.6" cy="11.1" r="0.6"/>
	<circle class="st1" cx="411.5" cy="11.1" r="0.6"/>
	<circle class="st1" cx="406.5" cy="11.1" r="0.6"/>
	<circle class="st1" cx="401.4" cy="11.1" r="0.6"/>
	<circle class="st1" cx="396.4" cy="11.1" r="0.6"/>
	<circle class="st1" cx="452" cy="17" r="0.6"/>
	<circle class="st1" cx="446.9" cy="17" r="0.6"/>
	<circle class="st1" cx="441.8" cy="17" r="0.6"/>
	<circle class="st1" cx="436.8" cy="17" r="0.6"/>
	<circle class="st1" cx="431.7" cy="17" r="0.6"/>
	<circle class="st1" cx="426.7" cy="17" r="0.6"/>
	<circle class="st1" cx="421.6" cy="17" r="0.6"/>
	<circle class="st1" cx="416.6" cy="17" r="0.6"/>
	<circle class="st1" cx="411.5" cy="17" r="0.6"/>
	<circle class="st1" cx="406.5" cy="17" r="0.6"/>
	<circle class="st1" cx="401.4" cy="17" r="0.6"/>
	<circle class="st1" cx="396.4" cy="17" r="0.6"/>
	<circle class="st1" cx="452" cy="22.9" r="0.6"/>
	<circle class="st1" cx="446.9" cy="22.9" r="0.6"/>
	<circle class="st1" cx="441.8" cy="22.9" r="0.6"/>
	<circle class="st1" cx="436.8" cy="22.9" r="0.6"/>
	<circle class="st1" cx="431.7" cy="22.9" r="0.6"/>
	<circle class="st1" cx="426.7" cy="22.9" r="0.6"/>
	<circle class="st1" cx="421.6" cy="22.9" r="0.6"/>
	<circle class="st1" cx="416.6" cy="22.9" r="0.6"/>
	<circle class="st1" cx="411.5" cy="22.9" r="0.6"/>
	<circle class="st1" cx="406.5" cy="22.9" r="0.6"/>
	<circle class="st1" cx="401.4" cy="22.9" r="0.6"/>
	<circle class="st1" cx="396.4" cy="22.9" r="0.6"/>
</g>
<g>
	<circle class="st2" cx="42.7" cy="25" r="0.6"/>
	<circle class="st2" cx="47.7" cy="25" r="0.6"/>
	<circle class="st2" cx="52.8" cy="25" r="0.6"/>
	<circle class="st2" cx="57.8" cy="25" r="0.6"/>
	<circle class="st2" cx="42.7" cy="19.1" r="0.6"/>
	<circle class="st2" cx="47.7" cy="19.1" r="0.6"/>
	<circle class="st2" cx="52.8" cy="19.1" r="0.6"/>
	<circle class="st2" cx="57.8" cy="19.1" r="0.6"/>
	<circle class="st2" cx="42.7" cy="13.2" r="0.6"/>
	<circle class="st2" cx="47.7" cy="13.2" r="0.6"/>
	<circle class="st2" cx="52.8" cy="13.2" r="0.6"/>
	<circle class="st2" cx="57.8" cy="13.2" r="0.6"/>
</g>
<g>
	<line class="st3" x1="207.7" y1="31.1" x2="203.5" y2="31.1"/>
	<line class="st3" x1="205.6" y1="29" x2="205.6" y2="33.2"/>
</g>
<g>
	<line class="st3" x1="120.5" y1="61" x2="116.3" y2="61"/>
	<line class="st3" x1="118.4" y1="58.9" x2="118.4" y2="63.1"/>
</g>
<circle class="st4" cx="464.6" cy="76.3" r="3.2"/>
<circle class="st3" cx="58.5" cy="115.4" r="2.7"/>
<polygon class="st1" points="80.9,28.3 78.4,28.5 79.8,30.5 "/>
<polygon class="st1" points="442.9,41.3 432.7,42.2 438.6,50.6 "/>
<g>
	<circle class="st1" cx="452" cy="11.1" r="0.6"/>
	<circle class="st1" cx="446.9" cy="11.1" r="0.6"/>
	<circle class="st1" cx="441.8" cy="11.1" r="0.6"/>
	<circle class="st1" cx="436.8" cy="11.1" r="0.6"/>
	<circle class="st1" cx="431.7" cy="11.1" r="0.6"/>
	<circle class="st1" cx="426.7" cy="11.1" r="0.6"/>
	<circle class="st1" cx="421.6" cy="11.1" r="0.6"/>
	<circle class="st1" cx="416.6" cy="11.1" r="0.6"/>
	<circle class="st1" cx="411.5" cy="11.1" r="0.6"/>
	<circle class="st1" cx="406.5" cy="11.1" r="0.6"/>
	<circle class="st1" cx="401.4" cy="11.1" r="0.6"/>
	<circle class="st1" cx="396.4" cy="11.1" r="0.6"/>
	<circle class="st1" cx="452" cy="17" r="0.6"/>
	<circle class="st1" cx="446.9" cy="17" r="0.6"/>
	<circle class="st1" cx="441.8" cy="17" r="0.6"/>
	<circle class="st1" cx="436.8" cy="17" r="0.6"/>
	<circle class="st1" cx="431.7" cy="17" r="0.6"/>
	<circle class="st1" cx="426.7" cy="17" r="0.6"/>
	<circle class="st1" cx="421.6" cy="17" r="0.6"/>
	<circle class="st1" cx="416.6" cy="17" r="0.6"/>
	<circle class="st1" cx="411.5" cy="17" r="0.6"/>
	<circle class="st1" cx="406.5" cy="17" r="0.6"/>
	<circle class="st1" cx="401.4" cy="17" r="0.6"/>
	<circle class="st1" cx="396.4" cy="17" r="0.6"/>
	<circle class="st1" cx="452" cy="22.9" r="0.6"/>
	<circle class="st1" cx="446.9" cy="22.9" r="0.6"/>
	<circle class="st1" cx="441.8" cy="22.9" r="0.6"/>
	<circle class="st1" cx="436.8" cy="22.9" r="0.6"/>
	<circle class="st1" cx="431.7" cy="22.9" r="0.6"/>
	<circle class="st1" cx="426.7" cy="22.9" r="0.6"/>
	<circle class="st1" cx="421.6" cy="22.9" r="0.6"/>
	<circle class="st1" cx="416.6" cy="22.9" r="0.6"/>
	<circle class="st1" cx="411.5" cy="22.9" r="0.6"/>
	<circle class="st1" cx="406.5" cy="22.9" r="0.6"/>
	<circle class="st1" cx="401.4" cy="22.9" r="0.6"/>
	<circle class="st1" cx="396.4" cy="22.9" r="0.6"/>
</g>
<g>
	<circle class="st2" cx="42.7" cy="25" r="0.6"/>
	<circle class="st2" cx="47.7" cy="25" r="0.6"/>
	<circle class="st2" cx="52.8" cy="25" r="0.6"/>
	<circle class="st2" cx="57.8" cy="25" r="0.6"/>
	<circle class="st2" cx="42.7" cy="19.1" r="0.6"/>
	<circle class="st2" cx="47.7" cy="19.1" r="0.6"/>
	<circle class="st2" cx="52.8" cy="19.1" r="0.6"/>
	<circle class="st2" cx="57.8" cy="19.1" r="0.6"/>
	<circle class="st2" cx="42.7" cy="13.2" r="0.6"/>
	<circle class="st2" cx="47.7" cy="13.2" r="0.6"/>
	<circle class="st2" cx="52.8" cy="13.2" r="0.6"/>
	<circle class="st2" cx="57.8" cy="13.2" r="0.6"/>
</g>
<g>
	<line class="st3" x1="207.7" y1="31.1" x2="203.5" y2="31.1"/>
	<line class="st3" x1="205.6" y1="29" x2="205.6" y2="33.2"/>
</g>
<g>
	<line class="st3" x1="120.5" y1="61" x2="116.3" y2="61"/>
	<line class="st3" x1="118.4" y1="58.9" x2="118.4" y2="63.1"/>
</g>
<circle class="st4" cx="464.6" cy="76.3" r="3.2"/>
<circle class="st3" cx="58.5" cy="115.4" r="2.7"/>
<polygon class="st1" points="80.9,28.3 78.4,28.5 79.8,30.5 "/>
<polygon class="st1" points="442.9,41.3 432.7,42.2 438.6,50.6 "/>
<g>
	<circle class="st1" cx="452" cy="11.1" r="0.6"/>
	<circle class="st1" cx="446.9" cy="11.1" r="0.6"/>
	<circle class="st1" cx="441.8" cy="11.1" r="0.6"/>
	<circle class="st1" cx="436.8" cy="11.1" r="0.6"/>
	<circle class="st1" cx="431.7" cy="11.1" r="0.6"/>
	<circle class="st1" cx="426.7" cy="11.1" r="0.6"/>
	<circle class="st1" cx="421.6" cy="11.1" r="0.6"/>
	<circle class="st1" cx="416.6" cy="11.1" r="0.6"/>
	<circle class="st1" cx="411.5" cy="11.1" r="0.6"/>
	<circle class="st1" cx="406.5" cy="11.1" r="0.6"/>
	<circle class="st1" cx="401.4" cy="11.1" r="0.6"/>
	<circle class="st1" cx="396.4" cy="11.1" r="0.6"/>
	<circle class="st1" cx="452" cy="17" r="0.6"/>
	<circle class="st1" cx="446.9" cy="17" r="0.6"/>
	<circle class="st1" cx="441.8" cy="17" r="0.6"/>
	<circle class="st1" cx="436.8" cy="17" r="0.6"/>
	<circle class="st1" cx="431.7" cy="17" r="0.6"/>
	<circle class="st1" cx="426.7" cy="17" r="0.6"/>
	<circle class="st1" cx="421.6" cy="17" r="0.6"/>
	<circle class="st1" cx="416.6" cy="17" r="0.6"/>
	<circle class="st1" cx="411.5" cy="17" r="0.6"/>
	<circle class="st1" cx="406.5" cy="17" r="0.6"/>
	<circle class="st1" cx="401.4" cy="17" r="0.6"/>
	<circle class="st1" cx="396.4" cy="17" r="0.6"/>
	<circle class="st1" cx="452" cy="22.9" r="0.6"/>
	<circle class="st1" cx="446.9" cy="22.9" r="0.6"/>
	<circle class="st1" cx="441.8" cy="22.9" r="0.6"/>
	<circle class="st1" cx="436.8" cy="22.9" r="0.6"/>
	<circle class="st1" cx="431.7" cy="22.9" r="0.6"/>
	<circle class="st1" cx="426.7" cy="22.9" r="0.6"/>
	<circle class="st1" cx="421.6" cy="22.9" r="0.6"/>
	<circle class="st1" cx="416.6" cy="22.9" r="0.6"/>
	<circle class="st1" cx="411.5" cy="22.9" r="0.6"/>
	<circle class="st1" cx="406.5" cy="22.9" r="0.6"/>
	<circle class="st1" cx="401.4" cy="22.9" r="0.6"/>
	<circle class="st1" cx="396.4" cy="22.9" r="0.6"/>
</g>
<g>
	<circle class="st2" cx="42.7" cy="25" r="0.6"/>
	<circle class="st2" cx="47.7" cy="25" r="0.6"/>
	<circle class="st2" cx="52.8" cy="25" r="0.6"/>
	<circle class="st2" cx="57.8" cy="25" r="0.6"/>
	<circle class="st2" cx="42.7" cy="19.1" r="0.6"/>
	<circle class="st2" cx="47.7" cy="19.1" r="0.6"/>
	<circle class="st2" cx="52.8" cy="19.1" r="0.6"/>
	<circle class="st2" cx="57.8" cy="19.1" r="0.6"/>
	<circle class="st2" cx="42.7" cy="13.2" r="0.6"/>
	<circle class="st2" cx="47.7" cy="13.2" r="0.6"/>
	<circle class="st2" cx="52.8" cy="13.2" r="0.6"/>
	<circle class="st2" cx="57.8" cy="13.2" r="0.6"/>
</g>
<g>
	<line class="st3" x1="207.7" y1="31.1" x2="203.5" y2="31.1"/>
	<line class="st3" x1="205.6" y1="29" x2="205.6" y2="33.2"/>
</g>
<g>
	<line class="st3" x1="120.5" y1="61" x2="116.3" y2="61"/>
	<line class="st3" x1="118.4" y1="58.9" x2="118.4" y2="63.1"/>
</g>
<circle class="st4" cx="464.6" cy="76.3" r="3.2"/>
<circle class="st3" cx="58.5" cy="115.4" r="2.7"/>
<polygon class="st1" points="80.9,28.3 78.4,28.5 79.8,30.5 "/>
<polygon class="st1" points="442.9,41.3 432.7,42.2 438.6,50.6 "/>
<text transform="matrix(1 0 0 1 183.58 184.77)" class="st5 st6 st7"> Aglaonema / Chinese Evergreen</text>
<g>
	<circle class="st1" cx="452" cy="11.1" r="0.6"/>
	<circle class="st1" cx="446.9" cy="11.1" r="0.6"/>
	<circle class="st1" cx="441.8" cy="11.1" r="0.6"/>
	<circle class="st1" cx="436.8" cy="11.1" r="0.6"/>
	<circle class="st1" cx="431.7" cy="11.1" r="0.6"/>
	<circle class="st1" cx="426.7" cy="11.1" r="0.6"/>
	<circle class="st1" cx="421.6" cy="11.1" r="0.6"/>
	<circle class="st1" cx="416.6" cy="11.1" r="0.6"/>
	<circle class="st1" cx="411.5" cy="11.1" r="0.6"/>
	<circle class="st1" cx="406.5" cy="11.1" r="0.6"/>
	<circle class="st1" cx="401.4" cy="11.1" r="0.6"/>
	<circle class="st1" cx="396.4" cy="11.1" r="0.6"/>
	<circle class="st1" cx="452" cy="17" r="0.6"/>
	<circle class="st1" cx="446.9" cy="17" r="0.6"/>
	<circle class="st1" cx="441.8" cy="17" r="0.6"/>
	<circle class="st1" cx="436.8" cy="17" r="0.6"/>
	<circle class="st1" cx="431.7" cy="17" r="0.6"/>
	<circle class="st1" cx="426.7" cy="17" r="0.6"/>
	<circle class="st1" cx="421.6" cy="17" r="0.6"/>
	<circle class="st1" cx="416.6" cy="17" r="0.6"/>
	<circle class="st1" cx="411.5" cy="17" r="0.6"/>
	<circle class="st1" cx="406.5" cy="17" r="0.6"/>
	<circle class="st1" cx="401.4" cy="17" r="0.6"/>
	<circle class="st1" cx="396.4" cy="17" r="0.6"/>
	<circle class="st1" cx="452" cy="22.9" r="0.6"/>
	<circle class="st1" cx="446.9" cy="22.9" r="0.6"/>
	<circle class="st1" cx="441.8" cy="22.9" r="0.6"/>
	<circle class="st1" cx="436.8" cy="22.9" r="0.6"/>
	<circle class="st1" cx="431.7" cy="22.9" r="0.6"/>
	<circle class="st1" cx="426.7" cy="22.9" r="0.6"/>
	<circle class="st1" cx="421.6" cy="22.9" r="0.6"/>
	<circle class="st1" cx="416.6" cy="22.9" r="0.6"/>
	<circle class="st1" cx="411.5" cy="22.9" r="0.6"/>
	<circle class="st1" cx="406.5" cy="22.9" r="0.6"/>
	<circle class="st1" cx="401.4" cy="22.9" r="0.6"/>
	<circle class="st1" cx="396.4" cy="22.9" r="0.6"/>
</g>
<g>
	<circle class="st2" cx="42.7" cy="25" r="0.6"/>
	<circle class="st2" cx="47.7" cy="25" r="0.6"/>
	<circle class="st2" cx="52.8" cy="25" r="0.6"/>
	<circle class="st2" cx="57.8" cy="25" r="0.6"/>
	<circle class="st2" cx="42.7" cy="19.1" r="0.6"/>
	<circle class="st2" cx="47.7" cy="19.1" r="0.6"/>
	<circle class="st2" cx="52.8" cy="19.1" r="0.6"/>
	<circle class="st2" cx="57.8" cy="19.1" r="0.6"/>
	<circle class="st2" cx="42.7" cy="13.2" r="0.6"/>
	<circle class="st2" cx="47.7" cy="13.2" r="0.6"/>
	<circle class="st2" cx="52.8" cy="13.2" r="0.6"/>
	<circle class="st2" cx="57.8" cy="13.2" r="0.6"/>
</g>
<g>
	<line class="st3" x1="207.7" y1="31.1" x2="203.5" y2="31.1"/>
	<line class="st3" x1="205.6" y1="29" x2="205.6" y2="33.2"/>
</g>
<g>
	<line class="st3" x1="120.5" y1="61" x2="116.3" y2="61"/>
	<line class="st3" x1="118.4" y1="58.9" x2="118.4" y2="63.1"/>
</g>
<circle class="st4" cx="464.6" cy="76.3" r="3.2"/>
<circle class="st3" cx="58.5" cy="115.4" r="2.7"/>
<polygon class="st1" points="80.9,28.3 78.4,28.5 79.8,30.5 "/>
<polygon class="st1" points="442.9,41.3 432.7,42.2 438.6,50.6 "/>
<text transform="matrix(1 0 0 1 183.58 184.77)" class="st5 st6 st7"> Aglaonema / Chinese Evergreen</text>
<g>
	<circle class="st1" cx="452" cy="11.1" r="0.6"/>
	<circle class="st1" cx="446.9" cy="11.1" r="0.6"/>
	<circle class="st1" cx="441.8" cy="11.1" r="0.6"/>
	<circle class="st1" cx="436.8" cy="11.1" r="0.6"/>
	<circle class="st1" cx="431.7" cy="11.1" r="0.6"/>
	<circle class="st1" cx="426.7" cy="11.1" r="0.6"/>
	<circle class="st1" cx="421.6" cy="11.1" r="0.6"/>
	<circle class="st1" cx="416.6" cy="11.1" r="0.6"/>
	<circle class="st1" cx="411.5" cy="11.1" r="0.6"/>
	<circle class="st1" cx="406.5" cy="11.1" r="0.6"/>
	<circle class="st1" cx="401.4" cy="11.1" r="0.6"/>
	<circle class="st1" cx="396.4" cy="11.1" r="0.6"/>
	<circle class="st1" cx="452" cy="17" r="0.6"/>
	<circle class="st1" cx="446.9" cy="17" r="0.6"/>
	<circle class="st1" cx="441.8" cy="17" r="0.6"/>
	<circle class="st1" cx="436.8" cy="17" r="0.6"/>
	<circle class="st1" cx="431.7" cy="17" r="0.6"/>
	<circle class="st1" cx="426.7" cy="17" r="0.6"/>
	<circle class="st1" cx="421.6" cy="17" r="0.6"/>
	<circle class="st1" cx="416.6" cy="17" r="0.6"/>
	<circle class="st1" cx="411.5" cy="17" r="0.6"/>
	<circle class="st1" cx="406.5" cy="17" r="0.6"/>
	<circle class="st1" cx="401.4" cy="17" r="0.6"/>
	<circle class="st1" cx="396.4" cy="17" r="0.6"/>
	<circle class="st1" cx="452" cy="22.9" r="0.6"/>
	<circle class="st1" cx="446.9" cy="22.9" r="0.6"/>
	<circle class="st1" cx="441.8" cy="22.9" r="0.6"/>
	<circle class="st1" cx="436.8" cy="22.9" r="0.6"/>
	<circle class="st1" cx="431.7" cy="22.9" r="0.6"/>
	<circle class="st1" cx="426.7" cy="22.9" r="0.6"/>
	<circle class="st1" cx="421.6" cy="22.9" r="0.6"/>
	<circle class="st1" cx="416.6" cy="22.9" r="0.6"/>
	<circle class="st1" cx="411.5" cy="22.9" r="0.6"/>
	<circle class="st1" cx="406.5" cy="22.9" r="0.6"/>
	<circle class="st1" cx="401.4" cy="22.9" r="0.6"/>
	<circle class="st1" cx="396.4" cy="22.9" r="0.6"/>
</g>
<g>
	<circle class="st2" cx="42.7" cy="25" r="0.6"/>
	<circle class="st2" cx="47.7" cy="25" r="0.6"/>
	<circle class="st2" cx="52.8" cy="25" r="0.6"/>
	<circle class="st2" cx="57.8" cy="25" r="0.6"/>
	<circle class="st2" cx="42.7" cy="19.1" r="0.6"/>
	<circle class="st2" cx="47.7" cy="19.1" r="0.6"/>
	<circle class="st2" cx="52.8" cy="19.1" r="0.6"/>
	<circle class="st2" cx="57.8" cy="19.1" r="0.6"/>
	<circle class="st2" cx="42.7" cy="13.2" r="0.6"/>
	<circle class="st2" cx="47.7" cy="13.2" r="0.6"/>
	<circle class="st2" cx="52.8" cy="13.2" r="0.6"/>
	<circle class="st2" cx="57.8" cy="13.2" r="0.6"/>
</g>
<g>
	<line class="st3" x1="207.7" y1="31.1" x2="203.5" y2="31.1"/>
	<line class="st3" x1="205.6" y1="29" x2="205.6" y2="33.2"/>
</g>
<g>
	<line class="st3" x1="120.5" y1="61" x2="116.3" y2="61"/>
	<line class="st3" x1="118.4" y1="58.9" x2="118.4" y2="63.1"/>
</g>
<circle class="st4" cx="464.6" cy="76.3" r="3.2"/>
<circle class="st3" cx="58.5" cy="115.4" r="2.7"/>
<polygon class="st1" points="80.9,28.3 78.4,28.5 79.8,30.5 "/>
<polygon class="st1" points="442.9,41.3 432.7,42.2 438.6,50.6 "/>
<text transform="matrix(1 0 0 1 183.58 184.77)" class="st5 st6 st7"> Aglaonema / Chinese Evergreen</text>
<g>
	<circle class="st1" cx="452" cy="11.1" r="0.6"/>
	<circle class="st1" cx="446.9" cy="11.1" r="0.6"/>
	<circle class="st1" cx="441.8" cy="11.1" r="0.6"/>
	<circle class="st1" cx="436.8" cy="11.1" r="0.6"/>
	<circle class="st1" cx="431.7" cy="11.1" r="0.6"/>
	<circle class="st1" cx="426.7" cy="11.1" r="0.6"/>
	<circle class="st1" cx="421.6" cy="11.1" r="0.6"/>
	<circle class="st1" cx="416.6" cy="11.1" r="0.6"/>
	<circle class="st1" cx="411.5" cy="11.1" r="0.6"/>
	<circle class="st1" cx="406.5" cy="11.1" r="0.6"/>
	<circle class="st1" cx="401.4" cy="11.1" r="0.6"/>
	<circle class="st1" cx="396.4" cy="11.1" r="0.6"/>
	<circle class="st1" cx="452" cy="17" r="0.6"/>
	<circle class="st1" cx="446.9" cy="17" r="0.6"/>
	<circle class="st1" cx="441.8" cy="17" r="0.6"/>
	<circle class="st1" cx="436.8" cy="17" r="0.6"/>
	<circle class="st1" cx="431.7" cy="17" r="0.6"/>
	<circle class="st1" cx="426.7" cy="17" r="0.6"/>
	<circle class="st1" cx="421.6" cy="17" r="0.6"/>
	<circle class="st1" cx="416.6" cy="17" r="0.6"/>
	<circle class="st1" cx="411.5" cy="17" r="0.6"/>
	<circle class="st1" cx="406.5" cy="17" r="0.6"/>
	<circle class="st1" cx="401.4" cy="17" r="0.6"/>
	<circle class="st1" cx="396.4" cy="17" r="0.6"/>
	<circle class="st1" cx="452" cy="22.9" r="0.6"/>
	<circle class="st1" cx="446.9" cy="22.9" r="0.6"/>
	<circle class="st1" cx="441.8" cy="22.9" r="0.6"/>
	<circle class="st1" cx="436.8" cy="22.9" r="0.6"/>
	<circle class="st1" cx="431.7" cy="22.9" r="0.6"/>
	<circle class="st1" cx="426.7" cy="22.9" r="0.6"/>
	<circle class="st1" cx="421.6" cy="22.9" r="0.6"/>
	<circle class="st1" cx="416.6" cy="22.9" r="0.6"/>
	<circle class="st1" cx="411.5" cy="22.9" r="0.6"/>
	<circle class="st1" cx="406.5" cy="22.9" r="0.6"/>
	<circle class="st1" cx="401.4" cy="22.9" r="0.6"/>
	<circle class="st1" cx="396.4" cy="22.9" r="0.6"/>
</g>
<g>
	<circle class="st2" cx="42.7" cy="25" r="0.6"/>
	<circle class="st2" cx="47.7" cy="25" r="0.6"/>
	<circle class="st2" cx="52.8" cy="25" r="0.6"/>
	<circle class="st2" cx="57.8" cy="25" r="0.6"/>
	<circle class="st2" cx="42.7" cy="19.1" r="0.6"/>
	<circle class="st2" cx="47.7" cy="19.1" r="0.6"/>
	<circle class="st2" cx="52.8" cy="19.1" r="0.6"/>
	<circle class="st2" cx="57.8" cy="19.1" r="0.6"/>
	<circle class="st2" cx="42.7" cy="13.2" r="0.6"/>
	<circle class="st2" cx="47.7" cy="13.2" r="0.6"/>
	<circle class="st2" cx="52.8" cy="13.2" r="0.6"/>
	<circle class="st2" cx="57.8" cy="13.2" r="0.6"/>
</g>
<g>
	<line class="st3" x1="207.7" y1="31.1" x2="203.5" y2="31.1"/>
	<line class="st3" x1="205.6" y1="29" x2="205.6" y2="33.2"/>
</g>
<g>
	<line class="st3" x1="120.5" y1="61" x2="116.3" y2="61"/>
	<line class="st3" x1="118.4" y1="58.9" x2="118.4" y2="63.1"/>
</g>
<circle class="st4" cx="464.6" cy="76.3" r="3.2"/>
<circle class="st3" cx="58.5" cy="115.4" r="2.7"/>
<polygon class="st1" points="80.9,28.3 78.4,28.5 79.8,30.5 "/>
<polygon class="st1" points="442.9,41.3 432.7,42.2 438.6,50.6 "/>
<text transform="matrix(1 0 0 1 183.58 184.77)" class="st5 st6 st7"> Aglaonema / Chinese Evergreen</text>
<g>
	<circle class="st1" cx="452" cy="11.1" r="0.6"/>
	<circle class="st1" cx="446.9" cy="11.1" r="0.6"/>
	<circle class="st1" cx="441.8" cy="11.1" r="0.6"/>
	<circle class="st1" cx="436.8" cy="11.1" r="0.6"/>
	<circle class="st1" cx="431.7" cy="11.1" r="0.6"/>
	<circle class="st1" cx="426.7" cy="11.1" r="0.6"/>
	<circle class="st1" cx="421.6" cy="11.1" r="0.6"/>
	<circle class="st1" cx="416.6" cy="11.1" r="0.6"/>
	<circle class="st1" cx="411.5" cy="11.1" r="0.6"/>
	<circle class="st1" cx="406.5" cy="11.1" r="0.6"/>
	<circle class="st1" cx="401.4" cy="11.1" r="0.6"/>
	<circle class="st1" cx="396.4" cy="11.1" r="0.6"/>
	<circle class="st1" cx="452" cy="17" r="0.6"/>
	<circle class="st1" cx="446.9" cy="17" r="0.6"/>
	<circle class="st1" cx="441.8" cy="17" r="0.6"/>
	<circle class="st1" cx="436.8" cy="17" r="0.6"/>
	<circle class="st1" cx="431.7" cy="17" r="0.6"/>
	<circle class="st1" cx="426.7" cy="17" r="0.6"/>
	<circle class="st1" cx="421.6" cy="17" r="0.6"/>
	<circle class="st1" cx="416.6" cy="17" r="0.6"/>
	<circle class="st1" cx="411.5" cy="17" r="0.6"/>
	<circle class="st1" cx="406.5" cy="17" r="0.6"/>
	<circle class="st1" cx="401.4" cy="17" r="0.6"/>
	<circle class="st1" cx="396.4" cy="17" r="0.6"/>
	<circle class="st1" cx="452" cy="22.9" r="0.6"/>
	<circle class="st1" cx="446.9" cy="22.9" r="0.6"/>
	<circle class="st1" cx="441.8" cy="22.9" r="0.6"/>
	<circle class="st1" cx="436.8" cy="22.9" r="0.6"/>
	<circle class="st1" cx="431.7" cy="22.9" r="0.6"/>
	<circle class="st1" cx="426.7" cy="22.9" r="0.6"/>
	<circle class="st1" cx="421.6" cy="22.9" r="0.6"/>
	<circle class="st1" cx="416.6" cy="22.9" r="0.6"/>
	<circle class="st1" cx="411.5" cy="22.9" r="0.6"/>
	<circle class="st1" cx="406.5" cy="22.9" r="0.6"/>
	<circle class="st1" cx="401.4" cy="22.9" r="0.6"/>
	<circle class="st1" cx="396.4" cy="22.9" r="0.6"/>
</g>
<g>
	<circle class="st2" cx="42.7" cy="25" r="0.6"/>
	<circle class="st2" cx="47.7" cy="25" r="0.6"/>
	<circle class="st2" cx="52.8" cy="25" r="0.6"/>
	<circle class="st2" cx="57.8" cy="25" r="0.6"/>
	<circle class="st2" cx="42.7" cy="19.1" r="0.6"/>
	<circle class="st2" cx="47.7" cy="19.1" r="0.6"/>
	<circle class="st2" cx="52.8" cy="19.1" r="0.6"/>
	<circle class="st2" cx="57.8" cy="19.1" r="0.6"/>
	<circle class="st2" cx="42.7" cy="13.2" r="0.6"/>
	<circle class="st2" cx="47.7" cy="13.2" r="0.6"/>
	<circle class="st2" cx="52.8" cy="13.2" r="0.6"/>
	<circle class="st2" cx="57.8" cy="13.2" r="0.6"/>
</g>
<g>
	<line class="st3" x1="207.7" y1="31.1" x2="203.5" y2="31.1"/>
	<line class="st3" x1="205.6" y1="29" x2="205.6" y2="33.2"/>
</g>
<g>
	<line class="st3" x1="120.5" y1="61" x2="116.3" y2="61"/>
	<line class="st3" x1="118.4" y1="58.9" x2="118.4" y2="63.1"/>
</g>
<circle class="st4" cx="464.6" cy="76.3" r="3.2"/>
<circle class="st3" cx="58.5" cy="115.4" r="2.7"/>
<polygon class="st1" points="80.9,28.3 78.4,28.5 79.8,30.5 "/>
<polygon class="st1" points="442.9,41.3 432.7,42.2 438.6,50.6 "/>
<text transform="matrix(1 0 0 1 183.58 184.77)" class="st5 st6 st7"> Aglaonema / Chinese Evergreen</text>
<text transform="matrix(1 0 0 1 230.95 199.55)" class="st8 st6 st9">@Purple Shamrock</text>
<path class="st8" d="M215.8,108.4c27.8-0.6,55.6-0.7,83.4-0.5c0.4,0,0.8-0.4,0.8-0.8c0-0.4-0.4-0.8-0.8-0.8
	c-27.8-0.3-55.6-0.1-83.4,0.5c-0.4,0-0.8,0.4-0.8,0.8C215,108,215.4,108.4,215.8,108.4L215.8,108.4z"/>
<path class="st8" d="M215.1,108.1c3.1,21,5.4,48.9,27.8,58.7c9.4,4.1,20.4,5,30,1.3c10.3-4,16-13.9,20.1-23.6
	c4.9-11.8,6.2-24.7,7-37.4c0.1-1-1.6-1-1.6,0c-0.7,10.9-1.8,22-5.3,32.5c-3.1,9.3-8.2,19.8-16.9,25.1s-20.5,5.4-29.8,1.9
	c-10-3.8-17-11-21.4-20.8c-5.3-11.9-6.5-25.3-8.4-38.1C216.5,106.7,214.9,107.1,215.1,108.1L215.1,108.1z"/>
<path class="st8" d="M252.8,106.7c-1.8-4.4-4.1-8.3-4.6-13.1c-0.5-4.6-0.2-9.3,0.8-13.8c2.1-8.9,6.4-17.1,12.4-23.9
	c0.7-0.8-0.5-2-1.1-1.2c-6.1,7.1-10.8,15.4-12.8,24.6c-1,4.7-1.3,9.5-0.8,14.2c0.6,5,2.8,8.9,4.7,13.5
	C251.6,108.1,253.2,107.7,252.8,106.7L252.8,106.7z"/>
<path class="st8" d="M261.2,54.5c-0.9,0-1.7-0.3-2.3-0.9c-0.5-0.5-1.6-1.9-0.8-2.6c0.7-0.4,1.6-0.4,2.3,0c0.7,0.3,1.3,0.9,1.6,1.7
	c0.4,1,1.8,0.1,1.4-0.8c-1-2.3-5-4.2-6.8-1.6s2.1,6,4.6,5.9C262.2,56.1,262.2,54.5,261.2,54.5L261.2,54.5z"/>
<path class="st8" d="M263.5,52c-0.3-1.2,1.8-5.1,3.1-3.5c1.5,1.8,0.1,3.4-1.3,4.7c-0.8,0.7,0.4,1.8,1.1,1.2c1.1-1,2.4-2.2,2.4-3.8
	c0-1.2-0.7-3.3-1.9-3.9s-2.8,0.4-3.6,1.3c-1.2,1.2-1.8,2.9-1.5,4.6C262.1,53.4,263.7,53,263.5,52L263.5,52z"/>
<path class="st8" d="M265.6,54.5c0.8,0.2,2.7,0.9,2.8,1.9c0,0.5-0.3,1-0.8,1.2c-0.7,0.2-1.4,0-1.9-0.5c-0.8-0.6-1.6,0.8-0.8,1.4
	c1.7,1.3,4.5,1,5.1-1.4s-2.1-3.7-4-4.1C265,52.7,264.6,54.3,265.6,54.5L265.6,54.5z"/>
<path class="st8" d="M260.4,55.1c-0.6,1.8-0.8,4.7,1.1,5.8c2.1,1.3,4-0.7,4.6-2.6c0.1-0.4-0.1-0.9-0.6-1c-0.4-0.1-0.9,0.1-1,0.6l0,0
	c-0.1,0.6-0.4,1.1-0.9,1.5c-0.5,0.4-1.2,0.3-1.6-0.2c-0.1-0.1-0.1-0.2-0.1-0.2c-0.4-1.1-0.3-2.4,0.1-3.5
	C262.3,54.5,260.7,54.1,260.4,55.1L260.4,55.1z"/>
<path class="st8" d="M264.5,58c1.2,4.3,2.1,8.7,2.8,13.2c0.7,4.3,1.8,9.4,1,13.7c-0.7,4-3,7.9-5,11.4c-2,3.6-4.5,7-7.3,10.1
	c-0.7,0.8,0.4,1.9,1.1,1.2c2.9-3.1,5.5-6.6,7.5-10.4c2-3.5,4.3-7.5,5.1-11.4s-0.1-8.8-0.6-12.9c-0.7-5.1-1.8-10.2-3.1-15.2
	c-0.1-0.4-0.6-0.7-1-0.6C264.7,57.1,264.4,57.6,264.5,58L264.5,58z"/>
<path class="st8" d="M261.7,60.5c-1.7,7.5-3.6,15-5.1,22.5c-0.7,3.4-1.2,6.8-1.6,10.3c-0.5,4.2-0.1,8.5-0.9,12.6
	c-0.2,1,1.4,1.5,1.6,0.4c0.7-3.4,0.4-7.1,0.7-10.6c0.4-4.1,1-8.2,1.9-12.3c1.5-7.6,3.4-15,5.1-22.5C263.5,59.9,262,59.5,261.7,60.5
	L261.7,60.5z"/>
<path class="st8" d="M293.5,66.9c-0.5-1.2-1.6-2-2.9-2.2c-1.1-0.2-2.5-0.2-3.2,0.9c-0.5,1.1-0.3,2.4,0.5,3.2c0.9,1,2.2,1.6,3.6,1.5
	c0.4,0,0.8-0.4,0.8-0.8c0-0.4-0.4-0.8-0.8-0.8l0,0c-1,0-2.9-0.6-2.7-1.9s2.9-0.3,3.2,0.6S294,67.9,293.5,66.9L293.5,66.9z"/>
<path class="st8" d="M291.2,69.1c-1,0.6-1.5,1.9-1,3c0.5,1.1,1.5,1.9,2.7,2.2c1.2,0.4,2.5-0.2,3.1-1.3c0.9-0.9,1-2.4,0.2-3.4
	c-0.6-0.8-1.8,0.3-1.1,1.2c0.4,0.4-0.2,1.2-0.5,1.5c-0.3,0.5-1,0.7-1.5,0.4c-0.6-0.3-2.2-1.4-1-2.1C293,70,292.2,68.6,291.2,69.1
	L291.2,69.1z"/>
<path class="st8" d="M295.2,70.6c1.9,2.2,5.2,0.7,5.7-1.9c0.4-1.2-0.2-2.5-1.4-3.1c-1.2-0.5-2.6-0.3-3.6,0.5
	c-0.7,0.8,0.4,1.9,1.1,1.2c0.5-0.4,1.1-0.5,1.6-0.2c0.7,0.3,0.7,1,0.4,1.7c-0.2,0.9-1.2,1.4-2.1,1.2c-0.3-0.1-0.6-0.3-0.8-0.5
	C295.6,68.7,294.5,69.9,295.2,70.6L295.2,70.6z"/>
<path class="st8" d="M297.2,67.4c1.5-2,0.8-5.8-1.9-6.6c-3.2-1-3.3,4.1-3.4,5.9c-0.1,1,1.6,1,1.6,0c0-0.8,0.1-1.5,0.2-2.3
	c0-0.3,0.1-0.7,0.2-1c0.2-0.6,0.3-1,1-0.8s1.2,1.1,1.4,1.8c0.2,0.8,0,1.6-0.5,2.3C295.2,67.5,296.6,68.3,297.2,67.4L297.2,67.4z"/>
<path class="st8" d="M305.7,84.6c-0.4-2-3-4.9-5.3-3.6c-1.1,0.7-1.7,2-1.6,3.3c0.1,1.4,1.3,2.4,2.3,3.2c0.8,0.6,1.6-0.8,0.8-1.4
	c-0.6-0.5-1.4-1.1-1.5-1.9s0.5-1.8,1.4-1.8c1.3,0.1,2.1,1.6,2.3,2.6S305.8,85.6,305.7,84.6L305.7,84.6z"/>
<path class="st8" d="M301.4,86.2c-2.5,0.4-4.6,3.4-2.4,5.5c1.2,1.2,3.1,1.2,4.2,0c0.6-0.6,0.9-1.3,0.9-2.1c0-1-1.6-1-1.6,0
	c0,0.8-0.6,1.4-1.4,1.4c-0.5,0-0.9-0.2-1.1-0.6c-0.9-1.3,0.8-2.4,1.9-2.6S302.5,86,301.4,86.2L301.4,86.2z"/>
<path class="st8" d="M302.8,89.9c1,1.7,3.2,2.3,4.9,1.3c0.2-0.1,0.5-0.3,0.7-0.5c1.3-1.4,0.9-4.8-1.6-4.1c-0.4,0.1-0.7,0.6-0.6,1
	c0.1,0.4,0.6,0.7,1,0.6c0.5-0.2,0.2,1.2,0.1,1.3c-0.2,0.3-0.5,0.5-0.9,0.6c-0.9,0.3-1.8-0.1-2.3-0.9C303.7,88.1,302.3,89,302.8,89.9
	z"/>
<path class="st8" d="M305.8,84.8c0-0.5,0.5-0.9,0.9-1.1c0.5-0.2,1.1,0,1.3,0.5c0,0,0,0.1,0.1,0.1c0.4,0.9-0.5,1.7-1.2,2.2
	c-0.8,0.6,0,2,0.8,1.4c0.9-0.5,1.6-1.3,2-2.3c0.3-1.1,0-2.2-0.8-2.9c-1.6-1.6-4.8-0.1-4.7,2.1C304.3,85.8,305.9,85.8,305.8,84.8
	L305.8,84.8z"/>
<path class="st8" d="M226.4,52.4c0.6-1.4,0.1-2.9-1.1-3.8c-1-0.8-2.3-1-3.5-0.5c-2.5,1.3-1.9,5.6,0.1,7.1c0.9,0.6,1.7-0.8,0.8-1.4
	c-1-0.7-1.4-3.2-0.4-4.1c0.5-0.5,1.4-0.2,1.9,0.1c0.8,0.5,0.8,1.2,0.6,2.1c-0.1,0.4,0.1,0.9,0.6,1S226.3,52.9,226.4,52.4z"/>
<path class="st8" d="M222.9,54.1c-2.1-1.5-4.6,0.8-3.7,3.1c0.4,1,1.4,1.8,2.5,1.9c1.3,0.1,2.5-0.4,3.4-1.3c0.8-0.7-0.4-1.8-1.1-1.2
	s-2,1.3-2.9,0.5s-0.1-2.4,1-1.6C222.9,56.1,223.7,54.7,222.9,54.1L222.9,54.1z"/>
<path class="st8" d="M224,57.3c0.6,2,2.7,3.2,4.8,2.6c0.3-0.1,0.6-0.2,0.8-0.3c2.3-1.3,1.5-4.3-0.6-5.3c-0.9-0.5-1.8,0.9-0.8,1.4
	c1.1,0.6,1.8,2.2,0.2,2.7c-1.1,0.4-2.3-0.2-2.7-1.3c0-0.1,0-0.1-0.1-0.2c-0.1-0.4-0.6-0.7-1-0.6S223.9,56.9,224,57.3L224,57.3
	L224,57.3z"/>
<path class="st8" d="M228.9,56c1.2-0.4,2.2-1.4,2.6-2.7c0.5-1.1,1-2.4-0.1-3.4c-0.9-0.8-2.1-1.2-3.3-1c-1.2,0.5-2.3,1.4-2.9,2.5
	c-0.6,0.9,0.8,1.7,1.4,0.8c0.7-1,1.9-2.5,3.2-1.5c1.2,0.9-0.3,3.2-1.4,3.6S227.9,56.3,228.9,56L228.9,56z"/>
<path class="st8" d="M214.8,74.9c-1.4-1.7-5.2-2.5-5.8,0.4c-0.4,2,1,3.9,3,4.2c0.5,0.1,1.1,0.1,1.6-0.1c0.4-0.1,0.7-0.6,0.6-1
	c-0.1-0.4-0.6-0.7-1-0.6l0,0c-1.1,0.3-2.2-0.2-2.5-1.3c-0.1-0.3-0.1-0.6-0.1-0.9c0.3-1.7,2.5-0.4,3.1,0.3S215.4,75.7,214.8,74.9
	L214.8,74.9z"/>
<path class="st8" d="M213,78.1c-1.5,1.8-0.2,4.5,1.9,5.2c2.5,0.8,3.9-2,3.5-4c-0.2-1-1.8-0.6-1.6,0.4s-0.3,2.5-1.5,2
	c-0.8-0.3-1.9-1.6-1.2-2.5S213.7,77.3,213,78.1L213,78.1z"/>
<path class="st8" d="M217.3,80.2c2.3,0.6,4.6-0.9,5.2-3.1c0,0,0-0.1,0-0.1c0.4-2.7-2.9-2.8-4.6-1.7c-0.9,0.6,0,2,0.8,1.4
	s2.9-1,1.9,0.6c-0.6,1-1.8,1.6-2.9,1.3C216.8,78.3,216.3,79.9,217.3,80.2z"/>
<path class="st8" d="M218.8,76.7c1.5-1.4,1.6-3.8,0.3-5.3c-0.4-0.5-1-0.8-1.6-1c-1.2-0.4-2.5-0.1-3.3,0.8c-0.8,1.2-1,2.6-0.7,4
	c0.1,0.4,0.6,0.7,1,0.6c0.4-0.1,0.7-0.6,0.6-1c-0.3-1.3,0.2-3.4,2-2.8c1.1,0.4,1.6,1.7,1.2,2.7c-0.1,0.3-0.3,0.6-0.6,0.8
	C217,76.3,218.1,77.5,218.8,76.7L218.8,76.7z"/>
<path class="st8" d="M259.2,106.8c4.3-6,10.2-10.8,16.9-13.9c3.5-1.6,7.1-3,10.8-4c4.2-1.2,8.5-2.4,12.8-2.1c1,0.1,1-1.6,0-1.6
	c-4.5-0.3-9,0.9-13.3,2.1c-3.9,1.1-7.6,2.5-11.2,4.2c-7,3.3-13,8.2-17.5,14.5C257.2,106.9,258.6,107.7,259.2,106.8L259.2,106.8z"/>
<path class="st8" d="M303,90c-2,7.2-7.5,12.1-13.5,16c-0.9,0.6-0.1,2,0.8,1.4c6.4-4.1,12.2-9.4,14.3-17c0.1-0.4-0.2-0.9-0.6-1
	C303.6,89.3,303.1,89.6,303,90L303,90z"/>
<path class="st8" d="M268.9,107.5l31.3-15.1c0.9-0.5,0.1-1.9-0.8-1.4l-31.3,15.1C267.1,106.5,268,107.9,268.9,107.5z"/>
<path class="st8" d="M292.1,73.4c-0.3,4.3-1.3,9.7-4.1,13.2c-0.6,0.8,0.5,2,1.1,1.2c3.1-3.9,4.2-9.5,4.6-14.4
	C293.8,72.4,292.2,72.4,292.1,73.4L292.1,73.4z"/>
<path class="st8" d="M290.3,68.9c-3.9,0.8-6.7,3.5-10.1,5.5c-1.8,0.9-3.5,1.9-5.1,3c-2,1.5-3.9,3.2-5.8,4.8
	c-0.8,0.7,0.4,1.8,1.1,1.2c1.6-1.3,3.1-2.6,4.7-3.9c1.9-1.4,3.9-2.6,5.9-3.7c3.2-1.9,5.9-4.5,9.7-5.3
	C291.7,70.3,291.3,68.7,290.3,68.9L290.3,68.9z"/>
<path class="st8" d="M290.3,72.3c-3.1,5.9-7.3,11.2-12.5,15.4c-5.1,4.1-11,7.2-15.1,12.3c-0.6,0.8,0.5,2,1.1,1.2
	c4.4-5.4,10.6-8.5,15.8-12.9c5-4.2,9.1-9.4,12.1-15.2C292.2,72.2,290.8,71.4,290.3,72.3L290.3,72.3z"/>
<path class="st8" d="M249.9,100c-2.2-5.7-6-10.6-11.1-14.1c-6-4.1-13.3-5-20.2-6.5c-1-0.2-1.5,1.3-0.4,1.6
	c6.2,1.3,12.9,2.1,18.5,5.4c5.4,3.2,9.5,8.2,11.7,14C248.7,101.5,250.3,101,249.9,100L249.9,100z"/>
<path class="st8" d="M216.2,82.4c2.1,5.6,3.9,11.7,7.5,16.6c3,4,7,7.1,11.6,8.8c1,0.4,1.4-1.2,0.4-1.6c-4.8-1.9-8.9-5.3-11.7-9.6
	c-2.9-4.5-4.5-9.7-6.3-14.7C217.4,80.9,215.8,81.4,216.2,82.4L216.2,82.4z"/>
<path class="st8" d="M217.6,81.6c4.5,4.4,10.2,7.2,15.4,10.8c6,4.2,11,9.5,15.9,14.8c0.7,0.8,1.9-0.4,1.1-1.2
	c-4.6-5-9.2-9.9-14.6-14s-11.7-6.9-16.6-11.6C218,79.7,216.9,80.9,217.6,81.6L217.6,81.6z"/>
<path class="st8" d="M233,82.9c-5.4-7-7-15.9-7.5-24.5c-0.1-1-1.7-1-1.6,0c0.6,9.1,2.3,18.3,8,25.7C232.5,84.9,233.6,83.7,233,82.9z
	"/>
<path class="st8" d="M228.8,56.2c7.7,6.1,13.9,13.8,18.3,22.6c0.5,0.9,1.9,0.1,1.4-0.8C244,69,237.7,61.2,230,55
	C229.2,54.3,228,55.5,228.8,56.2L228.8,56.2z"/>
<path class="st8" d="M227.7,60.1c3.7,4.8,6.2,10.4,8.9,15.8c3,6,6.2,11.9,9.6,17.6c0.2,0.4,0.7,0.5,1.1,0.3c0.4-0.2,0.5-0.7,0.3-1.1
	c-3.4-5.7-6.6-11.6-9.6-17.6c-2.7-5.4-5.1-11-8.9-15.8C228.5,58.5,227.1,59.3,227.7,60.1z"/>
<path class="st8" d="M217.1,117.7c13.4-1.2,26.9-0.5,40.4-0.2c6.5,0.2,13,0.2,19.5,0c6.8-0.2,13.6-0.5,20.3,0.8
	c1,0.2,1.5-1.4,0.4-1.6c-6.2-1.3-12.4-1.2-18.7-1c-6.8,0.2-13.7,0.3-20.5,0.1c-13.8-0.3-27.7-1-41.5,0.2
	C216.1,116.1,216.1,117.8,217.1,117.7L217.1,117.7z"/>
<path class="st8" d="M218.5,126.2c1.9,0.1,3.7,0,5.6-0.2c1-0.1,1-1.7,0-1.6c-1.9,0.2-3.7,0.2-5.6,0.2
	C217.5,124.5,217.5,126.2,218.5,126.2z"/>
<path class="st8" d="M227.7,126.2c1.7,0,3.4,0.1,5,0.4c1,0.2,1.5-1.4,0.4-1.6c-1.8-0.3-3.6-0.5-5.4-0.4c-0.4,0-0.8,0.4-0.8,0.8
	C226.9,125.9,227.3,126.2,227.7,126.2L227.7,126.2z"/>
<path class="st8" d="M239,126.9c1.8-0.3,3.6-0.5,5.4-0.7c1-0.1,1-1.7,0-1.6c-2,0.1-3.9,0.4-5.8,0.7C237.6,125.5,238,127.1,239,126.9
	L239,126.9z"/>
<path class="st8" d="M249.9,127c1.9,0,3.9-0.1,5.8-0.4c1-0.2,0.6-1.7-0.4-1.6c-1.8,0.3-3.6,0.4-5.4,0.3c-0.4,0-0.8,0.4-0.8,0.8
	C249.1,126.6,249.5,127,249.9,127L249.9,127z"/>
<path class="st8" d="M261.3,127.2l6.1,0.1c0.4,0,0.8-0.4,0.8-0.8c0-0.4-0.4-0.8-0.8-0.8l-6.1-0.1c-0.4,0-0.8,0.4-0.8,0.8
	C260.5,126.9,260.9,127.2,261.3,127.2z"/>
<path class="st8" d="M273.2,126.9c2,0.2,4,0,6-0.5c0.4-0.1,0.7-0.6,0.6-1c-0.1-0.4-0.6-0.7-1-0.6l0,0c-1.8,0.5-3.7,0.6-5.6,0.4
	C272.2,125.2,272.2,126.8,273.2,126.9L273.2,126.9z"/>
<path class="st8" d="M284.6,126l5.6,0.2c1,0,1-1.6,0-1.6l-5.6-0.2C283.6,124.4,283.6,126,284.6,126z"/>
<path class="st8" d="M294.3,126.8h2.9c0.4,0,0.8-0.4,0.8-0.8c0-0.4-0.4-0.8-0.8-0.8h-2.9c-0.4,0-0.8,0.4-0.8,0.8
	C293.5,126.4,293.9,126.8,294.3,126.8z"/>
<path class="st8" d="M222.2,137.4c12.3-1.8,24.6,1.1,36.9,1.7c12.1,0.6,24.1-1.9,35.9-4.4c1-0.2,0.6-1.8-0.4-1.6
	c-12.4,2.6-24.8,5-37.5,4.2c-11.8-0.8-23.5-3.2-35.3-1.5C220.7,136,221.1,137.6,222.2,137.4L222.2,137.4z"/>
<path class="st8" d="M224.7,146.8l2.9,0.4c0.4,0.1,0.8-0.4,0.8-0.8c0-0.4-0.4-0.8-0.8-0.8l-2.9-0.4c-0.4-0.1-0.8,0.4-0.8,0.8
	C223.9,146.5,224.2,146.8,224.7,146.8z"/>
<path class="st8" d="M233,147.7h4.3c0.4,0,0.8-0.4,0.8-0.8c0-0.4-0.4-0.8-0.8-0.8H233c-0.4,0-0.8,0.4-0.8,0.8
	C232.2,147.3,232.6,147.7,233,147.7z"/>
<path class="st8" d="M243.8,148.2c1.7,0.4,3.5,0.5,5.3,0.4c1-0.1,1-1.7,0-1.6c-1.6,0.1-3.2,0-4.8-0.3
	C243.2,146.4,242.7,148,243.8,148.2L243.8,148.2z"/>
<path class="st8" d="M256.1,148.9l4.5-0.7c1-0.2,0.6-1.7-0.4-1.6l-4.5,0.7C254.7,147.4,255.1,149,256.1,148.9z"/>
<path class="st8" d="M266.2,147.9l5-0.4c1-0.1,1-1.7,0-1.6l-5,0.4C265.2,146.3,265.2,147.9,266.2,147.9z"/>
<path class="st8" d="M278.7,147.1l3.5-0.8c1-0.2,0.6-1.8-0.4-1.6l-3.5,0.8C277.3,145.7,277.7,147.3,278.7,147.1z"/>
<path class="st8" d="M287.8,146.1c1.1,0.1,2.2,0,3.3-0.1c1-0.2,0.6-1.7-0.4-1.6c-0.9,0.1-1.9,0.2-2.9,0.1
	C286.8,144.4,286.8,146,287.8,146.1L287.8,146.1z"/>
<path class="st8" d="M230.4,156.9c18.3,2.4,36.9,4.6,55.1,0.7c1-0.2,0.6-1.8-0.4-1.6c-18.1,3.9-36.6,1.6-54.6-0.8
	C229.4,155.1,229.4,156.7,230.4,156.9L230.4,156.9z"/>
<path class="st8" d="M240.3,164.5c1.1,0.2,2.2,0.3,3.3,0.2c1-0.1,1-1.7,0-1.6c-1,0.1-1.9,0-2.9-0.1
	C239.8,162.7,239.3,164.3,240.3,164.5L240.3,164.5z"/>
<path class="st8" d="M249.8,165.4c1.2,0,2.3,0.2,3.4,0.6c1,0.3,1.4-1.2,0.4-1.6c-1.2-0.4-2.5-0.6-3.9-0.7c-0.4,0-0.8,0.4-0.8,0.8
	C248.9,165.1,249.3,165.4,249.8,165.4L249.8,165.4z"/>
<path class="st8" d="M259.9,166.5c1.4-0.2,2.9-0.2,4.3-0.2c1,0,1-1.6,0-1.6c-1.4-0.1-2.9,0-4.3,0.2
	C258.9,165,258.9,166.6,259.9,166.5z"/>
<path class="st8" d="M271.6,165c1-0.3,2.1-0.4,3.2-0.3c1,0.1,1-1.6,0-1.6c-1.2-0.1-2.5,0.1-3.6,0.4c-0.4,0.1-0.7,0.6-0.6,1
	S271.2,165.1,271.6,165L271.6,165z"/>
<path class="st8" d="M263.3,61.4c2.4,15.2-0.1,30.8-7.2,44.5c-0.2,0.5,0.5,0.9,0.7,0.4c7.1-13.9,9.7-29.7,7.3-45.1
	C264,60.7,263.2,60.9,263.3,61.4L263.3,61.4z"/>
<path class="st8" d="M260.9,59c-5.2,6.4-8.5,14-9.5,22.1c-0.5,4.4-0.7,8.9-0.6,13.3c0,4.1,0.4,8.1,2.1,11.8c0.2,0.5,0.9,0.1,0.7-0.4
	c-1.8-3.8-2-8-2-12.1c0-4,0.1-7.9,0.5-11.8c1-8.2,4.2-15.9,9.4-22.3C261.8,59.2,261.2,58.6,260.9,59L260.9,59z"/>
<path class="st8" d="M226.2,59.7c1.6,9.5,5.3,18.6,10.8,26.5c0.3,0.4,1,0,0.7-0.4c-5.4-7.9-9.1-16.9-10.7-26.3
	C226.9,58.9,226.1,59.1,226.2,59.7L226.2,59.7z"/>
<path class="st8" d="M229.9,59c6.9,7.9,12.5,16.8,16.5,26.5c0.2,0.5,1,0.3,0.8-0.2c-4.1-9.8-9.8-18.8-16.7-26.8
	C230.1,58,229.5,58.6,229.9,59L229.9,59z"/>
<path class="st8" d="M217.9,81.8C219,88,224.7,93,229,97c4.6,4.4,9.9,8.2,16.1,9.8c0.2,0,0.4-0.1,0.5-0.4c0-0.2-0.1-0.3-0.2-0.4
	c-6.1-1.6-11.2-5.3-15.8-9.6c-4.2-4-9.9-8.9-10.9-14.8C218.5,81.1,217.8,81.3,217.9,81.8L217.9,81.8z"/>
<path class="st8" d="M219.9,81.2c5.4,4,12.2,5.3,17.6,9.3c5.7,4.2,10,10,13.9,15.8c0.3,0.4,1,0,0.7-0.4c-3.9-5.7-8.1-11.4-13.6-15.7
	s-12.6-5.7-18.2-9.8C219.9,80.2,219.5,80.9,219.9,81.2L219.9,81.2z"/>
<path class="st8" d="M266.7,92.4c6.7-8.5,16.5-13.6,24.5-20.7c0.4-0.3-0.2-0.9-0.6-0.6c-8.1,7.1-17.8,12.2-24.5,20.7
	C265.8,92.3,266.3,92.9,266.7,92.4z"/>
<path class="st8" d="M290.7,73.6c0,2.6-0.6,5.2-1.6,7.6c-0.9,2.2-1.8,4.7-3.5,6.4c-0.4,0.4,0.2,0.9,0.6,0.6c1.8-1.8,2.7-4.4,3.7-6.7
	c1.1-2.5,1.7-5.2,1.7-7.9c0-0.2-0.2-0.4-0.5-0.3C290.9,73.3,290.7,73.4,290.7,73.6L290.7,73.6z"/>
<path class="st8" d="M300.4,87.1c-13.9,3-26.7,9.7-37.2,19.3c-0.4,0.3,0.2,0.9,0.6,0.6c10.4-9.5,23.1-16.1,36.9-19.1
	C301.1,87.7,300.9,87,300.4,87.1L300.4,87.1z"/>
<path class="st8" d="M301.7,91.1c-3.3,3.2-6.7,6.1-10.4,8.7c-3.5,2.5-6.9,5.1-11.1,6.3c-0.2,0.1-0.3,0.3-0.2,0.5
	c0.1,0.2,0.2,0.3,0.4,0.2c4.3-1.2,7.8-3.8,11.3-6.4c3.8-2.7,7.3-5.6,10.6-8.9C302.6,91.3,302,90.7,301.7,91.1L301.7,91.1z"/>
</svg>
