<?xml version="1.0" encoding="utf-8"?>
<!-- Generator: Adobe Illustrator 21.0.0, SVG Export Plug-In . SVG Version: 6.00 Build 0)  -->
<svg version="1.1" id="Layer_1" xmlns="http://www.w3.org/2000/svg" xmlns:xlink="http://www.w3.org/1999/xlink" x="0px" y="0px"
	 viewBox="0 0 517 220" style="enable-background:new 0 0 517 220;" xml:space="preserve">
<style type="text/css">
	.st0{fill:#7FA2FE;}
	.st1{fill:#FFFFFF;}
	.st2{fill:none;stroke:#FFFFFF;stroke-width:1.11;stroke-linecap:round;stroke-miterlimit:10;}
	.st3{fill:none;stroke:#FFFFFF;stroke-width:1.29;stroke-linecap:round;stroke-miterlimit:10;}
	.st4{fill:#FCFBFA;}
	.st5{font-family:'Lato-Bold';}
	.st6{font-size:10.18px;}
	.st7{fill:#201600;}
	.st8{font-size:6.12px;}
</style>
<title>image</title>
<rect class="st0" width="517" height="220"/>
<g>
	<circle class="st1" cx="46" cy="148.7" r="0.6"/>
	<circle class="st1" cx="46" cy="153.8" r="0.6"/>
	<circle class="st1" cx="46" cy="158.8" r="0.6"/>
	<circle class="st1" cx="46" cy="163.9" r="0.6"/>
	<circle class="st1" cx="46" cy="168.9" r="0.6"/>
	<circle class="st1" cx="46" cy="174" r="0.6"/>
	<circle class="st1" cx="46" cy="179" r="0.6"/>
	<circle class="st1" cx="46" cy="184.1" r="0.6"/>
	<circle class="st1" cx="46" cy="189.1" r="0.6"/>
	<circle class="st1" cx="46" cy="194.2" r="0.6"/>
	<circle class="st1" cx="46" cy="199.2" r="0.6"/>
	<circle class="st1" cx="46" cy="204.3" r="0.6"/>
	<circle class="st1" cx="52" cy="148.7" r="0.6"/>
	<circle class="st1" cx="52" cy="153.8" r="0.6"/>
	<circle class="st1" cx="52" cy="158.8" r="0.6"/>
	<circle class="st1" cx="52" cy="163.9" r="0.6"/>
	<circle class="st1" cx="52" cy="168.9" r="0.6"/>
	<circle class="st1" cx="52" cy="174" r="0.6"/>
	<circle class="st1" cx="52" cy="179" r="0.6"/>
	<circle class="st1" cx="52" cy="184.1" r="0.6"/>
	<circle class="st1" cx="52" cy="189.1" r="0.6"/>
	<circle class="st1" cx="52" cy="194.2" r="0.6"/>
	<circle class="st1" cx="52" cy="199.2" r="0.6"/>
	<circle class="st1" cx="52" cy="204.3" r="0.6"/>
	<circle class="st1" cx="57.8" cy="148.7" r="0.6"/>
	<circle class="st1" cx="57.8" cy="153.8" r="0.6"/>
	<circle class="st1" cx="57.8" cy="158.8" r="0.6"/>
	<circle class="st1" cx="57.8" cy="163.9" r="0.6"/>
	<circle class="st1" cx="57.8" cy="168.9" r="0.6"/>
	<circle class="st1" cx="57.8" cy="174" r="0.6"/>
	<circle class="st1" cx="57.8" cy="179" r="0.6"/>
	<circle class="st1" cx="57.8" cy="184.1" r="0.6"/>
	<circle class="st1" cx="57.8" cy="189.1" r="0.6"/>
	<circle class="st1" cx="57.8" cy="194.2" r="0.6"/>
	<circle class="st1" cx="57.8" cy="199.2" r="0.6"/>
	<circle class="st1" cx="57.8" cy="204.3" r="0.6"/>
</g>
<g>
	<circle class="st1" cx="462.5" cy="144.1" r="0.6"/>
	<circle class="st1" cx="462.5" cy="149.1" r="0.6"/>
	<circle class="st1" cx="462.5" cy="154.2" r="0.6"/>
	<circle class="st1" cx="462.5" cy="159.2" r="0.6"/>
	<circle class="st1" cx="468.4" cy="144.1" r="0.6"/>
	<circle class="st1" cx="468.4" cy="149.1" r="0.6"/>
	<circle class="st1" cx="468.4" cy="154.2" r="0.6"/>
	<circle class="st1" cx="468.4" cy="159.2" r="0.6"/>
	<circle class="st1" cx="474.3" cy="144.1" r="0.6"/>
	<circle class="st1" cx="474.3" cy="149.1" r="0.6"/>
	<circle class="st1" cx="474.3" cy="154.2" r="0.6"/>
	<circle class="st1" cx="474.3" cy="159.2" r="0.6"/>
</g>
<g>
	<circle class="st1" cx="391.6" cy="200" r="0.6"/>
	<circle class="st1" cx="396.6" cy="200" r="0.6"/>
	<circle class="st1" cx="401.7" cy="200" r="0.6"/>
	<circle class="st1" cx="406.7" cy="200" r="0.6"/>
	<circle class="st1" cx="391.6" cy="194.1" r="0.6"/>
	<circle class="st1" cx="396.6" cy="194.1" r="0.6"/>
	<circle class="st1" cx="401.7" cy="194.1" r="0.6"/>
	<circle class="st1" cx="406.7" cy="194.1" r="0.6"/>
	<circle class="st1" cx="391.6" cy="188.2" r="0.6"/>
	<circle class="st1" cx="396.6" cy="188.2" r="0.6"/>
	<circle class="st1" cx="401.7" cy="188.2" r="0.6"/>
	<circle class="st1" cx="406.7" cy="188.2" r="0.6"/>
</g>
<g>
	<line class="st2" x1="450.9" y1="194.2" x2="446.8" y2="194.2"/>
	<line class="st2" x1="448.9" y1="192.1" x2="448.9" y2="196.3"/>
</g>
<circle class="st3" cx="464.6" cy="76.3" r="3.2"/>
<circle class="st2" cx="58.5" cy="115.4" r="2.7"/>
<polygon class="st1" points="87.6,177.4 86,174.7 84.4,177.4 "/>
<polygon class="st1" points="179.5,208.1 176.3,202.7 173.2,208.1 "/>
<polygon class="st1" points="405.6,140.7 402.1,141 404.1,143.9 "/>
<g>
	<circle class="st1" cx="46" cy="148.7" r="0.6"/>
	<circle class="st1" cx="46" cy="153.8" r="0.6"/>
	<circle class="st1" cx="46" cy="158.8" r="0.6"/>
	<circle class="st1" cx="46" cy="163.9" r="0.6"/>
	<circle class="st1" cx="46" cy="168.9" r="0.6"/>
	<circle class="st1" cx="46" cy="174" r="0.6"/>
	<circle class="st1" cx="46" cy="179" r="0.6"/>
	<circle class="st1" cx="46" cy="184.1" r="0.6"/>
	<circle class="st1" cx="46" cy="189.1" r="0.6"/>
	<circle class="st1" cx="46" cy="194.2" r="0.6"/>
	<circle class="st1" cx="46" cy="199.2" r="0.6"/>
	<circle class="st1" cx="46" cy="204.3" r="0.6"/>
	<circle class="st1" cx="52" cy="148.7" r="0.6"/>
	<circle class="st1" cx="52" cy="153.8" r="0.6"/>
	<circle class="st1" cx="52" cy="158.8" r="0.6"/>
	<circle class="st1" cx="52" cy="163.9" r="0.6"/>
	<circle class="st1" cx="52" cy="168.9" r="0.6"/>
	<circle class="st1" cx="52" cy="174" r="0.6"/>
	<circle class="st1" cx="52" cy="179" r="0.6"/>
	<circle class="st1" cx="52" cy="184.1" r="0.6"/>
	<circle class="st1" cx="52" cy="189.1" r="0.6"/>
	<circle class="st1" cx="52" cy="194.2" r="0.6"/>
	<circle class="st1" cx="52" cy="199.2" r="0.6"/>
	<circle class="st1" cx="52" cy="204.3" r="0.6"/>
	<circle class="st1" cx="57.8" cy="148.7" r="0.6"/>
	<circle class="st1" cx="57.8" cy="153.8" r="0.6"/>
	<circle class="st1" cx="57.8" cy="158.8" r="0.6"/>
	<circle class="st1" cx="57.8" cy="163.9" r="0.6"/>
	<circle class="st1" cx="57.8" cy="168.9" r="0.6"/>
	<circle class="st1" cx="57.8" cy="174" r="0.6"/>
	<circle class="st1" cx="57.8" cy="179" r="0.6"/>
	<circle class="st1" cx="57.8" cy="184.1" r="0.6"/>
	<circle class="st1" cx="57.8" cy="189.1" r="0.6"/>
	<circle class="st1" cx="57.8" cy="194.2" r="0.6"/>
	<circle class="st1" cx="57.8" cy="199.2" r="0.6"/>
	<circle class="st1" cx="57.8" cy="204.3" r="0.6"/>
</g>
<g>
	<circle class="st1" cx="462.5" cy="144.1" r="0.6"/>
	<circle class="st1" cx="462.5" cy="149.1" r="0.6"/>
	<circle class="st1" cx="462.5" cy="154.2" r="0.6"/>
	<circle class="st1" cx="462.5" cy="159.2" r="0.6"/>
	<circle class="st1" cx="468.4" cy="144.1" r="0.6"/>
	<circle class="st1" cx="468.4" cy="149.1" r="0.6"/>
	<circle class="st1" cx="468.4" cy="154.2" r="0.6"/>
	<circle class="st1" cx="468.4" cy="159.2" r="0.6"/>
	<circle class="st1" cx="474.3" cy="144.1" r="0.6"/>
	<circle class="st1" cx="474.3" cy="149.1" r="0.6"/>
	<circle class="st1" cx="474.3" cy="154.2" r="0.6"/>
	<circle class="st1" cx="474.3" cy="159.2" r="0.6"/>
</g>
<g>
	<circle class="st1" cx="391.6" cy="200" r="0.6"/>
	<circle class="st1" cx="396.6" cy="200" r="0.6"/>
	<circle class="st1" cx="401.7" cy="200" r="0.6"/>
	<circle class="st1" cx="406.7" cy="200" r="0.6"/>
	<circle class="st1" cx="391.6" cy="194.1" r="0.6"/>
	<circle class="st1" cx="396.6" cy="194.1" r="0.6"/>
	<circle class="st1" cx="401.7" cy="194.1" r="0.6"/>
	<circle class="st1" cx="406.7" cy="194.1" r="0.6"/>
	<circle class="st1" cx="391.6" cy="188.2" r="0.6"/>
	<circle class="st1" cx="396.6" cy="188.2" r="0.6"/>
	<circle class="st1" cx="401.7" cy="188.2" r="0.6"/>
	<circle class="st1" cx="406.7" cy="188.2" r="0.6"/>
</g>
<g>
	<line class="st2" x1="450.9" y1="194.2" x2="446.8" y2="194.2"/>
	<line class="st2" x1="448.9" y1="192.1" x2="448.9" y2="196.3"/>
</g>
<circle class="st3" cx="464.6" cy="76.3" r="3.2"/>
<circle class="st2" cx="58.5" cy="115.4" r="2.7"/>
<polygon class="st1" points="87.6,177.4 86,174.7 84.4,177.4 "/>
<polygon class="st1" points="179.5,208.1 176.3,202.7 173.2,208.1 "/>
<polygon class="st1" points="405.6,140.7 402.1,141 404.1,143.9 "/>
<g>
	<circle class="st1" cx="46" cy="148.7" r="0.6"/>
	<circle class="st1" cx="46" cy="153.8" r="0.6"/>
	<circle class="st1" cx="46" cy="158.8" r="0.6"/>
	<circle class="st1" cx="46" cy="163.9" r="0.6"/>
	<circle class="st1" cx="46" cy="168.9" r="0.6"/>
	<circle class="st1" cx="46" cy="174" r="0.6"/>
	<circle class="st1" cx="46" cy="179" r="0.6"/>
	<circle class="st1" cx="46" cy="184.1" r="0.6"/>
	<circle class="st1" cx="46" cy="189.1" r="0.6"/>
	<circle class="st1" cx="46" cy="194.2" r="0.6"/>
	<circle class="st1" cx="46" cy="199.2" r="0.6"/>
	<circle class="st1" cx="46" cy="204.3" r="0.6"/>
	<circle class="st1" cx="52" cy="148.7" r="0.6"/>
	<circle class="st1" cx="52" cy="153.8" r="0.6"/>
	<circle class="st1" cx="52" cy="158.8" r="0.6"/>
	<circle class="st1" cx="52" cy="163.9" r="0.6"/>
	<circle class="st1" cx="52" cy="168.9" r="0.6"/>
	<circle class="st1" cx="52" cy="174" r="0.6"/>
	<circle class="st1" cx="52" cy="179" r="0.6"/>
	<circle class="st1" cx="52" cy="184.1" r="0.6"/>
	<circle class="st1" cx="52" cy="189.1" r="0.6"/>
	<circle class="st1" cx="52" cy="194.2" r="0.6"/>
	<circle class="st1" cx="52" cy="199.2" r="0.6"/>
	<circle class="st1" cx="52" cy="204.3" r="0.6"/>
	<circle class="st1" cx="57.8" cy="148.7" r="0.6"/>
	<circle class="st1" cx="57.8" cy="153.8" r="0.6"/>
	<circle class="st1" cx="57.8" cy="158.8" r="0.6"/>
	<circle class="st1" cx="57.8" cy="163.9" r="0.6"/>
	<circle class="st1" cx="57.8" cy="168.9" r="0.6"/>
	<circle class="st1" cx="57.8" cy="174" r="0.6"/>
	<circle class="st1" cx="57.8" cy="179" r="0.6"/>
	<circle class="st1" cx="57.8" cy="184.1" r="0.6"/>
	<circle class="st1" cx="57.8" cy="189.1" r="0.6"/>
	<circle class="st1" cx="57.8" cy="194.2" r="0.6"/>
	<circle class="st1" cx="57.8" cy="199.2" r="0.6"/>
	<circle class="st1" cx="57.8" cy="204.3" r="0.6"/>
</g>
<g>
	<circle class="st1" cx="462.5" cy="144.1" r="0.6"/>
	<circle class="st1" cx="462.5" cy="149.1" r="0.6"/>
	<circle class="st1" cx="462.5" cy="154.2" r="0.6"/>
	<circle class="st1" cx="462.5" cy="159.2" r="0.6"/>
	<circle class="st1" cx="468.4" cy="144.1" r="0.6"/>
	<circle class="st1" cx="468.4" cy="149.1" r="0.6"/>
	<circle class="st1" cx="468.4" cy="154.2" r="0.6"/>
	<circle class="st1" cx="468.4" cy="159.2" r="0.6"/>
	<circle class="st1" cx="474.3" cy="144.1" r="0.6"/>
	<circle class="st1" cx="474.3" cy="149.1" r="0.6"/>
	<circle class="st1" cx="474.3" cy="154.2" r="0.6"/>
	<circle class="st1" cx="474.3" cy="159.2" r="0.6"/>
</g>
<g>
	<circle class="st1" cx="391.6" cy="200" r="0.6"/>
	<circle class="st1" cx="396.6" cy="200" r="0.6"/>
	<circle class="st1" cx="401.7" cy="200" r="0.6"/>
	<circle class="st1" cx="406.7" cy="200" r="0.6"/>
	<circle class="st1" cx="391.6" cy="194.1" r="0.6"/>
	<circle class="st1" cx="396.6" cy="194.1" r="0.6"/>
	<circle class="st1" cx="401.7" cy="194.1" r="0.6"/>
	<circle class="st1" cx="406.7" cy="194.1" r="0.6"/>
	<circle class="st1" cx="391.6" cy="188.2" r="0.6"/>
	<circle class="st1" cx="396.6" cy="188.2" r="0.6"/>
	<circle class="st1" cx="401.7" cy="188.2" r="0.6"/>
	<circle class="st1" cx="406.7" cy="188.2" r="0.6"/>
</g>
<g>
	<line class="st2" x1="450.9" y1="194.2" x2="446.8" y2="194.2"/>
	<line class="st2" x1="448.9" y1="192.1" x2="448.9" y2="196.3"/>
</g>
<circle class="st3" cx="464.6" cy="76.3" r="3.2"/>
<circle class="st2" cx="58.5" cy="115.4" r="2.7"/>
<polygon class="st1" points="87.6,177.4 86,174.7 84.4,177.4 "/>
<polygon class="st1" points="179.5,208.1 176.3,202.7 173.2,208.1 "/>
<polygon class="st1" points="405.6,140.7 402.1,141 404.1,143.9 "/>
<text transform="matrix(1 0 0 1 182.42 184.77)" class="st4 st5 st6">Alocasia/Kris Plant/Elephant Ear</text>
<text transform="matrix(1 0 0 1 230.95 199.55)" class="st7 st5 st8">@Purple Shamrock</text>
<path class="st7" d="M284.7,95.7c-5.3,0-10.6-0.9-15.9-1.3s-10.9-0.7-16.3-0.7s-10.9,0.1-16.3,0.4c-2.7,0.2-5.4,0.4-8.1,0.6
	c-1.4,0.1-3.2,0.1-4.4,1c-2.2,1.7-0.5,4.3,1.6,5c1.9,0.6,4.1,0.5,6,0.6c2.7,0.2,5.5,0.4,8.2,0.6c10.8,0.7,21.7,1.3,32.5,1.3
	c4.9,0,11,0,15.5-2.2c1.1-0.6,2.4-1.6,1.8-3s-3.1-1.9-4.5-2.2c-0.9-0.2-1.3,1.2-0.4,1.3c0.9,0.1,1.8,0.3,2.6,0.7l0.5,0.2l-0.3,1.3
	c-0.5,0.4-1.1,0.6-1.7,0.7c-2.2,0.7-4.4,1.1-6.6,1.3c-4.1,0.4-8.2,0.4-12.2,0.3c-8.3-0.2-16.7-0.5-25-1c-4.2-0.2-8.5-0.5-12.7-0.9
	c-0.9,0-1.9-0.1-2.8-0.3c-1.1-0.3-3.5-1.8-1-3c1.6-0.8,4.3-0.5,6-0.6c8.4-0.7,16.9-0.9,25.4-0.7c4.7,0.1,9.3,0.4,14,0.8
	c4.7,0.4,9.4,1.1,14,1.1c0.4,0,0.7-0.4,0.6-0.8C285.3,96,285,95.8,284.7,95.7L284.7,95.7z"/>
<path class="st7" d="M250.1,94.4c1-6.6-3.1-11.8-5.1-17.8c-1.1-3.5-1.2-7.2-0.2-10.7c0.9-3.4,3-7.7,6.6-8.9
	c9.6-3.2,7.7,12.9,6.7,17.8c-1.3,6.7-4,13.1-8,18.7c-0.5,0.7,0.7,1.4,1.2,0.7c4.7-6.6,7.7-14.3,8.7-22.4c0.6-5.2,1.5-15.7-5.9-16.5
	c-7.1-0.8-10.8,8.2-11.3,13.8c-0.3,3.8,0.4,7.6,2.1,11c1.9,4.4,4.6,8.9,3.8,13.9C248.6,94.9,250,95.3,250.1,94.4L250.1,94.4z"/>
<path class="st7" d="M248.1,93.4c-4.8-2.8-10.3-4.1-15.1-6.9s-9.7-8.9-6.4-14.7c2-3.5,5.8-2.4,8.6-0.6c2.7,1.7,4.6,4.3,5.4,7.3
	c0.6,2.5,1.4,4.9,2.4,7.3c1.4,2.5,3,5,4.8,7.2c0.5,0.7,1.7,0,1.2-0.7c-2.3-3.1-4.7-6.3-6-10c-1-3.1-1.3-6.3-3.3-8.9
	c-3-3.9-10.1-8.1-13.9-3c-3.4,4.6-1.2,10.9,2.6,14.5c5.3,4.9,12.8,6.1,18.8,9.7c0.4,0.2,0.8,0,0.9-0.4
	C248.5,93.9,248.4,93.5,248.1,93.4L248.1,93.4z"/>
<path class="st7" d="M240.4,74.5c0.9-7.3,4.3-13.9,6.5-20.9c1.3-4,1.9-10.7-3.9-11.3c-5.5-0.6-8.3,4.8-9.2,9.4
	c-0.7,3.6-1,7.2-0.8,10.8c0.1,2.9,0.5,5.7,2.1,8.2c0.5,0.8,1.7,0.1,1.2-0.7c-3-4.6-2.2-12-1.2-17.2c0.4-2.5,1.1-5.3,3-7.2
	s5.9-3,7.7-0.1c2.5,3.9-1.1,10.6-2.5,14.4c-1.8,4.8-3.6,9.6-4.2,14.7C238.9,75.4,240.3,75.4,240.4,74.5L240.4,74.5z"/>
<path class="st7" d="M248.1,92.8l0.2,1.1c0.1,0.4,0.5,0.6,0.9,0.5c0.4-0.1,0.6-0.5,0.5-0.9l-0.2-1.1c-0.1-0.4-0.5-0.6-0.9-0.5
	C248.2,92.1,248,92.4,248.1,92.8z"/>
<path class="st7" d="M253,94.7c4.6-2.5,8.3-6.3,10.8-10.9c1.2-2.4,2.1-4.9,2.7-7.5c0.7-3.3,3.3-9.8,7.8-8.5c3.9,1.1,4.7,6.8,3.5,10
	s-3.6,5.4-6.1,7.4c-5.2,4-11.2,6.6-17.6,7.7c-0.9,0.2-0.5,1.5,0.4,1.3c7.4-1.3,14.2-4.5,19.8-9.4c4.7-4.3,7.8-11,3.1-16.6
	c-5-5.8-10.8,2-12,6.8c-1.9,7.9-5.8,14.3-13.1,18.4C251.5,93.9,252.2,95.1,253,94.7L253,94.7z"/>
<path class="st7" d="M265.9,78.7c1.6-5.1-0.3-10.5-2.1-15.2c-1.3-3.4-2.4-7-1.3-10.7c1-3.3,2.8-6.3,5.3-8.6c3.2-2.7,8.3-2.5,9.4,2.1
	c0.9,3.5-1.1,6.8-3,9.5c-3.6,5.2-6.5,10.8-8.7,16.8c-0.3,0.8,1,1.2,1.3,0.4c1.4-4.1,3.2-8,5.4-11.7c2-3.3,4.6-6.2,5.9-9.8
	c1.8-5.2-1.1-11.6-7.4-10.3c-3.1,0.7-5.4,3-7,5.6c-1.8,2.9-3.4,6.2-3.3,9.8c0.4,7.4,6.3,14.1,3.9,21.8
	C264.2,79.1,265.6,79.5,265.9,78.7L265.9,78.7z"/>
<path class="st7" d="M265.3,95c3.3-3.4,7.2-6.2,11.4-8.4c2.4-1.3,5.1-2.2,7.8-2.5c2.4-0.2,7.2,0.2,7.5,3.3
	c0.5,5.3-10.5,3.6-13.6,3.5c-2-0.2-4-0.1-6,0.3c-2.4,0.5-4.5,1.8-6.7,2.7c-0.8,0.3-0.5,1.7,0.4,1.3c3.2-1.3,6-3,9.6-3.1
	c3.3-0.1,6.6,0.5,9.9,0.4s10-1.9,7.7-6.5s-9.8-3.7-13.8-2.2c-5.7,2.3-10.8,5.7-15.1,10.1C263.6,94.6,264.6,95.6,265.3,95L265.3,95z"
	/>
<path class="st7" d="M280.4,84.9c2.7-3.6,3.9-8.1,3.4-12.6c-0.6-4.8-5.6-14,0.8-16.9c3.6-1.6,5.5,2,6.4,4.9c1,2.8,0.9,5.9-0.3,8.7
	c-2.2,5.3-6.6,9.7-10.2,14.1c-0.6,0.7,0.4,1.7,1,1c4-4.9,9.6-10.3,11.2-16.6c1-4.2-0.2-12.2-5-13.7c-5.6-1.8-8.1,5-7.6,9.3
	c0.4,3.5,2.1,6.7,2.3,10.2c0.2,3.9-0.9,7.8-3.3,11C278.7,85,279.9,85.7,280.4,84.9L280.4,84.9z"/>
<path class="st7" d="M230.6,85.6c-3.6-2.2-10.9-1.3-9.4,4.4c0.6,2.1,2.9,2.8,4.9,2.5c1-0.2,1.7-0.9,2.1-1.8c0.7-1.4,1.1-2.6,2.6-3.4
	c0.8-0.4,0.1-1.6-0.7-1.2c-1,0.5-1.8,1.3-2.3,2.2c-0.2,0.5-0.5,1-0.7,1.5c-0.5,1.2-1.8,1.8-3,1.3c-1.3-0.4-2-1.8-1.6-3.1
	c0,0,0-0.1,0-0.1c0.3-1.2,1.2-1.5,2.3-1.8c1.8-0.4,3.6-0.1,5.1,0.8C230.6,87.2,231.3,86,230.6,85.6L230.6,85.6z"/>
<path class="st7" d="M224.1,99.8c2.1,8.7,2.8,17.7,3.7,26.6l2.8,28.6c0.1,0.9,1.5,0.9,1.4,0c-1-9.8-1.9-19.7-2.9-29.5
	c-0.9-8.7-1.6-17.5-3.6-26C225.2,98.6,223.9,98.9,224.1,99.8L224.1,99.8z"/>
<path class="st7" d="M285,101.3c-0.1,5.5-0.6,10.9-1.6,16.3c-0.4,2.3-1.1,4.7-1.5,7c-0.3,2-0.3,4-0.5,6c-0.4,4.1-0.5,8.3-0.7,12.4
	c-0.3,4.9-1.1,9.7-1.3,14.6c0,0.9,1.4,0.9,1.4,0c0.1-4.8,0.9-9.5,1.2-14.2c0.3-4.3,0.3-8.5,0.8-12.8c1-9.8,3.5-19.3,3.6-29.3
	c0-0.4-0.4-0.7-0.8-0.6C285.3,100.7,285,101,285,101.3L285,101.3z"/>
<path class="st7" d="M230.6,154.4c0.1,4,5.1,5,8.1,6.2c4.8,2,9.9,3.3,15,4c9.3,1.2,19.2-0.6,26.7-6.4c0.7-0.5,0-1.8-0.7-1.2
	c-6.5,5-14.6,7-22.8,6.5c-4.3-0.3-8.6-1.1-12.8-2.5c-2-0.6-3.9-1.4-5.9-2.1s-6.2-1.8-6.3-4.5C231.9,153.5,230.5,153.4,230.6,154.4
	L230.6,154.4z"/>
<path class="st7" d="M239.2,122.1c-1.9,1.5-1.9,3.9-1.8,6.1c0.1,0.9,1.4,0.9,1.4,0c-0.1-1.8-0.2-3.9,1.4-5.1
	C240.9,122.5,239.9,121.6,239.2,122.1L239.2,122.1z"/>
<path class="st7" d="M258.6,125c0.5,1.7,0.4,3.5-0.4,5.1c-0.4,0.8,0.8,1.5,1.2,0.7c0.9-1.9,1.1-4.2,0.5-6.2
	c-0.1-0.4-0.6-0.5-0.9-0.4C258.7,124.4,258.6,124.7,258.6,125L258.6,125z"/>
<path class="st7" d="M239.8,123.3c6.6,0.6,12.8,3.2,19.5,2c0.9-0.2,0.5-1.5-0.4-1.3c-6.4,1.2-12.7-1.5-19.1-2
	C238.9,121.8,238.9,123.2,239.8,123.3L239.8,123.3z"/>
<path class="st7" d="M237.7,128.9c3.1,2.2,7,2.3,10.6,3s7.1,1,10.4-0.6c0.8-0.4,0.1-1.6-0.7-1.2c-3.6,1.8-7.4,0.8-11.1,0.2
	c-3-0.5-6-0.7-8.6-2.5C237.7,127.2,237,128.4,237.7,128.9L237.7,128.9z"/>
<path class="st7" d="M222.1,97.2c-3.6,5.1-1.8,12.6,0.9,17.7c3.1,5.6,8.2,9.7,14.3,11.5c0.9,0.3,1.2-1.1,0.4-1.3
	c-5.5-1.6-10.2-5.3-13.1-10.2c-2.8-4.8-4.7-12.1-1.3-17C223.8,97.2,222.6,96.5,222.1,97.2L222.1,97.2z"/>
<path class="st7" d="M259.7,129.2c8.2-0.6,16.4-3,22.5-8.6c5.8-5.4,8.8-13.3,7-21.1c-0.2-0.9-1.5-0.5-1.3,0.4
	c1.8,7.6-1.5,15.2-7.2,20.2s-13.5,7.2-21,7.7C258.8,127.9,258.8,129.3,259.7,129.2L259.7,129.2z"/>
<path class="st7" d="M248.4,61.4c0,1,0.1,2,0.3,3c0.1,0.2,0.3,0.3,0.4,0.2c0.1,0,0.1,0,0.1-0.1c0.5-0.5,1-1.1,1.4-1.7
	c0.3-0.4-0.3-0.7-0.6-0.3c-0.4,0.5-0.8,1-1.3,1.5l0.6,0.2c-0.1-0.9-0.2-1.9-0.2-2.8c0-0.2-0.2-0.3-0.4-0.3
	C248.5,61,248.4,61.2,248.4,61.4L248.4,61.4z"/>
<path class="st7" d="M252.9,60.2c0,0.5,0.1,1,0.3,1.5c0.1,0.4,0.2,0.9,0.5,1.2c0.6,0.7,1.3-0.5,1.7-0.9s-0.2-0.8-0.5-0.5l-0.5,0.6
	c-0.1,0.1-0.1,0.2-0.2,0.2c-0.1-0.1-0.1-0.3-0.2-0.4c-0.2-0.6-0.3-1.2-0.4-1.8C253.6,59.8,252.9,59.8,252.9,60.2L252.9,60.2z"/>
<path class="st7" d="M254.8,66c0.1,0.6,0.1,1.1,0.2,1.7c0.1,0.4,0,1.2,0.3,1.5c0.7,0.7,1.6-1,1.9-1.3s-0.2-0.8-0.5-0.5l-0.6,0.8
	c-0.1,0.1-0.2,0.4-0.4,0.4l0.1,0.1v-0.3c-0.1-0.8-0.2-1.5-0.3-2.3C255.5,65.6,254.8,65.6,254.8,66L254.8,66z"/>
<path class="st7" d="M250.6,66.8c0.1,1.1,0.2,2.1,0.4,3.2c0.1,0.2,0.3,0.3,0.4,0.2c0.1,0,0.1,0,0.1-0.1c0.5-0.6,0.9-1.2,1.2-1.9
	c0.2-0.4-0.4-0.8-0.6-0.3c-0.3,0.6-0.7,1.2-1.1,1.8l0.6,0.2c-0.2-1-0.3-2-0.4-3C251.3,66.4,250.6,66.4,250.6,66.8L250.6,66.8z"/>
<path class="st7" d="M245.8,67.8c-0.1,0.4-0.1,0.8,0,1.2c0,0.4,0.1,0.7,0.4,1c0.2,0.2,0.5,0.2,0.7,0c0.3-0.3,0.6-0.7,0.9-1.1
	c0.3-0.3-0.2-0.8-0.5-0.5l-0.5,0.6c-0.1,0.1-0.2,0.2-0.3,0.3l-0.1,0.1c0.2,0,0.2,0,0.2-0.1c0-0.1,0-0.2-0.1-0.3c0-0.1,0-0.3-0.1-0.4
	c0-0.3,0-0.5,0-0.8C246.4,67.4,245.8,67.4,245.8,67.8L245.8,67.8z"/>
<path class="st7" d="M247.6,72.9l0.7,2.8c0.1,0.2,0.2,0.3,0.4,0.2c0.1,0,0.2-0.1,0.2-0.2l1.1-1.7c0.3-0.4-0.4-0.7-0.6-0.3l-1.1,1.7
	l0.6,0.1l-0.7-2.8C248.1,72.2,247.5,72.4,247.6,72.9L247.6,72.9z"/>
<path class="st7" d="M253.5,73c0.3,0.8,0.6,1.7,0.9,2.5c0.1,0.2,0.3,0.2,0.5,0.1c0.7-0.4,1.1-1.1,1.4-1.8c0.1-0.4-0.5-0.6-0.7-0.2
	c-0.2,0.6-0.5,1.1-1,1.4l0.5,0.1c-0.3-0.8-0.6-1.5-0.9-2.3C254.1,72.4,253.4,72.6,253.5,73L253.5,73z"/>
<path class="st7" d="M251.5,77.5c0.1,0.9,0.3,1.9,0.5,2.8c0.1,0.2,0.3,0.3,0.4,0.2c0.1,0,0.1,0,0.1-0.1c0.5-0.5,0.9-1.1,1.2-1.8
	c0.2-0.4-0.5-0.6-0.7-0.2c-0.2,0.6-0.6,1.1-1,1.5l0.6,0.2c-0.2-0.9-0.4-1.7-0.5-2.6C252.3,77.1,251.5,77.1,251.5,77.5L251.5,77.5z"
	/>
<path class="st7" d="M249.8,80l-0.7,1.3c-0.1,0.1-0.1,0.2-0.2,0.3h0.1l-0.1-0.2l-0.3-0.7c-0.2-0.4-0.8-0.2-0.7,0.2s0.3,0.7,0.4,1.1
	c0.1,0.3,0.4,0.4,0.7,0.3c0,0,0,0,0,0c0.3-0.1,0.4-0.5,0.6-0.8l0.6-1.2C250.6,79.9,250,79.6,249.8,80L249.8,80z"/>
<path class="st7" d="M250.9,84.1c0,0.8,0.1,1.6,0.3,2.3c0.1,0.2,0.2,0.3,0.4,0.2c0,0,0.1,0,0.1,0c0.4-0.3,0.8-0.6,1.1-0.9
	c0.3-0.3-0.2-0.8-0.5-0.5c-0.3,0.3-0.7,0.5-1,0.8l0.5,0.2c-0.2-0.7-0.3-1.4-0.3-2.1c0-0.2-0.2-0.3-0.4-0.3
	C251.1,83.8,250.9,83.9,250.9,84.1L250.9,84.1z"/>
<path class="st7" d="M255.4,78c0.3,0.5,0.5,1.1,0.6,1.7c0.1,0.2,0.3,0.3,0.4,0.2c0.1,0,0.1,0,0.1-0.1c0.3-0.3,0.6-0.7,0.8-1.1
	c0.2-0.4-0.4-0.8-0.6-0.3c-0.2,0.3-0.4,0.7-0.7,0.9l0.6,0.2c-0.2-0.6-0.4-1.3-0.7-1.9C255.8,77.2,255.2,77.6,255.4,78L255.4,78z"/>
<path class="st7" d="M268.9,44.3c-0.3,0.4-0.5,0.8-0.7,1.3c-0.1,0.3-0.5,0.9-0.3,1.2c0.1,0.3,0.5,0.4,0.7,0.2c0,0,0,0,0.1,0
	c0.5-0.3,0.9-0.6,1.3-1c0.4-0.3,0-0.9-0.4-0.6l-0.7,0.5c-0.1,0.1-0.5,0.5-0.7,0.5l0.3,0.1l-0.1-0.1l0.1,0.3c0.1-0.4,0.2-0.7,0.4-1
	c0.2-0.3,0.3-0.7,0.5-1C269.7,44.3,269.1,43.9,268.9,44.3L268.9,44.3z"/>
<path class="st7" d="M272.4,44.9l0.1,1.7c0,0.3,0,0.8,0.3,1c0.7,0.4,1.4-1,1.6-1.4s-0.4-0.8-0.6-0.3c-0.1,0.2-0.2,0.4-0.4,0.6
	c-0.1,0.1-0.3,0.5-0.5,0.5l0.3,0.1c-0.1-0.1,0-0.8,0-1l0-1.1C273.2,44.5,272.5,44.5,272.4,44.9L272.4,44.9z"/>
<path class="st7" d="M274.7,48.4l-0.1,1.7c0,0.3-0.1,0.8,0.2,1s0.6,0,0.8-0.2c0.4-0.4,0.7-0.9,1.1-1.3s-0.2-0.8-0.5-0.5l-0.6,0.8
	c-0.2,0.2-0.4,0.6-0.6,0.7h0.3c0.1,0,0.1-1.9,0.1-2.1C275.4,48,274.7,48,274.7,48.4L274.7,48.4z"/>
<path class="st7" d="M270.2,49.3c-0.1,0.5-0.1,1.1-0.2,1.7c0,0.4-0.2,0.9,0.1,1.2c0.5,0.5,1.7-0.5,2.1-0.9s-0.2-0.8-0.5-0.5
	c-0.2,0.2-0.5,0.4-0.8,0.6c0,0-0.4,0.2-0.3,0.2s0,0.1,0,0v-0.3c0.1-0.7,0.1-1.3,0.2-2C270.9,48.9,270.2,48.9,270.2,49.3L270.2,49.3z
	"/>
<path class="st7" d="M267.5,50l-1.8,2.2l0.6,0.3c-0.1-0.8-0.1-1.6-0.1-2.3c0-0.5-0.7-0.5-0.7,0c0,0.8,0,1.6,0.1,2.3
	c0,0.3,0.4,0.5,0.6,0.3l1.8-2.2C268.2,50.2,267.7,49.7,267.5,50L267.5,50z"/>
<path class="st7" d="M268.1,53.8l-0.6,2.3c-0.1,0.4-0.4,1-0.1,1.4c0.2,0.3,0.5,0.3,0.8,0.2c0.6-0.4,1.1-0.8,1.6-1.3
	c0.4-0.3-0.1-0.8-0.5-0.5l-1,0.8c0,0-0.3,0.3-0.4,0.3s0.1-0.5,0.1-0.5l0.6-2.5c0-0.2-0.1-0.4-0.3-0.4
	C268.3,53.5,268.2,53.6,268.1,53.8L268.1,53.8z"/>
<path class="st7" d="M272.7,53.5c-0.1,0.8-0.2,1.6-0.1,2.4c0,0.2,0.2,0.3,0.4,0.3c0.1,0,0.1,0,0.2,0c0.5-0.3,0.9-0.6,1.2-1
	c0.3-0.3-0.2-0.8-0.5-0.5c-0.3,0.3-0.6,0.6-1,0.9l0.5,0.3c-0.1-0.7,0-1.5,0.1-2.2C273.5,53.3,272.8,53.1,272.7,53.5L272.7,53.5z"/>
<path class="st7" d="M263.4,56.5c0,0.7,0.2,1.3,0.5,1.9c0.1,0.2,0.3,0.2,0.5,0.1c0,0,0.1-0.1,0.1-0.1l0.8-1.4
	c0.2-0.4-0.4-0.7-0.6-0.3l-0.8,1.4h0.6c-0.2-0.5-0.4-1-0.4-1.6c0-0.2-0.2-0.4-0.4-0.4S263.4,56.3,263.4,56.5z"/>
<path class="st7" d="M266.6,60.5v1.4c0,0.3-0.1,0.7,0.2,0.9c0.6,0.5,1.2-0.7,1.5-1.1s-0.3-0.7-0.6-0.3c-0.1,0.1-0.5,0.9-0.6,0.9
	l0.3,0.1c-0.1-0.1,0-0.7,0-0.8c0-0.3,0-0.7,0-1c0-0.2-0.2-0.4-0.4-0.4S266.6,60.3,266.6,60.5L266.6,60.5z"/>
<path class="st7" d="M263.8,61.6c0,0.5,0,1.4,0.6,1.7s0.8-0.8,1-1.3c0-0.2-0.1-0.4-0.3-0.4c-0.2,0-0.3,0.1-0.4,0.2l-0.1,0.5
	c0,0.1-0.1,0.2-0.1,0.2c-0.1,0.1,0,0.1,0.1,0.1s0.1-0.1,0.1-0.1c0-0.1-0.1-0.3-0.1-0.4c0-0.2,0-0.4,0-0.6
	C264.6,61.2,263.9,61.2,263.8,61.6L263.8,61.6z"/>
<path class="st7" d="M265.8,65v1.3c0,0.2,0.2,0.3,0.4,0.3l0,0c0.5,0,0.9-0.3,1.1-0.7c0.2-0.4-0.4-0.8-0.6-0.3
	c-0.1,0.2-0.3,0.3-0.5,0.3l0.4,0.3V65c0-0.2-0.2-0.4-0.4-0.4S265.8,64.8,265.8,65z"/>
<path class="st7" d="M240.4,46.6c0,0.4,0,0.9,0,1.3s0.2,0.6,0.5,0.6s0.6-0.3,0.9-0.5s0.7-0.6,1-0.9s-0.2-0.8-0.5-0.5
	s-0.5,0.4-0.7,0.6l-0.3,0.3l-0.2,0.2c-0.1,0.1-0.1,0.1-0.1,0l0.2,0.2c-0.1-0.1,0-0.5,0-0.7v-0.7c0-0.2-0.2-0.3-0.4-0.3
	C240.6,46.2,240.4,46.4,240.4,46.6L240.4,46.6z"/>
<path class="st7" d="M243.8,48.4c0,0.8,0,1.6,0.1,2.4c0,0.2,0.2,0.3,0.4,0.3c0.1,0,0.2,0,0.2-0.1c0.4-0.4,0.8-0.8,1.2-1.3
	c0.3-0.3-0.2-0.8-0.5-0.5s-0.8,0.8-1.2,1.3l0.6,0.3c-0.1-0.8-0.1-1.6-0.1-2.4C244.5,48,243.8,48,243.8,48.4L243.8,48.4z"/>
<path class="st7" d="M240.6,51.7c-0.1,0.5-0.2,1.1-0.3,1.7c-0.1,0.3-0.2,0.9,0.1,1.2c0.5,0.6,1.6-0.3,2-0.6s-0.1-0.8-0.5-0.5
	c-0.2,0.2-0.4,0.3-0.6,0.4c-0.1,0-0.3,0.2-0.4,0.2c0.2,0.1,0.1-0.2,0.2-0.4c0.1-0.6,0.2-1.2,0.3-1.8S240.8,51.3,240.6,51.7
	L240.6,51.7z"/>
<path class="st7" d="M238.1,48.9c-0.3,0.8-0.7,1.6-1.1,2.4h0.6c-0.3-0.6-0.5-1.3-0.4-2c0-0.5-0.7-0.4-0.7,0
	c-0.1,0.8,0.1,1.6,0.5,2.3c0.1,0.2,0.3,0.2,0.5,0.1c0,0,0.1-0.1,0.1-0.1c0.5-0.8,0.9-1.7,1.2-2.6C239,48.7,238.3,48.5,238.1,48.9
	L238.1,48.9z"/>
<path class="st7" d="M236.8,54.4l0.2,1.7c0,0.4,0.1,0.8,0.2,1.2c0.6,0.8,1.5-0.7,1.8-1s-0.2-0.8-0.5-0.5l-0.7,0.7l-0.1,0.2
	c-0.1,0.1-0.1,0.1,0,0c0.1-0.1,0.1-0.1,0-0.1v-0.3l-0.2-1.9C237.5,54,236.8,54,236.8,54.4L236.8,54.4z"/>
<path class="st7" d="M240.9,58.4c0.1,0.5,0.1,1,0.2,1.5c0,0.3,0.2,0.6,0.5,0.8c0.3,0.1,0.6,0,0.8-0.3c0.3-0.4,0.6-0.8,0.9-1.2
	c0.3-0.4-0.4-0.7-0.6-0.3s-0.4,0.5-0.6,0.8l-0.2,0.3l-0.1,0.1c0.1,0.1,0.1,0.1,0.1,0c0-0.1,0-0.2-0.1-0.3c0-0.2,0-0.3-0.1-0.5
	l-0.1-0.9C241.5,58,240.8,58,240.9,58.4L240.9,58.4z"/>
<path class="st7" d="M238.8,62.2l-0.5,2.6l0.6-0.1c-0.3-0.5-0.6-1-0.6-1.6c-0.1-0.4-0.7-0.3-0.7,0.2c0.1,0.6,0.3,1.2,0.7,1.8
	c0.1,0.2,0.6,0.2,0.6-0.1l0.5-2.6C239.5,62,238.8,61.8,238.8,62.2L238.8,62.2z"/>
<path class="st7" d="M236.4,59.7l-1,2.2h0.6c-0.4-0.5-0.6-1.2-0.7-1.8c0-0.4-0.7-0.5-0.7,0c0.1,0.8,0.3,1.5,0.8,2.2
	c0.1,0.2,0.3,0.2,0.5,0.1c0,0,0.1-0.1,0.1-0.1l1-2.2C237.2,59.7,236.6,59.3,236.4,59.7L236.4,59.7z"/>
<path class="st7" d="M236.7,66.4c-0.2,0.9-0.2,1.8,0,2.7l0.6-0.3l-1.4-1.6c-0.3-0.3-0.8,0.2-0.5,0.5l1.4,1.6c0.3,0.3,0.6,0,0.6-0.3
	c-0.1-0.8-0.1-1.6,0-2.3C237.5,66.2,236.8,66,236.7,66.4z"/>
<path class="st7" d="M238.3,67.3c0.1,0.3,0.2,0.7,0.4,1c0.1,0.3,0.3,0.6,0.6,0.8c0.7,0.3,1-0.9,1.1-1.3s-0.5-0.6-0.7-0.2
	c-0.1,0.2-0.1,0.5-0.2,0.7v0.1c0,0.1,0,0.1,0,0.1c0.2,0.1-0.1-0.2-0.1-0.2c-0.2-0.3-0.4-0.7-0.5-1.1c-0.1-0.2-0.3-0.3-0.5-0.2
	C238.4,67,238.3,67.1,238.3,67.3L238.3,67.3z"/>
<path class="st7" d="M269.9,71.9c-0.3,0.8-0.3,1.6,0,2.4c0.1,0.2,0.3,0.3,0.4,0.2c0.1,0,0.1,0,0.1-0.1c0.5-0.6,0.9-1.4,1.1-2.2
	c0-0.2-0.1-0.4-0.3-0.4c-0.2,0-0.3,0.1-0.4,0.2c-0.2,0.7-0.5,1.4-1,1.9l0.6,0.2c-0.2-0.7-0.2-1.4,0-2.1
	C270.7,71.6,270,71.5,269.9,71.9L269.9,71.9z"/>
<path class="st7" d="M272.9,73.2c0.2,0.8,0.5,1.5,0.9,2.2c0.1,0.2,0.3,0.2,0.5,0.1c0,0,0.1-0.1,0.1-0.1l1.5-2
	c0.3-0.4-0.3-0.7-0.6-0.3l-1.5,2h0.6c-0.3-0.6-0.6-1.3-0.8-2c-0.1-0.2-0.3-0.3-0.5-0.2C273,72.9,272.9,73.1,272.9,73.2L272.9,73.2z"
	/>
<path class="st7" d="M271.3,76.4c-0.1,0.8-0.2,1.6-0.1,2.4c0,0.2,0.3,0.5,0.5,0.3c0.7-0.5,1.3-1.1,2-1.6c0.3-0.3-0.2-0.8-0.5-0.5
	c-0.6,0.5-1.2,1-1.8,1.5l0.5,0.3c-0.1-0.8-0.1-1.5,0-2.3C272,76.1,271.3,75.9,271.3,76.4L271.3,76.4z"/>
<path class="st7" d="M275.2,77.3l-0.2,1.4c0,0.3-0.1,0.7,0.3,0.8c0.3,0.1,0.6-0.1,0.8-0.3c0.3-0.3,0.5-0.7,0.8-1.1s-0.4-0.7-0.6-0.3
	l-0.4,0.6l-0.2,0.3l-0.1,0.2c-0.1,0.1,0,0.2,0.1,0.3c0-0.2,0.1-0.5,0.1-0.7l0.1-0.8C275.9,77.1,275.3,76.9,275.2,77.3L275.2,77.3z"
	/>
<path class="st7" d="M267.9,78.3l-1.6,2.2l0.6,0.1c-0.2-0.4-0.1-0.9,0.1-1.3c0.2-0.4-0.4-0.8-0.6-0.3c-0.3,0.6-0.4,1.2-0.2,1.8
	c0.1,0.2,0.2,0.3,0.4,0.2c0.1,0,0.2-0.1,0.2-0.2l1.6-2.2C268.8,78.3,268.2,77.9,267.9,78.3L267.9,78.3z"/>
<path class="st7" d="M269.3,81.8l-0.3,1.2c-0.1,0.3-0.1,0.6,0,0.9c0.4,0.6,1.4-0.1,1.8-0.4s0-0.9-0.4-0.6c-0.2,0.1-0.4,0.2-0.6,0.3
	c-0.1,0-0.2,0.1-0.3,0.1c-0.1,0-0.2,0-0.1,0.1s0.1,0.1,0,0c0.1-0.1,0.1-0.5,0.1-0.6L270,82C270.1,81.6,269.4,81.4,269.3,81.8
	L269.3,81.8z"/>
<path class="st7" d="M266.4,83.6c-0.4,0.7-0.9,1.4-1.4,2l0.6,0.3c-0.1-0.8,0-1.6,0.1-2.4c0.1-0.4-0.6-0.6-0.7-0.2
	c-0.2,0.8-0.3,1.7-0.2,2.6c0,0.3,0.4,0.5,0.6,0.3c0.5-0.7,1-1.4,1.4-2.1c0.1-0.2,0-0.4-0.2-0.5C266.7,83.5,266.5,83.5,266.4,83.6
	L266.4,83.6z"/>
<path class="st7" d="M263.7,87c-0.5,0.4-0.8,1-0.9,1.6c0,0.2,0.1,0.4,0.2,0.4c0,0,0.1,0,0.1,0c0.6,0,1.1,0,1.7-0.1
	c0.4-0.1,0.3-0.8-0.2-0.7c-0.5,0.1-1,0.1-1.5,0.1l0.3,0.4c0.1-0.5,0.3-1,0.7-1.3C264.5,87.2,264.1,86.7,263.7,87L263.7,87z"/>
<path class="st7" d="M269,85.7c-0.5,0.2-1,0.5-1.3,0.9c-0.1,0.2,0,0.4,0.1,0.5c0,0,0.1,0,0.1,0l0.7,0.3c0.4,0.2,0.6-0.5,0.2-0.7
	l-0.7-0.3l0.2,0.5c0.2-0.3,0.5-0.5,0.9-0.6c0.2-0.1,0.3-0.3,0.2-0.5C269.3,85.7,269.1,85.6,269,85.7L269,85.7z"/>
<path class="st7" d="M260.7,88.7c-0.2,0.3-0.4,0.5-0.5,0.8c-0.1,0.2-0.1,0.5,0,0.7c0.2,0.4,0.8,0.4,1.2,0.3c0.2-0.1,0.3-0.3,0.2-0.5
	c-0.1-0.1-0.2-0.2-0.4-0.2c-0.1,0-0.2,0-0.3,0c0,0-0.1,0-0.1,0l0,0c0,0,0,0,0,0.1l0,0v-0.1l0.2-0.2l0.3-0.5
	C261.5,88.7,260.9,88.3,260.7,88.7L260.7,88.7z"/>
<path class="st7" d="M283.1,59.6c0.1,0.5,0.3,0.9,0.5,1.3c0.1,0.3,0.3,0.7,0.7,0.8s0.5-0.3,0.6-0.5c0.2-0.5,0.4-1,0.6-1.5
	s-0.5-0.6-0.7-0.2l-0.3,0.8l-0.2,0.4l-0.1,0.3c0.1,0.1,0.2,0.1,0.1,0c0-0.1-0.1-0.3-0.2-0.4s-0.1-0.3-0.1-0.4s-0.2-0.5-0.3-0.8
	c-0.1-0.2-0.3-0.3-0.5-0.2C283.2,59.3,283.1,59.5,283.1,59.6L283.1,59.6z"/>
<path class="st7" d="M286.1,57.2l0.7,1.1c0.2,0.3,0.3,0.7,0.7,0.7c0.7,0.2,1-0.9,1.1-1.4s-0.6-0.6-0.7-0.2c0,0.2-0.1,0.4-0.2,0.6
	c0,0-0.1,0.3-0.1,0.2s-0.1-0.2-0.1-0.2l-0.8-1.3C286.5,56.4,285.9,56.8,286.1,57.2L286.1,57.2z"/>
<path class="st7" d="M287.5,63l0.8,2.2c0.1,0.2,0.2,0.3,0.4,0.2c0.1,0,0.2-0.1,0.2-0.2c0.4-0.5,0.6-1.1,0.7-1.8
	c0.1-0.4-0.6-0.6-0.7-0.2c-0.1,0.6-0.3,1.1-0.7,1.6L289,65l-0.8-2.2C288,62.4,287.3,62.6,287.5,63L287.5,63z"/>
<path class="st7" d="M284.9,65.5l-1,1.6l0.6,0.1l-0.6-1.5c-0.2-0.4-0.8-0.2-0.7,0.2l0.6,1.5c0.1,0.2,0.2,0.3,0.4,0.2
	c0.1,0,0.2-0.1,0.2-0.2l1-1.6C285.7,65.5,285.1,65.1,284.9,65.5L284.9,65.5z"/>
<path class="st7" d="M286,68c0,0.8,0.2,1.7,0.5,2.4c0.1,0.2,0.3,0.2,0.5,0.1c0,0,0,0,0.1-0.1l1.4-1.8c0.3-0.3-0.2-0.8-0.5-0.5
	l-1.4,1.8l0.5,0.1c-0.3-0.6-0.5-1.4-0.4-2.1C286.7,67.6,286,67.6,286,68L286,68z"/>
<path class="st7" d="M286.9,72c-0.1,0.4-0.1,0.8-0.1,1.3c-0.1,0.3,0,0.7,0.1,1c0.2,0.2,0.4,0.3,0.7,0.2c0.1-0.1,0.3-0.2,0.4-0.3
	c0.1-0.1,0.1-0.3,0.3-0.4c0.4-0.2,0-0.8-0.4-0.6c-0.1,0.1-0.2,0.2-0.3,0.3c-0.1,0.1-0.1,0.1-0.1,0.2c0,0.1,0,0.2,0,0
	c0.1-0.5,0-1,0.1-1.5S287,71.6,286.9,72L286.9,72z"/>
<path class="st7" d="M285.3,74.2l-1,1.2l0.6,0.3l-0.2-1.7c0-0.4-0.7-0.4-0.7,0l0.2,1.7c0,0.3,0.4,0.5,0.6,0.3l1-1.2
	C286,74.3,285.5,73.8,285.3,74.2L285.3,74.2z"/>
<path class="st7" d="M227.8,74.1c0.8,0.5,1.7,1,2.6,1.2c0.2,0,0.4-0.1,0.4-0.2c0,0,0-0.1,0-0.1c0-0.6-0.1-1.2-0.3-1.8
	c-0.1-0.2-0.3-0.3-0.5-0.2c-0.1,0.1-0.2,0.2-0.2,0.4c0.2,0.5,0.2,1.1,0.2,1.7l0.4-0.3c-0.9-0.2-1.7-0.6-2.4-1.2
	C227.8,73.2,227.5,73.8,227.8,74.1L227.8,74.1z"/>
<path class="st7" d="M233.8,74.7l1.6,1.3c0.3,0.3,0.7,0.7,1.1,0.7c1,0,0.4-1.9,0.2-2.4s-0.8-0.3-0.7,0.2s0.1,0.7,0.2,1
	c0,0.2,0.1,0.4,0.1,0.5c0.1-0.1-0.2-0.3-0.3-0.3l-1.7-1.5C233.9,73.9,233.4,74.4,233.8,74.7L233.8,74.7z"/>
<path class="st7" d="M231.8,79l0.5,2.4l0.4-0.4c-0.6-0.2-1.2-0.6-1.7-1c-0.3-0.3-0.8,0.2-0.5,0.5c0.6,0.5,1.3,0.9,2,1.2
	c0.3,0.1,0.5-0.2,0.4-0.4l-0.5-2.4C232.3,78.4,231.7,78.6,231.8,79L231.8,79z"/>
<path class="st7" d="M236.1,81.8c0.7,0.8,1.4,1.4,2.3,2c0.2,0.1,0.4,0,0.5-0.1c0,0,0-0.1,0-0.1c0.1-0.7,0.1-1.4-0.1-2.2
	c-0.1-0.4-0.8-0.3-0.7,0.2c0.1,0.6,0.2,1.2,0.1,1.8l0.5-0.2c-0.8-0.5-1.5-1.2-2.1-1.9C236.3,80.9,235.8,81.4,236.1,81.8L236.1,81.8z
	"/>
<path class="st7" d="M238.3,78.7c0.5,0.4,1,0.8,1.5,1.1c0.2,0.1,0.4,0,0.5-0.1c0-0.1,0-0.1,0-0.2c0-0.7-0.2-1.3-0.4-1.9
	c-0.2-0.4-0.8-0.2-0.7,0.2c0.2,0.5,0.4,1.1,0.4,1.7l0.5-0.3c-0.5-0.3-0.9-0.6-1.4-1C238.5,77.8,238,78.3,238.3,78.7L238.3,78.7z"/>
<path class="st7" d="M234.5,85.1l0.9,2l0.3-0.5c-0.6-0.1-1.2-0.2-1.8-0.5c-0.4-0.2-0.8,0.4-0.4,0.6c0.7,0.3,1.4,0.5,2.1,0.6
	c0.3,0,0.4-0.3,0.3-0.5l-0.9-2C234.9,84.4,234.3,84.7,234.5,85.1z"/>
<path class="st7" d="M238.2,87.7c0.7,0.6,1.5,1,2.4,1.2c0.2,0.1,0.4-0.1,0.4-0.2c0-0.1,0-0.1,0-0.2l-0.6-1.9
	c-0.1-0.2-0.3-0.3-0.5-0.2c-0.1,0.1-0.2,0.2-0.2,0.4l0.6,1.9l0.4-0.4c-0.8-0.2-1.5-0.5-2.1-1C238.3,86.9,237.8,87.4,238.2,87.7
	L238.2,87.7z"/>
<path class="st7" d="M241.3,85.9c0.4,0.4,0.9,0.7,1.5,0.9c0.2,0,0.4-0.1,0.4-0.2c0,0,0-0.1,0-0.1c0-0.4-0.1-0.8-0.3-1.2
	c-0.2-0.4-0.8-0.1-0.6,0.3c0.1,0.3,0.2,0.5,0.2,0.8L243,86c-0.5-0.1-0.9-0.3-1.2-0.7C241.5,85,241,85.5,241.3,85.9L241.3,85.9z"/>
<path class="st7" d="M227,76.8l0.3,1.9l0.5-0.4c-0.3-0.2-0.7-0.5-0.9-0.9c-0.3-0.4-0.9,0-0.6,0.3c0.3,0.4,0.7,0.8,1.1,1.1
	c0.3,0.2,0.6-0.1,0.5-0.4l-0.3-1.9C227.6,76.2,226.9,76.4,227,76.8L227,76.8z"/>
<path class="st7" d="M242.9,89.2c0.2,0.6,0.7,1,1.3,1.1c0.2,0,0.4-0.1,0.4-0.3c0,0,0,0,0-0.1c0-0.4,0-0.8-0.2-1.1
	c-0.1-0.2-0.2-0.3-0.4-0.2c-0.2,0.1-0.3,0.2-0.2,0.4c0.1,0.3,0.2,0.6,0.1,0.9l0.4-0.3c-0.4,0-0.7-0.3-0.8-0.7
	C243.4,88.6,242.7,88.8,242.9,89.2L242.9,89.2z"/>
<path class="st7" d="M275.4,88.2c-0.6,0.1-1.1,0.4-1.6,0.8c-0.1,0.1-0.1,0.4,0,0.5c0,0,0,0,0.1,0.1c0.7,0.4,1.6,0.5,2.4,0.3
	c0.4-0.1,0.3-0.8-0.2-0.7c-0.6,0.1-1.3,0.1-1.9-0.2l0.1,0.6c0.4-0.3,0.8-0.6,1.3-0.7C276.1,88.8,275.9,88.1,275.4,88.2L275.4,88.2z"
	/>
<path class="st7" d="M272.2,89.8c-0.3,0.2-0.5,0.5-0.5,0.9c0,0.2,0.2,0.3,0.4,0.3l0,0l1.1-0.1c0.5,0,0.5-0.7,0-0.7l-1.1,0.1l0.4,0.3
	c0-0.1,0.1-0.3,0.2-0.3C273,90.1,272.6,89.5,272.2,89.8L272.2,89.8z"/>
<path class="st7" d="M279.8,85.4c-0.3,0.2-0.6,0.4-1,0.6c-0.3,0.2-0.4,0.5-0.3,0.8c0.1,0.3,0.3,0.5,0.6,0.6c0.3,0.1,0.7,0,1-0.2
	c0.4-0.2,0-0.8-0.4-0.6c-0.1,0.1-0.3,0.1-0.5,0.2c0,0-0.1,0-0.1-0.1s0,0,0,0c0.1-0.1,0.3-0.2,0.4-0.3l0.5-0.3
	C280.4,85.9,280,85.2,279.8,85.4L279.8,85.4z"/>
<path class="st7" d="M280.9,88.4c-0.6,0-1.1,0.2-1.5,0.6c-0.1,0.1-0.1,0.4,0,0.5c0,0,0,0,0.1,0.1c0.5,0.3,1,0.5,1.5,0.8
	c0.4,0.2,0.8-0.4,0.4-0.6s-1-0.5-1.5-0.8l0.1,0.6c0.3-0.2,0.6-0.4,1-0.4C281.3,89.1,281.3,88.4,280.9,88.4L280.9,88.4z"/>
<path class="st7" d="M285,86.2c-0.4,0-0.9,0-1.3,0c-0.3,0-0.5,0.2-0.6,0.5c-0.1,0.4,0.3,0.5,0.6,0.7l1.4,0.7
	c0.4,0.2,0.8-0.4,0.4-0.6l-0.7-0.4c-0.2-0.1-0.5-0.3-0.7-0.4l-0.1-0.1c-0.1,0.2,0,0.3,0.1,0.2c0.1,0,0.3,0,0.4,0h0.8
	c0.2,0,0.3-0.2,0.3-0.4C285.3,86.4,285.2,86.2,285,86.2L285,86.2z"/>
<path class="st7" d="M289.1,88.8l-1.8,0.2c-0.3,0-0.5,0.4-0.3,0.6c0.6,0.5,1.3,0.8,2,1c0.4,0.1,0.6-0.6,0.2-0.7
	c-0.6-0.1-1.2-0.4-1.7-0.9l-0.3,0.6l1.8-0.2C289.5,89.4,289.5,88.7,289.1,88.8L289.1,88.8z"/>
<path class="st7" d="M289.7,85.3c-0.5,0.1-1,0.2-1.5,0.4c-0.2,0.1-0.3,0.3-0.2,0.4c0,0.1,0,0.1,0.1,0.1c0.4,0.4,1,0.5,1.6,0.3
	c0.4-0.1,0.2-0.8-0.2-0.7c-0.3,0.1-0.6,0.1-0.9-0.2l-0.1,0.6c0.5-0.2,1-0.3,1.5-0.4C290.3,85.9,290.1,85.2,289.7,85.3L289.7,85.3z"
	/>
<path class="st7" d="M223.4,88.1c0.2-0.1,0.5-0.2,0.8-0.2h0.4h0.2c0.1,0,0.1,0,0.1,0l-0.1-0.3c0,0.2-0.3,0.5-0.4,0.7
	c-0.2,0.4,0.4,0.7,0.6,0.3s0.8-1.2,0.1-1.4c-0.6-0.1-1.2,0-1.8,0.2C222.9,87.6,223,88.2,223.4,88.1L223.4,88.1z"/>
<path class="st7" d="M226.6,87.3C226.7,87.2,226.8,87.4,226.6,87.3c-0.4,0.2-0.2,0.8,0.2,0.8c0.4-0.1,0.7-0.5,0.6-0.9
	c-0.1-0.4-0.5-0.7-0.9-0.6c-0.1,0-0.2,0.1-0.3,0.1c-0.2,0.1-0.2,0.3-0.1,0.5C226.2,87.4,226.4,87.4,226.6,87.3L226.6,87.3z"/>
<path class="st7" d="M240.5,124.9c-1.8,1.3-0.1,3.2,1.5,3.6c4.1,0.8,8.2,1.2,12.4,1.2c0.4,0,0.4-0.7,0-0.7c-2.3-0.1-4.5-0.2-6.8-0.5
	c-1.1-0.1-2.2-0.2-3.3-0.4c-0.6-0.1-1.2-0.1-1.8-0.3c-0.7-0.2-3.2-1.2-1.6-2.4C241.2,125.2,240.9,124.6,240.5,124.9L240.5,124.9z"/>
<path class="st7" d="M256.1,126.7c0.4,0.2,0.6,0.8,0.4,1.2c-0.2,0.4,0.4,0.8,0.6,0.3c0.4-0.8,0.1-1.7-0.7-2.2
	C256,125.8,255.7,126.4,256.1,126.7z"/>
</svg>
