<?xml version="1.0" encoding="utf-8"?>
<!-- Generator: Adobe Illustrator 21.0.0, SVG Export Plug-In . SVG Version: 6.00 Build 0)  -->
<svg version="1.1" id="Layer_1" xmlns="http://www.w3.org/2000/svg" xmlns:xlink="http://www.w3.org/1999/xlink" x="0px" y="0px"
	 viewBox="0 0 253 136" style="enable-background:new 0 0 253 136;" xml:space="preserve">
<style type="text/css">
	.st0{fill:#F5D077;}
	.st1{fill:#FFFFFF;}
	.st2{fill:none;stroke:#FFFFFF;stroke-width:0.77;stroke-linecap:round;stroke-miterlimit:10;}
	.st3{fill:none;stroke:#FFFFFF;stroke-width:0.66;stroke-linecap:round;stroke-miterlimit:10;}
	.st4{fill:#FCFBFA;}
	.st5{font-family:'Lato-Bold';}
	.st6{font-size:5.22px;}
	.st7{fill:#201600;}
	.st8{font-size:3.14px;}
</style>
<title>image-02</title>
<rect x="-2.5" y="-1.7" class="st0" width="258.8" height="139.1"/>
<g>
	<circle class="st1" cx="222.1" cy="7.4" r="0.3"/>
	<circle class="st1" cx="219.1" cy="7.4" r="0.3"/>
	<circle class="st1" cx="216.1" cy="7.4" r="0.3"/>
	<circle class="st1" cx="213.1" cy="7.4" r="0.3"/>
	<circle class="st1" cx="210" cy="7.4" r="0.3"/>
	<circle class="st1" cx="207" cy="7.4" r="0.3"/>
	<circle class="st1" cx="204" cy="7.4" r="0.3"/>
	<circle class="st1" cx="201" cy="7.4" r="0.3"/>
	<circle class="st1" cx="198" cy="7.4" r="0.3"/>
	<circle class="st1" cx="195" cy="7.4" r="0.3"/>
	<circle class="st1" cx="192" cy="7.4" r="0.3"/>
	<circle class="st1" cx="188.9" cy="7.4" r="0.3"/>
	<circle class="st1" cx="222.1" cy="10.9" r="0.3"/>
	<circle class="st1" cx="219.1" cy="10.9" r="0.3"/>
	<circle class="st1" cx="216.1" cy="10.9" r="0.3"/>
	<circle class="st1" cx="213.1" cy="10.9" r="0.3"/>
	<circle class="st1" cx="210" cy="10.9" r="0.3"/>
	<circle class="st1" cx="207" cy="10.9" r="0.3"/>
	<circle class="st1" cx="204" cy="10.9" r="0.3"/>
	<circle class="st1" cx="201" cy="10.9" r="0.3"/>
	<circle class="st1" cx="198" cy="10.9" r="0.3"/>
	<circle class="st1" cx="195" cy="10.9" r="0.3"/>
	<circle class="st1" cx="192" cy="10.9" r="0.3"/>
	<circle class="st1" cx="188.9" cy="10.9" r="0.3"/>
	<circle class="st1" cx="222.1" cy="14.4" r="0.3"/>
	<circle class="st1" cx="219.1" cy="14.4" r="0.3"/>
	<circle class="st1" cx="216.1" cy="14.4" r="0.3"/>
	<circle class="st1" cx="213.1" cy="14.4" r="0.3"/>
	<circle class="st1" cx="210" cy="14.4" r="0.3"/>
	<circle class="st1" cx="207" cy="14.4" r="0.3"/>
	<circle class="st1" cx="204" cy="14.4" r="0.3"/>
	<circle class="st1" cx="201" cy="14.4" r="0.3"/>
	<circle class="st1" cx="198" cy="14.4" r="0.3"/>
	<circle class="st1" cx="195" cy="14.4" r="0.3"/>
	<circle class="st1" cx="192" cy="14.4" r="0.3"/>
	<circle class="st1" cx="188.9" cy="14.4" r="0.3"/>
</g>
<g>
	<circle class="st1" cx="21.3" cy="92.3" r="0.3"/>
	<circle class="st1" cx="21.3" cy="95.3" r="0.3"/>
	<circle class="st1" cx="21.3" cy="98.3" r="0.3"/>
	<circle class="st1" cx="21.3" cy="101.3" r="0.3"/>
	<circle class="st1" cx="21.3" cy="104.3" r="0.3"/>
	<circle class="st1" cx="21.3" cy="107.3" r="0.3"/>
	<circle class="st1" cx="21.3" cy="110.4" r="0.3"/>
	<circle class="st1" cx="21.3" cy="113.4" r="0.3"/>
	<circle class="st1" cx="21.3" cy="116.4" r="0.3"/>
	<circle class="st1" cx="21.3" cy="119.4" r="0.3"/>
	<circle class="st1" cx="21.3" cy="122.4" r="0.3"/>
	<circle class="st1" cx="21.3" cy="125.4" r="0.3"/>
	<circle class="st1" cx="24.8" cy="92.3" r="0.3"/>
	<circle class="st1" cx="24.8" cy="95.3" r="0.3"/>
	<circle class="st1" cx="24.8" cy="98.3" r="0.3"/>
	<circle class="st1" cx="24.8" cy="101.3" r="0.3"/>
	<circle class="st1" cx="24.8" cy="104.3" r="0.3"/>
	<circle class="st1" cx="24.8" cy="107.3" r="0.3"/>
	<circle class="st1" cx="24.8" cy="110.4" r="0.3"/>
	<circle class="st1" cx="24.8" cy="113.4" r="0.3"/>
	<circle class="st1" cx="24.8" cy="116.4" r="0.3"/>
	<circle class="st1" cx="24.8" cy="119.4" r="0.3"/>
	<circle class="st1" cx="24.8" cy="122.4" r="0.3"/>
	<circle class="st1" cx="24.8" cy="125.4" r="0.3"/>
	<circle class="st1" cx="28.4" cy="92.3" r="0.3"/>
	<circle class="st1" cx="28.4" cy="95.3" r="0.3"/>
	<circle class="st1" cx="28.4" cy="98.3" r="0.3"/>
	<circle class="st1" cx="28.4" cy="101.3" r="0.3"/>
	<circle class="st1" cx="28.4" cy="104.3" r="0.3"/>
	<circle class="st1" cx="28.4" cy="107.3" r="0.3"/>
	<circle class="st1" cx="28.4" cy="110.4" r="0.3"/>
	<circle class="st1" cx="28.4" cy="113.4" r="0.3"/>
	<circle class="st1" cx="28.4" cy="116.4" r="0.3"/>
	<circle class="st1" cx="28.4" cy="119.4" r="0.3"/>
	<circle class="st1" cx="28.4" cy="122.4" r="0.3"/>
	<circle class="st1" cx="28.4" cy="125.4" r="0.3"/>
</g>
<circle class="st2" cx="229.6" cy="46.3" r="1.9"/>
<circle class="st3" cx="28.7" cy="72.4" r="1.6"/>
<polygon class="st1" points="46.1,109.4 45.2,107.8 44.2,109.4 "/>
<polygon class="st1" points="216.7,25.4 210.6,26 214.1,31 "/>
<g>
	<circle class="st1" cx="222.1" cy="7.4" r="0.3"/>
	<circle class="st1" cx="219.1" cy="7.4" r="0.3"/>
	<circle class="st1" cx="216.1" cy="7.4" r="0.3"/>
	<circle class="st1" cx="213.1" cy="7.4" r="0.3"/>
	<circle class="st1" cx="210" cy="7.4" r="0.3"/>
	<circle class="st1" cx="207" cy="7.4" r="0.3"/>
	<circle class="st1" cx="204" cy="7.4" r="0.3"/>
	<circle class="st1" cx="201" cy="7.4" r="0.3"/>
	<circle class="st1" cx="198" cy="7.4" r="0.3"/>
	<circle class="st1" cx="195" cy="7.4" r="0.3"/>
	<circle class="st1" cx="192" cy="7.4" r="0.3"/>
	<circle class="st1" cx="188.9" cy="7.4" r="0.3"/>
	<circle class="st1" cx="222.1" cy="10.9" r="0.3"/>
	<circle class="st1" cx="219.1" cy="10.9" r="0.3"/>
	<circle class="st1" cx="216.1" cy="10.9" r="0.3"/>
	<circle class="st1" cx="213.1" cy="10.9" r="0.3"/>
	<circle class="st1" cx="210" cy="10.9" r="0.3"/>
	<circle class="st1" cx="207" cy="10.9" r="0.3"/>
	<circle class="st1" cx="204" cy="10.9" r="0.3"/>
	<circle class="st1" cx="201" cy="10.9" r="0.3"/>
	<circle class="st1" cx="198" cy="10.9" r="0.3"/>
	<circle class="st1" cx="195" cy="10.9" r="0.3"/>
	<circle class="st1" cx="192" cy="10.9" r="0.3"/>
	<circle class="st1" cx="188.9" cy="10.9" r="0.3"/>
	<circle class="st1" cx="222.1" cy="14.4" r="0.3"/>
	<circle class="st1" cx="219.1" cy="14.4" r="0.3"/>
	<circle class="st1" cx="216.1" cy="14.4" r="0.3"/>
	<circle class="st1" cx="213.1" cy="14.4" r="0.3"/>
	<circle class="st1" cx="210" cy="14.4" r="0.3"/>
	<circle class="st1" cx="207" cy="14.4" r="0.3"/>
	<circle class="st1" cx="204" cy="14.4" r="0.3"/>
	<circle class="st1" cx="201" cy="14.4" r="0.3"/>
	<circle class="st1" cx="198" cy="14.4" r="0.3"/>
	<circle class="st1" cx="195" cy="14.4" r="0.3"/>
	<circle class="st1" cx="192" cy="14.4" r="0.3"/>
	<circle class="st1" cx="188.9" cy="14.4" r="0.3"/>
</g>
<g>
	<circle class="st1" cx="21.3" cy="92.3" r="0.3"/>
	<circle class="st1" cx="21.3" cy="95.3" r="0.3"/>
	<circle class="st1" cx="21.3" cy="98.3" r="0.3"/>
	<circle class="st1" cx="21.3" cy="101.3" r="0.3"/>
	<circle class="st1" cx="21.3" cy="104.3" r="0.3"/>
	<circle class="st1" cx="21.3" cy="107.3" r="0.3"/>
	<circle class="st1" cx="21.3" cy="110.4" r="0.3"/>
	<circle class="st1" cx="21.3" cy="113.4" r="0.3"/>
	<circle class="st1" cx="21.3" cy="116.4" r="0.3"/>
	<circle class="st1" cx="21.3" cy="119.4" r="0.3"/>
	<circle class="st1" cx="21.3" cy="122.4" r="0.3"/>
	<circle class="st1" cx="21.3" cy="125.4" r="0.3"/>
	<circle class="st1" cx="24.8" cy="92.3" r="0.3"/>
	<circle class="st1" cx="24.8" cy="95.3" r="0.3"/>
	<circle class="st1" cx="24.8" cy="98.3" r="0.3"/>
	<circle class="st1" cx="24.8" cy="101.3" r="0.3"/>
	<circle class="st1" cx="24.8" cy="104.3" r="0.3"/>
	<circle class="st1" cx="24.8" cy="107.3" r="0.3"/>
	<circle class="st1" cx="24.8" cy="110.4" r="0.3"/>
	<circle class="st1" cx="24.8" cy="113.4" r="0.3"/>
	<circle class="st1" cx="24.8" cy="116.4" r="0.3"/>
	<circle class="st1" cx="24.8" cy="119.4" r="0.3"/>
	<circle class="st1" cx="24.8" cy="122.4" r="0.3"/>
	<circle class="st1" cx="24.8" cy="125.4" r="0.3"/>
	<circle class="st1" cx="28.4" cy="92.3" r="0.3"/>
	<circle class="st1" cx="28.4" cy="95.3" r="0.3"/>
	<circle class="st1" cx="28.4" cy="98.3" r="0.3"/>
	<circle class="st1" cx="28.4" cy="101.3" r="0.3"/>
	<circle class="st1" cx="28.4" cy="104.3" r="0.3"/>
	<circle class="st1" cx="28.4" cy="107.3" r="0.3"/>
	<circle class="st1" cx="28.4" cy="110.4" r="0.3"/>
	<circle class="st1" cx="28.4" cy="113.4" r="0.3"/>
	<circle class="st1" cx="28.4" cy="116.4" r="0.3"/>
	<circle class="st1" cx="28.4" cy="119.4" r="0.3"/>
	<circle class="st1" cx="28.4" cy="122.4" r="0.3"/>
	<circle class="st1" cx="28.4" cy="125.4" r="0.3"/>
</g>
<circle class="st2" cx="229.6" cy="46.3" r="1.9"/>
<circle class="st3" cx="28.7" cy="72.4" r="1.6"/>
<polygon class="st1" points="46.1,109.4 45.2,107.8 44.2,109.4 "/>
<polygon class="st1" points="216.7,25.4 210.6,26 214.1,31 "/>
<g>
	<circle class="st1" cx="222.1" cy="7.4" r="0.3"/>
	<circle class="st1" cx="219.1" cy="7.4" r="0.3"/>
	<circle class="st1" cx="216.1" cy="7.4" r="0.3"/>
	<circle class="st1" cx="213.1" cy="7.4" r="0.3"/>
	<circle class="st1" cx="210" cy="7.4" r="0.3"/>
	<circle class="st1" cx="207" cy="7.4" r="0.3"/>
	<circle class="st1" cx="204" cy="7.4" r="0.3"/>
	<circle class="st1" cx="201" cy="7.4" r="0.3"/>
	<circle class="st1" cx="198" cy="7.4" r="0.3"/>
	<circle class="st1" cx="195" cy="7.4" r="0.3"/>
	<circle class="st1" cx="192" cy="7.4" r="0.3"/>
	<circle class="st1" cx="188.9" cy="7.4" r="0.3"/>
	<circle class="st1" cx="222.1" cy="10.9" r="0.3"/>
	<circle class="st1" cx="219.1" cy="10.9" r="0.3"/>
	<circle class="st1" cx="216.1" cy="10.9" r="0.3"/>
	<circle class="st1" cx="213.1" cy="10.9" r="0.3"/>
	<circle class="st1" cx="210" cy="10.9" r="0.3"/>
	<circle class="st1" cx="207" cy="10.9" r="0.3"/>
	<circle class="st1" cx="204" cy="10.9" r="0.3"/>
	<circle class="st1" cx="201" cy="10.9" r="0.3"/>
	<circle class="st1" cx="198" cy="10.9" r="0.3"/>
	<circle class="st1" cx="195" cy="10.9" r="0.3"/>
	<circle class="st1" cx="192" cy="10.9" r="0.3"/>
	<circle class="st1" cx="188.9" cy="10.9" r="0.3"/>
	<circle class="st1" cx="222.1" cy="14.4" r="0.3"/>
	<circle class="st1" cx="219.1" cy="14.4" r="0.3"/>
	<circle class="st1" cx="216.1" cy="14.4" r="0.3"/>
	<circle class="st1" cx="213.1" cy="14.4" r="0.3"/>
	<circle class="st1" cx="210" cy="14.4" r="0.3"/>
	<circle class="st1" cx="207" cy="14.4" r="0.3"/>
	<circle class="st1" cx="204" cy="14.4" r="0.3"/>
	<circle class="st1" cx="201" cy="14.4" r="0.3"/>
	<circle class="st1" cx="198" cy="14.4" r="0.3"/>
	<circle class="st1" cx="195" cy="14.4" r="0.3"/>
	<circle class="st1" cx="192" cy="14.4" r="0.3"/>
	<circle class="st1" cx="188.9" cy="14.4" r="0.3"/>
</g>
<g>
	<circle class="st1" cx="21.3" cy="92.3" r="0.3"/>
	<circle class="st1" cx="21.3" cy="95.3" r="0.3"/>
	<circle class="st1" cx="21.3" cy="98.3" r="0.3"/>
	<circle class="st1" cx="21.3" cy="101.3" r="0.3"/>
	<circle class="st1" cx="21.3" cy="104.3" r="0.3"/>
	<circle class="st1" cx="21.3" cy="107.3" r="0.3"/>
	<circle class="st1" cx="21.3" cy="110.4" r="0.3"/>
	<circle class="st1" cx="21.3" cy="113.4" r="0.3"/>
	<circle class="st1" cx="21.3" cy="116.4" r="0.3"/>
	<circle class="st1" cx="21.3" cy="119.4" r="0.3"/>
	<circle class="st1" cx="21.3" cy="122.4" r="0.3"/>
	<circle class="st1" cx="21.3" cy="125.4" r="0.3"/>
	<circle class="st1" cx="24.8" cy="92.3" r="0.3"/>
	<circle class="st1" cx="24.8" cy="95.3" r="0.3"/>
	<circle class="st1" cx="24.8" cy="98.3" r="0.3"/>
	<circle class="st1" cx="24.8" cy="101.3" r="0.3"/>
	<circle class="st1" cx="24.8" cy="104.3" r="0.3"/>
	<circle class="st1" cx="24.8" cy="107.3" r="0.3"/>
	<circle class="st1" cx="24.8" cy="110.4" r="0.3"/>
	<circle class="st1" cx="24.8" cy="113.4" r="0.3"/>
	<circle class="st1" cx="24.8" cy="116.4" r="0.3"/>
	<circle class="st1" cx="24.8" cy="119.4" r="0.3"/>
	<circle class="st1" cx="24.8" cy="122.4" r="0.3"/>
	<circle class="st1" cx="24.8" cy="125.4" r="0.3"/>
	<circle class="st1" cx="28.4" cy="92.3" r="0.3"/>
	<circle class="st1" cx="28.4" cy="95.3" r="0.3"/>
	<circle class="st1" cx="28.4" cy="98.3" r="0.3"/>
	<circle class="st1" cx="28.4" cy="101.3" r="0.3"/>
	<circle class="st1" cx="28.4" cy="104.3" r="0.3"/>
	<circle class="st1" cx="28.4" cy="107.3" r="0.3"/>
	<circle class="st1" cx="28.4" cy="110.4" r="0.3"/>
	<circle class="st1" cx="28.4" cy="113.4" r="0.3"/>
	<circle class="st1" cx="28.4" cy="116.4" r="0.3"/>
	<circle class="st1" cx="28.4" cy="119.4" r="0.3"/>
	<circle class="st1" cx="28.4" cy="122.4" r="0.3"/>
	<circle class="st1" cx="28.4" cy="125.4" r="0.3"/>
</g>
<circle class="st2" cx="229.6" cy="46.3" r="1.9"/>
<circle class="st3" cx="28.7" cy="72.4" r="1.6"/>
<polygon class="st1" points="46.1,109.4 45.2,107.8 44.2,109.4 "/>
<polygon class="st1" points="216.7,25.4 210.6,26 214.1,31 "/>
<g>
	<circle class="st1" cx="222.1" cy="7.4" r="0.3"/>
	<circle class="st1" cx="219.1" cy="7.4" r="0.3"/>
	<circle class="st1" cx="216.1" cy="7.4" r="0.3"/>
	<circle class="st1" cx="213.1" cy="7.4" r="0.3"/>
	<circle class="st1" cx="210" cy="7.4" r="0.3"/>
	<circle class="st1" cx="207" cy="7.4" r="0.3"/>
	<circle class="st1" cx="204" cy="7.4" r="0.3"/>
	<circle class="st1" cx="201" cy="7.4" r="0.3"/>
	<circle class="st1" cx="198" cy="7.4" r="0.3"/>
	<circle class="st1" cx="195" cy="7.4" r="0.3"/>
	<circle class="st1" cx="192" cy="7.4" r="0.3"/>
	<circle class="st1" cx="188.9" cy="7.4" r="0.3"/>
	<circle class="st1" cx="222.1" cy="10.9" r="0.3"/>
	<circle class="st1" cx="219.1" cy="10.9" r="0.3"/>
	<circle class="st1" cx="216.1" cy="10.9" r="0.3"/>
	<circle class="st1" cx="213.1" cy="10.9" r="0.3"/>
	<circle class="st1" cx="210" cy="10.9" r="0.3"/>
	<circle class="st1" cx="207" cy="10.9" r="0.3"/>
	<circle class="st1" cx="204" cy="10.9" r="0.3"/>
	<circle class="st1" cx="201" cy="10.9" r="0.3"/>
	<circle class="st1" cx="198" cy="10.9" r="0.3"/>
	<circle class="st1" cx="195" cy="10.9" r="0.3"/>
	<circle class="st1" cx="192" cy="10.9" r="0.3"/>
	<circle class="st1" cx="188.9" cy="10.9" r="0.3"/>
	<circle class="st1" cx="222.1" cy="14.4" r="0.3"/>
	<circle class="st1" cx="219.1" cy="14.4" r="0.3"/>
	<circle class="st1" cx="216.1" cy="14.4" r="0.3"/>
	<circle class="st1" cx="213.1" cy="14.4" r="0.3"/>
	<circle class="st1" cx="210" cy="14.4" r="0.3"/>
	<circle class="st1" cx="207" cy="14.4" r="0.3"/>
	<circle class="st1" cx="204" cy="14.4" r="0.3"/>
	<circle class="st1" cx="201" cy="14.4" r="0.3"/>
	<circle class="st1" cx="198" cy="14.4" r="0.3"/>
	<circle class="st1" cx="195" cy="14.4" r="0.3"/>
	<circle class="st1" cx="192" cy="14.4" r="0.3"/>
	<circle class="st1" cx="188.9" cy="14.4" r="0.3"/>
</g>
<g>
	<circle class="st1" cx="21.3" cy="92.3" r="0.3"/>
	<circle class="st1" cx="21.3" cy="95.3" r="0.3"/>
	<circle class="st1" cx="21.3" cy="98.3" r="0.3"/>
	<circle class="st1" cx="21.3" cy="101.3" r="0.3"/>
	<circle class="st1" cx="21.3" cy="104.3" r="0.3"/>
	<circle class="st1" cx="21.3" cy="107.3" r="0.3"/>
	<circle class="st1" cx="21.3" cy="110.4" r="0.3"/>
	<circle class="st1" cx="21.3" cy="113.4" r="0.3"/>
	<circle class="st1" cx="21.3" cy="116.4" r="0.3"/>
	<circle class="st1" cx="21.3" cy="119.4" r="0.3"/>
	<circle class="st1" cx="21.3" cy="122.4" r="0.3"/>
	<circle class="st1" cx="21.3" cy="125.4" r="0.3"/>
	<circle class="st1" cx="24.8" cy="92.3" r="0.3"/>
	<circle class="st1" cx="24.8" cy="95.3" r="0.3"/>
	<circle class="st1" cx="24.8" cy="98.3" r="0.3"/>
	<circle class="st1" cx="24.8" cy="101.3" r="0.3"/>
	<circle class="st1" cx="24.8" cy="104.3" r="0.3"/>
	<circle class="st1" cx="24.8" cy="107.3" r="0.3"/>
	<circle class="st1" cx="24.8" cy="110.4" r="0.3"/>
	<circle class="st1" cx="24.8" cy="113.4" r="0.3"/>
	<circle class="st1" cx="24.8" cy="116.4" r="0.3"/>
	<circle class="st1" cx="24.8" cy="119.4" r="0.3"/>
	<circle class="st1" cx="24.8" cy="122.4" r="0.3"/>
	<circle class="st1" cx="24.8" cy="125.4" r="0.3"/>
	<circle class="st1" cx="28.4" cy="92.3" r="0.3"/>
	<circle class="st1" cx="28.4" cy="95.3" r="0.3"/>
	<circle class="st1" cx="28.4" cy="98.3" r="0.3"/>
	<circle class="st1" cx="28.4" cy="101.3" r="0.3"/>
	<circle class="st1" cx="28.4" cy="104.3" r="0.3"/>
	<circle class="st1" cx="28.4" cy="107.3" r="0.3"/>
	<circle class="st1" cx="28.4" cy="110.4" r="0.3"/>
	<circle class="st1" cx="28.4" cy="113.4" r="0.3"/>
	<circle class="st1" cx="28.4" cy="116.4" r="0.3"/>
	<circle class="st1" cx="28.4" cy="119.4" r="0.3"/>
	<circle class="st1" cx="28.4" cy="122.4" r="0.3"/>
	<circle class="st1" cx="28.4" cy="125.4" r="0.3"/>
</g>
<circle class="st2" cx="229.6" cy="46.3" r="1.9"/>
<circle class="st3" cx="28.7" cy="72.4" r="1.6"/>
<polygon class="st1" points="46.1,109.4 45.2,107.8 44.2,109.4 "/>
<polygon class="st1" points="216.7,25.4 210.6,26 214.1,31 "/>
<g>
	<circle class="st1" cx="222.1" cy="7.4" r="0.3"/>
	<circle class="st1" cx="219.1" cy="7.4" r="0.3"/>
	<circle class="st1" cx="216.1" cy="7.4" r="0.3"/>
	<circle class="st1" cx="213.1" cy="7.4" r="0.3"/>
	<circle class="st1" cx="210" cy="7.4" r="0.3"/>
	<circle class="st1" cx="207" cy="7.4" r="0.3"/>
	<circle class="st1" cx="204" cy="7.4" r="0.3"/>
	<circle class="st1" cx="201" cy="7.4" r="0.3"/>
	<circle class="st1" cx="198" cy="7.4" r="0.3"/>
	<circle class="st1" cx="195" cy="7.4" r="0.3"/>
	<circle class="st1" cx="192" cy="7.4" r="0.3"/>
	<circle class="st1" cx="188.9" cy="7.4" r="0.3"/>
	<circle class="st1" cx="222.1" cy="10.9" r="0.3"/>
	<circle class="st1" cx="219.1" cy="10.9" r="0.3"/>
	<circle class="st1" cx="216.1" cy="10.9" r="0.3"/>
	<circle class="st1" cx="213.1" cy="10.9" r="0.3"/>
	<circle class="st1" cx="210" cy="10.9" r="0.3"/>
	<circle class="st1" cx="207" cy="10.9" r="0.3"/>
	<circle class="st1" cx="204" cy="10.9" r="0.3"/>
	<circle class="st1" cx="201" cy="10.9" r="0.3"/>
	<circle class="st1" cx="198" cy="10.9" r="0.3"/>
	<circle class="st1" cx="195" cy="10.9" r="0.3"/>
	<circle class="st1" cx="192" cy="10.9" r="0.3"/>
	<circle class="st1" cx="188.9" cy="10.9" r="0.3"/>
	<circle class="st1" cx="222.1" cy="14.4" r="0.3"/>
	<circle class="st1" cx="219.1" cy="14.4" r="0.3"/>
	<circle class="st1" cx="216.1" cy="14.4" r="0.3"/>
	<circle class="st1" cx="213.1" cy="14.4" r="0.3"/>
	<circle class="st1" cx="210" cy="14.4" r="0.3"/>
	<circle class="st1" cx="207" cy="14.4" r="0.3"/>
	<circle class="st1" cx="204" cy="14.4" r="0.3"/>
	<circle class="st1" cx="201" cy="14.4" r="0.3"/>
	<circle class="st1" cx="198" cy="14.4" r="0.3"/>
	<circle class="st1" cx="195" cy="14.4" r="0.3"/>
	<circle class="st1" cx="192" cy="14.4" r="0.3"/>
	<circle class="st1" cx="188.9" cy="14.4" r="0.3"/>
</g>
<g>
	<circle class="st1" cx="21.3" cy="92.3" r="0.3"/>
	<circle class="st1" cx="21.3" cy="95.3" r="0.3"/>
	<circle class="st1" cx="21.3" cy="98.3" r="0.3"/>
	<circle class="st1" cx="21.3" cy="101.3" r="0.3"/>
	<circle class="st1" cx="21.3" cy="104.3" r="0.3"/>
	<circle class="st1" cx="21.3" cy="107.3" r="0.3"/>
	<circle class="st1" cx="21.3" cy="110.4" r="0.3"/>
	<circle class="st1" cx="21.3" cy="113.4" r="0.3"/>
	<circle class="st1" cx="21.3" cy="116.4" r="0.3"/>
	<circle class="st1" cx="21.3" cy="119.4" r="0.3"/>
	<circle class="st1" cx="21.3" cy="122.4" r="0.3"/>
	<circle class="st1" cx="21.3" cy="125.4" r="0.3"/>
	<circle class="st1" cx="24.8" cy="92.3" r="0.3"/>
	<circle class="st1" cx="24.8" cy="95.3" r="0.3"/>
	<circle class="st1" cx="24.8" cy="98.3" r="0.3"/>
	<circle class="st1" cx="24.8" cy="101.3" r="0.3"/>
	<circle class="st1" cx="24.8" cy="104.3" r="0.3"/>
	<circle class="st1" cx="24.8" cy="107.3" r="0.3"/>
	<circle class="st1" cx="24.8" cy="110.4" r="0.3"/>
	<circle class="st1" cx="24.8" cy="113.4" r="0.3"/>
	<circle class="st1" cx="24.8" cy="116.4" r="0.3"/>
	<circle class="st1" cx="24.8" cy="119.4" r="0.3"/>
	<circle class="st1" cx="24.8" cy="122.4" r="0.3"/>
	<circle class="st1" cx="24.8" cy="125.4" r="0.3"/>
	<circle class="st1" cx="28.4" cy="92.3" r="0.3"/>
	<circle class="st1" cx="28.4" cy="95.3" r="0.3"/>
	<circle class="st1" cx="28.4" cy="98.3" r="0.3"/>
	<circle class="st1" cx="28.4" cy="101.3" r="0.3"/>
	<circle class="st1" cx="28.4" cy="104.3" r="0.3"/>
	<circle class="st1" cx="28.4" cy="107.3" r="0.3"/>
	<circle class="st1" cx="28.4" cy="110.4" r="0.3"/>
	<circle class="st1" cx="28.4" cy="113.4" r="0.3"/>
	<circle class="st1" cx="28.4" cy="116.4" r="0.3"/>
	<circle class="st1" cx="28.4" cy="119.4" r="0.3"/>
	<circle class="st1" cx="28.4" cy="122.4" r="0.3"/>
	<circle class="st1" cx="28.4" cy="125.4" r="0.3"/>
</g>
<circle class="st2" cx="229.6" cy="46.3" r="1.9"/>
<circle class="st3" cx="28.7" cy="72.4" r="1.6"/>
<polygon class="st1" points="46.1,109.4 45.2,107.8 44.2,109.4 "/>
<polygon class="st1" points="216.7,25.4 210.6,26 214.1,31 "/>
<g>
	<circle class="st1" cx="222.1" cy="7.4" r="0.3"/>
	<circle class="st1" cx="219.1" cy="7.4" r="0.3"/>
	<circle class="st1" cx="216.1" cy="7.4" r="0.3"/>
	<circle class="st1" cx="213.1" cy="7.4" r="0.3"/>
	<circle class="st1" cx="210" cy="7.4" r="0.3"/>
	<circle class="st1" cx="207" cy="7.4" r="0.3"/>
	<circle class="st1" cx="204" cy="7.4" r="0.3"/>
	<circle class="st1" cx="201" cy="7.4" r="0.3"/>
	<circle class="st1" cx="198" cy="7.4" r="0.3"/>
	<circle class="st1" cx="195" cy="7.4" r="0.3"/>
	<circle class="st1" cx="192" cy="7.4" r="0.3"/>
	<circle class="st1" cx="188.9" cy="7.4" r="0.3"/>
	<circle class="st1" cx="222.1" cy="10.9" r="0.3"/>
	<circle class="st1" cx="219.1" cy="10.9" r="0.3"/>
	<circle class="st1" cx="216.1" cy="10.9" r="0.3"/>
	<circle class="st1" cx="213.1" cy="10.9" r="0.3"/>
	<circle class="st1" cx="210" cy="10.9" r="0.3"/>
	<circle class="st1" cx="207" cy="10.9" r="0.3"/>
	<circle class="st1" cx="204" cy="10.9" r="0.3"/>
	<circle class="st1" cx="201" cy="10.9" r="0.3"/>
	<circle class="st1" cx="198" cy="10.9" r="0.3"/>
	<circle class="st1" cx="195" cy="10.9" r="0.3"/>
	<circle class="st1" cx="192" cy="10.9" r="0.3"/>
	<circle class="st1" cx="188.9" cy="10.9" r="0.3"/>
	<circle class="st1" cx="222.1" cy="14.4" r="0.3"/>
	<circle class="st1" cx="219.1" cy="14.4" r="0.3"/>
	<circle class="st1" cx="216.1" cy="14.4" r="0.3"/>
	<circle class="st1" cx="213.1" cy="14.4" r="0.3"/>
	<circle class="st1" cx="210" cy="14.4" r="0.3"/>
	<circle class="st1" cx="207" cy="14.4" r="0.3"/>
	<circle class="st1" cx="204" cy="14.4" r="0.3"/>
	<circle class="st1" cx="201" cy="14.4" r="0.3"/>
	<circle class="st1" cx="198" cy="14.4" r="0.3"/>
	<circle class="st1" cx="195" cy="14.4" r="0.3"/>
	<circle class="st1" cx="192" cy="14.4" r="0.3"/>
	<circle class="st1" cx="188.9" cy="14.4" r="0.3"/>
</g>
<g>
	<circle class="st1" cx="21.3" cy="92.3" r="0.3"/>
	<circle class="st1" cx="21.3" cy="95.3" r="0.3"/>
	<circle class="st1" cx="21.3" cy="98.3" r="0.3"/>
	<circle class="st1" cx="21.3" cy="101.3" r="0.3"/>
	<circle class="st1" cx="21.3" cy="104.3" r="0.3"/>
	<circle class="st1" cx="21.3" cy="107.3" r="0.3"/>
	<circle class="st1" cx="21.3" cy="110.4" r="0.3"/>
	<circle class="st1" cx="21.3" cy="113.4" r="0.3"/>
	<circle class="st1" cx="21.3" cy="116.4" r="0.3"/>
	<circle class="st1" cx="21.3" cy="119.4" r="0.3"/>
	<circle class="st1" cx="21.3" cy="122.4" r="0.3"/>
	<circle class="st1" cx="21.3" cy="125.4" r="0.3"/>
	<circle class="st1" cx="24.8" cy="92.3" r="0.3"/>
	<circle class="st1" cx="24.8" cy="95.3" r="0.3"/>
	<circle class="st1" cx="24.8" cy="98.3" r="0.3"/>
	<circle class="st1" cx="24.8" cy="101.3" r="0.3"/>
	<circle class="st1" cx="24.8" cy="104.3" r="0.3"/>
	<circle class="st1" cx="24.8" cy="107.3" r="0.3"/>
	<circle class="st1" cx="24.8" cy="110.4" r="0.3"/>
	<circle class="st1" cx="24.8" cy="113.4" r="0.3"/>
	<circle class="st1" cx="24.8" cy="116.4" r="0.3"/>
	<circle class="st1" cx="24.8" cy="119.4" r="0.3"/>
	<circle class="st1" cx="24.8" cy="122.4" r="0.3"/>
	<circle class="st1" cx="24.8" cy="125.4" r="0.3"/>
	<circle class="st1" cx="28.4" cy="92.3" r="0.3"/>
	<circle class="st1" cx="28.4" cy="95.3" r="0.3"/>
	<circle class="st1" cx="28.4" cy="98.3" r="0.3"/>
	<circle class="st1" cx="28.4" cy="101.3" r="0.3"/>
	<circle class="st1" cx="28.4" cy="104.3" r="0.3"/>
	<circle class="st1" cx="28.4" cy="107.3" r="0.3"/>
	<circle class="st1" cx="28.4" cy="110.4" r="0.3"/>
	<circle class="st1" cx="28.4" cy="113.4" r="0.3"/>
	<circle class="st1" cx="28.4" cy="116.4" r="0.3"/>
	<circle class="st1" cx="28.4" cy="119.4" r="0.3"/>
	<circle class="st1" cx="28.4" cy="122.4" r="0.3"/>
	<circle class="st1" cx="28.4" cy="125.4" r="0.3"/>
</g>
<circle class="st2" cx="229.6" cy="46.3" r="1.9"/>
<circle class="st3" cx="28.7" cy="72.4" r="1.6"/>
<polygon class="st1" points="46.1,109.4 45.2,107.8 44.2,109.4 "/>
<polygon class="st1" points="216.7,25.4 210.6,26 214.1,31 "/>
<g>
	<circle class="st1" cx="222.1" cy="7.4" r="0.3"/>
	<circle class="st1" cx="219.1" cy="7.4" r="0.3"/>
	<circle class="st1" cx="216.1" cy="7.4" r="0.3"/>
	<circle class="st1" cx="213.1" cy="7.4" r="0.3"/>
	<circle class="st1" cx="210" cy="7.4" r="0.3"/>
	<circle class="st1" cx="207" cy="7.4" r="0.3"/>
	<circle class="st1" cx="204" cy="7.4" r="0.3"/>
	<circle class="st1" cx="201" cy="7.4" r="0.3"/>
	<circle class="st1" cx="198" cy="7.4" r="0.3"/>
	<circle class="st1" cx="195" cy="7.4" r="0.3"/>
	<circle class="st1" cx="192" cy="7.4" r="0.3"/>
	<circle class="st1" cx="188.9" cy="7.4" r="0.3"/>
	<circle class="st1" cx="222.1" cy="10.9" r="0.3"/>
	<circle class="st1" cx="219.1" cy="10.9" r="0.3"/>
	<circle class="st1" cx="216.1" cy="10.9" r="0.3"/>
	<circle class="st1" cx="213.1" cy="10.9" r="0.3"/>
	<circle class="st1" cx="210" cy="10.9" r="0.3"/>
	<circle class="st1" cx="207" cy="10.9" r="0.3"/>
	<circle class="st1" cx="204" cy="10.9" r="0.3"/>
	<circle class="st1" cx="201" cy="10.9" r="0.3"/>
	<circle class="st1" cx="198" cy="10.9" r="0.3"/>
	<circle class="st1" cx="195" cy="10.9" r="0.3"/>
	<circle class="st1" cx="192" cy="10.9" r="0.3"/>
	<circle class="st1" cx="188.9" cy="10.9" r="0.3"/>
	<circle class="st1" cx="222.1" cy="14.4" r="0.3"/>
	<circle class="st1" cx="219.1" cy="14.4" r="0.3"/>
	<circle class="st1" cx="216.1" cy="14.4" r="0.3"/>
	<circle class="st1" cx="213.1" cy="14.4" r="0.3"/>
	<circle class="st1" cx="210" cy="14.4" r="0.3"/>
	<circle class="st1" cx="207" cy="14.4" r="0.3"/>
	<circle class="st1" cx="204" cy="14.4" r="0.3"/>
	<circle class="st1" cx="201" cy="14.4" r="0.3"/>
	<circle class="st1" cx="198" cy="14.4" r="0.3"/>
	<circle class="st1" cx="195" cy="14.4" r="0.3"/>
	<circle class="st1" cx="192" cy="14.4" r="0.3"/>
	<circle class="st1" cx="188.9" cy="14.4" r="0.3"/>
</g>
<g>
	<circle class="st1" cx="21.3" cy="92.3" r="0.3"/>
	<circle class="st1" cx="21.3" cy="95.3" r="0.3"/>
	<circle class="st1" cx="21.3" cy="98.3" r="0.3"/>
	<circle class="st1" cx="21.3" cy="101.3" r="0.3"/>
	<circle class="st1" cx="21.3" cy="104.3" r="0.3"/>
	<circle class="st1" cx="21.3" cy="107.3" r="0.3"/>
	<circle class="st1" cx="21.3" cy="110.4" r="0.3"/>
	<circle class="st1" cx="21.3" cy="113.4" r="0.3"/>
	<circle class="st1" cx="21.3" cy="116.4" r="0.3"/>
	<circle class="st1" cx="21.3" cy="119.4" r="0.3"/>
	<circle class="st1" cx="21.3" cy="122.4" r="0.3"/>
	<circle class="st1" cx="21.3" cy="125.4" r="0.3"/>
	<circle class="st1" cx="24.8" cy="92.3" r="0.3"/>
	<circle class="st1" cx="24.8" cy="95.3" r="0.3"/>
	<circle class="st1" cx="24.8" cy="98.3" r="0.3"/>
	<circle class="st1" cx="24.8" cy="101.3" r="0.3"/>
	<circle class="st1" cx="24.8" cy="104.3" r="0.3"/>
	<circle class="st1" cx="24.8" cy="107.3" r="0.3"/>
	<circle class="st1" cx="24.8" cy="110.4" r="0.3"/>
	<circle class="st1" cx="24.8" cy="113.4" r="0.3"/>
	<circle class="st1" cx="24.8" cy="116.4" r="0.3"/>
	<circle class="st1" cx="24.8" cy="119.4" r="0.3"/>
	<circle class="st1" cx="24.8" cy="122.4" r="0.3"/>
	<circle class="st1" cx="24.8" cy="125.4" r="0.3"/>
	<circle class="st1" cx="28.4" cy="92.3" r="0.3"/>
	<circle class="st1" cx="28.4" cy="95.3" r="0.3"/>
	<circle class="st1" cx="28.4" cy="98.3" r="0.3"/>
	<circle class="st1" cx="28.4" cy="101.3" r="0.3"/>
	<circle class="st1" cx="28.4" cy="104.3" r="0.3"/>
	<circle class="st1" cx="28.4" cy="107.3" r="0.3"/>
	<circle class="st1" cx="28.4" cy="110.4" r="0.3"/>
	<circle class="st1" cx="28.4" cy="113.4" r="0.3"/>
	<circle class="st1" cx="28.4" cy="116.4" r="0.3"/>
	<circle class="st1" cx="28.4" cy="119.4" r="0.3"/>
	<circle class="st1" cx="28.4" cy="122.4" r="0.3"/>
	<circle class="st1" cx="28.4" cy="125.4" r="0.3"/>
</g>
<circle class="st2" cx="229.6" cy="46.3" r="1.9"/>
<circle class="st3" cx="28.7" cy="72.4" r="1.6"/>
<polygon class="st1" points="46.1,109.4 45.2,107.8 44.2,109.4 "/>
<polygon class="st1" points="216.7,25.4 210.6,26 214.1,31 "/>
<g>
	<circle class="st1" cx="222.1" cy="7.4" r="0.3"/>
	<circle class="st1" cx="219.1" cy="7.4" r="0.3"/>
	<circle class="st1" cx="216.1" cy="7.4" r="0.3"/>
	<circle class="st1" cx="213.1" cy="7.4" r="0.3"/>
	<circle class="st1" cx="210" cy="7.4" r="0.3"/>
	<circle class="st1" cx="207" cy="7.4" r="0.3"/>
	<circle class="st1" cx="204" cy="7.4" r="0.3"/>
	<circle class="st1" cx="201" cy="7.4" r="0.3"/>
	<circle class="st1" cx="198" cy="7.4" r="0.3"/>
	<circle class="st1" cx="195" cy="7.4" r="0.3"/>
	<circle class="st1" cx="192" cy="7.4" r="0.3"/>
	<circle class="st1" cx="188.9" cy="7.4" r="0.3"/>
	<circle class="st1" cx="222.1" cy="10.9" r="0.3"/>
	<circle class="st1" cx="219.1" cy="10.9" r="0.3"/>
	<circle class="st1" cx="216.1" cy="10.9" r="0.3"/>
	<circle class="st1" cx="213.1" cy="10.9" r="0.3"/>
	<circle class="st1" cx="210" cy="10.9" r="0.3"/>
	<circle class="st1" cx="207" cy="10.9" r="0.3"/>
	<circle class="st1" cx="204" cy="10.9" r="0.3"/>
	<circle class="st1" cx="201" cy="10.9" r="0.3"/>
	<circle class="st1" cx="198" cy="10.9" r="0.3"/>
	<circle class="st1" cx="195" cy="10.9" r="0.3"/>
	<circle class="st1" cx="192" cy="10.9" r="0.3"/>
	<circle class="st1" cx="188.9" cy="10.9" r="0.3"/>
	<circle class="st1" cx="222.1" cy="14.4" r="0.3"/>
	<circle class="st1" cx="219.1" cy="14.4" r="0.3"/>
	<circle class="st1" cx="216.1" cy="14.4" r="0.3"/>
	<circle class="st1" cx="213.1" cy="14.4" r="0.3"/>
	<circle class="st1" cx="210" cy="14.4" r="0.3"/>
	<circle class="st1" cx="207" cy="14.4" r="0.3"/>
	<circle class="st1" cx="204" cy="14.4" r="0.3"/>
	<circle class="st1" cx="201" cy="14.4" r="0.3"/>
	<circle class="st1" cx="198" cy="14.4" r="0.3"/>
	<circle class="st1" cx="195" cy="14.4" r="0.3"/>
	<circle class="st1" cx="192" cy="14.4" r="0.3"/>
	<circle class="st1" cx="188.9" cy="14.4" r="0.3"/>
</g>
<g>
	<circle class="st1" cx="21.3" cy="92.3" r="0.3"/>
	<circle class="st1" cx="21.3" cy="95.3" r="0.3"/>
	<circle class="st1" cx="21.3" cy="98.3" r="0.3"/>
	<circle class="st1" cx="21.3" cy="101.3" r="0.3"/>
	<circle class="st1" cx="21.3" cy="104.3" r="0.3"/>
	<circle class="st1" cx="21.3" cy="107.3" r="0.3"/>
	<circle class="st1" cx="21.3" cy="110.4" r="0.3"/>
	<circle class="st1" cx="21.3" cy="113.4" r="0.3"/>
	<circle class="st1" cx="21.3" cy="116.4" r="0.3"/>
	<circle class="st1" cx="21.3" cy="119.4" r="0.3"/>
	<circle class="st1" cx="21.3" cy="122.4" r="0.3"/>
	<circle class="st1" cx="21.3" cy="125.4" r="0.3"/>
	<circle class="st1" cx="24.8" cy="92.3" r="0.3"/>
	<circle class="st1" cx="24.8" cy="95.3" r="0.3"/>
	<circle class="st1" cx="24.8" cy="98.3" r="0.3"/>
	<circle class="st1" cx="24.8" cy="101.3" r="0.3"/>
	<circle class="st1" cx="24.8" cy="104.3" r="0.3"/>
	<circle class="st1" cx="24.8" cy="107.3" r="0.3"/>
	<circle class="st1" cx="24.8" cy="110.4" r="0.3"/>
	<circle class="st1" cx="24.8" cy="113.4" r="0.3"/>
	<circle class="st1" cx="24.8" cy="116.4" r="0.3"/>
	<circle class="st1" cx="24.8" cy="119.4" r="0.3"/>
	<circle class="st1" cx="24.8" cy="122.4" r="0.3"/>
	<circle class="st1" cx="24.8" cy="125.4" r="0.3"/>
	<circle class="st1" cx="28.4" cy="92.3" r="0.3"/>
	<circle class="st1" cx="28.4" cy="95.3" r="0.3"/>
	<circle class="st1" cx="28.4" cy="98.3" r="0.3"/>
	<circle class="st1" cx="28.4" cy="101.3" r="0.3"/>
	<circle class="st1" cx="28.4" cy="104.3" r="0.3"/>
	<circle class="st1" cx="28.4" cy="107.3" r="0.3"/>
	<circle class="st1" cx="28.4" cy="110.4" r="0.3"/>
	<circle class="st1" cx="28.4" cy="113.4" r="0.3"/>
	<circle class="st1" cx="28.4" cy="116.4" r="0.3"/>
	<circle class="st1" cx="28.4" cy="119.4" r="0.3"/>
	<circle class="st1" cx="28.4" cy="122.4" r="0.3"/>
	<circle class="st1" cx="28.4" cy="125.4" r="0.3"/>
</g>
<circle class="st2" cx="229.6" cy="46.3" r="1.9"/>
<circle class="st3" cx="28.7" cy="72.4" r="1.6"/>
<polygon class="st1" points="46.1,109.4 45.2,107.8 44.2,109.4 "/>
<polygon class="st1" points="216.7,25.4 210.6,26 214.1,31 "/>
<g>
	<circle class="st1" cx="222.1" cy="7.4" r="0.3"/>
	<circle class="st1" cx="219.1" cy="7.4" r="0.3"/>
	<circle class="st1" cx="216.1" cy="7.4" r="0.3"/>
	<circle class="st1" cx="213.1" cy="7.4" r="0.3"/>
	<circle class="st1" cx="210" cy="7.4" r="0.3"/>
	<circle class="st1" cx="207" cy="7.4" r="0.3"/>
	<circle class="st1" cx="204" cy="7.4" r="0.3"/>
	<circle class="st1" cx="201" cy="7.4" r="0.3"/>
	<circle class="st1" cx="198" cy="7.4" r="0.3"/>
	<circle class="st1" cx="195" cy="7.4" r="0.3"/>
	<circle class="st1" cx="192" cy="7.4" r="0.3"/>
	<circle class="st1" cx="188.9" cy="7.4" r="0.3"/>
	<circle class="st1" cx="222.1" cy="10.9" r="0.3"/>
	<circle class="st1" cx="219.1" cy="10.9" r="0.3"/>
	<circle class="st1" cx="216.1" cy="10.9" r="0.3"/>
	<circle class="st1" cx="213.1" cy="10.9" r="0.3"/>
	<circle class="st1" cx="210" cy="10.9" r="0.3"/>
	<circle class="st1" cx="207" cy="10.9" r="0.3"/>
	<circle class="st1" cx="204" cy="10.9" r="0.3"/>
	<circle class="st1" cx="201" cy="10.9" r="0.3"/>
	<circle class="st1" cx="198" cy="10.9" r="0.3"/>
	<circle class="st1" cx="195" cy="10.9" r="0.3"/>
	<circle class="st1" cx="192" cy="10.9" r="0.3"/>
	<circle class="st1" cx="188.9" cy="10.9" r="0.3"/>
	<circle class="st1" cx="222.1" cy="14.4" r="0.3"/>
	<circle class="st1" cx="219.1" cy="14.4" r="0.3"/>
	<circle class="st1" cx="216.1" cy="14.4" r="0.3"/>
	<circle class="st1" cx="213.1" cy="14.4" r="0.3"/>
	<circle class="st1" cx="210" cy="14.4" r="0.3"/>
	<circle class="st1" cx="207" cy="14.4" r="0.3"/>
	<circle class="st1" cx="204" cy="14.4" r="0.3"/>
	<circle class="st1" cx="201" cy="14.4" r="0.3"/>
	<circle class="st1" cx="198" cy="14.4" r="0.3"/>
	<circle class="st1" cx="195" cy="14.4" r="0.3"/>
	<circle class="st1" cx="192" cy="14.4" r="0.3"/>
	<circle class="st1" cx="188.9" cy="14.4" r="0.3"/>
</g>
<g>
	<circle class="st1" cx="21.3" cy="92.3" r="0.3"/>
	<circle class="st1" cx="21.3" cy="95.3" r="0.3"/>
	<circle class="st1" cx="21.3" cy="98.3" r="0.3"/>
	<circle class="st1" cx="21.3" cy="101.3" r="0.3"/>
	<circle class="st1" cx="21.3" cy="104.3" r="0.3"/>
	<circle class="st1" cx="21.3" cy="107.3" r="0.3"/>
	<circle class="st1" cx="21.3" cy="110.4" r="0.3"/>
	<circle class="st1" cx="21.3" cy="113.4" r="0.3"/>
	<circle class="st1" cx="21.3" cy="116.4" r="0.3"/>
	<circle class="st1" cx="21.3" cy="119.4" r="0.3"/>
	<circle class="st1" cx="21.3" cy="122.4" r="0.3"/>
	<circle class="st1" cx="21.3" cy="125.4" r="0.3"/>
	<circle class="st1" cx="24.8" cy="92.3" r="0.3"/>
	<circle class="st1" cx="24.8" cy="95.3" r="0.3"/>
	<circle class="st1" cx="24.8" cy="98.3" r="0.3"/>
	<circle class="st1" cx="24.8" cy="101.3" r="0.3"/>
	<circle class="st1" cx="24.8" cy="104.3" r="0.3"/>
	<circle class="st1" cx="24.8" cy="107.3" r="0.3"/>
	<circle class="st1" cx="24.8" cy="110.4" r="0.3"/>
	<circle class="st1" cx="24.8" cy="113.4" r="0.3"/>
	<circle class="st1" cx="24.8" cy="116.4" r="0.3"/>
	<circle class="st1" cx="24.8" cy="119.4" r="0.3"/>
	<circle class="st1" cx="24.8" cy="122.4" r="0.3"/>
	<circle class="st1" cx="24.8" cy="125.4" r="0.3"/>
	<circle class="st1" cx="28.4" cy="92.3" r="0.3"/>
	<circle class="st1" cx="28.4" cy="95.3" r="0.3"/>
	<circle class="st1" cx="28.4" cy="98.3" r="0.3"/>
	<circle class="st1" cx="28.4" cy="101.3" r="0.3"/>
	<circle class="st1" cx="28.4" cy="104.3" r="0.3"/>
	<circle class="st1" cx="28.4" cy="107.3" r="0.3"/>
	<circle class="st1" cx="28.4" cy="110.4" r="0.3"/>
	<circle class="st1" cx="28.4" cy="113.4" r="0.3"/>
	<circle class="st1" cx="28.4" cy="116.4" r="0.3"/>
	<circle class="st1" cx="28.4" cy="119.4" r="0.3"/>
	<circle class="st1" cx="28.4" cy="122.4" r="0.3"/>
	<circle class="st1" cx="28.4" cy="125.4" r="0.3"/>
</g>
<circle class="st2" cx="229.6" cy="46.3" r="1.9"/>
<circle class="st3" cx="28.7" cy="72.4" r="1.6"/>
<polygon class="st1" points="46.1,109.4 45.2,107.8 44.2,109.4 "/>
<polygon class="st1" points="216.7,25.4 210.6,26 214.1,31 "/>
<g>
	<circle class="st1" cx="222.1" cy="7.4" r="0.3"/>
	<circle class="st1" cx="219.1" cy="7.4" r="0.3"/>
	<circle class="st1" cx="216.1" cy="7.4" r="0.3"/>
	<circle class="st1" cx="213.1" cy="7.4" r="0.3"/>
	<circle class="st1" cx="210" cy="7.4" r="0.3"/>
	<circle class="st1" cx="207" cy="7.4" r="0.3"/>
	<circle class="st1" cx="204" cy="7.4" r="0.3"/>
	<circle class="st1" cx="201" cy="7.4" r="0.3"/>
	<circle class="st1" cx="198" cy="7.4" r="0.3"/>
	<circle class="st1" cx="195" cy="7.4" r="0.3"/>
	<circle class="st1" cx="192" cy="7.4" r="0.3"/>
	<circle class="st1" cx="188.9" cy="7.4" r="0.3"/>
	<circle class="st1" cx="222.1" cy="10.9" r="0.3"/>
	<circle class="st1" cx="219.1" cy="10.9" r="0.3"/>
	<circle class="st1" cx="216.1" cy="10.9" r="0.3"/>
	<circle class="st1" cx="213.1" cy="10.9" r="0.3"/>
	<circle class="st1" cx="210" cy="10.9" r="0.3"/>
	<circle class="st1" cx="207" cy="10.9" r="0.3"/>
	<circle class="st1" cx="204" cy="10.9" r="0.3"/>
	<circle class="st1" cx="201" cy="10.9" r="0.3"/>
	<circle class="st1" cx="198" cy="10.9" r="0.3"/>
	<circle class="st1" cx="195" cy="10.9" r="0.3"/>
	<circle class="st1" cx="192" cy="10.9" r="0.3"/>
	<circle class="st1" cx="188.9" cy="10.9" r="0.3"/>
	<circle class="st1" cx="222.1" cy="14.4" r="0.3"/>
	<circle class="st1" cx="219.1" cy="14.4" r="0.3"/>
	<circle class="st1" cx="216.1" cy="14.4" r="0.3"/>
	<circle class="st1" cx="213.1" cy="14.4" r="0.3"/>
	<circle class="st1" cx="210" cy="14.4" r="0.3"/>
	<circle class="st1" cx="207" cy="14.4" r="0.3"/>
	<circle class="st1" cx="204" cy="14.4" r="0.3"/>
	<circle class="st1" cx="201" cy="14.4" r="0.3"/>
	<circle class="st1" cx="198" cy="14.4" r="0.3"/>
	<circle class="st1" cx="195" cy="14.4" r="0.3"/>
	<circle class="st1" cx="192" cy="14.4" r="0.3"/>
	<circle class="st1" cx="188.9" cy="14.4" r="0.3"/>
</g>
<g>
	<circle class="st1" cx="21.3" cy="92.3" r="0.3"/>
	<circle class="st1" cx="21.3" cy="95.3" r="0.3"/>
	<circle class="st1" cx="21.3" cy="98.3" r="0.3"/>
	<circle class="st1" cx="21.3" cy="101.3" r="0.3"/>
	<circle class="st1" cx="21.3" cy="104.3" r="0.3"/>
	<circle class="st1" cx="21.3" cy="107.3" r="0.3"/>
	<circle class="st1" cx="21.3" cy="110.4" r="0.3"/>
	<circle class="st1" cx="21.3" cy="113.4" r="0.3"/>
	<circle class="st1" cx="21.3" cy="116.4" r="0.3"/>
	<circle class="st1" cx="21.3" cy="119.4" r="0.3"/>
	<circle class="st1" cx="21.3" cy="122.4" r="0.3"/>
	<circle class="st1" cx="21.3" cy="125.4" r="0.3"/>
	<circle class="st1" cx="24.8" cy="92.3" r="0.3"/>
	<circle class="st1" cx="24.8" cy="95.3" r="0.3"/>
	<circle class="st1" cx="24.8" cy="98.3" r="0.3"/>
	<circle class="st1" cx="24.8" cy="101.3" r="0.3"/>
	<circle class="st1" cx="24.8" cy="104.3" r="0.3"/>
	<circle class="st1" cx="24.8" cy="107.3" r="0.3"/>
	<circle class="st1" cx="24.8" cy="110.4" r="0.3"/>
	<circle class="st1" cx="24.8" cy="113.4" r="0.3"/>
	<circle class="st1" cx="24.8" cy="116.4" r="0.3"/>
	<circle class="st1" cx="24.8" cy="119.4" r="0.3"/>
	<circle class="st1" cx="24.8" cy="122.4" r="0.3"/>
	<circle class="st1" cx="24.8" cy="125.4" r="0.3"/>
	<circle class="st1" cx="28.4" cy="92.3" r="0.3"/>
	<circle class="st1" cx="28.4" cy="95.3" r="0.3"/>
	<circle class="st1" cx="28.4" cy="98.3" r="0.3"/>
	<circle class="st1" cx="28.4" cy="101.3" r="0.3"/>
	<circle class="st1" cx="28.4" cy="104.3" r="0.3"/>
	<circle class="st1" cx="28.4" cy="107.3" r="0.3"/>
	<circle class="st1" cx="28.4" cy="110.4" r="0.3"/>
	<circle class="st1" cx="28.4" cy="113.4" r="0.3"/>
	<circle class="st1" cx="28.4" cy="116.4" r="0.3"/>
	<circle class="st1" cx="28.4" cy="119.4" r="0.3"/>
	<circle class="st1" cx="28.4" cy="122.4" r="0.3"/>
	<circle class="st1" cx="28.4" cy="125.4" r="0.3"/>
</g>
<circle class="st2" cx="229.6" cy="46.3" r="1.9"/>
<circle class="st3" cx="28.7" cy="72.4" r="1.6"/>
<polygon class="st1" points="46.1,109.4 45.2,107.8 44.2,109.4 "/>
<polygon class="st1" points="216.7,25.4 210.6,26 214.1,31 "/>
<g>
	<circle class="st1" cx="222.1" cy="7.4" r="0.3"/>
	<circle class="st1" cx="219.1" cy="7.4" r="0.3"/>
	<circle class="st1" cx="216.1" cy="7.4" r="0.3"/>
	<circle class="st1" cx="213.1" cy="7.4" r="0.3"/>
	<circle class="st1" cx="210" cy="7.4" r="0.3"/>
	<circle class="st1" cx="207" cy="7.4" r="0.3"/>
	<circle class="st1" cx="204" cy="7.4" r="0.3"/>
	<circle class="st1" cx="201" cy="7.4" r="0.3"/>
	<circle class="st1" cx="198" cy="7.4" r="0.3"/>
	<circle class="st1" cx="195" cy="7.4" r="0.3"/>
	<circle class="st1" cx="192" cy="7.4" r="0.3"/>
	<circle class="st1" cx="188.9" cy="7.4" r="0.3"/>
	<circle class="st1" cx="222.1" cy="10.9" r="0.3"/>
	<circle class="st1" cx="219.1" cy="10.9" r="0.3"/>
	<circle class="st1" cx="216.1" cy="10.9" r="0.3"/>
	<circle class="st1" cx="213.1" cy="10.9" r="0.3"/>
	<circle class="st1" cx="210" cy="10.9" r="0.3"/>
	<circle class="st1" cx="207" cy="10.9" r="0.3"/>
	<circle class="st1" cx="204" cy="10.9" r="0.3"/>
	<circle class="st1" cx="201" cy="10.9" r="0.3"/>
	<circle class="st1" cx="198" cy="10.9" r="0.3"/>
	<circle class="st1" cx="195" cy="10.9" r="0.3"/>
	<circle class="st1" cx="192" cy="10.9" r="0.3"/>
	<circle class="st1" cx="188.9" cy="10.9" r="0.3"/>
	<circle class="st1" cx="222.1" cy="14.4" r="0.3"/>
	<circle class="st1" cx="219.1" cy="14.4" r="0.3"/>
	<circle class="st1" cx="216.1" cy="14.4" r="0.3"/>
	<circle class="st1" cx="213.1" cy="14.4" r="0.3"/>
	<circle class="st1" cx="210" cy="14.4" r="0.3"/>
	<circle class="st1" cx="207" cy="14.4" r="0.3"/>
	<circle class="st1" cx="204" cy="14.4" r="0.3"/>
	<circle class="st1" cx="201" cy="14.4" r="0.3"/>
	<circle class="st1" cx="198" cy="14.4" r="0.3"/>
	<circle class="st1" cx="195" cy="14.4" r="0.3"/>
	<circle class="st1" cx="192" cy="14.4" r="0.3"/>
	<circle class="st1" cx="188.9" cy="14.4" r="0.3"/>
</g>
<g>
	<circle class="st1" cx="21.3" cy="92.3" r="0.3"/>
	<circle class="st1" cx="21.3" cy="95.3" r="0.3"/>
	<circle class="st1" cx="21.3" cy="98.3" r="0.3"/>
	<circle class="st1" cx="21.3" cy="101.3" r="0.3"/>
	<circle class="st1" cx="21.3" cy="104.3" r="0.3"/>
	<circle class="st1" cx="21.3" cy="107.3" r="0.3"/>
	<circle class="st1" cx="21.3" cy="110.4" r="0.3"/>
	<circle class="st1" cx="21.3" cy="113.4" r="0.3"/>
	<circle class="st1" cx="21.3" cy="116.4" r="0.3"/>
	<circle class="st1" cx="21.3" cy="119.4" r="0.3"/>
	<circle class="st1" cx="21.3" cy="122.4" r="0.3"/>
	<circle class="st1" cx="21.3" cy="125.4" r="0.3"/>
	<circle class="st1" cx="24.8" cy="92.3" r="0.3"/>
	<circle class="st1" cx="24.8" cy="95.3" r="0.3"/>
	<circle class="st1" cx="24.8" cy="98.3" r="0.3"/>
	<circle class="st1" cx="24.8" cy="101.3" r="0.3"/>
	<circle class="st1" cx="24.8" cy="104.3" r="0.3"/>
	<circle class="st1" cx="24.8" cy="107.3" r="0.3"/>
	<circle class="st1" cx="24.8" cy="110.4" r="0.3"/>
	<circle class="st1" cx="24.8" cy="113.4" r="0.3"/>
	<circle class="st1" cx="24.8" cy="116.4" r="0.3"/>
	<circle class="st1" cx="24.8" cy="119.4" r="0.3"/>
	<circle class="st1" cx="24.8" cy="122.4" r="0.3"/>
	<circle class="st1" cx="24.8" cy="125.4" r="0.3"/>
	<circle class="st1" cx="28.4" cy="92.3" r="0.3"/>
	<circle class="st1" cx="28.4" cy="95.3" r="0.3"/>
	<circle class="st1" cx="28.4" cy="98.3" r="0.3"/>
	<circle class="st1" cx="28.4" cy="101.3" r="0.3"/>
	<circle class="st1" cx="28.4" cy="104.3" r="0.3"/>
	<circle class="st1" cx="28.4" cy="107.3" r="0.3"/>
	<circle class="st1" cx="28.4" cy="110.4" r="0.3"/>
	<circle class="st1" cx="28.4" cy="113.4" r="0.3"/>
	<circle class="st1" cx="28.4" cy="116.4" r="0.3"/>
	<circle class="st1" cx="28.4" cy="119.4" r="0.3"/>
	<circle class="st1" cx="28.4" cy="122.4" r="0.3"/>
	<circle class="st1" cx="28.4" cy="125.4" r="0.3"/>
</g>
<circle class="st2" cx="229.6" cy="46.3" r="1.9"/>
<circle class="st3" cx="28.7" cy="72.4" r="1.6"/>
<polygon class="st1" points="46.1,109.4 45.2,107.8 44.2,109.4 "/>
<polygon class="st1" points="216.7,25.4 210.6,26 214.1,31 "/>
<g>
	<circle class="st1" cx="222.1" cy="7.4" r="0.3"/>
	<circle class="st1" cx="219.1" cy="7.4" r="0.3"/>
	<circle class="st1" cx="216.1" cy="7.4" r="0.3"/>
	<circle class="st1" cx="213.1" cy="7.4" r="0.3"/>
	<circle class="st1" cx="210" cy="7.4" r="0.3"/>
	<circle class="st1" cx="207" cy="7.4" r="0.3"/>
	<circle class="st1" cx="204" cy="7.4" r="0.3"/>
	<circle class="st1" cx="201" cy="7.4" r="0.3"/>
	<circle class="st1" cx="198" cy="7.4" r="0.3"/>
	<circle class="st1" cx="195" cy="7.4" r="0.3"/>
	<circle class="st1" cx="192" cy="7.4" r="0.3"/>
	<circle class="st1" cx="188.9" cy="7.4" r="0.3"/>
	<circle class="st1" cx="222.1" cy="10.9" r="0.3"/>
	<circle class="st1" cx="219.1" cy="10.9" r="0.3"/>
	<circle class="st1" cx="216.1" cy="10.9" r="0.3"/>
	<circle class="st1" cx="213.1" cy="10.9" r="0.3"/>
	<circle class="st1" cx="210" cy="10.9" r="0.3"/>
	<circle class="st1" cx="207" cy="10.9" r="0.3"/>
	<circle class="st1" cx="204" cy="10.9" r="0.3"/>
	<circle class="st1" cx="201" cy="10.9" r="0.3"/>
	<circle class="st1" cx="198" cy="10.9" r="0.3"/>
	<circle class="st1" cx="195" cy="10.9" r="0.3"/>
	<circle class="st1" cx="192" cy="10.9" r="0.3"/>
	<circle class="st1" cx="188.9" cy="10.9" r="0.3"/>
	<circle class="st1" cx="222.1" cy="14.4" r="0.3"/>
	<circle class="st1" cx="219.1" cy="14.4" r="0.3"/>
	<circle class="st1" cx="216.1" cy="14.4" r="0.3"/>
	<circle class="st1" cx="213.1" cy="14.4" r="0.3"/>
	<circle class="st1" cx="210" cy="14.4" r="0.3"/>
	<circle class="st1" cx="207" cy="14.4" r="0.3"/>
	<circle class="st1" cx="204" cy="14.4" r="0.3"/>
	<circle class="st1" cx="201" cy="14.4" r="0.3"/>
	<circle class="st1" cx="198" cy="14.4" r="0.3"/>
	<circle class="st1" cx="195" cy="14.4" r="0.3"/>
	<circle class="st1" cx="192" cy="14.4" r="0.3"/>
	<circle class="st1" cx="188.9" cy="14.4" r="0.3"/>
</g>
<g>
	<circle class="st1" cx="21.3" cy="92.3" r="0.3"/>
	<circle class="st1" cx="21.3" cy="95.3" r="0.3"/>
	<circle class="st1" cx="21.3" cy="98.3" r="0.3"/>
	<circle class="st1" cx="21.3" cy="101.3" r="0.3"/>
	<circle class="st1" cx="21.3" cy="104.3" r="0.3"/>
	<circle class="st1" cx="21.3" cy="107.3" r="0.3"/>
	<circle class="st1" cx="21.3" cy="110.4" r="0.3"/>
	<circle class="st1" cx="21.3" cy="113.4" r="0.3"/>
	<circle class="st1" cx="21.3" cy="116.4" r="0.3"/>
	<circle class="st1" cx="21.3" cy="119.4" r="0.3"/>
	<circle class="st1" cx="21.3" cy="122.4" r="0.3"/>
	<circle class="st1" cx="21.3" cy="125.4" r="0.3"/>
	<circle class="st1" cx="24.8" cy="92.3" r="0.3"/>
	<circle class="st1" cx="24.8" cy="95.3" r="0.3"/>
	<circle class="st1" cx="24.8" cy="98.3" r="0.3"/>
	<circle class="st1" cx="24.8" cy="101.3" r="0.3"/>
	<circle class="st1" cx="24.8" cy="104.3" r="0.3"/>
	<circle class="st1" cx="24.8" cy="107.3" r="0.3"/>
	<circle class="st1" cx="24.8" cy="110.4" r="0.3"/>
	<circle class="st1" cx="24.8" cy="113.4" r="0.3"/>
	<circle class="st1" cx="24.8" cy="116.4" r="0.3"/>
	<circle class="st1" cx="24.8" cy="119.4" r="0.3"/>
	<circle class="st1" cx="24.8" cy="122.4" r="0.3"/>
	<circle class="st1" cx="24.8" cy="125.4" r="0.3"/>
	<circle class="st1" cx="28.4" cy="92.3" r="0.3"/>
	<circle class="st1" cx="28.4" cy="95.3" r="0.3"/>
	<circle class="st1" cx="28.4" cy="98.3" r="0.3"/>
	<circle class="st1" cx="28.4" cy="101.3" r="0.3"/>
	<circle class="st1" cx="28.4" cy="104.3" r="0.3"/>
	<circle class="st1" cx="28.4" cy="107.3" r="0.3"/>
	<circle class="st1" cx="28.4" cy="110.4" r="0.3"/>
	<circle class="st1" cx="28.4" cy="113.4" r="0.3"/>
	<circle class="st1" cx="28.4" cy="116.4" r="0.3"/>
	<circle class="st1" cx="28.4" cy="119.4" r="0.3"/>
	<circle class="st1" cx="28.4" cy="122.4" r="0.3"/>
	<circle class="st1" cx="28.4" cy="125.4" r="0.3"/>
</g>
<circle class="st2" cx="229.6" cy="46.3" r="1.9"/>
<circle class="st3" cx="28.7" cy="72.4" r="1.6"/>
<polygon class="st1" points="46.1,109.4 45.2,107.8 44.2,109.4 "/>
<polygon class="st1" points="216.7,25.4 210.6,26 214.1,31 "/>
<g>
	<circle class="st1" cx="222.1" cy="7.4" r="0.3"/>
	<circle class="st1" cx="219.1" cy="7.4" r="0.3"/>
	<circle class="st1" cx="216.1" cy="7.4" r="0.3"/>
	<circle class="st1" cx="213.1" cy="7.4" r="0.3"/>
	<circle class="st1" cx="210" cy="7.4" r="0.3"/>
	<circle class="st1" cx="207" cy="7.4" r="0.3"/>
	<circle class="st1" cx="204" cy="7.4" r="0.3"/>
	<circle class="st1" cx="201" cy="7.4" r="0.3"/>
	<circle class="st1" cx="198" cy="7.4" r="0.3"/>
	<circle class="st1" cx="195" cy="7.4" r="0.3"/>
	<circle class="st1" cx="192" cy="7.4" r="0.3"/>
	<circle class="st1" cx="188.9" cy="7.4" r="0.3"/>
	<circle class="st1" cx="222.1" cy="10.9" r="0.3"/>
	<circle class="st1" cx="219.1" cy="10.9" r="0.3"/>
	<circle class="st1" cx="216.1" cy="10.9" r="0.3"/>
	<circle class="st1" cx="213.1" cy="10.9" r="0.3"/>
	<circle class="st1" cx="210" cy="10.9" r="0.3"/>
	<circle class="st1" cx="207" cy="10.9" r="0.3"/>
	<circle class="st1" cx="204" cy="10.9" r="0.3"/>
	<circle class="st1" cx="201" cy="10.9" r="0.3"/>
	<circle class="st1" cx="198" cy="10.9" r="0.3"/>
	<circle class="st1" cx="195" cy="10.9" r="0.3"/>
	<circle class="st1" cx="192" cy="10.9" r="0.3"/>
	<circle class="st1" cx="188.9" cy="10.9" r="0.3"/>
	<circle class="st1" cx="222.1" cy="14.4" r="0.3"/>
	<circle class="st1" cx="219.1" cy="14.4" r="0.3"/>
	<circle class="st1" cx="216.1" cy="14.4" r="0.3"/>
	<circle class="st1" cx="213.1" cy="14.4" r="0.3"/>
	<circle class="st1" cx="210" cy="14.4" r="0.3"/>
	<circle class="st1" cx="207" cy="14.4" r="0.3"/>
	<circle class="st1" cx="204" cy="14.4" r="0.3"/>
	<circle class="st1" cx="201" cy="14.4" r="0.3"/>
	<circle class="st1" cx="198" cy="14.4" r="0.3"/>
	<circle class="st1" cx="195" cy="14.4" r="0.3"/>
	<circle class="st1" cx="192" cy="14.4" r="0.3"/>
	<circle class="st1" cx="188.9" cy="14.4" r="0.3"/>
</g>
<g>
	<circle class="st1" cx="21.3" cy="92.3" r="0.3"/>
	<circle class="st1" cx="21.3" cy="95.3" r="0.3"/>
	<circle class="st1" cx="21.3" cy="98.3" r="0.3"/>
	<circle class="st1" cx="21.3" cy="101.3" r="0.3"/>
	<circle class="st1" cx="21.3" cy="104.3" r="0.3"/>
	<circle class="st1" cx="21.3" cy="107.3" r="0.3"/>
	<circle class="st1" cx="21.3" cy="110.4" r="0.3"/>
	<circle class="st1" cx="21.3" cy="113.4" r="0.3"/>
	<circle class="st1" cx="21.3" cy="116.4" r="0.3"/>
	<circle class="st1" cx="21.3" cy="119.4" r="0.3"/>
	<circle class="st1" cx="21.3" cy="122.4" r="0.3"/>
	<circle class="st1" cx="21.3" cy="125.4" r="0.3"/>
	<circle class="st1" cx="24.8" cy="92.3" r="0.3"/>
	<circle class="st1" cx="24.8" cy="95.3" r="0.3"/>
	<circle class="st1" cx="24.8" cy="98.3" r="0.3"/>
	<circle class="st1" cx="24.8" cy="101.3" r="0.3"/>
	<circle class="st1" cx="24.8" cy="104.3" r="0.3"/>
	<circle class="st1" cx="24.8" cy="107.3" r="0.3"/>
	<circle class="st1" cx="24.8" cy="110.4" r="0.3"/>
	<circle class="st1" cx="24.8" cy="113.4" r="0.3"/>
	<circle class="st1" cx="24.8" cy="116.4" r="0.3"/>
	<circle class="st1" cx="24.8" cy="119.4" r="0.3"/>
	<circle class="st1" cx="24.8" cy="122.4" r="0.3"/>
	<circle class="st1" cx="24.8" cy="125.4" r="0.3"/>
	<circle class="st1" cx="28.4" cy="92.3" r="0.3"/>
	<circle class="st1" cx="28.4" cy="95.3" r="0.3"/>
	<circle class="st1" cx="28.4" cy="98.3" r="0.3"/>
	<circle class="st1" cx="28.4" cy="101.3" r="0.3"/>
	<circle class="st1" cx="28.4" cy="104.3" r="0.3"/>
	<circle class="st1" cx="28.4" cy="107.3" r="0.3"/>
	<circle class="st1" cx="28.4" cy="110.4" r="0.3"/>
	<circle class="st1" cx="28.4" cy="113.4" r="0.3"/>
	<circle class="st1" cx="28.4" cy="116.4" r="0.3"/>
	<circle class="st1" cx="28.4" cy="119.4" r="0.3"/>
	<circle class="st1" cx="28.4" cy="122.4" r="0.3"/>
	<circle class="st1" cx="28.4" cy="125.4" r="0.3"/>
</g>
<circle class="st2" cx="229.6" cy="46.3" r="1.9"/>
<circle class="st3" cx="28.7" cy="72.4" r="1.6"/>
<polygon class="st1" points="46.1,109.4 45.2,107.8 44.2,109.4 "/>
<polygon class="st1" points="216.7,25.4 210.6,26 214.1,31 "/>
<g>
	<circle class="st1" cx="222.1" cy="7.4" r="0.3"/>
	<circle class="st1" cx="219.1" cy="7.4" r="0.3"/>
	<circle class="st1" cx="216.1" cy="7.4" r="0.3"/>
	<circle class="st1" cx="213.1" cy="7.4" r="0.3"/>
	<circle class="st1" cx="210" cy="7.4" r="0.3"/>
	<circle class="st1" cx="207" cy="7.4" r="0.3"/>
	<circle class="st1" cx="204" cy="7.4" r="0.3"/>
	<circle class="st1" cx="201" cy="7.4" r="0.3"/>
	<circle class="st1" cx="198" cy="7.4" r="0.3"/>
	<circle class="st1" cx="195" cy="7.4" r="0.3"/>
	<circle class="st1" cx="192" cy="7.4" r="0.3"/>
	<circle class="st1" cx="188.9" cy="7.4" r="0.3"/>
	<circle class="st1" cx="222.1" cy="10.9" r="0.3"/>
	<circle class="st1" cx="219.1" cy="10.9" r="0.3"/>
	<circle class="st1" cx="216.1" cy="10.9" r="0.3"/>
	<circle class="st1" cx="213.1" cy="10.9" r="0.3"/>
	<circle class="st1" cx="210" cy="10.9" r="0.3"/>
	<circle class="st1" cx="207" cy="10.9" r="0.3"/>
	<circle class="st1" cx="204" cy="10.9" r="0.3"/>
	<circle class="st1" cx="201" cy="10.9" r="0.3"/>
	<circle class="st1" cx="198" cy="10.9" r="0.3"/>
	<circle class="st1" cx="195" cy="10.9" r="0.3"/>
	<circle class="st1" cx="192" cy="10.9" r="0.3"/>
	<circle class="st1" cx="188.9" cy="10.9" r="0.3"/>
	<circle class="st1" cx="222.1" cy="14.4" r="0.3"/>
	<circle class="st1" cx="219.1" cy="14.4" r="0.3"/>
	<circle class="st1" cx="216.1" cy="14.4" r="0.3"/>
	<circle class="st1" cx="213.1" cy="14.4" r="0.3"/>
	<circle class="st1" cx="210" cy="14.4" r="0.3"/>
	<circle class="st1" cx="207" cy="14.4" r="0.3"/>
	<circle class="st1" cx="204" cy="14.4" r="0.3"/>
	<circle class="st1" cx="201" cy="14.4" r="0.3"/>
	<circle class="st1" cx="198" cy="14.4" r="0.3"/>
	<circle class="st1" cx="195" cy="14.4" r="0.3"/>
	<circle class="st1" cx="192" cy="14.4" r="0.3"/>
	<circle class="st1" cx="188.9" cy="14.4" r="0.3"/>
</g>
<g>
	<circle class="st1" cx="21.3" cy="92.3" r="0.3"/>
	<circle class="st1" cx="21.3" cy="95.3" r="0.3"/>
	<circle class="st1" cx="21.3" cy="98.3" r="0.3"/>
	<circle class="st1" cx="21.3" cy="101.3" r="0.3"/>
	<circle class="st1" cx="21.3" cy="104.3" r="0.3"/>
	<circle class="st1" cx="21.3" cy="107.3" r="0.3"/>
	<circle class="st1" cx="21.3" cy="110.4" r="0.3"/>
	<circle class="st1" cx="21.3" cy="113.4" r="0.3"/>
	<circle class="st1" cx="21.3" cy="116.4" r="0.3"/>
	<circle class="st1" cx="21.3" cy="119.4" r="0.3"/>
	<circle class="st1" cx="21.3" cy="122.4" r="0.3"/>
	<circle class="st1" cx="21.3" cy="125.4" r="0.3"/>
	<circle class="st1" cx="24.8" cy="92.3" r="0.3"/>
	<circle class="st1" cx="24.8" cy="95.3" r="0.3"/>
	<circle class="st1" cx="24.8" cy="98.3" r="0.3"/>
	<circle class="st1" cx="24.8" cy="101.3" r="0.3"/>
	<circle class="st1" cx="24.8" cy="104.3" r="0.3"/>
	<circle class="st1" cx="24.8" cy="107.3" r="0.3"/>
	<circle class="st1" cx="24.8" cy="110.4" r="0.3"/>
	<circle class="st1" cx="24.8" cy="113.4" r="0.3"/>
	<circle class="st1" cx="24.8" cy="116.4" r="0.3"/>
	<circle class="st1" cx="24.8" cy="119.4" r="0.3"/>
	<circle class="st1" cx="24.8" cy="122.4" r="0.3"/>
	<circle class="st1" cx="24.8" cy="125.4" r="0.3"/>
	<circle class="st1" cx="28.4" cy="92.3" r="0.3"/>
	<circle class="st1" cx="28.4" cy="95.3" r="0.3"/>
	<circle class="st1" cx="28.4" cy="98.3" r="0.3"/>
	<circle class="st1" cx="28.4" cy="101.3" r="0.3"/>
	<circle class="st1" cx="28.4" cy="104.3" r="0.3"/>
	<circle class="st1" cx="28.4" cy="107.3" r="0.3"/>
	<circle class="st1" cx="28.4" cy="110.4" r="0.3"/>
	<circle class="st1" cx="28.4" cy="113.4" r="0.3"/>
	<circle class="st1" cx="28.4" cy="116.4" r="0.3"/>
	<circle class="st1" cx="28.4" cy="119.4" r="0.3"/>
	<circle class="st1" cx="28.4" cy="122.4" r="0.3"/>
	<circle class="st1" cx="28.4" cy="125.4" r="0.3"/>
</g>
<circle class="st2" cx="229.6" cy="46.3" r="1.9"/>
<circle class="st3" cx="28.7" cy="72.4" r="1.6"/>
<polygon class="st1" points="46.1,109.4 45.2,107.8 44.2,109.4 "/>
<polygon class="st1" points="216.7,25.4 210.6,26 214.1,31 "/>
<g>
	<circle class="st1" cx="222.1" cy="7.4" r="0.3"/>
	<circle class="st1" cx="219.1" cy="7.4" r="0.3"/>
	<circle class="st1" cx="216.1" cy="7.4" r="0.3"/>
	<circle class="st1" cx="213.1" cy="7.4" r="0.3"/>
	<circle class="st1" cx="210" cy="7.4" r="0.3"/>
	<circle class="st1" cx="207" cy="7.4" r="0.3"/>
	<circle class="st1" cx="204" cy="7.4" r="0.3"/>
	<circle class="st1" cx="201" cy="7.4" r="0.3"/>
	<circle class="st1" cx="198" cy="7.4" r="0.3"/>
	<circle class="st1" cx="195" cy="7.4" r="0.3"/>
	<circle class="st1" cx="192" cy="7.4" r="0.3"/>
	<circle class="st1" cx="188.9" cy="7.4" r="0.3"/>
	<circle class="st1" cx="222.1" cy="10.9" r="0.3"/>
	<circle class="st1" cx="219.1" cy="10.9" r="0.3"/>
	<circle class="st1" cx="216.1" cy="10.9" r="0.3"/>
	<circle class="st1" cx="213.1" cy="10.9" r="0.3"/>
	<circle class="st1" cx="210" cy="10.9" r="0.3"/>
	<circle class="st1" cx="207" cy="10.9" r="0.3"/>
	<circle class="st1" cx="204" cy="10.9" r="0.3"/>
	<circle class="st1" cx="201" cy="10.9" r="0.3"/>
	<circle class="st1" cx="198" cy="10.9" r="0.3"/>
	<circle class="st1" cx="195" cy="10.9" r="0.3"/>
	<circle class="st1" cx="192" cy="10.9" r="0.3"/>
	<circle class="st1" cx="188.9" cy="10.9" r="0.3"/>
	<circle class="st1" cx="222.1" cy="14.4" r="0.3"/>
	<circle class="st1" cx="219.1" cy="14.4" r="0.3"/>
	<circle class="st1" cx="216.1" cy="14.4" r="0.3"/>
	<circle class="st1" cx="213.1" cy="14.4" r="0.3"/>
	<circle class="st1" cx="210" cy="14.4" r="0.3"/>
	<circle class="st1" cx="207" cy="14.4" r="0.3"/>
	<circle class="st1" cx="204" cy="14.4" r="0.3"/>
	<circle class="st1" cx="201" cy="14.4" r="0.3"/>
	<circle class="st1" cx="198" cy="14.4" r="0.3"/>
	<circle class="st1" cx="195" cy="14.4" r="0.3"/>
	<circle class="st1" cx="192" cy="14.4" r="0.3"/>
	<circle class="st1" cx="188.9" cy="14.4" r="0.3"/>
</g>
<g>
	<circle class="st1" cx="21.3" cy="92.3" r="0.3"/>
	<circle class="st1" cx="21.3" cy="95.3" r="0.3"/>
	<circle class="st1" cx="21.3" cy="98.3" r="0.3"/>
	<circle class="st1" cx="21.3" cy="101.3" r="0.3"/>
	<circle class="st1" cx="21.3" cy="104.3" r="0.3"/>
	<circle class="st1" cx="21.3" cy="107.3" r="0.3"/>
	<circle class="st1" cx="21.3" cy="110.4" r="0.3"/>
	<circle class="st1" cx="21.3" cy="113.4" r="0.3"/>
	<circle class="st1" cx="21.3" cy="116.4" r="0.3"/>
	<circle class="st1" cx="21.3" cy="119.4" r="0.3"/>
	<circle class="st1" cx="21.3" cy="122.4" r="0.3"/>
	<circle class="st1" cx="21.3" cy="125.4" r="0.3"/>
	<circle class="st1" cx="24.8" cy="92.3" r="0.3"/>
	<circle class="st1" cx="24.8" cy="95.3" r="0.3"/>
	<circle class="st1" cx="24.8" cy="98.3" r="0.3"/>
	<circle class="st1" cx="24.8" cy="101.3" r="0.3"/>
	<circle class="st1" cx="24.8" cy="104.3" r="0.3"/>
	<circle class="st1" cx="24.8" cy="107.3" r="0.3"/>
	<circle class="st1" cx="24.8" cy="110.4" r="0.3"/>
	<circle class="st1" cx="24.8" cy="113.4" r="0.3"/>
	<circle class="st1" cx="24.8" cy="116.4" r="0.3"/>
	<circle class="st1" cx="24.8" cy="119.4" r="0.3"/>
	<circle class="st1" cx="24.8" cy="122.4" r="0.3"/>
	<circle class="st1" cx="24.8" cy="125.4" r="0.3"/>
	<circle class="st1" cx="28.4" cy="92.3" r="0.3"/>
	<circle class="st1" cx="28.4" cy="95.3" r="0.3"/>
	<circle class="st1" cx="28.4" cy="98.3" r="0.3"/>
	<circle class="st1" cx="28.4" cy="101.3" r="0.3"/>
	<circle class="st1" cx="28.4" cy="104.3" r="0.3"/>
	<circle class="st1" cx="28.4" cy="107.3" r="0.3"/>
	<circle class="st1" cx="28.4" cy="110.4" r="0.3"/>
	<circle class="st1" cx="28.4" cy="113.4" r="0.3"/>
	<circle class="st1" cx="28.4" cy="116.4" r="0.3"/>
	<circle class="st1" cx="28.4" cy="119.4" r="0.3"/>
	<circle class="st1" cx="28.4" cy="122.4" r="0.3"/>
	<circle class="st1" cx="28.4" cy="125.4" r="0.3"/>
</g>
<circle class="st2" cx="229.6" cy="46.3" r="1.9"/>
<circle class="st3" cx="28.7" cy="72.4" r="1.6"/>
<polygon class="st1" points="46.1,109.4 45.2,107.8 44.2,109.4 "/>
<polygon class="st1" points="216.7,25.4 210.6,26 214.1,31 "/>
<g>
	<circle class="st1" cx="222.1" cy="7.4" r="0.3"/>
	<circle class="st1" cx="219.1" cy="7.4" r="0.3"/>
	<circle class="st1" cx="216.1" cy="7.4" r="0.3"/>
	<circle class="st1" cx="213.1" cy="7.4" r="0.3"/>
	<circle class="st1" cx="210" cy="7.4" r="0.3"/>
	<circle class="st1" cx="207" cy="7.4" r="0.3"/>
	<circle class="st1" cx="204" cy="7.4" r="0.3"/>
	<circle class="st1" cx="201" cy="7.4" r="0.3"/>
	<circle class="st1" cx="198" cy="7.4" r="0.3"/>
	<circle class="st1" cx="195" cy="7.4" r="0.3"/>
	<circle class="st1" cx="192" cy="7.4" r="0.3"/>
	<circle class="st1" cx="188.9" cy="7.4" r="0.3"/>
	<circle class="st1" cx="222.1" cy="10.9" r="0.3"/>
	<circle class="st1" cx="219.1" cy="10.9" r="0.3"/>
	<circle class="st1" cx="216.1" cy="10.9" r="0.3"/>
	<circle class="st1" cx="213.1" cy="10.9" r="0.3"/>
	<circle class="st1" cx="210" cy="10.9" r="0.3"/>
	<circle class="st1" cx="207" cy="10.9" r="0.3"/>
	<circle class="st1" cx="204" cy="10.9" r="0.3"/>
	<circle class="st1" cx="201" cy="10.9" r="0.3"/>
	<circle class="st1" cx="198" cy="10.9" r="0.3"/>
	<circle class="st1" cx="195" cy="10.9" r="0.3"/>
	<circle class="st1" cx="192" cy="10.9" r="0.3"/>
	<circle class="st1" cx="188.9" cy="10.9" r="0.3"/>
	<circle class="st1" cx="222.1" cy="14.4" r="0.3"/>
	<circle class="st1" cx="219.1" cy="14.4" r="0.3"/>
	<circle class="st1" cx="216.1" cy="14.4" r="0.3"/>
	<circle class="st1" cx="213.1" cy="14.4" r="0.3"/>
	<circle class="st1" cx="210" cy="14.4" r="0.3"/>
	<circle class="st1" cx="207" cy="14.4" r="0.3"/>
	<circle class="st1" cx="204" cy="14.4" r="0.3"/>
	<circle class="st1" cx="201" cy="14.4" r="0.3"/>
	<circle class="st1" cx="198" cy="14.4" r="0.3"/>
	<circle class="st1" cx="195" cy="14.4" r="0.3"/>
	<circle class="st1" cx="192" cy="14.4" r="0.3"/>
	<circle class="st1" cx="188.9" cy="14.4" r="0.3"/>
</g>
<g>
	<circle class="st1" cx="21.3" cy="92.3" r="0.3"/>
	<circle class="st1" cx="21.3" cy="95.3" r="0.3"/>
	<circle class="st1" cx="21.3" cy="98.3" r="0.3"/>
	<circle class="st1" cx="21.3" cy="101.3" r="0.3"/>
	<circle class="st1" cx="21.3" cy="104.3" r="0.3"/>
	<circle class="st1" cx="21.3" cy="107.3" r="0.3"/>
	<circle class="st1" cx="21.3" cy="110.4" r="0.3"/>
	<circle class="st1" cx="21.3" cy="113.4" r="0.3"/>
	<circle class="st1" cx="21.3" cy="116.4" r="0.3"/>
	<circle class="st1" cx="21.3" cy="119.4" r="0.3"/>
	<circle class="st1" cx="21.3" cy="122.4" r="0.3"/>
	<circle class="st1" cx="21.3" cy="125.4" r="0.3"/>
	<circle class="st1" cx="24.8" cy="92.3" r="0.3"/>
	<circle class="st1" cx="24.8" cy="95.3" r="0.3"/>
	<circle class="st1" cx="24.8" cy="98.3" r="0.3"/>
	<circle class="st1" cx="24.8" cy="101.3" r="0.3"/>
	<circle class="st1" cx="24.8" cy="104.3" r="0.3"/>
	<circle class="st1" cx="24.8" cy="107.3" r="0.3"/>
	<circle class="st1" cx="24.8" cy="110.4" r="0.3"/>
	<circle class="st1" cx="24.8" cy="113.4" r="0.3"/>
	<circle class="st1" cx="24.8" cy="116.4" r="0.3"/>
	<circle class="st1" cx="24.8" cy="119.4" r="0.3"/>
	<circle class="st1" cx="24.8" cy="122.4" r="0.3"/>
	<circle class="st1" cx="24.8" cy="125.4" r="0.3"/>
	<circle class="st1" cx="28.4" cy="92.3" r="0.3"/>
	<circle class="st1" cx="28.4" cy="95.3" r="0.3"/>
	<circle class="st1" cx="28.4" cy="98.3" r="0.3"/>
	<circle class="st1" cx="28.4" cy="101.3" r="0.3"/>
	<circle class="st1" cx="28.4" cy="104.3" r="0.3"/>
	<circle class="st1" cx="28.4" cy="107.3" r="0.3"/>
	<circle class="st1" cx="28.4" cy="110.4" r="0.3"/>
	<circle class="st1" cx="28.4" cy="113.4" r="0.3"/>
	<circle class="st1" cx="28.4" cy="116.4" r="0.3"/>
	<circle class="st1" cx="28.4" cy="119.4" r="0.3"/>
	<circle class="st1" cx="28.4" cy="122.4" r="0.3"/>
	<circle class="st1" cx="28.4" cy="125.4" r="0.3"/>
</g>
<circle class="st2" cx="229.6" cy="46.3" r="1.9"/>
<circle class="st3" cx="28.7" cy="72.4" r="1.6"/>
<polygon class="st1" points="46.1,109.4 45.2,107.8 44.2,109.4 "/>
<polygon class="st1" points="216.7,25.4 210.6,26 214.1,31 "/>
<g>
	<circle class="st1" cx="222.1" cy="7.4" r="0.3"/>
	<circle class="st1" cx="219.1" cy="7.4" r="0.3"/>
	<circle class="st1" cx="216.1" cy="7.4" r="0.3"/>
	<circle class="st1" cx="213.1" cy="7.4" r="0.3"/>
	<circle class="st1" cx="210" cy="7.4" r="0.3"/>
	<circle class="st1" cx="207" cy="7.4" r="0.3"/>
	<circle class="st1" cx="204" cy="7.4" r="0.3"/>
	<circle class="st1" cx="201" cy="7.4" r="0.3"/>
	<circle class="st1" cx="198" cy="7.4" r="0.3"/>
	<circle class="st1" cx="195" cy="7.4" r="0.3"/>
	<circle class="st1" cx="192" cy="7.4" r="0.3"/>
	<circle class="st1" cx="188.9" cy="7.4" r="0.3"/>
	<circle class="st1" cx="222.1" cy="10.9" r="0.3"/>
	<circle class="st1" cx="219.1" cy="10.9" r="0.3"/>
	<circle class="st1" cx="216.1" cy="10.9" r="0.3"/>
	<circle class="st1" cx="213.1" cy="10.9" r="0.3"/>
	<circle class="st1" cx="210" cy="10.9" r="0.3"/>
	<circle class="st1" cx="207" cy="10.9" r="0.3"/>
	<circle class="st1" cx="204" cy="10.9" r="0.3"/>
	<circle class="st1" cx="201" cy="10.9" r="0.3"/>
	<circle class="st1" cx="198" cy="10.9" r="0.3"/>
	<circle class="st1" cx="195" cy="10.9" r="0.3"/>
	<circle class="st1" cx="192" cy="10.9" r="0.3"/>
	<circle class="st1" cx="188.9" cy="10.9" r="0.3"/>
	<circle class="st1" cx="222.1" cy="14.4" r="0.3"/>
	<circle class="st1" cx="219.1" cy="14.4" r="0.3"/>
	<circle class="st1" cx="216.1" cy="14.4" r="0.3"/>
	<circle class="st1" cx="213.1" cy="14.4" r="0.3"/>
	<circle class="st1" cx="210" cy="14.4" r="0.3"/>
	<circle class="st1" cx="207" cy="14.4" r="0.3"/>
	<circle class="st1" cx="204" cy="14.4" r="0.3"/>
	<circle class="st1" cx="201" cy="14.4" r="0.3"/>
	<circle class="st1" cx="198" cy="14.4" r="0.3"/>
	<circle class="st1" cx="195" cy="14.4" r="0.3"/>
	<circle class="st1" cx="192" cy="14.4" r="0.3"/>
	<circle class="st1" cx="188.9" cy="14.4" r="0.3"/>
</g>
<g>
	<circle class="st1" cx="21.3" cy="92.3" r="0.3"/>
	<circle class="st1" cx="21.3" cy="95.3" r="0.3"/>
	<circle class="st1" cx="21.3" cy="98.3" r="0.3"/>
	<circle class="st1" cx="21.3" cy="101.3" r="0.3"/>
	<circle class="st1" cx="21.3" cy="104.3" r="0.3"/>
	<circle class="st1" cx="21.3" cy="107.3" r="0.3"/>
	<circle class="st1" cx="21.3" cy="110.4" r="0.3"/>
	<circle class="st1" cx="21.3" cy="113.4" r="0.3"/>
	<circle class="st1" cx="21.3" cy="116.4" r="0.3"/>
	<circle class="st1" cx="21.3" cy="119.4" r="0.3"/>
	<circle class="st1" cx="21.3" cy="122.4" r="0.3"/>
	<circle class="st1" cx="21.3" cy="125.4" r="0.3"/>
	<circle class="st1" cx="24.8" cy="92.3" r="0.3"/>
	<circle class="st1" cx="24.8" cy="95.3" r="0.3"/>
	<circle class="st1" cx="24.8" cy="98.3" r="0.3"/>
	<circle class="st1" cx="24.8" cy="101.3" r="0.3"/>
	<circle class="st1" cx="24.8" cy="104.3" r="0.3"/>
	<circle class="st1" cx="24.8" cy="107.3" r="0.3"/>
	<circle class="st1" cx="24.8" cy="110.4" r="0.3"/>
	<circle class="st1" cx="24.8" cy="113.4" r="0.3"/>
	<circle class="st1" cx="24.8" cy="116.4" r="0.3"/>
	<circle class="st1" cx="24.8" cy="119.4" r="0.3"/>
	<circle class="st1" cx="24.8" cy="122.4" r="0.3"/>
	<circle class="st1" cx="24.8" cy="125.4" r="0.3"/>
	<circle class="st1" cx="28.4" cy="92.3" r="0.3"/>
	<circle class="st1" cx="28.4" cy="95.3" r="0.3"/>
	<circle class="st1" cx="28.4" cy="98.3" r="0.3"/>
	<circle class="st1" cx="28.4" cy="101.3" r="0.3"/>
	<circle class="st1" cx="28.4" cy="104.3" r="0.3"/>
	<circle class="st1" cx="28.4" cy="107.3" r="0.3"/>
	<circle class="st1" cx="28.4" cy="110.4" r="0.3"/>
	<circle class="st1" cx="28.4" cy="113.4" r="0.3"/>
	<circle class="st1" cx="28.4" cy="116.4" r="0.3"/>
	<circle class="st1" cx="28.4" cy="119.4" r="0.3"/>
	<circle class="st1" cx="28.4" cy="122.4" r="0.3"/>
	<circle class="st1" cx="28.4" cy="125.4" r="0.3"/>
</g>
<circle class="st2" cx="229.6" cy="46.3" r="1.9"/>
<circle class="st3" cx="28.7" cy="72.4" r="1.6"/>
<polygon class="st1" points="46.1,109.4 45.2,107.8 44.2,109.4 "/>
<polygon class="st1" points="216.7,25.4 210.6,26 214.1,31 "/>
<g>
	<circle class="st1" cx="222.1" cy="7.4" r="0.3"/>
	<circle class="st1" cx="219.1" cy="7.4" r="0.3"/>
	<circle class="st1" cx="216.1" cy="7.4" r="0.3"/>
	<circle class="st1" cx="213.1" cy="7.4" r="0.3"/>
	<circle class="st1" cx="210" cy="7.4" r="0.3"/>
	<circle class="st1" cx="207" cy="7.4" r="0.3"/>
	<circle class="st1" cx="204" cy="7.4" r="0.3"/>
	<circle class="st1" cx="201" cy="7.4" r="0.3"/>
	<circle class="st1" cx="198" cy="7.4" r="0.3"/>
	<circle class="st1" cx="195" cy="7.4" r="0.3"/>
	<circle class="st1" cx="192" cy="7.4" r="0.3"/>
	<circle class="st1" cx="188.9" cy="7.4" r="0.3"/>
	<circle class="st1" cx="222.1" cy="10.9" r="0.3"/>
	<circle class="st1" cx="219.1" cy="10.9" r="0.3"/>
	<circle class="st1" cx="216.1" cy="10.9" r="0.3"/>
	<circle class="st1" cx="213.1" cy="10.9" r="0.3"/>
	<circle class="st1" cx="210" cy="10.9" r="0.3"/>
	<circle class="st1" cx="207" cy="10.9" r="0.3"/>
	<circle class="st1" cx="204" cy="10.9" r="0.3"/>
	<circle class="st1" cx="201" cy="10.9" r="0.3"/>
	<circle class="st1" cx="198" cy="10.9" r="0.3"/>
	<circle class="st1" cx="195" cy="10.9" r="0.3"/>
	<circle class="st1" cx="192" cy="10.9" r="0.3"/>
	<circle class="st1" cx="188.9" cy="10.9" r="0.3"/>
	<circle class="st1" cx="222.1" cy="14.4" r="0.3"/>
	<circle class="st1" cx="219.1" cy="14.4" r="0.3"/>
	<circle class="st1" cx="216.1" cy="14.4" r="0.3"/>
	<circle class="st1" cx="213.1" cy="14.4" r="0.3"/>
	<circle class="st1" cx="210" cy="14.4" r="0.3"/>
	<circle class="st1" cx="207" cy="14.4" r="0.3"/>
	<circle class="st1" cx="204" cy="14.4" r="0.3"/>
	<circle class="st1" cx="201" cy="14.4" r="0.3"/>
	<circle class="st1" cx="198" cy="14.4" r="0.3"/>
	<circle class="st1" cx="195" cy="14.4" r="0.3"/>
	<circle class="st1" cx="192" cy="14.4" r="0.3"/>
	<circle class="st1" cx="188.9" cy="14.4" r="0.3"/>
</g>
<g>
	<circle class="st1" cx="21.3" cy="92.3" r="0.3"/>
	<circle class="st1" cx="21.3" cy="95.3" r="0.3"/>
	<circle class="st1" cx="21.3" cy="98.3" r="0.3"/>
	<circle class="st1" cx="21.3" cy="101.3" r="0.3"/>
	<circle class="st1" cx="21.3" cy="104.3" r="0.3"/>
	<circle class="st1" cx="21.3" cy="107.3" r="0.3"/>
	<circle class="st1" cx="21.3" cy="110.4" r="0.3"/>
	<circle class="st1" cx="21.3" cy="113.4" r="0.3"/>
	<circle class="st1" cx="21.3" cy="116.4" r="0.3"/>
	<circle class="st1" cx="21.3" cy="119.4" r="0.3"/>
	<circle class="st1" cx="21.3" cy="122.4" r="0.3"/>
	<circle class="st1" cx="21.3" cy="125.4" r="0.3"/>
	<circle class="st1" cx="24.8" cy="92.3" r="0.3"/>
	<circle class="st1" cx="24.8" cy="95.3" r="0.3"/>
	<circle class="st1" cx="24.8" cy="98.3" r="0.3"/>
	<circle class="st1" cx="24.8" cy="101.3" r="0.3"/>
	<circle class="st1" cx="24.8" cy="104.3" r="0.3"/>
	<circle class="st1" cx="24.8" cy="107.3" r="0.3"/>
	<circle class="st1" cx="24.8" cy="110.4" r="0.3"/>
	<circle class="st1" cx="24.8" cy="113.4" r="0.3"/>
	<circle class="st1" cx="24.8" cy="116.4" r="0.3"/>
	<circle class="st1" cx="24.8" cy="119.4" r="0.3"/>
	<circle class="st1" cx="24.8" cy="122.4" r="0.3"/>
	<circle class="st1" cx="24.8" cy="125.4" r="0.3"/>
	<circle class="st1" cx="28.4" cy="92.3" r="0.3"/>
	<circle class="st1" cx="28.4" cy="95.3" r="0.3"/>
	<circle class="st1" cx="28.4" cy="98.3" r="0.3"/>
	<circle class="st1" cx="28.4" cy="101.3" r="0.3"/>
	<circle class="st1" cx="28.4" cy="104.3" r="0.3"/>
	<circle class="st1" cx="28.4" cy="107.3" r="0.3"/>
	<circle class="st1" cx="28.4" cy="110.4" r="0.3"/>
	<circle class="st1" cx="28.4" cy="113.4" r="0.3"/>
	<circle class="st1" cx="28.4" cy="116.4" r="0.3"/>
	<circle class="st1" cx="28.4" cy="119.4" r="0.3"/>
	<circle class="st1" cx="28.4" cy="122.4" r="0.3"/>
	<circle class="st1" cx="28.4" cy="125.4" r="0.3"/>
</g>
<circle class="st2" cx="229.6" cy="46.3" r="1.9"/>
<circle class="st3" cx="28.7" cy="72.4" r="1.6"/>
<polygon class="st1" points="46.1,109.4 45.2,107.8 44.2,109.4 "/>
<polygon class="st1" points="216.7,25.4 210.6,26 214.1,31 "/>
<text transform="matrix(1 0 0 1 93.48 105.83)" class="st4 st5 st6"> Air Plants / Tillandsia</text>
<text transform="matrix(1 0 0 1 93.48 105.83)" class="st4 st5 st6"> Air Plants / Tillandsia</text>
<text transform="matrix(1 0 0 1 93.48 105.83)" class="st4 st5 st6"> Air Plants / Tillandsia</text>
<text transform="matrix(1 0 0 1 93.48 105.83)" class="st4 st5 st6"> Air Plants / Tillandsia</text>
<text transform="matrix(1 0 0 1 93.48 105.83)" class="st4 st5 st6"> Air Plants / Tillandsia</text>
<text transform="matrix(1 0 0 1 105.42 113.42)" class="st7 st5 st8">@Purple Shamrock</text>
<path class="st7" d="M104.7,61.1c9.3,1.2,18.8,1.4,28.2,0.6c0.6-0.1,0.6-1.1,0-1c-9.4,0.8-18.8,0.6-28.2-0.6
	C104.1,60,104.1,61,104.7,61.1z"/>
<path class="st7" d="M106.9,94.9c4,0.5,8.1,0.8,12.2,0.7c3.6-0.1,7.8,0.1,11.2-1.3c0.6-0.3,0.3-1.2-0.3-1c-3.4,1.4-7.9,1.3-11.6,1.3
	c-3.9,0-7.7-0.2-11.5-0.7C106.2,93.8,106.2,94.8,106.9,94.9L106.9,94.9z"/>
<path class="st7" d="M104.3,60.3C99.7,64.8,97.4,71,98,77.4c0.3,3.2,1.2,6.4,2.6,9.4c1.3,2.7,3.1,6.5,5.9,7.9
	c0.6,0.3,1.1-0.6,0.5-0.9c-2.6-1.3-4.4-5-5.5-7.6c-1.4-3-2.2-6.2-2.4-9.4c-0.5-5.9,1.7-11.7,6-15.8
	C105.5,60.6,104.8,59.9,104.3,60.3L104.3,60.3z"/>
<path class="st7" d="M132.5,61.5c4.9,3.1,5.4,9.7,5.3,15c-0.1,5.8-0.9,15.1-7.8,16.8c-0.6,0.2-0.4,1.1,0.3,1
	c7.3-1.8,8.3-11,8.6-17.1c0.2-5.8-0.3-13-5.7-16.5C132.5,60.4,132,61.3,132.5,61.5L132.5,61.5z"/>
<path class="st7" d="M110.4,61.1c0.4-3.5-2-6.1-4.5-8.1c-1.5-1-2.9-2.3-3.9-3.8c-0.5-0.9-0.9-1.8-1.2-2.8c-0.5-1.8,0.4-4.8,2.7-2.6
	c1.3,1.2,1.6,2.8,2.7,4.2c0.5,0.8,1.5,1.1,2.4,0.7c2.8-1.5,0.6-6.6,0-8.6c-0.8-2.5-1.1-4.8,0.1-7.2c0.4-0.8,0.9-1.6,1.4-2.3
	c0.3-0.5,0.8-0.9,1.3-1.3c0.8-0.6,1.8-0.7,2.7-0.3c1.2,0.4,1.2,0.4,1.4,1.6c0.1,0.5,0.2,1.1,0.2,1.7c0.1,1.2,0,2.3-0.3,3.5
	c-0.4,2.2-1.7,4.1-2,6.3c-0.2,1.6-0.1,6.7,2.6,6.3c3.1-0.6,2.9-5.6,6-6.2c2.6-0.6,3.8,2.3,2.8,4.2c-0.7,1-1.5,1.9-2.5,2.6
	c-1.7,1.3-3.8,2-5.4,3.3c-3,2.4-2,6.1-0.8,9.1c0.2,0.6,1.2,0.3,1-0.3c-0.8-2.1-1.9-4.6-0.8-6.7c1-2,3.8-2.7,5.6-3.9
	c2.4-1.6,5.8-4.6,3.8-7.8c-1.7-2.6-5-1.8-6.6,0.5c-0.5,0.7-0.8,1.4-1.3,2.1c-0.2,0.3-0.4,0.6-0.6,0.9l-0.5,0.6c-1.3,0.3-1.9-0.1-2-1
	c-1.3-2.7,0.3-5.5,1.1-7.9c0.6-1.8,0.9-3.8,0.8-5.8c-0.1-1.4-0.2-3.2-1.5-4c-1.1-0.7-2.8-0.3-3.9,0.3c-1.6,0.8-2.6,2.6-3.5,4.1
	c-2.1,4,0,7.5,0.8,11.6c0.2,0.8,0.3,1.5,0.2,2.3l-1.6,1.5c-0.3-0.4-0.5-0.8-0.7-1.3c-0.3-0.7-0.7-1.4-1.1-2c-0.7-1-2.1-2.6-3.5-2.5
	s-2.1,1.5-2.3,2.7c-0.2,1.8,0.7,3.6,1.6,5.1c2.4,4.1,9,5.7,8.3,11.4C109.3,61.7,110.3,61.7,110.4,61.1L110.4,61.1z"/>
<path class="st7" d="M119.1,44.5c0.7-3.7-0.6-7-0.9-10.6c-0.2-2.1,0.8-5.6,3.7-4.6c2.2,0.7,3,3.3,2.8,5.4c-0.1,1.5-0.8,6,2.1,5.5
	c2.5-0.3,3.8-4.5,5-6.3c1-1.5,3.3-3.7,5.4-3.1c3.2,1,1.1,4.8-0.3,6.3c-2.5,2.5-5.1,4.8-7.3,7.6c-1.3,1.6-2.4,4.3,0.4,5.1
	c1.1,0.2,2.2,0,3.1-0.5c0.8-0.4,1.6-0.7,2.4-1c1.5-0.4,3.3-0.1,2.3,1.8c-2.4,4.4-7.8,1.2-11.3,3c-3,1.6-3.7,5.1-3.4,8.1
	c0.1,0.6,1.1,0.6,1,0c-0.2-2.1,0-4.5,1.4-6.2c1.9-2.2,4.5-1.4,7-1.4s5.9-1.3,6.4-4.2c0.6-3.2-3-2.5-4.9-1.8
	c-0.8,0.4-1.6,0.8-2.4,1.1c-0.8,0.3-1.6,0.2-2.3-0.3c-0.5-0.6-0.1-1.7,0.2-2.2c1.3-1.9,2.8-3.7,4.6-5.3c2.2-2.2,5.9-4.5,5.6-8.1
	c-0.3-2.7-2.8-3.7-5.1-2.7c-1.4,0.6-2.6,1.6-3.5,2.8c-1.2,1.6-1.8,3.8-3.3,5.2c-0.5,0.5-1,1.6-2.2,0.5c-0.5-0.5-0.4-1.7-0.3-2.4
	c0.1-0.8,0.2-1.7,0.2-2.5c0-1.5-0.5-2.9-1.4-4c-2-2.4-5.3-2.2-6.7,0.7c-0.8,1.8-0.4,3.8-0.1,5.6c0.5,2.7,1.2,5.3,0.6,8.1
	C118,44.8,118.9,45.1,119.1,44.5L119.1,44.5z"/>
<path class="st7" d="M118.8,50.8c-0.5,3.4-1.2,6.8-2.3,10.1c-0.2,0.6,0.8,0.9,1,0.3c1.1-3.3,1.8-6.7,2.3-10.1
	C119.9,50.5,119,50.2,118.8,50.8z"/>
<path class="st7" d="M106.9,60.6c-0.1-2.7-2-4.4-4.1-5.8c-1.4-0.8-2.8-1.7-4-2.8c-0.5-0.5-1.4-1.5-1.5-2.2c-0.2-2.6,3-0.6,3.7,0
	c0.5,0.4,1.2-0.3,0.7-0.7c-1.1-0.9-3-2.1-4.5-1.4c-1.2,0.6-1,2-0.5,3c2,4.3,9.1,4.8,9.4,9.9C105.9,61.2,106.9,61.2,106.9,60.6
	L106.9,60.6z"/>
<path class="st7" d="M129.3,61.5c1.2-1.9,2.9-3.4,4.9-4.5c1.8-0.9,4.1-1.1,5.7-2.4c1.9-1.5,2-5.3-1.1-5.2c-0.6,0-0.6,1,0,1
	c0.8,0,1.5,0.6,1.6,1.5c0,0.2,0,0.4-0.1,0.5c-0.2,0.7-0.7,1.2-1.3,1.6c-0.8,0.5-1.6,0.8-2.5,1c-1.1,0.3-2.1,0.7-3.1,1.2
	c-2,1.1-3.7,2.7-5,4.7C128.1,61.6,128.9,62,129.3,61.5L129.3,61.5z"/>
<path class="st7" d="M132,52.8c-4.2,0.8-5.8,5-6.8,8.7c-0.1,0.3,0.1,0.6,0.4,0.6c0.3,0.1,0.6-0.1,0.6-0.4c0.9-3.4,2.2-7.3,6.1-8
	C132.9,53.6,132.7,52.6,132,52.8L132,52.8z"/>
<path class="st7" d="M108,61.1c-3.7,4-5.3,10.6-4.7,15.8c0.5,3.1,1.2,6.1,2.1,9.1c0.6,3,1.6,6,3.1,8.7c0.3,0.6,1.2,0,0.9-0.5
	c-1.4-2.5-2.4-5.3-2.9-8.1c-0.7-2.7-1.4-5.4-1.9-8.2c-1-5.2,0.5-12.2,4.2-16.1C109.1,61.3,108.4,60.6,108,61.1L108,61.1z"/>
<path class="st7" d="M113,61.5c-2.7,4.8-4.2,10.3-4.1,15.8c0,2.7,0.4,5.3,1.1,7.9c0.9,3.2,2.3,6.2,2.9,9.4c0.1,0.6,1.1,0.4,1-0.3
	c-0.7-2.8-1.5-5.6-2.5-8.3c-2.6-8-1.7-16.8,2.5-24.1c0.1-0.3,0-0.5-0.2-0.7C113.4,61.2,113.1,61.3,113,61.5L113,61.5z"/>
<path class="st7" d="M115.9,62.5c0.9,5.5-0.2,11.1-0.1,16.7c0.2,2.5,0.5,5,0.9,7.4c0.3,2.6-0.3,5.3-0.6,7.9c-0.1,0.6,0.9,0.6,1,0
	c0.3-2.6,0.9-5.3,0.6-7.9c-0.5-2.6-0.8-5.3-1-8c0-5.5,1-10.9,0.1-16.3C116.7,61.5,115.8,61.8,115.9,62.5L115.9,62.5z"/>
<path class="st7" d="M119.7,62c1.8,5,2,10.3,2.2,15.6c0.2,5.7-0.1,11.4-1.2,17c-0.1,0.6,0.8,0.9,1,0.3c1-5.7,1.4-11.5,1.2-17.2
	c-0.2-5.3-0.4-10.7-2.2-15.8C120.5,61.2,119.5,61.4,119.7,62L119.7,62z"/>
<path class="st7" d="M123.9,62c0.5,1,1.1,2,1.8,2.9c0.7,1.2,1.2,2.4,1.3,3.8c0.3,2.9,0.4,5.8,0.2,8.7c0,3.1,0.2,6.4-0.6,9.5
	c-0.7,2.7-2.3,5-2.9,7.7c-0.1,0.6,0.8,0.9,1,0.3c0.6-2.9,2.4-5.4,3-8.3c0.6-2.9,0.5-6.1,0.5-9.2c0.1-2.8,0.1-5.7-0.2-8.5
	c-0.1-1.2-0.5-2.4-1-3.6c-0.6-1.3-1.7-2.2-2.2-3.5C124.7,61.2,123.7,61.4,123.9,62L123.9,62z"/>
<path class="st7" d="M128.8,61.9c2,1.9,2.9,4.8,3.7,7.4s0.5,5.5,0.3,8.3c-0.3,5.6-1.3,11.1-3.9,16.1c-0.3,0.6,0.6,1.1,0.9,0.5
	c2.9-5.3,3.8-11.2,4.1-17.2c0.2-3,0.3-5.9-0.6-8.8c-0.8-2.5-1.7-5.2-3.7-7C129,60.7,128.3,61.4,128.8,61.9L128.8,61.9z"/>
<path class="st7" d="M107.9,64.4c-0.1,0.3-0.2,0.5-0.3,0.8c-0.1,0.2,0,0.6,0.2,0.7c0.1,0,0.1,0.1,0.2,0.1c0.3,0,0.5-0.1,0.7-0.3
	l0.2-0.2c0.1-0.1,0,0.1,0,0s-0.1,0,0,0l-0.5-0.6l-0.1,0.7c-0.1,0.3,0.1,0.5,0.3,0.6c0.3,0.1,0.5-0.1,0.6-0.3c0,0,0,0,0,0l0.1-0.7
	c0.1-0.3-0.1-0.5-0.4-0.6c0,0-0.1,0-0.1,0c-0.3,0-0.5,0.1-0.7,0.3l-0.2,0.2l-0.1,0.1l0,0c-0.1,0-0.1,0,0,0c-0.1,0-0.1,0,0,0l0.4,0.8
	c0.2-0.3,0.3-0.7,0.4-1c0.1-0.3-0.1-0.5-0.3-0.6c0,0,0,0,0,0C108.2,64,108,64.2,107.9,64.4L107.9,64.4z"/>
<path class="st7" d="M105.5,70.4l-0.1,0.8c-0.1,0.2,0,0.4,0.2,0.6c0.2,0.1,0.4,0.1,0.6-0.1l0.3-0.3c0.1-0.1,0.1-0.2,0.2-0.3
	l-0.3,0.1h0.1l-0.3-0.1l0,0l-0.3-0.4c0,0.3,0,0.6-0.1,0.9c0,0.4,0.4,0.6,0.8,0.4c0.4-0.2,0.7-0.5,0.8-0.9l-0.8,0.2v-0.2
	c-0.1,0.3,0.1,0.6,0.4,0.6c0.3,0.1,0.6-0.1,0.6-0.4c0.1-0.3,0-0.6-0.2-0.8c-0.2-0.2-0.5-0.2-0.7,0c-0.1,0.1-0.1,0.1-0.1,0.2
	c-0.1,0.2-0.2,0.3-0.3,0.3l0.8,0.4c0.1-0.4,0.3-1.2-0.3-1.4s-0.9,0.5-1.2,0.8l0.8,0.5l0.1-0.8c0.1-0.3-0.1-0.5-0.3-0.6
	C105.8,69.9,105.6,70.1,105.5,70.4C105.5,70.3,105.5,70.3,105.5,70.4L105.5,70.4z"/>
<path class="st7" d="M105,76.4l0.1,1.2c0,0.3,0.2,0.5,0.4,0.6c0.3,0,0.5-0.2,0.6-0.4c0.1-0.3,0.2-0.6,0.4-0.9l-0.9-0.1
	c0.1,0.3,0.2,0.6,0.2,0.9c0,0.3,0.5,0.4,0.7,0.3c0.1-0.1,0.2-0.2,0.3-0.3c0-0.1,0.1-0.1,0.1-0.2v-0.1c0-0.1,0-0.1,0,0l-0.2,0.1h0.1
	h-0.3l-0.2-0.2l0,0l-0.1-0.4l0,0c-0.1,0.3,0.1,0.5,0.3,0.6c0.3,0.1,0.5-0.1,0.6-0.3c0,0,0,0,0,0c0.1-0.2,0-0.4-0.2-0.6
	c-0.2-0.3-0.7-0.3-0.9,0c0,0-0.1,0.1-0.1,0.1c-0.1,0.1-0.1,0.2-0.1,0.3c0,0.1-0.1,0,0.1,0l0.7,0.3c0-0.3-0.1-0.6-0.2-0.9
	c-0.1-0.3-0.4-0.4-0.6-0.3c-0.1,0-0.2,0.1-0.3,0.2c-0.2,0.3-0.4,0.7-0.5,1.1l1,0.1l-0.1-1.2c0-0.3-0.2-0.5-0.5-0.5
	C105.2,75.8,105,76,105,76.4L105,76.4z"/>
<path class="st7" d="M106.3,83.4c0,0.6,0.3,1.1,0.8,1.4c0.2,0.1,0.5,0.1,0.7-0.2c0-0.1,0.1-0.2,0.1-0.2c0-0.3,0.1-0.6,0.2-0.8
	l-0.8,0.2c0.1,0.2,0.3,0.3,0.4,0.4c0.2,0.2,0.5,0.2,0.7,0c0.1-0.1,0.1-0.1,0.1-0.2c0-0.1,0-0.2,0.1-0.3l-0.8,0.2c0,0,0,0,0,0.1
	c0.1,0.2,0.4,0.3,0.7,0.2c0.2-0.1,0.3-0.4,0.2-0.7c0-0.1-0.1-0.2-0.2-0.3c-0.2-0.2-0.5-0.2-0.7,0c-0.1,0.1-0.1,0.1-0.1,0.2
	c0,0.1-0.1,0.2-0.1,0.3l0.8-0.2c-0.2-0.1-0.3-0.3-0.4-0.4c-0.3-0.3-0.7-0.1-0.8,0.2c-0.1,0.3-0.2,0.7-0.2,1.1l0.8-0.4
	c-0.2-0.1-0.3-0.3-0.3-0.5C107.2,82.8,106.2,82.8,106.3,83.4L106.3,83.4z"/>
<path class="st7" d="M108.3,90.3c0.1,0.3,0.3,0.6,0.4,0.8c0.1,0.2,0.4,0.3,0.7,0.2c0.2-0.1,0.2-0.3,0.2-0.4c0-0.1,0-0.3,0-0.4
	l-0.4,0.3l0.1,0.1c0.1,0.2,0.3,0.3,0.5,0.3c0.2,0,0.3,0,0.5-0.1c0.1-0.1,0.2-0.1,0.2-0.2l0.1-0.1c0.1-0.2-0.1-0.3-0.4-0.1
	c0.2,0.6,1.2,0.3,1-0.3c-0.1-0.4-0.5-0.7-0.9-0.6c0,0-0.1,0-0.1,0c-0.2,0.1-0.3,0.2-0.4,0.4c0,0.1-0.1,0.3-0.1,0.3l0.6-0.3l-0.1-0.1
	c-0.2-0.4-0.6-0.5-1-0.4c-0.5,0.2-0.4,0.7-0.5,1.1l0.9-0.3c-0.1-0.2-0.3-0.4-0.3-0.6C109,89.4,108,89.7,108.3,90.3L108.3,90.3z"/>
<path class="st7" d="M113.7,64.5c-0.4,0.3-0.7,0.6-0.9,1c-0.2,0.2-0.1,0.5,0.1,0.7c0.2,0.1,0.5,0.1,0.7-0.1l0.3-0.3l0.1-0.1l0.1-0.1
	c0.1-0.1,0-0.1-0.1,0l-0.3-0.1l0,0l-0.2-0.2v-0.1c0,0,0-0.1,0,0s0,0.1,0,0.2c0,0.2,0,0.3,0.1,0.4c0.1,0.1,0.2,0.2,0.3,0.3h0.2
	c0.1,0,0.1,0,0.2,0c0.1,0,0,0-0.1,0l-0.2-0.1l0,0l-0.1-0.2l0,0l0.1-0.4l0,0c-0.3,0.6,0.6,1.1,0.9,0.5c0.1-0.2,0.1-0.5-0.1-0.7
	c-0.1-0.1-0.3-0.2-0.4-0.2c-0.1,0-0.2,0.1-0.3,0l0.3,0.1l0,0l0.2,0.2l0,0l0.1,0.3c0-0.1,0,0,0-0.1c0-0.1,0-0.2,0-0.4
	c-0.1-0.2-0.2-0.4-0.5-0.5c-0.2,0-0.5,0.1-0.6,0.2l-0.6,0.4l0.8,0.6c0.1-0.3,0.3-0.5,0.5-0.6c0.2-0.1,0.3-0.4,0.2-0.7
	C114.3,64.4,113.9,64.3,113.7,64.5L113.7,64.5z"/>
<path class="st7" d="M111.7,70.2l-0.3,1.2c-0.1,0.3,0.1,0.5,0.3,0.6c0.2,0.1,0.4,0,0.5-0.1c0.1-0.1,0.2-0.2,0.3-0.3
	c0.1-0.1,0.1-0.3,0.1-0.3l-0.2,0.2l0,0l-0.3,0.1h0.1l-0.3-0.1c-0.1,0-0.1-0.2-0.1,0c0,0,0,0.1,0,0.1c0,0.2,0.1,0.3,0.3,0.4
	c0.1,0.1,0.3,0.1,0.4,0.1c0.1,0,0.2,0,0.3-0.1c0,0,0.1,0,0.1-0.1c0.1-0.1,0.1-0.1-0.1,0l-0.3-0.1l0,0c0.2,0.6,1.2,0.3,1-0.3
	c-0.1-0.3-0.2-0.5-0.5-0.6c-0.1-0.1-0.3-0.1-0.4-0.1c-0.1,0-0.2,0.1-0.4,0.2l0.3-0.1h-0.1l0.4,0c0.1,0.2,0.1,0.2,0.1,0.1v-0.1
	c0-0.1-0.1-0.2-0.1-0.3c-0.1-0.2-0.3-0.3-0.6-0.3c-0.2,0-0.4,0.1-0.5,0.3c-0.1,0.2-0.1,0.3-0.2,0.4l0.8,0.5l0.3-1.2
	C112.8,69.8,111.9,69.5,111.7,70.2L111.7,70.2z"/>
<path class="st7" d="M111.3,75.3c-0.1,0.5-0.2,1.1-0.2,1.6c0,0.3,0.2,0.5,0.5,0.5c0.1,0,0.2,0,0.2-0.1c0.1-0.1,0.3-0.2,0.3-0.3
	c0-0.1,0.1-0.2,0.1-0.2s0,0,0,0l-0.3,0.1l0,0l-0.2-0.2c0.1,0.1,0.1,0.1,0.1,0.1c0,0.3,0.3,0.5,0.5,0.5c0.1,0,0.2-0.1,0.3-0.1
	l0.1-0.1c-0.1,0-0.1,0-0.2,0l-0.1-0.2v0.1c0.1,0.3,0.4,0.4,0.6,0.3c0.3-0.1,0.4-0.3,0.4-0.6c0,0,0,0,0,0c-0.3-0.7-1-0.6-1.5-0.2
	l0.8,0.3c0-0.5-0.3-1-0.8-1c-0.2,0-0.4,0.2-0.6,0.3c0,0.1-0.1,0.2-0.1,0.2c0,0.1-0.1,0.1,0,0.1l0.8,0.4c0-0.5,0.1-0.9,0.2-1.4
	C112.4,74.8,111.4,74.6,111.3,75.3L111.3,75.3z"/>
<path class="st7" d="M111.8,81c0.1,0.4,0.3,0.9,0.4,1.3c0.1,0.3,0.4,0.4,0.6,0.3c0.1,0,0.1-0.1,0.2-0.1c0.1-0.1,0.2-0.3,0.3-0.4
	c0-0.1,0-0.1,0-0.2c0-0.2,0,0,0,0l-0.3,0.1h0.1l-0.3-0.1c-0.1,0,0-0.1,0,0L113,82c0.1,0.1,0.2,0.2,0.4,0.3c0.1,0,0.3,0,0.4-0.1
	c0.1,0,0.1-0.1,0.2-0.2l0.1-0.1c0.1-0.1,0-0.1-0.2,0.1h-0.3l-0.1-0.1l-0.1-0.3v0.1c0,0.3,0.2,0.5,0.5,0.5s0.5-0.2,0.5-0.5
	c0-0.3-0.2-0.6-0.6-0.7c-0.2,0-0.3,0-0.5,0.1c-0.1,0-0.1,0.1-0.2,0.2v0.1c-0.1,0.2-0.1,0.2,0.1,0l0.3-0.1l0,0l0.3,0.1
	c0.1,0.1,0.1,0,0,0c0-0.1-0.1-0.1-0.2-0.2c-0.2-0.2-0.4-0.2-0.7-0.1c-0.2,0.1-0.3,0.2-0.4,0.4c-0.1,0.1-0.1,0.2-0.1,0.3
	c0,0,0,0.2,0,0.2l0.8,0.2c-0.2-0.4-0.3-0.9-0.4-1.3c-0.1-0.3-0.4-0.4-0.6-0.4C111.9,80.5,111.8,80.8,111.8,81L111.8,81z"/>
<path class="st7" d="M112.3,85.7c0.2,0.5,0.4,1,0.7,1.5c0.2,0.2,0.5,0.3,0.7,0.2c0.1,0,0.1-0.1,0.2-0.2c0.1-0.1,0.1-0.2,0.1-0.3
	v-0.1c0.1-0.2,0-0.2-0.2,0h-0.3c-0.1,0-0.1,0,0,0c0.1,0.1,0.1,0.1,0.2,0.2c0.1,0.1,0.3,0.1,0.5,0.1c0.4,0,0.6-0.3,0.8-0.6
	c0.2-0.6-0.7-0.9-1-0.3c0.1-0.2,0.2-0.1,0.2-0.2S114.1,86,114,86c-0.2-0.1-0.4-0.1-0.5-0.1c-0.2,0.1-0.3,0.2-0.4,0.3
	c-0.1,0.1-0.1,0.3-0.1,0.4h0.9c-0.2-0.4-0.4-0.8-0.6-1.3C113,84.8,112.1,85.1,112.3,85.7L112.3,85.7z"/>
<path class="st7" d="M113.6,91.4c0,0.3,0,0.5,0.1,0.8c0.1,0.2,0.2,0.3,0.4,0.4c0.2,0,0.4-0.1,0.5-0.2l0.2-0.4l0.1-0.2v-0.1
	c0-0.1,0-0.1,0,0l-0.2,0.1h-0.2h-0.1l-0.2-0.2c-0.1-0.1,0,0,0,0l0.1,0.2l0.1,0.3c0.1,0.3,0.4,0.4,0.6,0.3c0.3-0.1,0.4-0.3,0.4-0.6
	c0,0,0,0,0,0c-0.1-0.4-0.3-1.1-0.8-1s-0.6,0.6-0.8,1l0.9,0.1c-0.1-0.2-0.1-0.4-0.1-0.6c0-0.3-0.2-0.5-0.5-0.5S113.6,91.2,113.6,91.4
	L113.6,91.4z"/>
<path class="st7" d="M118.2,92.1l-0.1,0.7c0,0.2,0.2,0.4,0.4,0.5c0.2,0.1,0.4,0,0.6-0.2l0.3-0.4l0.1-0.2v-0.1c0.1-0.1,0.1-0.1,0,0
	l-0.3,0.1l0,0l-0.3-0.1c-0.1-0.2-0.1-0.2-0.1-0.1v0.1l0.1,0.3c0,0.2,0.1,0.4,0.1,0.5c0.1,0.2,0.2,0.3,0.4,0.3c0.2,0.1,0.5,0,0.6-0.3
	c0.1-0.2,0.1-0.5-0.2-0.7c-0.2-0.1-0.5-0.1-0.7,0.2l0,0l0.4-0.3l0,0l0.3,0.1c0.1,0,0.1,0.3,0.1,0v-0.2c0-0.1,0-0.3-0.1-0.4
	c0-0.3-0.2-0.5-0.5-0.6c-0.3-0.1-0.6,0.1-0.7,0.3c-0.2,0.2-0.3,0.5-0.5,0.7l0.9,0.3l0.1-0.7c0-0.3-0.2-0.5-0.5-0.5
	c-0.3,0-0.5,0.2-0.5,0.5L118.2,92.1z"/>
<path class="st7" d="M118.7,82.9c-0.1,0.5-0.2,1.1-0.2,1.6c0,0.3,0.2,0.5,0.5,0.5c0.2,0,0.3-0.1,0.4-0.2l0.3-0.6
	c0.1-0.2,0.1-0.3,0.3-0.4l-0.2,0.1l0,0l-0.5-0.4l0.2,0.7c0.1,0.3,0.3,0.4,0.6,0.3c0,0,0.1,0,0.1,0l0.1-0.1c0.5-0.3,0-1.2-0.5-0.9
	l-0.1,0.1l0.7,0.3l-0.2-0.7c-0.1-0.2-0.3-0.4-0.5-0.4c-0.7,0-0.9,0.9-1.2,1.4l0.9,0.3c0-0.5,0-0.9,0.1-1.4
	C119.8,82.6,118.8,82.3,118.7,82.9L118.7,82.9z"/>
<path class="st7" d="M117.7,75.4l0.1,1.2c0,0.3,0.2,0.5,0.5,0.5c0.2,0,0.3-0.1,0.4-0.2l0.6-0.9h-0.9c0.1,0.1,0.1,0.2,0.1,0.4
	c0,0.3,0.3,0.5,0.5,0.5c0.1,0,0.2-0.1,0.3-0.1c0.2-0.2,0.4-0.5,0.5-0.8l-0.7,0.3l0,0l-0.1-0.2v0.1c0.1,0.3,0.4,0.4,0.6,0.3
	c0.3-0.1,0.4-0.3,0.4-0.6c0,0,0,0,0,0c-0.1-0.2-0.2-0.3-0.4-0.5c-0.3-0.2-0.6,0-0.7,0.3c-0.1,0.1-0.2,0.3-0.3,0.4l0.8,0.3
	c0-0.3-0.1-0.6-0.3-0.9c-0.2-0.2-0.5-0.3-0.7-0.2c-0.1,0-0.1,0.1-0.2,0.2l-0.6,0.9l0.9,0.3l-0.1-1.2
	C118.7,74.8,117.7,74.8,117.7,75.4L117.7,75.4z"/>
<path class="st7" d="M118,68.8c0,0.3,0,0.5,0,0.8c0,0.3,0.4,0.7,0.8,0.4c0.2-0.1,0.3-0.3,0.3-0.4c0,0,0-0.1,0-0.2l0,0
	c0,0-0.4,0.4-0.6,0.1l0,0l0.1,0.2c0,0.1,0.1,0.2,0.2,0.2c0.2,0.2,0.5,0.2,0.8,0.1c0.2-0.2,0.3-0.5,0.1-0.7c-0.1-0.2-0.4-0.3-0.6-0.2
	l0,0l0.3-0.1c0.1,0,0.2,0.1,0.3,0.1l0,0v-0.1c0-0.1-0.1-0.2-0.2-0.3c-0.2-0.2-0.4-0.2-0.7-0.2c-0.2,0.1-0.4,0.2-0.4,0.4
	c0,0,0,0.1,0,0.1v0.1l0,0c0-0.1,0.1-0.1,0.1-0.2l0.8,0.4c0-0.3,0-0.5,0-0.8c0-0.3-0.2-0.5-0.5-0.5C118.3,68.4,118.1,68.6,118,68.8
	L118,68.8z"/>
<path class="st7" d="M117.7,63.7c-0.1,0.4,0,0.7,0.2,1.1c0.2,0.2,0.5,0.3,0.7,0.1c0.1-0.1,0.2-0.2,0.2-0.3c0.1-0.2,0,0.1,0-0.1
	s0,0,0,0c-0.1,0.1-0.3,0-0.4-0.1c0,0,0,0,0-0.1c0.1,0.3,0.4,0.4,0.6,0.4c0.3-0.1,0.4-0.4,0.4-0.6c-0.1-0.4-0.5-0.6-0.9-0.5
	c-0.3,0.1-0.6,0.4-0.7,0.7l0.9-0.1c0-0.1-0.1-0.1-0.1-0.2c0,0.1,0,0,0,0s0,0.1,0-0.1c0.1-0.3-0.1-0.6-0.4-0.6
	C118,63.3,117.7,63.5,117.7,63.7L117.7,63.7z"/>
<path class="st7" d="M103.4,62.5c-0.1,0.2-0.3,0.4-0.4,0.6c-0.2,0.3,0.1,0.9,0.6,0.7l0.5-0.2l-0.6-0.3c0,0.1,0,0.1,0,0.2
	c0,0.3,0.2,0.5,0.5,0.5c0.2,0,0.5-0.1,0.7-0.2c0.2-0.1,0.3-0.4,0.2-0.7c-0.1-0.2-0.4-0.3-0.7-0.2h-0.2l0.5,0.5c0-0.2,0-0.3-0.1-0.5
	c-0.1-0.3-0.4-0.4-0.6-0.3l-0.5,0.2l0.6,0.7c0.1-0.2,0.3-0.4,0.4-0.6c0.1-0.2,0.1-0.5-0.2-0.7C103.8,62.2,103.5,62.2,103.4,62.5
	L103.4,62.5z"/>
<path class="st7" d="M100.6,68.1c-0.2,0.4-0.4,0.8-0.5,1.3c-0.1,0.3,0.1,0.5,0.3,0.6c0.2,0.1,0.4,0,0.6-0.1c0.1,0,0.1-0.1,0.2-0.2
	c0.2-0.3-0.1,0.1-0.3-0.2l-0.1-0.2c0-0.1,0,0.1,0,0.1c0,0.1,0,0.2,0.1,0.2c0.2,0.3,0.6,0.4,0.9,0.2c0.1-0.1,0.2-0.1,0.2-0.2
	c0.1-0.2,0-0.5-0.2-0.7c-0.2-0.1-0.5-0.1-0.7,0.2l0,0l0.2-0.1l0.3,0.1l0.1,0.2c0,0.1,0-0.1,0-0.2c0-0.1-0.1-0.2-0.1-0.3
	c-0.1-0.1-0.3-0.2-0.5-0.2c-0.2,0-0.3,0-0.4,0.1c-0.1,0-0.1,0.1-0.2,0.2c-0.2,0.2-0.1,0,0.1,0.1l0.3,0.6c0.1-0.3,0.2-0.7,0.4-1
	c0.1-0.2,0-0.5-0.2-0.7c-0.2-0.1-0.5-0.1-0.7,0.2L100.6,68.1z"/>
<path class="st7" d="M99.5,74c-0.1,0.6-0.1,1.1,0,1.7c0.1,0.3,0.4,0.4,0.6,0.3c0.2,0,0.3-0.1,0.4-0.2c0,0,0.1-0.1,0.1-0.2l0.1-0.1
	l0,0h-0.3h0.1l-0.2-0.1c0-0.1,0-0.1,0,0l0.1,0.1c0.1,0.1,0.1,0.2,0.2,0.2c0.2,0.1,0.5,0.1,0.7,0c0.2-0.1,0.3-0.4,0.2-0.7
	c-0.1-0.2-0.4-0.3-0.7-0.2h-0.1L101,75h-0.1l0.2,0.1c0,0.1,0,0.1,0,0l-0.1-0.2c0-0.1-0.1-0.1-0.1-0.2c-0.1-0.1-0.3-0.2-0.5-0.2
	c-0.2,0-0.3,0.1-0.5,0.2c-0.1,0.1-0.1,0.1-0.2,0.2v0.1c-0.1,0.1,0,0.1,0.1,0l0.6,0.3c-0.1-0.4-0.1-0.8,0-1.2
	c0.1-0.3-0.1-0.5-0.3-0.6C99.9,73.6,99.6,73.7,99.5,74C99.5,74,99.5,74,99.5,74L99.5,74z"/>
<path class="st7" d="M100.2,81.3l0.4,0.8c0.1,0.2,0.4,0.3,0.7,0.2c0.2-0.1,0.3-0.3,0.4-0.5c0-0.1,0-0.2,0-0.3c0-0.1,0-0.1,0,0
	l-0.2,0.1l0,0l-0.3-0.1c0.2,0.1,0.3,0.3,0.5,0.3s0.4-0.2,0.6-0.3l-0.2,0.1l-0.3-0.2c0.1,0.3,0.3,0.4,0.6,0.4c0,0,0,0,0,0
	c0.3-0.1,0.4-0.4,0.3-0.6c-0.1-0.3-0.3-0.5-0.6-0.6c-0.3,0-0.6,0.1-0.7,0.4l0.2-0.2h-0.1l0.3-0.1h-0.1l0.3,0.1
	c-0.1,0-0.2-0.2-0.3-0.2c-0.2-0.1-0.4,0-0.6,0.1c-0.1,0.1-0.2,0.3-0.3,0.4c0,0.1,0,0.3-0.1,0.4l0.2-0.2h-0.1l0.7,0.2l-0.4-0.8
	C100.8,80.1,99.9,80.6,100.2,81.3L100.2,81.3z"/>
<path class="st7" d="M103.3,88.7c0,0.3,0.3,0.6,0.6,0.6c0.1,0,0.1,0,0.2,0c0.2-0.1,0.3-0.2,0.4-0.3v-0.1c0.1-0.1,0-0.1-0.2,0.1
	c-0.1,0-0.1,0,0,0c0.3,0.1,0.5,0,0.7-0.2c0.1-0.2,0-0.5-0.2-0.6c-0.2-0.2-0.5-0.2-0.8-0.1c-0.1,0.1-0.3,0.2-0.3,0.3
	c0,0,0,0.1-0.1,0.1l0,0c0.1-0.2,0.3-0.2,0.5-0.1c0,0,0,0,0.1,0l0.1,0.2v0.1c0-0.3-0.2-0.5-0.5-0.5C103.4,88.1,103.2,88.4,103.3,88.7
	L103.3,88.7z"/>
<path class="st7" d="M121.8,63.9c0.1,0.3,0.2,0.6,0.3,0.9c0.1,0.2,0.4,0.3,0.7,0.2c0.1-0.1,0.2-0.2,0.3-0.3l0.1-0.1
	c0.1-0.2,0,0.1-0.3,0.1l-0.3-0.1c-0.1,0,0.1,0.1,0.1,0.1l0.2,0.1c0.1,0,0.3,0,0.4,0c0.3,0,0.5-0.2,0.6-0.5c0.1-0.3-0.1-0.5-0.3-0.6
	c0,0,0,0,0,0c-0.3-0.1-0.5,0.1-0.6,0.3c0.1-0.2,0.3-0.3,0.4-0.1l0,0c-0.1-0.1-0.2-0.1-0.3-0.2c-0.2,0-0.3,0-0.5,0.1
	c-0.1,0.1-0.2,0.2-0.3,0.3v0.1c0,0.1,0,0,0,0l0.7,0.2c-0.1-0.2-0.2-0.4-0.2-0.6c-0.1-0.3-0.3-0.4-0.6-0.4c0,0,0,0,0,0
	C121.9,63.4,121.7,63.7,121.8,63.9L121.8,63.9z"/>
<path class="st7" d="M122.9,69.6l0.2,1c0.1,0.5,0.8,0.4,1,0c0.1-0.1,0.1-0.3,0.3-0.3l-0.8-0.1l0.3,0.6c0.1,0.2,0.4,0.3,0.7,0.2
	c0.1-0.1,0.2-0.2,0.3-0.3c0-0.1,0.1-0.1,0.1-0.2v-0.1c0.1-0.1-0.1-0.2-0.5-0.1c0,0.3,0.2,0.5,0.5,0.5c0.3,0,0.5-0.2,0.5-0.5
	c0-0.4-0.3-0.8-0.7-0.8c0,0,0,0,0,0c-0.2,0-0.4,0.1-0.5,0.2c-0.1,0.1-0.1,0.1-0.2,0.2c0,0.1-0.1,0.2,0,0.1l0.7,0.2l-0.3-0.6
	c-0.1-0.2-0.4-0.3-0.7-0.2c0,0-0.1,0.1-0.1,0.1c-0.2,0.2-0.4,0.5-0.5,0.8h1l-0.2-1C123.8,68.7,122.8,69,122.9,69.6L122.9,69.6z"/>
<path class="st7" d="M123.8,77.3c0,0.3,0,0.5,0.1,0.8c0.1,0.3,0.3,0.4,0.6,0.3c0,0,0.1,0,0.1,0c0.2-0.1,0.3-0.3,0.4-0.5l0.1-0.2
	c0-0.1,0,0-0.1,0h-0.3c-0.1,0-0.1-0.1-0.2-0.2l0,0v0.1c0,0.1,0.1,0.3,0.3,0.4c0.2,0.2,0.6,0.2,0.8,0c0.2-0.2,0.2-0.5,0-0.7
	c0,0,0,0,0,0c-0.2-0.2-0.5-0.2-0.7,0l0,0l0.2-0.1h0.2c0.1,0,0.2,0.2,0.1,0.1c0-0.1-0.1-0.2-0.1-0.3c-0.1-0.2-0.4-0.4-0.7-0.3
	c-0.2,0-0.4,0.2-0.6,0.4c-0.1,0.1-0.1,0.2-0.1,0.3c0,0,0,0.1,0,0.1c0,0,0,0,0.1-0.1l0.7,0.3c0-0.2,0-0.3,0-0.5
	c0-0.3-0.2-0.5-0.5-0.5c-0.3,0-0.5,0.2-0.5,0.5L123.8,77.3z"/>
<path class="st7" d="M123.5,83.2c0,0.3,0,0.7,0.1,1c0.1,0.3,0.3,0.4,0.6,0.4c0.1,0,0.2-0.1,0.2-0.1l0.3-0.3l0.2-0.2l-0.7-0.3
	c0,0.1,0,0,0,0.1c0-0.1,0,0.1,0,0c-0.2,0.2-0.1,0.5,0.1,0.7c0.2,0.2,0.5,0.1,0.7-0.1c0,0,0-0.1,0.1-0.1c0.2-0.3,0.2-0.6,0.1-0.9
	c-0.1-0.3-0.3-0.4-0.6-0.3c0,0-0.1,0-0.1,0c-0.3,0.2-0.5,0.4-0.7,0.6l0.8,0.2c0-0.2,0-0.5,0-0.7c0-0.3-0.2-0.5-0.5-0.5
	C123.8,82.7,123.5,82.9,123.5,83.2L123.5,83.2z"/>
<path class="st7" d="M123.2,89.7c-0.2,0.3-0.3,0.6-0.4,1c-0.1,0.3,0.1,0.6,0.4,0.6c0.3,0.1,0.6-0.1,0.6-0.4c0-0.1,0.1-0.2,0.2-0.3
	h-0.7c-0.1-0.1-0.1-0.2-0.1-0.3c-0.1,0.3,0.1,0.5,0.3,0.6c0.3,0.1,0.5-0.1,0.6-0.3c0,0,0,0,0,0c0.1-0.3,0-0.5-0.2-0.7
	c-0.2-0.2-0.5-0.2-0.7,0c0,0,0,0,0,0c-0.2,0.2-0.3,0.5-0.4,0.8l1,0.3c0.1-0.3,0.2-0.5,0.3-0.7c0.2-0.2,0.1-0.5-0.1-0.7
	c-0.2-0.2-0.5-0.1-0.7,0.1C123.3,89.7,123.3,89.7,123.2,89.7L123.2,89.7z"/>
<path class="st7" d="M126.8,91.7c-0.2,0.3-0.3,0.6-0.3,0.9c0,0.2,0.1,0.4,0.3,0.5c0.2,0.1,0.4,0,0.6-0.1l0.7-0.6l-0.8-0.1
	c0,0,0-0.1,0-0.1c0,0,0.1-0.1,0,0c-0.2,0.2-0.1,0.5,0.1,0.7c0.2,0.2,0.5,0.1,0.7-0.1c0,0,0-0.1,0.1-0.1c0.2-0.3,0.2-0.6,0-0.9
	c-0.1-0.2-0.5-0.3-0.7-0.2c0,0-0.1,0-0.1,0.1l-0.7,0.6l0.8,0.3c0-0.2,0,0.1,0-0.1c0,0,0-0.1,0-0.2c0,0.1,0-0.1,0-0.1l0.1-0.1
	c0.1-0.2,0.1-0.5-0.2-0.7c-0.2-0.1-0.5-0.1-0.7,0.2L126.8,91.7z"/>
<path class="st7" d="M128.7,85.2c-0.1,0.4-0.1,0.8-0.1,1.2c0,0.3,0.2,0.5,0.5,0.5c0.2,0,0.3-0.1,0.4-0.2c0.1-0.3,0.3-0.5,0.6-0.7
	l-0.6,0.1l0,0l-0.1-0.2c0,0,0-0.1,0,0c0,0.1,0,0.2,0,0.2c0,0.2,0,0.3,0.1,0.4c0.1,0.1,0.3,0.2,0.5,0.2c0.1,0,0.2,0,0.3-0.1l0,0
	c0.1,0,0.1,0-0.1,0l-0.3-0.1c-0.1,0-0.2-0.1-0.1-0.2c-0.1,0.3,0.1,0.5,0.4,0.6c0.3,0.1,0.5-0.1,0.6-0.3c0,0,0,0,0,0
	c0.1-0.3,0-0.6-0.2-0.8c-0.1-0.1-0.3-0.2-0.4-0.2c-0.1,0-0.2,0-0.3,0.1c0,0-0.1,0.1-0.1,0h0.2l0.2,0.1c0,0.3,0,0.3,0.1,0.2
	c0,0,0-0.1,0-0.1c0-0.1,0-0.2,0-0.2c0-0.2-0.1-0.5-0.3-0.6c-0.2-0.1-0.4-0.1-0.6,0.1c-0.3,0.3-0.5,0.6-0.7,0.9l0.9,0.3
	c0-0.3,0-0.6,0.1-0.9c0.1-0.3-0.1-0.5-0.4-0.6C129.1,84.7,128.8,84.8,128.7,85.2C128.7,85.1,128.7,85.1,128.7,85.2L128.7,85.2z"/>
<path class="st7" d="M129.4,78.3c-0.1,0.4-0.1,0.7,0,1.1c0,0.3,0.2,0.5,0.5,0.5s0.5-0.2,0.5-0.5c0.1-0.2,0.2-0.4,0.4-0.6l-0.9-0.3
	v0.5c0,0.3,0.2,0.5,0.5,0.5c0.2,0,0.3,0,0.4-0.1c0.1,0,0.1-0.1,0.1-0.1l0.1-0.1c0.1-0.1,0-0.1-0.1,0l-0.3-0.1l-0.1-0.1l-0.1-0.3l0,0
	l0.1-0.3l0,0c-0.3,0.6,0.5,1.1,0.9,0.5c0.2-0.3,0.1-0.7-0.2-0.8c0,0-0.1,0-0.1,0c-0.2-0.1-0.4-0.1-0.5,0c-0.1,0-0.1,0.1-0.2,0.2l0,0
	c-0.1,0.1,0,0.1,0.1,0l0.5,0.5v-0.5c0-0.3-0.2-0.5-0.5-0.6c-0.2,0-0.4,0.1-0.5,0.3c-0.3,0.3-0.5,0.6-0.7,1h1c-0.1-0.2-0.1-0.4,0-0.6
	c0.1-0.3-0.1-0.5-0.3-0.6c0,0,0,0,0,0C129.7,77.8,129.4,77.9,129.4,78.3L129.4,78.3z"/>
<path class="st7" d="M129,69.5l0.1,0.8c0,0.2,0.2,0.5,0.4,0.5c0.2,0,0.5-0.1,0.6-0.4c0.1-0.2,0.1-0.4,0.2-0.6h-0.9l0.1,0.3
	c0.2,0.2,0.5,0.3,0.7,0.2c0.1,0,0.1-0.1,0.2-0.2c0,0,0,0,0-0.1s0,0-0.1,0c-0.1,0-0.1,0-0.2,0L130,70l0,0c0.2,0.6,1.2,0.3,1-0.3
	c-0.1-0.3-0.4-0.5-0.7-0.5c-0.3,0-0.6,0.2-0.7,0.5h0.9l-0.1-0.3c-0.1-0.2-0.4-0.3-0.7-0.2c-0.1,0-0.1,0.1-0.2,0.2
	c-0.1,0.3-0.3,0.5-0.3,0.8l1,0.1l-0.1-0.9c0-0.3-0.2-0.5-0.5-0.5C129.2,69,129,69.2,129,69.5z"/>
<path class="st7" d="M126.5,63.9c0.1,0.3,0.3,0.6,0.5,0.9c0.2,0.2,0.5,0.2,0.7,0c0.1-0.1,0.1-0.1,0.1-0.2c0.1-0.2,0.1-0.5,0.1-0.8
	L127,64c0.1,0.2,0.2,0.4,0.4,0.5c0.2,0.2,0.5,0.2,0.7,0c0.2-0.2,0.2-0.5,0-0.7c0,0,0,0,0,0c-0.1,0-0.1-0.1-0.2-0.2c-0.1-0.1,0,0,0,0
	l-0.1-0.1c-0.1-0.2-0.4-0.3-0.7-0.2c-0.2,0.1-0.2,0.3-0.2,0.4c0,0.2,0,0.3,0,0.5l0.8-0.2c-0.1-0.1-0.1-0.1-0.1-0.2l-0.1-0.1v-0.1
	c-0.1-0.3-0.4-0.4-0.6-0.3c-0.3,0.1-0.4,0.3-0.4,0.6c0,0,0,0,0,0L126.5,63.9z"/>
<path class="st7" d="M131.5,63.5c0,0.2,0.1,0.4,0.2,0.6c0.1,0.2,0.3,0.3,0.6,0.2c0.2-0.1,0.4-0.3,0.4-0.5l0.1-0.7l-0.8,0.4l0.5,0.3
	c0.2,0.1,0.5,0.1,0.7-0.2c0.1-0.2,0.1-0.5-0.2-0.7l-0.5-0.3c-0.2-0.1-0.3-0.1-0.5,0c-0.2,0.1-0.2,0.3-0.3,0.4l-0.1,0.7l0.9-0.3
	c-0.1-0.1-0.1-0.2-0.1-0.4c-0.1-0.3-0.3-0.4-0.6-0.4c0,0,0,0,0,0C131.6,63,131.4,63.3,131.5,63.5L131.5,63.5z"/>
<path class="st7" d="M133.8,69.5c0,0.3,0.1,0.5,0.2,0.8c0.1,0.3,0.4,0.4,0.6,0.3c0,0,0.1,0,0.1,0c0.2-0.1,0.3-0.3,0.4-0.5
	c0-0.1,0-0.2,0-0.3v-0.1c0,0.1-0.1,0.2-0.3,0.3l-0.3-0.1c0.3,0.2,0.8,0.3,1.1,0.2c0.6-0.1,0.4-1.1-0.3-1c-0.2,0-0.3-0.1-0.4-0.1
	c-0.2-0.1-0.5-0.1-0.7,0.1c-0.1,0.1-0.2,0.3-0.3,0.5c0,0.1,0,0.1,0,0.2s0,0.1,0,0c0,0.1,0,0.1,0.1-0.1l0.7,0.3
	c-0.1-0.3-0.2-0.5-0.2-0.8c-0.1-0.3-0.3-0.4-0.6-0.4c0,0,0,0,0,0C133.8,68.9,133.6,69.2,133.8,69.5L133.8,69.5z"/>
<path class="st7" d="M134.9,76.8l-0.1,0.8c-0.1,0.2,0,0.4,0.2,0.6c0.2,0.1,0.4,0.1,0.6-0.1c0.1-0.1,0.2-0.2,0.3-0.2l-0.6-0.5v0.6
	c0,0.3,0.2,0.5,0.5,0.5c0,0,0.1,0,0.1,0c0.2,0,0.3-0.1,0.4-0.2l0.1-0.1c0,0-0.2,0-0.2,0l-0.1-0.2l0,0c0.2,0.6,1.2,0.3,1-0.3
	c-0.1-0.3-0.4-0.5-0.7-0.5c-0.1,0-0.3,0-0.4,0.1c-0.1,0.1-0.2,0.2-0.3,0.2l0.6,0.5v-0.6c0-0.3-0.2-0.5-0.5-0.5c0,0-0.1,0-0.1,0
	c-0.3,0.1-0.5,0.3-0.7,0.5l0.8,0.5l0.1-0.8c0.1-0.3-0.1-0.5-0.4-0.6C135.3,76.3,135,76.5,134.9,76.8
	C134.9,76.7,134.9,76.7,134.9,76.8L134.9,76.8z"/>
<path class="st7" d="M133.5,85l-0.2,0.8c-0.1,0.3,0.1,0.5,0.4,0.6c0.2,0.1,0.5,0,0.7-0.1c0.2-0.1,0.2-0.3,0.4-0.4l-0.2,0.1h0.1h-0.2
	l-0.3-0.2l0,0l0.1,0.2c0.1,0.1,0.2,0.2,0.3,0.2c0.1,0,0.3,0,0.4,0h0.1c0.2-0.1,0.2-0.1-0.1-0.1l-0.2-0.2l0,0l-0.1-0.3l0,0
	c0,0.6,1,0.6,1,0c0-0.3-0.2-0.5-0.4-0.6c-0.1,0-0.3,0-0.4,0c0,0-0.2,0-0.2,0.1l0.3,0.1l0,0l0.2,0.2c0-0.1-0.1-0.2-0.2-0.3
	c-0.2-0.1-0.4-0.2-0.6-0.1c-0.1,0-0.3,0.1-0.4,0.2c-0.1,0.1-0.1,0.1-0.1,0.2v0.1c-0.1,0.1,0,0.1,0.2,0l0.4,0.6l0.2-0.8
	C134.6,84.6,133.7,84.4,133.5,85L133.5,85z"/>
<path class="st7" d="M132.4,91.1l0.2,0.2c0.2,0.1,0.5,0.1,0.7-0.2c0.1-0.2,0.1-0.5-0.2-0.7l-0.2-0.2c-0.2-0.1-0.5-0.1-0.7,0.2
	C132.1,90.6,132.2,90.9,132.4,91.1z"/>
<path class="st7" d="M109.7,37.5c-0.5-2,0.1-4.2,1.7-5.5c0.3-0.3,0.7-0.5,1.1-0.6c1.1,0.2,1.6,0.8,1.6,1.8c0,0.6-0.1,1.1-0.2,1.6
	c-0.3,1.1-0.7,2.1-1.1,3.2c-0.9,2.7-2.2,7.2,0.2,9.5c0.2,0.2,0.6-0.1,0.3-0.3c-2.1-2-1-5.9-0.3-8.3c0.6-2.1,2.3-4.9,1.2-7.1
	c-0.9-1.7-2.9-0.3-3.8,0.7c-1.3,1.5-1.7,3.5-1.2,5.4c0,0.1,0.2,0.2,0.3,0.1C109.6,37.8,109.7,37.6,109.7,37.5L109.7,37.5z"/>
<path class="st7" d="M120.3,45.6c0.3-0.6,0.9-1.5,1.6-1.6c1.2-0.2,1.8,1.3,1.2,2.3c-0.7,0.9-1.6,1.6-2.7,2c-1.5,0.6-2.9,1.6-3.9,2.9
	c-0.2,0.2,0.1,0.6,0.3,0.3c0.7-0.8,1.5-1.6,2.4-2.2c0.7-0.4,1.6-0.6,2.3-1c0.9-0.5,2.4-1.7,2.5-2.8c0-1-0.8-1.8-1.8-2
	c-1.1-0.1-2,1-2.4,1.9c-0.1,0.3,0.3,0.5,0.4,0.3L120.3,45.6z"/>
<path class="st7" d="M101.6,46.2c0.1-0.9,0.4-1.2,1-1c0.2,0,0.4,0.1,0.5,0.2c0.2,0.2,0.5,0.4,0.6,0.7c0.2,0.5,0.5,1,0.6,1.6
	c0.2,0.6,0.6,1.2,1.2,1.6c0.3,0.2,0.5-0.3,0.3-0.4c-1.5-1-1.1-3.5-2.9-4.1c-0.6-0.3-1.4,0-1.7,0.7c-0.1,0.3-0.1,0.7,0,1
	C101.3,46.7,101.7,46.4,101.6,46.2L101.6,46.2z"/>
<path class="st7" d="M119.5,33.3c-0.2-0.8,0.2-1.6,1-1.9c0.5-0.1,1,0,1.4,0.3c0.6,0.7,0.9,1.6,0.9,2.5c0,1.1-0.5,2.1-0.3,3.3
	c0.1,0.3,0.5,0.2,0.5-0.1c-0.3-1.4,0.5-2.8,0.2-4.3c-0.1-0.9-0.7-1.8-1.6-2.2c-1.7-0.6-2.9,1-2.6,2.5
	C119.1,33.7,119.5,33.6,119.5,33.3z"/>
<path class="st7" d="M119.2,36.6c0.8,1.6,1.2,3.3,1.2,5.1c0,0.3,0.5,0.3,0.5,0c0.1-1.9-0.4-3.7-1.2-5.4
	C119.5,36,119.1,36.3,119.2,36.6z"/>
<path class="st7" d="M132.2,35.1c0.5-1,1.4-1.9,2.4-2.3c0.3-0.2,0.6-0.3,0.9-0.4c1.4,0.5,1.8,1.1,1.1,2c-0.4,0.5-0.8,1-1.2,1.5
	c-1.6,1.7-3.3,3.4-5.1,4.9c-0.3,0.2,0.1,0.6,0.4,0.3c1.6-1.4,3.2-2.8,4.6-4.4c0.9-0.9,2.6-2.3,2.2-3.8c-0.7-2.9-5.1,0.6-5.7,2
	C131.6,35.2,132,35.5,132.2,35.1L132.2,35.1z"/>
<path class="st7" d="M129.4,42.6c-1.6,1.1-2.6,2.9-2.8,4.8c0,0.3,0.5,0.3,0.5,0c0.2-1.8,1.1-3.4,2.5-4.4
	C129.9,42.8,129.6,42.4,129.4,42.6z"/>
<path class="st7" d="M132.5,50.9c0.3-0.2,0.6-0.4,1-0.6c0.3-0.1,0.5-0.3,0.8-0.3c0.5-0.2,0.7,0.2,0.5,1.3c-0.4,0.7-2.3,0.7-2.9,0.7
	c-1.5-0.1-2.9-0.5-4.3,0c-0.3,0.1-0.2,0.6,0.1,0.5c1.8-0.5,3.5,0.3,5.2,0c1.1,0,2.1-0.6,2.8-1.5c0.3-0.5,0.2-1.1-0.3-1.5
	c0,0,0,0,0,0c-1-0.5-2.4,0.6-3.2,1c-0.1,0.1-0.1,0.2-0.1,0.3C132.3,50.9,132.4,50.9,132.5,50.9L132.5,50.9z"/>
<path class="st7" d="M125.1,52.8c-2.6,2.1-3.6,5.3-3.8,8.5c0,0.3,0.5,0.3,0.5,0c0.3-3.1,1.2-6.2,3.7-8.2
	C125.7,52.9,125.3,52.6,125.1,52.8L125.1,52.8z"/>
<path class="st7" d="M113.9,53.6c-0.7,1.3-0.9,2.8-0.6,4.3c0,1.3,0.4,2.5,1.2,3.5c0.2,0.2,0.6-0.1,0.3-0.3c-0.7-1-1.1-2.3-1.1-3.5
	c-0.2-1.2,0-2.5,0.6-3.7c0.1-0.1,0-0.3-0.1-0.3C114.1,53.5,114,53.5,113.9,53.6L113.9,53.6z"/>
<path class="st7" d="M100.1,50.3c-1.4,0-0.9,1.5-0.1,2.1c1,0.6,2,1.2,3.1,1.7c1.2,0.7,1.7,1.8,2.6,2.8c0.2,0.2,0.6-0.1,0.3-0.3
	c-0.9-1-1.4-2.1-2.6-2.8c-0.6-0.3-1.2-0.6-1.8-1c-0.3-0.2-0.6-0.3-0.9-0.5l-0.4-0.2c-0.6-0.2-0.7-0.6-0.3-1.3c0.1,0,0.3-0.1,0.3-0.3
	S100.2,50.3,100.1,50.3L100.1,50.3z"/>
<path class="st7" d="M137.7,52.6c0.1,0.5-0.3,1-0.8,1.1c-0.1,0-0.1,0-0.2,0l-0.9,0.4l-1.4,0.5l-3.2,1.3c-0.3,0.1-0.2,0.6,0.1,0.5
	l3.7-1.5c1-0.3,2-0.7,2.9-1.2c0.7-0.5,0.7-1.5-0.2-1.6C137.4,52.1,137.4,52.6,137.7,52.6L137.7,52.6z"/>
<path class="st7" d="M130.2,56.6c-1.3,1.3-2.4,2.8-3.2,4.4c-0.1,0.3,0.3,0.5,0.4,0.3c0.7-1.6,1.8-3.1,3.1-4.3
	C130.8,56.8,130.4,56.4,130.2,56.6L130.2,56.6z"/>
<path class="st7" d="M106.9,58.8c0.4,0.6,0.6,1.2,0.8,1.8c0.1,0.3,0.5,0.2,0.5-0.1c-0.1-0.7-0.4-1.4-0.8-2
	C107.2,58.3,106.7,58.5,106.9,58.8L106.9,58.8z"/>
</svg>
