<?xml version="1.0" encoding="utf-8"?>
<!-- Generator: Adobe Illustrator 21.0.0, SVG Export Plug-In . SVG Version: 6.00 Build 0)  -->
<svg version="1.1" id="Layer_1" xmlns="http://www.w3.org/2000/svg" xmlns:xlink="http://www.w3.org/1999/xlink" x="0px" y="0px"
	 viewBox="0 0 253 136" style="enable-background:new 0 0 253 136;" xml:space="preserve">
<style type="text/css">
	.st0{fill:#7FA2FE;}
	.st1{fill:#FFFFFF;}
	.st2{fill:none;stroke:#FFFFFF;stroke-width:0.77;stroke-linecap:round;stroke-miterlimit:10;}
	.st3{fill:none;stroke:#FFFFFF;stroke-width:0.66;stroke-linecap:round;stroke-miterlimit:10;}
	.st4{fill:#FCFBFA;}
	.st5{font-family:'Lato-Bold';}
	.st6{font-size:5.22px;}
	.st7{fill:#201600;}
	.st8{font-size:3.14px;}
</style>
<title>image</title>
<rect x="-2.5" y="-1.7" class="st0" width="258.8" height="139.1"/>
<g>
	<circle class="st1" cx="231.8" cy="7.4" r="0.3"/>
	<circle class="st1" cx="228.7" cy="7.4" r="0.3"/>
	<circle class="st1" cx="225.7" cy="7.4" r="0.3"/>
	<circle class="st1" cx="222.7" cy="7.4" r="0.3"/>
	<circle class="st1" cx="219.7" cy="7.4" r="0.3"/>
	<circle class="st1" cx="216.7" cy="7.4" r="0.3"/>
	<circle class="st1" cx="213.7" cy="7.4" r="0.3"/>
	<circle class="st1" cx="210.6" cy="7.4" r="0.3"/>
	<circle class="st1" cx="207.6" cy="7.4" r="0.3"/>
	<circle class="st1" cx="204.6" cy="7.4" r="0.3"/>
	<circle class="st1" cx="201.6" cy="7.4" r="0.3"/>
	<circle class="st1" cx="198.6" cy="7.4" r="0.3"/>
	<circle class="st1" cx="231.8" cy="10.9" r="0.3"/>
	<circle class="st1" cx="228.7" cy="10.9" r="0.3"/>
	<circle class="st1" cx="225.7" cy="10.9" r="0.3"/>
	<circle class="st1" cx="222.7" cy="10.9" r="0.3"/>
	<circle class="st1" cx="219.7" cy="10.9" r="0.3"/>
	<circle class="st1" cx="216.7" cy="10.9" r="0.3"/>
	<circle class="st1" cx="213.7" cy="10.9" r="0.3"/>
	<circle class="st1" cx="210.6" cy="10.9" r="0.3"/>
	<circle class="st1" cx="207.6" cy="10.9" r="0.3"/>
	<circle class="st1" cx="204.6" cy="10.9" r="0.3"/>
	<circle class="st1" cx="201.6" cy="10.9" r="0.3"/>
	<circle class="st1" cx="198.6" cy="10.9" r="0.3"/>
	<circle class="st1" cx="231.8" cy="14.4" r="0.3"/>
	<circle class="st1" cx="228.7" cy="14.4" r="0.3"/>
	<circle class="st1" cx="225.7" cy="14.4" r="0.3"/>
	<circle class="st1" cx="222.7" cy="14.4" r="0.3"/>
	<circle class="st1" cx="219.7" cy="14.4" r="0.3"/>
	<circle class="st1" cx="216.7" cy="14.4" r="0.3"/>
	<circle class="st1" cx="213.7" cy="14.4" r="0.3"/>
	<circle class="st1" cx="210.6" cy="14.4" r="0.3"/>
	<circle class="st1" cx="207.6" cy="14.4" r="0.3"/>
	<circle class="st1" cx="204.6" cy="14.4" r="0.3"/>
	<circle class="st1" cx="201.6" cy="14.4" r="0.3"/>
	<circle class="st1" cx="198.6" cy="14.4" r="0.3"/>
</g>
<g>
	<circle class="st1" cx="11" cy="97.3" r="0.3"/>
	<circle class="st1" cx="11" cy="100.3" r="0.3"/>
	<circle class="st1" cx="11" cy="103.3" r="0.3"/>
	<circle class="st1" cx="11" cy="106.3" r="0.3"/>
	<circle class="st1" cx="11" cy="109.3" r="0.3"/>
	<circle class="st1" cx="11" cy="112.3" r="0.3"/>
	<circle class="st1" cx="11" cy="115.4" r="0.3"/>
	<circle class="st1" cx="11" cy="118.4" r="0.3"/>
	<circle class="st1" cx="11" cy="121.4" r="0.3"/>
	<circle class="st1" cx="11" cy="124.4" r="0.3"/>
	<circle class="st1" cx="11" cy="127.4" r="0.3"/>
	<circle class="st1" cx="11" cy="130.4" r="0.3"/>
	<circle class="st1" cx="14.5" cy="97.3" r="0.3"/>
	<circle class="st1" cx="14.5" cy="100.3" r="0.3"/>
	<circle class="st1" cx="14.5" cy="103.3" r="0.3"/>
	<circle class="st1" cx="14.5" cy="106.3" r="0.3"/>
	<circle class="st1" cx="14.5" cy="109.3" r="0.3"/>
	<circle class="st1" cx="14.5" cy="112.3" r="0.3"/>
	<circle class="st1" cx="14.5" cy="115.4" r="0.3"/>
	<circle class="st1" cx="14.5" cy="118.4" r="0.3"/>
	<circle class="st1" cx="14.5" cy="121.4" r="0.3"/>
	<circle class="st1" cx="14.5" cy="124.4" r="0.3"/>
	<circle class="st1" cx="14.5" cy="127.4" r="0.3"/>
	<circle class="st1" cx="14.5" cy="130.4" r="0.3"/>
	<circle class="st1" cx="18" cy="97.3" r="0.3"/>
	<circle class="st1" cx="18" cy="100.3" r="0.3"/>
	<circle class="st1" cx="18" cy="103.3" r="0.3"/>
	<circle class="st1" cx="18" cy="106.3" r="0.3"/>
	<circle class="st1" cx="18" cy="109.3" r="0.3"/>
	<circle class="st1" cx="18" cy="112.3" r="0.3"/>
	<circle class="st1" cx="18" cy="115.4" r="0.3"/>
	<circle class="st1" cx="18" cy="118.4" r="0.3"/>
	<circle class="st1" cx="18" cy="121.4" r="0.3"/>
	<circle class="st1" cx="18" cy="124.4" r="0.3"/>
	<circle class="st1" cx="18" cy="127.4" r="0.3"/>
	<circle class="st1" cx="18" cy="130.4" r="0.3"/>
</g>
<circle class="st2" cx="239.3" cy="46.3" r="1.9"/>
<circle class="st3" cx="18.4" cy="77.4" r="1.6"/>
<polygon class="st1" points="35.8,114.4 34.8,112.8 33.9,114.4 "/>
<polygon class="st1" points="226.4,25.4 220.2,26 223.8,31 "/>
<g>
	<circle class="st1" cx="231.8" cy="7.4" r="0.3"/>
	<circle class="st1" cx="228.7" cy="7.4" r="0.3"/>
	<circle class="st1" cx="225.7" cy="7.4" r="0.3"/>
	<circle class="st1" cx="222.7" cy="7.4" r="0.3"/>
	<circle class="st1" cx="219.7" cy="7.4" r="0.3"/>
	<circle class="st1" cx="216.7" cy="7.4" r="0.3"/>
	<circle class="st1" cx="213.7" cy="7.4" r="0.3"/>
	<circle class="st1" cx="210.6" cy="7.4" r="0.3"/>
	<circle class="st1" cx="207.6" cy="7.4" r="0.3"/>
	<circle class="st1" cx="204.6" cy="7.4" r="0.3"/>
	<circle class="st1" cx="201.6" cy="7.4" r="0.3"/>
	<circle class="st1" cx="198.6" cy="7.4" r="0.3"/>
	<circle class="st1" cx="231.8" cy="10.9" r="0.3"/>
	<circle class="st1" cx="228.7" cy="10.9" r="0.3"/>
	<circle class="st1" cx="225.7" cy="10.9" r="0.3"/>
	<circle class="st1" cx="222.7" cy="10.9" r="0.3"/>
	<circle class="st1" cx="219.7" cy="10.9" r="0.3"/>
	<circle class="st1" cx="216.7" cy="10.9" r="0.3"/>
	<circle class="st1" cx="213.7" cy="10.9" r="0.3"/>
	<circle class="st1" cx="210.6" cy="10.9" r="0.3"/>
	<circle class="st1" cx="207.6" cy="10.9" r="0.3"/>
	<circle class="st1" cx="204.6" cy="10.9" r="0.3"/>
	<circle class="st1" cx="201.6" cy="10.9" r="0.3"/>
	<circle class="st1" cx="198.6" cy="10.9" r="0.3"/>
	<circle class="st1" cx="231.8" cy="14.4" r="0.3"/>
	<circle class="st1" cx="228.7" cy="14.4" r="0.3"/>
	<circle class="st1" cx="225.7" cy="14.4" r="0.3"/>
	<circle class="st1" cx="222.7" cy="14.4" r="0.3"/>
	<circle class="st1" cx="219.7" cy="14.4" r="0.3"/>
	<circle class="st1" cx="216.7" cy="14.4" r="0.3"/>
	<circle class="st1" cx="213.7" cy="14.4" r="0.3"/>
	<circle class="st1" cx="210.6" cy="14.4" r="0.3"/>
	<circle class="st1" cx="207.6" cy="14.4" r="0.3"/>
	<circle class="st1" cx="204.6" cy="14.4" r="0.3"/>
	<circle class="st1" cx="201.6" cy="14.4" r="0.3"/>
	<circle class="st1" cx="198.6" cy="14.4" r="0.3"/>
</g>
<g>
	<circle class="st1" cx="11" cy="97.3" r="0.3"/>
	<circle class="st1" cx="11" cy="100.3" r="0.3"/>
	<circle class="st1" cx="11" cy="103.3" r="0.3"/>
	<circle class="st1" cx="11" cy="106.3" r="0.3"/>
	<circle class="st1" cx="11" cy="109.3" r="0.3"/>
	<circle class="st1" cx="11" cy="112.3" r="0.3"/>
	<circle class="st1" cx="11" cy="115.4" r="0.3"/>
	<circle class="st1" cx="11" cy="118.4" r="0.3"/>
	<circle class="st1" cx="11" cy="121.4" r="0.3"/>
	<circle class="st1" cx="11" cy="124.4" r="0.3"/>
	<circle class="st1" cx="11" cy="127.4" r="0.3"/>
	<circle class="st1" cx="11" cy="130.4" r="0.3"/>
	<circle class="st1" cx="14.5" cy="97.3" r="0.3"/>
	<circle class="st1" cx="14.5" cy="100.3" r="0.3"/>
	<circle class="st1" cx="14.5" cy="103.3" r="0.3"/>
	<circle class="st1" cx="14.5" cy="106.3" r="0.3"/>
	<circle class="st1" cx="14.5" cy="109.3" r="0.3"/>
	<circle class="st1" cx="14.5" cy="112.3" r="0.3"/>
	<circle class="st1" cx="14.5" cy="115.4" r="0.3"/>
	<circle class="st1" cx="14.5" cy="118.4" r="0.3"/>
	<circle class="st1" cx="14.5" cy="121.4" r="0.3"/>
	<circle class="st1" cx="14.5" cy="124.4" r="0.3"/>
	<circle class="st1" cx="14.5" cy="127.4" r="0.3"/>
	<circle class="st1" cx="14.5" cy="130.4" r="0.3"/>
	<circle class="st1" cx="18" cy="97.3" r="0.3"/>
	<circle class="st1" cx="18" cy="100.3" r="0.3"/>
	<circle class="st1" cx="18" cy="103.3" r="0.3"/>
	<circle class="st1" cx="18" cy="106.3" r="0.3"/>
	<circle class="st1" cx="18" cy="109.3" r="0.3"/>
	<circle class="st1" cx="18" cy="112.3" r="0.3"/>
	<circle class="st1" cx="18" cy="115.4" r="0.3"/>
	<circle class="st1" cx="18" cy="118.4" r="0.3"/>
	<circle class="st1" cx="18" cy="121.4" r="0.3"/>
	<circle class="st1" cx="18" cy="124.4" r="0.3"/>
	<circle class="st1" cx="18" cy="127.4" r="0.3"/>
	<circle class="st1" cx="18" cy="130.4" r="0.3"/>
</g>
<circle class="st2" cx="239.3" cy="46.3" r="1.9"/>
<circle class="st3" cx="18.4" cy="77.4" r="1.6"/>
<polygon class="st1" points="35.8,114.4 34.8,112.8 33.9,114.4 "/>
<polygon class="st1" points="226.4,25.4 220.2,26 223.8,31 "/>
<g>
	<circle class="st1" cx="231.8" cy="7.4" r="0.3"/>
	<circle class="st1" cx="228.7" cy="7.4" r="0.3"/>
	<circle class="st1" cx="225.7" cy="7.4" r="0.3"/>
	<circle class="st1" cx="222.7" cy="7.4" r="0.3"/>
	<circle class="st1" cx="219.7" cy="7.4" r="0.3"/>
	<circle class="st1" cx="216.7" cy="7.4" r="0.3"/>
	<circle class="st1" cx="213.7" cy="7.4" r="0.3"/>
	<circle class="st1" cx="210.6" cy="7.4" r="0.3"/>
	<circle class="st1" cx="207.6" cy="7.4" r="0.3"/>
	<circle class="st1" cx="204.6" cy="7.4" r="0.3"/>
	<circle class="st1" cx="201.6" cy="7.4" r="0.3"/>
	<circle class="st1" cx="198.6" cy="7.4" r="0.3"/>
	<circle class="st1" cx="231.8" cy="10.9" r="0.3"/>
	<circle class="st1" cx="228.7" cy="10.9" r="0.3"/>
	<circle class="st1" cx="225.7" cy="10.9" r="0.3"/>
	<circle class="st1" cx="222.7" cy="10.9" r="0.3"/>
	<circle class="st1" cx="219.7" cy="10.9" r="0.3"/>
	<circle class="st1" cx="216.7" cy="10.9" r="0.3"/>
	<circle class="st1" cx="213.7" cy="10.9" r="0.3"/>
	<circle class="st1" cx="210.6" cy="10.9" r="0.3"/>
	<circle class="st1" cx="207.6" cy="10.9" r="0.3"/>
	<circle class="st1" cx="204.6" cy="10.9" r="0.3"/>
	<circle class="st1" cx="201.6" cy="10.9" r="0.3"/>
	<circle class="st1" cx="198.6" cy="10.9" r="0.3"/>
	<circle class="st1" cx="231.8" cy="14.4" r="0.3"/>
	<circle class="st1" cx="228.7" cy="14.4" r="0.3"/>
	<circle class="st1" cx="225.7" cy="14.4" r="0.3"/>
	<circle class="st1" cx="222.7" cy="14.4" r="0.3"/>
	<circle class="st1" cx="219.7" cy="14.4" r="0.3"/>
	<circle class="st1" cx="216.7" cy="14.4" r="0.3"/>
	<circle class="st1" cx="213.7" cy="14.4" r="0.3"/>
	<circle class="st1" cx="210.6" cy="14.4" r="0.3"/>
	<circle class="st1" cx="207.6" cy="14.4" r="0.3"/>
	<circle class="st1" cx="204.6" cy="14.4" r="0.3"/>
	<circle class="st1" cx="201.6" cy="14.4" r="0.3"/>
	<circle class="st1" cx="198.6" cy="14.4" r="0.3"/>
</g>
<g>
	<circle class="st1" cx="11" cy="97.3" r="0.3"/>
	<circle class="st1" cx="11" cy="100.3" r="0.3"/>
	<circle class="st1" cx="11" cy="103.3" r="0.3"/>
	<circle class="st1" cx="11" cy="106.3" r="0.3"/>
	<circle class="st1" cx="11" cy="109.3" r="0.3"/>
	<circle class="st1" cx="11" cy="112.3" r="0.3"/>
	<circle class="st1" cx="11" cy="115.4" r="0.3"/>
	<circle class="st1" cx="11" cy="118.4" r="0.3"/>
	<circle class="st1" cx="11" cy="121.4" r="0.3"/>
	<circle class="st1" cx="11" cy="124.4" r="0.3"/>
	<circle class="st1" cx="11" cy="127.4" r="0.3"/>
	<circle class="st1" cx="11" cy="130.4" r="0.3"/>
	<circle class="st1" cx="14.5" cy="97.3" r="0.3"/>
	<circle class="st1" cx="14.5" cy="100.3" r="0.3"/>
	<circle class="st1" cx="14.5" cy="103.3" r="0.3"/>
	<circle class="st1" cx="14.5" cy="106.3" r="0.3"/>
	<circle class="st1" cx="14.5" cy="109.3" r="0.3"/>
	<circle class="st1" cx="14.5" cy="112.3" r="0.3"/>
	<circle class="st1" cx="14.5" cy="115.4" r="0.3"/>
	<circle class="st1" cx="14.5" cy="118.4" r="0.3"/>
	<circle class="st1" cx="14.5" cy="121.4" r="0.3"/>
	<circle class="st1" cx="14.5" cy="124.4" r="0.3"/>
	<circle class="st1" cx="14.5" cy="127.4" r="0.3"/>
	<circle class="st1" cx="14.5" cy="130.4" r="0.3"/>
	<circle class="st1" cx="18" cy="97.3" r="0.3"/>
	<circle class="st1" cx="18" cy="100.3" r="0.3"/>
	<circle class="st1" cx="18" cy="103.3" r="0.3"/>
	<circle class="st1" cx="18" cy="106.3" r="0.3"/>
	<circle class="st1" cx="18" cy="109.3" r="0.3"/>
	<circle class="st1" cx="18" cy="112.3" r="0.3"/>
	<circle class="st1" cx="18" cy="115.4" r="0.3"/>
	<circle class="st1" cx="18" cy="118.4" r="0.3"/>
	<circle class="st1" cx="18" cy="121.4" r="0.3"/>
	<circle class="st1" cx="18" cy="124.4" r="0.3"/>
	<circle class="st1" cx="18" cy="127.4" r="0.3"/>
	<circle class="st1" cx="18" cy="130.4" r="0.3"/>
</g>
<circle class="st2" cx="239.3" cy="46.3" r="1.9"/>
<circle class="st3" cx="18.4" cy="77.4" r="1.6"/>
<polygon class="st1" points="35.8,114.4 34.8,112.8 33.9,114.4 "/>
<polygon class="st1" points="226.4,25.4 220.2,26 223.8,31 "/>
<g>
	<circle class="st1" cx="231.8" cy="7.4" r="0.3"/>
	<circle class="st1" cx="228.7" cy="7.4" r="0.3"/>
	<circle class="st1" cx="225.7" cy="7.4" r="0.3"/>
	<circle class="st1" cx="222.7" cy="7.4" r="0.3"/>
	<circle class="st1" cx="219.7" cy="7.4" r="0.3"/>
	<circle class="st1" cx="216.7" cy="7.4" r="0.3"/>
	<circle class="st1" cx="213.7" cy="7.4" r="0.3"/>
	<circle class="st1" cx="210.6" cy="7.4" r="0.3"/>
	<circle class="st1" cx="207.6" cy="7.4" r="0.3"/>
	<circle class="st1" cx="204.6" cy="7.4" r="0.3"/>
	<circle class="st1" cx="201.6" cy="7.4" r="0.3"/>
	<circle class="st1" cx="198.6" cy="7.4" r="0.3"/>
	<circle class="st1" cx="231.8" cy="10.9" r="0.3"/>
	<circle class="st1" cx="228.7" cy="10.9" r="0.3"/>
	<circle class="st1" cx="225.7" cy="10.9" r="0.3"/>
	<circle class="st1" cx="222.7" cy="10.9" r="0.3"/>
	<circle class="st1" cx="219.7" cy="10.9" r="0.3"/>
	<circle class="st1" cx="216.7" cy="10.9" r="0.3"/>
	<circle class="st1" cx="213.7" cy="10.9" r="0.3"/>
	<circle class="st1" cx="210.6" cy="10.9" r="0.3"/>
	<circle class="st1" cx="207.6" cy="10.9" r="0.3"/>
	<circle class="st1" cx="204.6" cy="10.9" r="0.3"/>
	<circle class="st1" cx="201.6" cy="10.9" r="0.3"/>
	<circle class="st1" cx="198.6" cy="10.9" r="0.3"/>
	<circle class="st1" cx="231.8" cy="14.4" r="0.3"/>
	<circle class="st1" cx="228.7" cy="14.4" r="0.3"/>
	<circle class="st1" cx="225.7" cy="14.4" r="0.3"/>
	<circle class="st1" cx="222.7" cy="14.4" r="0.3"/>
	<circle class="st1" cx="219.7" cy="14.4" r="0.3"/>
	<circle class="st1" cx="216.7" cy="14.4" r="0.3"/>
	<circle class="st1" cx="213.7" cy="14.4" r="0.3"/>
	<circle class="st1" cx="210.6" cy="14.4" r="0.3"/>
	<circle class="st1" cx="207.6" cy="14.4" r="0.3"/>
	<circle class="st1" cx="204.6" cy="14.4" r="0.3"/>
	<circle class="st1" cx="201.6" cy="14.4" r="0.3"/>
	<circle class="st1" cx="198.6" cy="14.4" r="0.3"/>
</g>
<g>
	<circle class="st1" cx="11" cy="97.3" r="0.3"/>
	<circle class="st1" cx="11" cy="100.3" r="0.3"/>
	<circle class="st1" cx="11" cy="103.3" r="0.3"/>
	<circle class="st1" cx="11" cy="106.3" r="0.3"/>
	<circle class="st1" cx="11" cy="109.3" r="0.3"/>
	<circle class="st1" cx="11" cy="112.3" r="0.3"/>
	<circle class="st1" cx="11" cy="115.4" r="0.3"/>
	<circle class="st1" cx="11" cy="118.4" r="0.3"/>
	<circle class="st1" cx="11" cy="121.4" r="0.3"/>
	<circle class="st1" cx="11" cy="124.4" r="0.3"/>
	<circle class="st1" cx="11" cy="127.4" r="0.3"/>
	<circle class="st1" cx="11" cy="130.4" r="0.3"/>
	<circle class="st1" cx="14.5" cy="97.3" r="0.3"/>
	<circle class="st1" cx="14.5" cy="100.3" r="0.3"/>
	<circle class="st1" cx="14.5" cy="103.3" r="0.3"/>
	<circle class="st1" cx="14.5" cy="106.3" r="0.3"/>
	<circle class="st1" cx="14.5" cy="109.3" r="0.3"/>
	<circle class="st1" cx="14.5" cy="112.3" r="0.3"/>
	<circle class="st1" cx="14.5" cy="115.4" r="0.3"/>
	<circle class="st1" cx="14.5" cy="118.4" r="0.3"/>
	<circle class="st1" cx="14.5" cy="121.4" r="0.3"/>
	<circle class="st1" cx="14.5" cy="124.4" r="0.3"/>
	<circle class="st1" cx="14.5" cy="127.4" r="0.3"/>
	<circle class="st1" cx="14.5" cy="130.4" r="0.3"/>
	<circle class="st1" cx="18" cy="97.3" r="0.3"/>
	<circle class="st1" cx="18" cy="100.3" r="0.3"/>
	<circle class="st1" cx="18" cy="103.3" r="0.3"/>
	<circle class="st1" cx="18" cy="106.3" r="0.3"/>
	<circle class="st1" cx="18" cy="109.3" r="0.3"/>
	<circle class="st1" cx="18" cy="112.3" r="0.3"/>
	<circle class="st1" cx="18" cy="115.4" r="0.3"/>
	<circle class="st1" cx="18" cy="118.4" r="0.3"/>
	<circle class="st1" cx="18" cy="121.4" r="0.3"/>
	<circle class="st1" cx="18" cy="124.4" r="0.3"/>
	<circle class="st1" cx="18" cy="127.4" r="0.3"/>
	<circle class="st1" cx="18" cy="130.4" r="0.3"/>
</g>
<circle class="st2" cx="239.3" cy="46.3" r="1.9"/>
<circle class="st3" cx="18.4" cy="77.4" r="1.6"/>
<polygon class="st1" points="35.8,114.4 34.8,112.8 33.9,114.4 "/>
<polygon class="st1" points="226.4,25.4 220.2,26 223.8,31 "/>
<g>
	<circle class="st1" cx="231.8" cy="7.4" r="0.3"/>
	<circle class="st1" cx="228.7" cy="7.4" r="0.3"/>
	<circle class="st1" cx="225.7" cy="7.4" r="0.3"/>
	<circle class="st1" cx="222.7" cy="7.4" r="0.3"/>
	<circle class="st1" cx="219.7" cy="7.4" r="0.3"/>
	<circle class="st1" cx="216.7" cy="7.4" r="0.3"/>
	<circle class="st1" cx="213.7" cy="7.4" r="0.3"/>
	<circle class="st1" cx="210.6" cy="7.4" r="0.3"/>
	<circle class="st1" cx="207.6" cy="7.4" r="0.3"/>
	<circle class="st1" cx="204.6" cy="7.4" r="0.3"/>
	<circle class="st1" cx="201.6" cy="7.4" r="0.3"/>
	<circle class="st1" cx="198.6" cy="7.4" r="0.3"/>
	<circle class="st1" cx="231.8" cy="10.9" r="0.3"/>
	<circle class="st1" cx="228.7" cy="10.9" r="0.3"/>
	<circle class="st1" cx="225.7" cy="10.9" r="0.3"/>
	<circle class="st1" cx="222.7" cy="10.9" r="0.3"/>
	<circle class="st1" cx="219.7" cy="10.9" r="0.3"/>
	<circle class="st1" cx="216.7" cy="10.9" r="0.3"/>
	<circle class="st1" cx="213.7" cy="10.9" r="0.3"/>
	<circle class="st1" cx="210.6" cy="10.9" r="0.3"/>
	<circle class="st1" cx="207.6" cy="10.9" r="0.3"/>
	<circle class="st1" cx="204.6" cy="10.9" r="0.3"/>
	<circle class="st1" cx="201.6" cy="10.9" r="0.3"/>
	<circle class="st1" cx="198.6" cy="10.9" r="0.3"/>
	<circle class="st1" cx="231.8" cy="14.4" r="0.3"/>
	<circle class="st1" cx="228.7" cy="14.4" r="0.3"/>
	<circle class="st1" cx="225.7" cy="14.4" r="0.3"/>
	<circle class="st1" cx="222.7" cy="14.4" r="0.3"/>
	<circle class="st1" cx="219.7" cy="14.4" r="0.3"/>
	<circle class="st1" cx="216.7" cy="14.4" r="0.3"/>
	<circle class="st1" cx="213.7" cy="14.4" r="0.3"/>
	<circle class="st1" cx="210.6" cy="14.4" r="0.3"/>
	<circle class="st1" cx="207.6" cy="14.4" r="0.3"/>
	<circle class="st1" cx="204.6" cy="14.4" r="0.3"/>
	<circle class="st1" cx="201.6" cy="14.4" r="0.3"/>
	<circle class="st1" cx="198.6" cy="14.4" r="0.3"/>
</g>
<g>
	<circle class="st1" cx="11" cy="97.3" r="0.3"/>
	<circle class="st1" cx="11" cy="100.3" r="0.3"/>
	<circle class="st1" cx="11" cy="103.3" r="0.3"/>
	<circle class="st1" cx="11" cy="106.3" r="0.3"/>
	<circle class="st1" cx="11" cy="109.3" r="0.3"/>
	<circle class="st1" cx="11" cy="112.3" r="0.3"/>
	<circle class="st1" cx="11" cy="115.4" r="0.3"/>
	<circle class="st1" cx="11" cy="118.4" r="0.3"/>
	<circle class="st1" cx="11" cy="121.4" r="0.3"/>
	<circle class="st1" cx="11" cy="124.4" r="0.3"/>
	<circle class="st1" cx="11" cy="127.4" r="0.3"/>
	<circle class="st1" cx="11" cy="130.4" r="0.3"/>
	<circle class="st1" cx="14.5" cy="97.3" r="0.3"/>
	<circle class="st1" cx="14.5" cy="100.3" r="0.3"/>
	<circle class="st1" cx="14.5" cy="103.3" r="0.3"/>
	<circle class="st1" cx="14.5" cy="106.3" r="0.3"/>
	<circle class="st1" cx="14.5" cy="109.3" r="0.3"/>
	<circle class="st1" cx="14.5" cy="112.3" r="0.3"/>
	<circle class="st1" cx="14.5" cy="115.4" r="0.3"/>
	<circle class="st1" cx="14.5" cy="118.4" r="0.3"/>
	<circle class="st1" cx="14.5" cy="121.4" r="0.3"/>
	<circle class="st1" cx="14.5" cy="124.4" r="0.3"/>
	<circle class="st1" cx="14.5" cy="127.4" r="0.3"/>
	<circle class="st1" cx="14.5" cy="130.4" r="0.3"/>
	<circle class="st1" cx="18" cy="97.3" r="0.3"/>
	<circle class="st1" cx="18" cy="100.3" r="0.3"/>
	<circle class="st1" cx="18" cy="103.3" r="0.3"/>
	<circle class="st1" cx="18" cy="106.3" r="0.3"/>
	<circle class="st1" cx="18" cy="109.3" r="0.3"/>
	<circle class="st1" cx="18" cy="112.3" r="0.3"/>
	<circle class="st1" cx="18" cy="115.4" r="0.3"/>
	<circle class="st1" cx="18" cy="118.4" r="0.3"/>
	<circle class="st1" cx="18" cy="121.4" r="0.3"/>
	<circle class="st1" cx="18" cy="124.4" r="0.3"/>
	<circle class="st1" cx="18" cy="127.4" r="0.3"/>
	<circle class="st1" cx="18" cy="130.4" r="0.3"/>
</g>
<circle class="st2" cx="239.3" cy="46.3" r="1.9"/>
<circle class="st3" cx="18.4" cy="77.4" r="1.6"/>
<polygon class="st1" points="35.8,114.4 34.8,112.8 33.9,114.4 "/>
<polygon class="st1" points="226.4,25.4 220.2,26 223.8,31 "/>
<g>
	<circle class="st1" cx="231.8" cy="7.4" r="0.3"/>
	<circle class="st1" cx="228.7" cy="7.4" r="0.3"/>
	<circle class="st1" cx="225.7" cy="7.4" r="0.3"/>
	<circle class="st1" cx="222.7" cy="7.4" r="0.3"/>
	<circle class="st1" cx="219.7" cy="7.4" r="0.3"/>
	<circle class="st1" cx="216.7" cy="7.4" r="0.3"/>
	<circle class="st1" cx="213.7" cy="7.4" r="0.3"/>
	<circle class="st1" cx="210.6" cy="7.4" r="0.3"/>
	<circle class="st1" cx="207.6" cy="7.4" r="0.3"/>
	<circle class="st1" cx="204.6" cy="7.4" r="0.3"/>
	<circle class="st1" cx="201.6" cy="7.4" r="0.3"/>
	<circle class="st1" cx="198.6" cy="7.4" r="0.3"/>
	<circle class="st1" cx="231.8" cy="10.9" r="0.3"/>
	<circle class="st1" cx="228.7" cy="10.9" r="0.3"/>
	<circle class="st1" cx="225.7" cy="10.9" r="0.3"/>
	<circle class="st1" cx="222.7" cy="10.9" r="0.3"/>
	<circle class="st1" cx="219.7" cy="10.9" r="0.3"/>
	<circle class="st1" cx="216.7" cy="10.9" r="0.3"/>
	<circle class="st1" cx="213.7" cy="10.9" r="0.3"/>
	<circle class="st1" cx="210.6" cy="10.9" r="0.3"/>
	<circle class="st1" cx="207.6" cy="10.9" r="0.3"/>
	<circle class="st1" cx="204.6" cy="10.9" r="0.3"/>
	<circle class="st1" cx="201.6" cy="10.9" r="0.3"/>
	<circle class="st1" cx="198.6" cy="10.9" r="0.3"/>
	<circle class="st1" cx="231.8" cy="14.4" r="0.3"/>
	<circle class="st1" cx="228.7" cy="14.4" r="0.3"/>
	<circle class="st1" cx="225.7" cy="14.4" r="0.3"/>
	<circle class="st1" cx="222.7" cy="14.4" r="0.3"/>
	<circle class="st1" cx="219.7" cy="14.4" r="0.3"/>
	<circle class="st1" cx="216.7" cy="14.4" r="0.3"/>
	<circle class="st1" cx="213.7" cy="14.4" r="0.3"/>
	<circle class="st1" cx="210.6" cy="14.4" r="0.3"/>
	<circle class="st1" cx="207.6" cy="14.4" r="0.3"/>
	<circle class="st1" cx="204.6" cy="14.4" r="0.3"/>
	<circle class="st1" cx="201.6" cy="14.4" r="0.3"/>
	<circle class="st1" cx="198.6" cy="14.4" r="0.3"/>
</g>
<g>
	<circle class="st1" cx="11" cy="97.3" r="0.3"/>
	<circle class="st1" cx="11" cy="100.3" r="0.3"/>
	<circle class="st1" cx="11" cy="103.3" r="0.3"/>
	<circle class="st1" cx="11" cy="106.3" r="0.3"/>
	<circle class="st1" cx="11" cy="109.3" r="0.3"/>
	<circle class="st1" cx="11" cy="112.3" r="0.3"/>
	<circle class="st1" cx="11" cy="115.4" r="0.3"/>
	<circle class="st1" cx="11" cy="118.4" r="0.3"/>
	<circle class="st1" cx="11" cy="121.4" r="0.3"/>
	<circle class="st1" cx="11" cy="124.4" r="0.3"/>
	<circle class="st1" cx="11" cy="127.4" r="0.3"/>
	<circle class="st1" cx="11" cy="130.4" r="0.3"/>
	<circle class="st1" cx="14.5" cy="97.3" r="0.3"/>
	<circle class="st1" cx="14.5" cy="100.3" r="0.3"/>
	<circle class="st1" cx="14.5" cy="103.3" r="0.3"/>
	<circle class="st1" cx="14.5" cy="106.3" r="0.3"/>
	<circle class="st1" cx="14.5" cy="109.3" r="0.3"/>
	<circle class="st1" cx="14.5" cy="112.3" r="0.3"/>
	<circle class="st1" cx="14.5" cy="115.4" r="0.3"/>
	<circle class="st1" cx="14.5" cy="118.4" r="0.3"/>
	<circle class="st1" cx="14.5" cy="121.4" r="0.3"/>
	<circle class="st1" cx="14.5" cy="124.4" r="0.3"/>
	<circle class="st1" cx="14.5" cy="127.4" r="0.3"/>
	<circle class="st1" cx="14.5" cy="130.4" r="0.3"/>
	<circle class="st1" cx="18" cy="97.3" r="0.3"/>
	<circle class="st1" cx="18" cy="100.3" r="0.3"/>
	<circle class="st1" cx="18" cy="103.3" r="0.3"/>
	<circle class="st1" cx="18" cy="106.3" r="0.3"/>
	<circle class="st1" cx="18" cy="109.3" r="0.3"/>
	<circle class="st1" cx="18" cy="112.3" r="0.3"/>
	<circle class="st1" cx="18" cy="115.4" r="0.3"/>
	<circle class="st1" cx="18" cy="118.4" r="0.3"/>
	<circle class="st1" cx="18" cy="121.4" r="0.3"/>
	<circle class="st1" cx="18" cy="124.4" r="0.3"/>
	<circle class="st1" cx="18" cy="127.4" r="0.3"/>
	<circle class="st1" cx="18" cy="130.4" r="0.3"/>
</g>
<circle class="st2" cx="239.3" cy="46.3" r="1.9"/>
<circle class="st3" cx="18.4" cy="77.4" r="1.6"/>
<polygon class="st1" points="35.8,114.4 34.8,112.8 33.9,114.4 "/>
<polygon class="st1" points="226.4,25.4 220.2,26 223.8,31 "/>
<text transform="matrix(1 0 0 1 93.48 105.83)" class="st4 st5 st6"> Air Plants / Tillandsia</text>
<text transform="matrix(1 0 0 1 105.42 113.42)" class="st7 st5 st8">@Purple Shamrock</text>
<path class="st7" d="M102.1,93.1c3.7,2.2,8.2,2.3,12.4,2.3c2.3-0.1,4.5-0.3,6.8-0.8c2.2-0.4,4.7-0.6,6.6-1.8c0.5-0.3,0-1.1-0.5-0.8
	c-1.7,1.1-4.1,1.4-6.1,1.7c-2.2,0.5-4.5,0.7-6.8,0.8c-4,0-8.3-0.1-11.9-2.2c-0.2-0.1-0.5,0-0.6,0.2
	C101.9,92.7,101.9,92.9,102.1,93.1L102.1,93.1z"/>
<path class="st7" d="M89,59.1c5.1,4,4,11.5,5.7,17.1c1.5,4.9,4.3,9.6,8.7,12.3c4.7,3,10.6,3.4,15.9,2.4c2.8-0.4,5.5-1.3,7.9-2.8
	c2-1.6,3.4-3.7,4.1-6.2c2.3-6.8,1.6-14.9,6.5-20.7c0.4-0.5-0.3-1.1-0.6-0.7c-3.6,4.3-4.4,9.8-5.3,15.2c-0.5,3-1.2,6.3-2.7,9
	s-4.4,3.8-7.3,4.7c-5.6,1.6-12.1,1.7-17.3-1.3c-4.8-2.8-7.8-7.8-9.2-13.1c-1.5-5.6-0.6-12.7-5.7-16.6C89.2,58.1,88.5,58.8,89,59.1
	L89,59.1z"/>
<path class="st7" d="M89.4,59c16,1.8,32.1,3.7,48.2,2.3c0.6,0,0.6-1,0-0.9c-16.1,1.4-32.2-0.5-48.2-2.3C88.8,58,88.8,58.9,89.4,59z"
	/>
<path class="st7" d="M103.7,88.5c-0.4,1.3-1,2.5-1.7,3.7c-0.1,0.2,0,0.5,0.2,0.6c0.2,0.1,0.4,0,0.6-0.1c0.7-1.2,1.3-2.5,1.8-3.9
	C104.8,88.1,103.9,87.9,103.7,88.5L103.7,88.5z"/>
<path class="st7" d="M125.8,88.6c0.3,1.3,0.3,3,1.7,3.7c0.5,0.3,1-0.5,0.5-0.8c-1-0.6-1-2.2-1.2-3.2
	C126.6,87.8,125.7,88.1,125.8,88.6L125.8,88.6z"/>
<path class="st7" d="M135.3,65.3c2.9-2.2,6.9-3.2,10.1-0.9c1.6,1.1,3,3.4,2,5.3c-1,1.5-2.5,2.7-4.3,3.3c-1.4,0.5-2.8,0.9-4.3,1.2
	c-1.4,0.2-2.9,0.5-4.2,0.9c-0.9,0.3-1.5,1.1-1.6,2c0,0.4,0.1,0.7,0.3,1.1c0.1,0.2,0.4,0.3,0.6,0.5l0.3,0.2c-0.6,0.7-1.2,0.7-1.7,0.1
	c-0.4-0.4-1.1,0.2-0.6,0.7c0.8,0.8,2.6,1.3,3.3,0.1c0.2-0.3,0.2-0.8,0-1.1c-0.1-0.2-0.4-0.4-0.6-0.6c-1-1.2,0.1-2,1.1-2.3
	c3.8-1,7.9-1.1,11-3.8c2.9-2.5,2.2-6.2-0.8-8.3c-3.4-2.5-7.9-1.5-11.1,0.9C134.4,64.8,134.9,65.6,135.3,65.3L135.3,65.3z"/>
<path class="st7" d="M134.2,68.4c1.7-1.5,3.9-2.2,6.1-2.1c1,0,2.1,0.3,3,0.8c0.8,0.5,1.1,0.7,1.1,1.6s-0.4,1.1-1.2,1.6
	c-3.4,1.8-7.5,1.8-10.9,3.8c-0.2,0.2-0.2,0.4-0.1,0.6c0.1,0.2,0.4,0.2,0.6,0.1c2.7-1.6,5.9-1.8,8.8-2.8c1.5-0.5,4.7-1.7,4-3.8
	c-0.6-1.9-3.4-2.6-5.1-2.7c-2.6-0.2-5.1,0.7-7,2.4C133,68.2,133.7,68.8,134.2,68.4L134.2,68.4z"/>
<path class="st7" d="M91.6,61.8c14.4,3.8,29.5,4.4,44.2,1.7c0.6-0.1,0.3-1-0.2-0.9c-14.5,2.6-29.5,2.1-43.8-1.7
	c-0.2-0.1-0.5,0.1-0.6,0.3C91.2,61.5,91.3,61.8,91.6,61.8L91.6,61.8z"/>
<path class="st7" d="M97.2,62.5c-3.6,0.2-3.9,6.7,0,6.8c1.7,0,3-1.3,3-3c0,0,0-0.1,0-0.1c-0.1-1.9-1.6-3.3-3.4-3.4
	c-0.6-0.1-0.6,0.8,0,0.9c1.3,0.1,2.3,1,2.5,2.3c0.1,1.2-0.7,2.2-1.8,2.3c-0.1,0-0.2,0-0.4,0c-2.6-0.2-2.3-4.8,0.1-4.9
	C97.8,63.5,97.8,62.5,97.2,62.5L97.2,62.5z"/>
<path class="st7" d="M117.6,64.4c-2.3,1.8-0.5,5.2,2.2,5.3s3.5-3.8,1.5-5.3c-0.5-0.3-0.9,0.5-0.5,0.8c1.4,1,0.8,3.7-1.1,3.6
	c-1.6-0.1-3.2-2.3-1.6-3.5C118.6,64.8,118.1,64,117.6,64.4L117.6,64.4z"/>
<path class="st7" d="M131.2,63.8c-1.3,1.6,1.8,3.1,3.1,2.8c0.2-0.1,0.4-0.3,0.3-0.6s-0.3-0.4-0.6-0.3c-0.5,0.1-1-0.1-1.4-0.4
	c-0.2-0.1-1-0.6-0.8-0.9S131.6,63.3,131.2,63.8z"/>
<path class="st7" d="M109,69.5c-1.5-0.7-3.3,0-4,1.5c0,0.1-0.1,0.2-0.1,0.2c-0.7,1.6,0.1,3.4,1.7,4c0.1,0,0.1,0.1,0.2,0.1
	c1.7,0.7,3.6-0.1,4.3-1.7c0.6-1.7-0.2-3.5-1.9-4.1c0,0-0.1,0-0.1,0c-0.6-0.2-0.8,0.7-0.2,0.9c2.8,1,1.3,5-1.5,4.3
	c-1.1-0.2-1.9-1.3-1.7-2.4c0,0,0-0.1,0-0.1c0.1-1.1,1.1-2,2.3-1.9c0.2,0,0.4,0.1,0.6,0.1C109.1,70.5,109.6,69.7,109,69.5L109,69.5z"
	/>
<path class="st7" d="M133,72.4c-1.3-2-4.1-1.1-4.8,0.9c-0.5,1.6,0.4,3.4,2,3.9c0.5,0.2,1.1,0.2,1.6,0.1c0.6-0.1,0.3-1-0.2-0.9
	c-1.2,0.2-2.4-0.5-2.6-1.7c-0.1-0.3-0.1-0.6,0-0.9c0.3-1.4,2.3-2.5,3.2-1C132.5,73.4,133.3,72.9,133,72.4L133,72.4z"/>
<path class="st7" d="M120.6,76.6c-1.8-0.2-3.5,1.1-3.8,2.9c0,0,0,0,0,0.1c-0.1,1.7,1.1,3.1,2.8,3.2c0.1,0,0.2,0,0.3,0
	c1.8-0.2,3.1-1.6,3.3-3.4c0.1-1.5-1.1-2.8-2.7-2.9c-0.3,0-0.6,0-0.9,0.1c-0.6,0.1-0.3,1,0.2,0.9c1-0.3,2,0.2,2.3,1.2
	c0.1,0.3,0.1,0.7,0,1c-0.2,1.1-1.1,1.9-2.2,2.1c-1.1,0.2-2.1-0.5-2.3-1.6c-0.2-1.4,1.1-3.1,2.6-2.8
	C120.9,77.6,121.2,76.7,120.6,76.6L120.6,76.6z"/>
<path class="st7" d="M96.8,79.1c1.7-1.5,3.9,2,1.7,3c-0.5,0.3-0.1,1,0.5,0.8c3.3-1.5,0-6.9-2.8-4.4C95.7,78.8,96.3,79.4,96.8,79.1
	L96.8,79.1z"/>
<path class="st7" d="M106.9,84.2c-2.6,3,3,6.6,4.9,3.1c0.7-1.4,0.2-3-1.1-3.8c-1.4-0.8-3.2-0.3-4,1.1c-0.3,0.5,0.5,1,0.8,0.5
	c0.5-0.8,1.5-1.3,2.4-1c1,0.3,1.5,1.4,1.3,2.3c-0.8,2.9-5.5,0.5-3.6-1.6C108,84.4,107.3,83.7,106.9,84.2L106.9,84.2z"/>
<path class="st7" d="M125.5,88c-0.5-0.5-0.5-1.2-0.1-1.7c0.1-0.1,0.2-0.2,0.4-0.3c0.6-0.3,1.8-0.5,2.3,0s1.1-0.2,0.6-0.7
	c-0.9-0.9-2.8-0.7-3.8,0c-0.9,0.8-1,2.1-0.3,3.1c0,0,0.1,0.1,0.1,0.1c0.4,0.4,1.1-0.2,0.7-0.7L125.5,88z"/>
<path class="st7" d="M111.7,55.8c-3.1-1.8-3.5-6.7-2.4-9.8c1-3,3.7-4.9,4.5-7.9l-0.9-0.1c0.3,3.1,1.8,5.8,2.4,8.8
	c0.6,3.3-0.5,6.7-3,9c-0.4,0.4,0.2,1,0.7,0.7c2.2-2,3.5-4.9,3.5-7.8c0-3.7-2.2-6.9-2.6-10.6c0-0.3-0.2-0.5-0.5-0.4
	c-0.2,0-0.4,0.1-0.4,0.3c-0.6,2-2,3.5-3.2,5.2c-1,1.4-1.6,3.1-1.8,4.8c-0.4,3.1,0.4,7.1,3.3,8.8c0.2,0.1,0.5,0,0.6-0.2
	C112,56.1,112,55.9,111.7,55.8L111.7,55.8z"/>
<path class="st7" d="M116.4,49.2c1.7-3.2,5.7-3.3,8.8-4.2l-0.6-0.6c-1,2.7-2.2,6.1-4.4,8.1s-5.9,2.5-8.6,3.3
	c-0.2,0.1-0.4,0.3-0.3,0.6c0.1,0.2,0.3,0.4,0.6,0.3l0,0c2.9-0.8,6.7-1.3,9-3.5s3.6-5.6,4.6-8.5c0.1-0.2-0.1-0.5-0.3-0.6
	c-0.1,0-0.2,0-0.3,0c-3.3,1-7.5,1.2-9.3,4.6C115.3,49.3,116.1,49.8,116.4,49.2L116.4,49.2z"/>
<path class="st7" d="M111.6,56.1c-3.4-0.5-6.5-2-8.9-4.4c-2.8-2.8-3.1-6.9-3.3-10.7c0-0.6-0.9-0.6-0.9,0c0.2,3.9,0.5,8,3.3,11
	c2.6,2.6,6,4.4,9.6,4.9C111.9,57.1,112.2,56.2,111.6,56.1L111.6,56.1z"/>
<path class="st7" d="M98.9,41.6c3.6,1.1,6.7,3.5,8.7,6.8c0.3,0.5,1.1,0,0.8-0.5c-2.1-3.4-5.4-6-9.3-7.2
	C98.5,40.5,98.3,41.4,98.9,41.6L98.9,41.6z"/>
<path class="st7" d="M104.6,43.6c-3.2-3.5-3-8.2-1.8-12.5l-0.8,0.2c1.7,1.5,3.3,3.1,4.9,4.7c1.6,2,2.2,4.4,2.7,6.8
	c0.1,0.6,1,0.3,0.9-0.2c-0.3-2.3-1.2-4.6-2.4-6.6c-1.6-1.9-3.4-3.7-5.3-5.4c-0.2-0.2-0.5-0.2-0.7,0c-0.1,0.1-0.1,0.1-0.1,0.2
	c-1.3,4.6-1.4,9.6,2,13.4C104.4,44.7,105,44,104.6,43.6L104.6,43.6z"/>
<path class="st7" d="M115.3,42.9c0.6-4.1,6-5.6,9.2-7.1l-0.6-0.6c-0.7,1.7-1.3,3.5-1.7,5.3c-0.6,1.9-1.6,3.6-2.9,5.1
	c-0.4,0.4,0.3,1.1,0.7,0.7c1.2-1.3,2.1-2.7,2.7-4.3c0.8-2,1.1-4.3,2-6.2c0.1-0.2,0-0.5-0.2-0.6c-0.1-0.1-0.3-0.1-0.4,0
	c-3.7,1.7-9,3.3-9.6,7.9C114.3,43.5,115.2,43.5,115.3,42.9L115.3,42.9z"/>
<path class="st7" d="M109,37.1c0-3.9,3.7-7.5,7.1-9.1l-0.7-0.3c1.1,3.9,2.1,7.8,0.8,11.7c-0.2,0.6,0.7,0.8,0.9,0.2
	c1.4-4.1,0.4-8.2-0.8-12.2c-0.1-0.2-0.3-0.4-0.6-0.3c0,0-0.1,0-0.1,0c-3.7,1.8-7.6,5.6-7.5,9.9c0,0.3,0.2,0.5,0.5,0.5
	C108.8,37.5,109,37.3,109,37.1L109,37.1z"/>
<path class="st7" d="M122.3,51.7c2.7-2.2,6.1-1.7,9.2-0.8l-0.2-0.8c-2.1,2.7-4.4,5.5-7.9,6.4c-0.2,0.1-0.4,0.3-0.3,0.6
	c0.1,0.2,0.3,0.4,0.6,0.3c3.6-1,6.1-3.8,8.3-6.6c0.2-0.2,0.2-0.5,0-0.7c-0.1,0-0.1-0.1-0.2-0.1c-3.4-1-7.2-1.4-10.1,1
	C121.2,51.4,121.9,52,122.3,51.7L122.3,51.7z"/>
<path class="st7" d="M103,52c-1.6-1-2.7-2.7-4.5-3.4c-2.3-0.9-4.6-1.6-7-2.2c-0.2-0.1-0.5,0.1-0.6,0.3c0,0.1,0,0.2,0,0.3
	c1,3.2,3,6.1,5.6,8.3c0.4,0.4,1.1-0.3,0.7-0.7c-2.5-2.1-4.3-4.8-5.3-7.9l-0.6,0.6c2.2,0.5,4.4,1.2,6.6,2c1.9,0.8,3.1,2.4,4.8,3.5
	C103.1,53.2,103.6,52.4,103,52L103,52z"/>
<path class="st7" d="M95.7,47.7c-2.4-2.5-3.9-5.8-4.1-9.3l-0.8,0.3c1.1,0.9,2.3,1.7,3.7,2.2c1.6,0.8,3,1.9,4.2,3.2
	c0.4,0.4,1-0.2,0.7-0.7c-1-1.1-2.2-2.1-3.5-2.9c-1.5-0.8-3.1-1.3-4.3-2.5c-0.2-0.2-0.5-0.2-0.7,0c-0.1,0.1-0.1,0.2-0.1,0.3
	c0.2,3.7,1.8,7.2,4.4,9.9C95.4,48.8,96.1,48.1,95.7,47.7L95.7,47.7z"/>
<path class="st7" d="M121.3,45.3c2.3-4,8.6-4,12.3-1.9l-0.1-0.7c-0.9,0.8-1,1.8-1.3,2.9c-0.3,1.7-1.4,3.1-2.9,3.8
	c-0.5,0.2-0.1,1,0.5,0.8c1.2-0.5,2.1-1.5,2.6-2.6c0.6-1.3,0.6-3.3,1.7-4.2c0.2-0.2,0.2-0.5,0-0.7c0,0-0.1-0.1-0.1-0.1
	c-4.1-2.3-11-2.2-13.6,2.3c-0.1,0.2,0,0.5,0.2,0.6C120.9,45.5,121.2,45.5,121.3,45.3z"/>
<path class="st7" d="M129.8,53.7c2-1.3,4.3-1,6.6-0.6l-0.3-0.7c-0.9,1.9-2.5,3.5-4.5,4.2c-0.6,0.2-0.3,1.1,0.2,0.9
	c2.2-0.8,4.1-2.4,5.1-4.6c0.1-0.2,0-0.5-0.2-0.6c0,0-0.1,0-0.1,0c-2.5-0.4-5-0.7-7.3,0.7C128.8,53.2,129.3,54,129.8,53.7L129.8,53.7
	z"/>
<path class="st7" d="M112.2,56c-0.2-2.3-0.1-4.7,0.5-7c0.1-0.3-0.4-0.4-0.4-0.1c-0.6,2.3-0.7,4.7-0.5,7.1
	C111.7,56.3,112.2,56.3,112.2,56L112.2,56z"/>
<path class="st7" d="M116.3,47.6c0.5-2.2,1.4-4.2,2.8-6c0.2-0.2-0.2-0.5-0.4-0.2c-1.4,1.8-2.3,3.9-2.8,6.1
	C115.8,47.8,116.2,47.9,116.3,47.6L116.3,47.6z"/>
<path class="st7" d="M112.5,40.2c0.5-2.5,0.9-5.1,1.3-7.6c0-0.3-0.4-0.4-0.4-0.1c-0.4,2.5-0.9,5.1-1.3,7.6
	C112,40.4,112.5,40.5,112.5,40.2z"/>
<path class="st7" d="M105.6,40.2c0.1,0,0.2-0.1,0.2-0.2c0-0.1-0.1-0.2-0.2-0.2c-0.1,0-0.2,0.1-0.2,0.2
	C105.4,40.1,105.5,40.2,105.6,40.2z"/>
<path class="st7" d="M105.3,39.7c0.7,1.9,1.8,3.6,3.3,5c0.2,0.2,0.5-0.1,0.3-0.3c-1.4-1.3-2.5-2.9-3.2-4.8
	C105.6,39.4,105.2,39.5,105.3,39.7L105.3,39.7z"/>
<path class="st7" d="M103.3,48.3c1.2,2.8,3.3,4.2,5.8,5.8c0.3,0.2,0.5-0.2,0.2-0.4c-1.2-0.7-2.4-1.5-3.5-2.4c-0.9-0.9-1.7-2-2.2-3.2
	C103.6,47.8,103.2,48,103.3,48.3L103.3,48.3z"/>
<path class="st7" d="M96.3,51.6c1.7,2.1,4.9,2.6,7.2,3.7c2.1,1,5,2.5,5.5,5c0.1,0.3,0.5,0.2,0.4-0.1c-0.5-2.3-2.8-3.8-4.8-4.8
	c-1-0.5-2-1-3-1.3c-1.7-0.7-3.8-1.2-5-2.7C96.5,51,96.2,51.4,96.3,51.6L96.3,51.6z"/>
<path class="st7" d="M94.5,43c1.9,2.4,3.8,4.7,5.7,7c0.2,0.2,0.5-0.1,0.3-0.3c-2-2.3-3.9-4.6-5.7-7C94.6,42.4,94.3,42.8,94.5,43z"/>
<path class="st7" d="M123.2,50.2c2.4-1.4,4-4.1,6.7-5c0.3-0.1,0.2-0.5-0.1-0.4c-2.8,0.9-4.3,3.6-6.8,5c-0.1,0.1-0.1,0.2-0.1,0.3
	S123.1,50.2,123.2,50.2L123.2,50.2z"/>
<path class="st7" d="M114,55c1-0.4,1.8-1,2.6-1.8L120,50c0.2-0.2-0.1-0.5-0.3-0.3l-2.8,2.6c-0.8,1-1.9,1.8-3,2.3
	C113.6,54.6,113.7,55.1,114,55L114,55z"/>
<path class="st7" d="M113.2,56.3c4.1,0.3,8.7-0.5,12.1-2.9c0.2-0.2,0-0.6-0.2-0.4c-3.4,2.3-7.9,3.1-11.9,2.8
	C112.9,55.9,112.9,56.3,113.2,56.3L113.2,56.3z"/>
<path class="st7" d="M126.3,56.7c2.3-0.4,4.6-1,6.7-2.1c0.3-0.1,0-0.5-0.2-0.4c-2.1,1-4.3,1.7-6.6,2
	C125.9,56.3,126.1,56.8,126.3,56.7L126.3,56.7z"/>
<path class="st7" d="M96,54.9c1.7,1.5,3.7,2,5.9,2.5c2.4,0.5,4.7,1.7,6.4,3.4c0.4,0.4,1.1-0.3,0.7-0.7c-1.4-1.3-3-2.4-4.8-3.1
	c-2.6-0.9-5.4-0.9-7.6-2.8C96.2,53.9,95.6,54.5,96,54.9z"/>
<path class="st7" d="M106.6,55.5c0.9,0.4,1.6,1,2.1,1.8c0.5,1,0.7,2.1,0.5,3.2c0,0.3,0.2,0.5,0.5,0.5c0.3,0,0.5-0.2,0.5-0.5
	c0.2-1.3-0.1-2.7-0.8-3.9c-0.6-0.9-1.5-1.6-2.5-2C106.3,54.4,106.1,55.3,106.6,55.5L106.6,55.5z"/>
<path class="st7" d="M110.3,60.3c0-1.5,0.7-2.9,1.9-3.8c0.2-0.2,0-0.6-0.2-0.4c-1.3,1-2.1,2.5-2.2,4.2c0,0.1,0.1,0.2,0.2,0.2
	C110.2,60.5,110.3,60.4,110.3,60.3L110.3,60.3z"/>
<path class="st7" d="M106.1,54.9c0.7,0.5,1.4,0.9,2.2,1.3c0.3,0.1,0.5-0.3,0.2-0.4c-0.7-0.3-1.4-0.7-2.1-1.2
	C106.2,54.4,105.8,54.7,106.1,54.9L106.1,54.9z"/>
<path class="st7" d="M113.7,56c0.1,0,0.2-0.1,0.2-0.2c0-0.1-0.1-0.2-0.2-0.2c-0.1,0-0.2,0.1-0.2,0.2C113.4,55.9,113.5,56,113.7,56z"
	/>
<path class="st7" d="M114.2,56.3c0.1,0,0.2-0.1,0.2-0.2c0-0.1-0.1-0.2-0.2-0.2c-0.1,0-0.2,0.1-0.2,0.2
	C114,56.2,114.1,56.3,114.2,56.3z"/>
<path class="st7" d="M125.4,56.8l1.1,0.1c0.3,0,0.3-0.4,0-0.5l-1.1-0.1C125.2,56.3,125.2,56.7,125.4,56.8z"/>
<path class="st7" d="M126,56.8c1,0,2-0.1,2.9-0.6c0.3-0.1,0.2-0.5-0.1-0.4c-0.9,0.4-1.8,0.6-2.8,0.5C125.7,56.3,125.7,56.7,126,56.8
	z"/>
<path class="st7" d="M123.5,56.5c-4.1,0.9-11.2-1.2-13.1,4.1c-0.2,0.6,0.7,0.8,0.9,0.2c0.9-2.5,3.8-3.1,6.1-3.1
	c2.1,0.1,4.2,0,6.3-0.3C124.3,57.3,124,56.4,123.5,56.5L123.5,56.5z"/>
<path class="st7" d="M131.5,56.6c-2.9,0.7-6-0.4-8.9,0.4c-2,0.5-3.7,1.9-4.8,3.7c-0.3,0.5,0.5,1,0.8,0.5c1.3-2.2,3.7-3.5,6.3-3.5
	c2.3,0,4.6,0.4,6.9-0.1C132.3,57.3,132.1,56.5,131.5,56.6L131.5,56.6z"/>
<path class="st7" d="M114.4,61c0.7-2.3,4.6-2.6,6.6-3c0.6-0.1,0.3-1-0.2-0.9c-2.5,0.4-6.4,0.7-7.2,3.6c-0.1,0.2,0.1,0.5,0.3,0.6
	C114.1,61.3,114.3,61.2,114.4,61L114.4,61z"/>
<path class="st7" d="M106.4,59.8c-1.2-0.6-2.2-1.6-2.8-2.8c-0.3-0.5-1.1-0.1-0.8,0.5c0.7,1.3,1.8,2.4,3.1,3.1
	C106.4,60.9,106.9,60.1,106.4,59.8z"/>
<path class="st7" d="M118.7,61.6c2.8-0.3,5.4-2.4,7.2-4.5c0.4-0.5-0.3-1.1-0.7-0.7c-1.6,1.9-4,3.9-6.5,4.2
	C118.1,60.7,118.1,61.7,118.7,61.6z"/>
</svg>
