<svg xmlns="http://www.w3.org/2000/svg" viewBox="0 0 517 387.57"><defs><style>.cls-1{isolation:isolate;}.cls-2{fill:#f2b9b2;}.cls-3,.cls-5{fill:#201600;}.cls-4{font-size:12.76px;fill:#fcfbfa;}.cls-4,.cls-5{font-family:Lato-Bold, Lato;font-weight:700;}.cls-5{font-size:7.67px;}.cls-10,.cls-11,.cls-12,.cls-6{mix-blend-mode:overlay;}.cls-12,.cls-7,.cls-8{fill:#fff;}.cls-10,.cls-11,.cls-8,.cls-9{stroke:#fff;stroke-miterlimit:10;}.cls-8{stroke-width:0.14px;}.cls-10,.cls-11,.cls-9{fill:none;stroke-linecap:round;}.cls-11,.cls-9{stroke-width:1.76px;}.cls-10{stroke-width:2.05px;}</style></defs><title>image</title><g class="cls-1"><g id="Layer_1" data-name="Layer 1"><rect class="cls-2" x="-2.51" y="-1.63" width="523.84" height="391.35"/><path class="cls-3" d="M205.79,189.38c20.81-2,41.37-3.46,62.27-2a450.74,450.74,0,0,0,60,.11c2-.12,2-3.19,0-3.07a450.74,450.74,0,0,1-60-.11c-20.9-1.46-41.46,0-62.27,2-1.95.19-2,3.26,0,3.07Z"/><path class="cls-3" d="M204.31,187.44c-7.65,36.15,3.41,82.55,37.57,101.89,13.08,7.4,33,11,47.26,4.89,7.71-3.3,13.53-10.55,18.28-17.23a117.81,117.81,0,0,0,13.5-25.86,151.4,151.4,0,0,0,8.58-33.48c1.41-10,3.79-22.4,0-32.09-.71-1.82-3.68-1-3,.82,3.16,8.09,1.43,17.93.5,26.36A152.66,152.66,0,0,1,321.5,240c-5.06,16.82-13.16,34.53-26.37,46.56-11.88,10.82-32.88,8.71-46.65,2.68-17.71-7.76-29.62-23.81-36.46-41.43a105.07,105.07,0,0,1-4.75-59.52c.41-1.93-2.55-2.75-3-.82Z"/><path class="cls-3" d="M272.38,185.4c1.11-14.88-10.11-27-22-34.22-6.37-3.87-12.95-5.58-20.32-6.27-10.09-.94-18.39-4-27.15-9.05a1.55,1.55,0,0,0-2.25,1.73c1.51,11.09,1,22.28,7.8,31.8,6,8.39,15.57,12.4,24.42,17.1,1.74.93,3.29-1.72,1.55-2.65-8.81-4.69-18.57-8.66-24.23-17.33-5.82-8.93-5.2-19.58-6.58-29.74l-2.25,1.73c5.72,3.32,11.71,6.35,18.16,8,7.58,1.89,15.49,1.22,22.86,4.13,13.72,5.43,28.16,19,27,34.8-.15,2,2.92,2,3.07,0Z"/><path class="cls-3" d="M263.64,162c1-11.47,15.22-22.85,25.47-26.16,9.19-3,19.18-1.3,27.74-6.43L315,127c-3.7,3.47-3.5,8.66-4.42,13.33a44.37,44.37,0,0,1-8.79,19.17c-4.14,5.35-8.75,10.6-14.28,14.54-4.94,3.52-10.49,6-15.07,10-1.49,1.31.69,3.47,2.17,2.17,5-4.4,11.26-6.92,16.48-11a77,77,0,0,0,12.5-13,48.48,48.48,0,0,0,8-13.53,54.35,54.35,0,0,0,2.3-9.2c.61-3.53.53-7.65,3.32-10.28a1.54,1.54,0,0,0-1.86-2.41c-5.84,3.5-12.43,3.66-19,4.51a40,40,0,0,0-15.76,5.16c-8.74,5.22-19.07,14.89-20,25.57-.16,2,2.91,2,3.07,0Z"/><path class="cls-3" d="M261.92,159.15c-.93-2.58-2.43-4.17-4.23-6.18a33.94,33.94,0,0,1-6.28-10,56.34,56.34,0,0,1-4-24.56c1-16.39,11.16-30,13.45-46h-3c1.55,5.84,5.07,10.53,7.93,15.76a55.47,55.47,0,0,1,6.79,21.7,47.57,47.57,0,0,1-3,20.3c-2.17,6.11-4.44,12-4.38,18.57a1.53,1.53,0,0,0,3.07,0c-.07-7.88,3.55-14.65,5.7-22a46.5,46.5,0,0,0,1.49-18.56,58.1,58.1,0,0,0-4.69-16.78c-3-6.74-8.05-12.55-10-19.76-.36-1.36-2.74-1.56-3,0-2.33,16.33-12.57,30.16-13.56,46.86a59.16,59.16,0,0,0,3.17,22.9,43.15,43.15,0,0,0,4.38,9.33c2.1,3.23,5.74,5.71,7.06,9.35.67,1.84,3.63,1,3-.82Z"/><path class="cls-3" d="M275.71,110.68c2.92-10.85,11.2-16.46,21.6-19.18A110.62,110.62,0,0,1,313,88.59c5-.56,10.1-.32,14.88-2L326.44,84c-5.71,6.83-8.34,15.15-12.27,23-4.73,9.45-12.87,16.55-20.17,24-1.38,1.41.79,3.58,2.17,2.17,6.7-6.84,14.4-13.45,19.18-21.86s7.07-17.73,13.25-25.14c.88-1.06.09-3.13-1.49-2.56-5.9,2.14-12.8,1.65-19,2.58a84.9,84.9,0,0,0-17.81,4.29,28.34,28.34,0,0,0-17.55,19.4,1.54,1.54,0,0,0,3,.82Z"/><path class="cls-3" d="M234.69,145.42c-12-4.81-23.2-12.93-30.71-23.57-7.69-10.89-10.69-24.41-13.69-37.18L188,86.41c5.58,2.58,11.47,3.53,17.4,4.93A42,42,0,0,1,221.71,99c9.06,6.93,16,16.25,23,25.15,1.22,1.55,3.37-.63,2.17-2.17-7.08-9-14.12-18.4-23.31-25.41a42.86,42.86,0,0,0-13-7c-6.95-2.2-14.28-2.68-21-5.77a1.56,1.56,0,0,0-2.25,1.73c3.31,14.08,6.78,28.82,15.89,40.44a73.76,73.76,0,0,0,30.66,22.44c1.83.73,2.63-2.23.82-3Z"/><path class="cls-3" d="M204.88,196.54q31.8-1.75,63.66-.42,15.91.69,31.77,2.17c4.17.39,8.35.94,12.53.42,5.37-.67,10.34-2.92,15.8-3.12,2-.07,2-3.14,0-3.07-4.53.16-8.6,1.6-13,2.56-5.19,1.13-10.11.63-15.33.14q-15.85-1.47-31.77-2.17-31.82-1.38-63.66.42c-2,.11-2,3.18,0,3.07Z"/><path class="cls-3" d="M266.32,195.17c1.55,17.5,1.18,35.07,1.79,52.61.3,8.44,1.18,16.79,1.83,25.2.59,7.62-1.48,15.19-.14,22.73.34,1.94,3.3,1.12,3-.82-1.43-8,.8-16.47,0-24.65s-1.4-16.27-1.65-24.45c-.52-16.88-.24-33.78-1.72-50.63-.17-2-3.24-2-3.07,0Z"/><path class="cls-3" d="M256.66,194.76a116.53,116.53,0,0,0-4.15,55.5c1.58,9.26,3.91,18.43,5.71,27.65,1.48,7.59,4.1,14.7,10.78,19.12,1.65,1.09,3.19-1.56,1.55-2.65-7.66-5.07-8.79-14.26-10.29-22.58-1.46-8.12-3.84-16-5.08-24.21a113.47,113.47,0,0,1,4.45-52c.61-1.88-2.35-2.69-3-.82Z"/><path class="cls-3" d="M237.11,193.41c-2.14,9.6-4,19.37-4,29.24,0,10.37,2.92,19.85,5.9,29.68,2.68,8.82,4.76,18.17,9.62,26.11,3.9,6.38,8.89,14.14,16.24,16.75,1.86.66,2.67-2.3.82-3-7.45-2.64-13.27-12.44-16.57-19.26-3.81-7.86-5.75-16.86-8.27-25.19-2.62-8.65-4.76-17-4.65-26.1.11-9.29,1.87-18.42,3.89-27.46.43-1.92-2.53-2.74-3-.82Z"/><path class="cls-3" d="M219.54,194.37a73.65,73.65,0,0,0-1.32,28.19c1.58,10.49,5.74,20.57,9.15,30.56,2.94,8.62,6,17.4,11.49,24.76a55.38,55.38,0,0,0,19.89,16c1.76.88,3.32-1.77,1.55-2.65-7.72-3.86-14.75-9.08-19.77-16.2-5.21-7.39-8-16.12-10.85-24.59s-6.35-17-8-25.84a69.92,69.92,0,0,1,.85-29.37c.46-1.92-2.5-2.74-3-.82Z"/><path class="cls-3" d="M281.57,195.3A267.65,267.65,0,0,0,276.69,243c-.08,8.15.36,16.24.87,24.36.56,8.86.52,18.16-6.16,24.87a1.53,1.53,0,0,0,2.17,2.17c11.26-11.32,6.5-29.41,6.22-43.63a262.56,262.56,0,0,1,4.74-54.7c.37-1.93-2.59-2.76-3-.82Z"/><path class="cls-3" d="M290.59,197.15q.29,26.57,2.19,53.08c.69,9.42,2,17.92-2.42,26.71-3.52,7-8.32,14-16.25,16.22a1.54,1.54,0,0,0,.82,3C289.51,292,297.5,274,296.6,260c-1.35-21-2.71-41.84-2.94-62.85a1.53,1.53,0,0,0-3.07,0Z"/><path class="cls-3" d="M303.81,199.08c3,17.46,2.26,35.56,2.37,53.21.1,16.65-8.64,38-27.28,40.63-1.95.28-1.12,3.24.82,3,16.36-2.34,27.73-20.28,29.29-35.73,1-10.32.11-21.1,0-31.47-.13-10.19-.51-20.35-2.22-30.42-.33-1.94-3.29-1.12-3,.82Z"/><path class="cls-3" d="M318,196.88a395.67,395.67,0,0,1,.61,51.88c-.1,2,3,2,3.07,0a395.67,395.67,0,0,0-.61-51.88c-.16-2-3.23-2-3.07,0Z"/><path class="cls-3" d="M203.12,139.7c3.73,10.82,13.75,16.17,23.63,20.53,13.09,5.76,24,12.62,31.46,25.21a1,1,0,0,0,1.77-1,57.11,57.11,0,0,0-23.73-22.12c-11.54-5.77-26.47-9.53-31.15-23.13-.43-1.24-2.4-.71-2,.54Z"/><path class="cls-3" d="M258.27,75.73q1.6,20.29,2.81,40.61.59,9.91,1.07,19.83c.35,7.14,1.13,14.42-.54,21.45-.31,1.28,1.67,1.83,2,.54,1.5-6.28,1.06-12.62.76-19q-.49-10.41-1.1-20.82Q262,97,260.31,75.73c-.1-1.3-2.15-1.31-2,0Z"/><path class="cls-3" d="M268.73,148.16A145.08,145.08,0,0,1,291.23,111c8.53-10.4,19.24-19.05,32.67-21.82,1.29-.27.74-2.24-.54-2-13.76,2.83-24.82,11.69-33.58,22.35a147.85,147.85,0,0,0-23,38c-.49,1.22,1.48,1.75,2,.54Z"/><path class="cls-3" d="M189.54,87.93c6.9,13.18,19,21.79,30.87,30.17,6.86,4.84,13.75,9.76,19.56,15.87,6.27,6.59,10.9,14.44,15.22,22.39.63,1.16,2.4.13,1.77-1-7.7-14.14-16.74-25.34-29.78-34.88-13.3-9.74-28-18.46-35.88-33.54-.61-1.17-2.38-.13-1.77,1Z"/><path class="cls-3" d="M272.57,185.44c3.47-12.6,10.64-22.65,20.44-31.13,7.69-6.66,15.91-12.83,20.59-22.11.59-1.17-1.17-2.21-1.77-1-5.32,10.54-15.29,16.91-23.69,24.75a61.66,61.66,0,0,0-17.54,29,1,1,0,0,0,2,.54Z"/><path class="cls-3" d="M299.82,89.67a64.35,64.35,0,0,0-2.72,10.58c-.22,1.29,1.75,1.84,2,.54a64.35,64.35,0,0,1,2.72-10.58c.44-1.25-1.54-1.78-2-.54Z"/><path class="cls-3" d="M291.32,91.38a36,36,0,0,0-2,19c.2,1.3,2.17.75,2-.54a34,34,0,0,1,2-17.88c.48-1.23-1.5-1.76-2-.54Z"/><path class="cls-3" d="M281.39,97.5a52.6,52.6,0,0,0-2.13,25.14c.2,1.3,2.17.75,2-.54A50.5,50.5,0,0,1,283.36,98c.42-1.25-1.55-1.79-2-.54Z"/><path class="cls-3" d="M272.91,122a39.15,39.15,0,0,0,1.64,7.46c.41,1.24,2.38.71,2-.54A36.47,36.47,0,0,1,275,122c-.16-1.29-2.21-1.31-2,0Z"/><path class="cls-3" d="M271.54,133.93a1,1,0,0,0,0-2,1,1,0,0,0,0,2Z"/><path class="cls-3" d="M254.16,88.54a40.58,40.58,0,0,0,5.36,12.66c.71,1.1,2.48.08,1.77-1A38.86,38.86,0,0,1,256.13,88c-.3-1.28-2.27-.74-2,.54Z"/><path class="cls-3" d="M249.45,99.15c-.07,6.28,7,7.75,10.43,11.68.86,1,2.31-.46,1.45-1.45-2.91-3.36-9.89-5-9.83-10.24a1,1,0,0,0-2,0Z"/><path class="cls-3" d="M246.36,109.32a17.55,17.55,0,0,0,5.84,8.14c3.18,2.42,7.31,3.71,9.23,7.48.6,1.17,2.36.14,1.77-1-1.39-2.74-3.8-4.35-6.37-5.9-3.86-2.33-6.9-4.86-8.5-9.22-.45-1.23-2.43-.7-2,.54Z"/><path class="cls-3" d="M270.81,132.63a2.94,2.94,0,0,1,1.14,1.92,1,1,0,0,0,1.26.71,1,1,0,0,0,.71-1.26,4.61,4.61,0,0,0-1.67-2.82,1.06,1.06,0,0,0-1.45,0,1,1,0,0,0,0,1.45Z"/><path class="cls-3" d="M244.69,123.23a21.78,21.78,0,0,0,7,8.71c3.58,2.62,7.83,4.29,10.22,8.23a1,1,0,0,0,1.77-1c-1.85-3.05-4.63-4.92-7.6-6.78-4.23-2.65-7.55-5.54-9.66-10.16-.55-1.2-2.31-.16-1.77,1Z"/><path class="cls-3" d="M248.33,139.28c.89,3.07,3.43,4.25,6.16,5.48a13.63,13.63,0,0,1,7.68,8.27c.42,1.24,2.39.71,2-.54a15.52,15.52,0,0,0-4.85-7.23c-2.7-2.21-7.93-2.86-9-6.52a1,1,0,0,0-2,.54Z"/><path class="cls-3" d="M259.47,110.35a29.75,29.75,0,0,0,1.49,3.82c.56,1.19,2.32.15,1.77-1a25.87,25.87,0,0,1-1.28-3.33c-.39-1.25-2.36-.72-2,.54Z"/><path class="cls-3" d="M194,105.34a13,13,0,0,0,9.25-.11c1.21-.48.68-2.45-.54-2a11.21,11.21,0,0,1-8.17.11c-1.24-.45-1.77,1.52-.54,2Z"/><path class="cls-3" d="M199.34,118c2.3.83,4.39.39,6.67-.39,3.07-1,6.09-2.22,9.14-3.33,1.23-.45.7-2.43-.54-2l-7,2.58c-2.48.91-5,2.11-7.67,1.15-1.24-.45-1.77,1.53-.54,2Z"/><path class="cls-3" d="M206.89,129c7.24.33,12.54-5.08,19.29-6.66,1.28-.3.74-2.27-.54-2-6.52,1.53-11.81,6.9-18.75,6.59-1.32-.06-1.31,2,0,2Z"/><path class="cls-3" d="M217.66,139.15a17,17,0,0,0,7.94-2.36c4.44-2.33,8.27-3.94,13.4-3,1.29.23,1.84-1.74.54-2a18.39,18.39,0,0,0-10.07.73c-4,1.54-7.29,4.51-11.81,4.56a1,1,0,0,0,0,2Z"/><path class="cls-3" d="M251.16,140.38a45.64,45.64,0,0,1-3.23-9.27c-.3-1.28-2.27-.74-2,.54a48.16,48.16,0,0,0,3.44,9.76c.57,1.19,2.33.15,1.77-1Z"/><path class="cls-3" d="M228.33,144.77c2.82.53,5-.49,7.67-1.27,4.08-1.19,8.1-1.5,12.11.08,1.23.48,1.76-1.5.54-2a17.12,17.12,0,0,0-8.33-1.08c-3.61.38-7.85,3-11.44,2.28-1.29-.24-1.84,1.73-.54,2Z"/><path class="cls-3" d="M242.53,149a31.63,31.63,0,0,1,7.36-1.35c1.31-.08,1.32-2.13,0-2A34,34,0,0,0,242,147c-1.25.39-.72,2.36.54,2Z"/><path class="cls-3" d="M202.32,150.3c3.41,6.36,8.79,7.19,15.47,5.63,1.28-.3.74-2.27-.54-2-2.5.59-5.13,1.11-7.67.43-2.84-.76-4.16-2.66-5.48-5.12-.62-1.16-2.39-.13-1.77,1Z"/><path class="cls-3" d="M205.47,161.39c1.5,3.46,4.85,4.45,8.39,4.59a13.36,13.36,0,0,0,5.46-.64c3.28-1.3,5.11-3.59,8.92-4.1,1.29-.17,1.3-2.22,0-2-3.05.4-5,1.51-7.66,3-3.83,2.17-11.12,3.29-13.34-1.85-.52-1.2-2.28-.16-1.77,1Z"/><path class="cls-3" d="M215.85,175.73c3.82,1,7.18.06,10.57-1.84,4.86-2.72,8.82-5.14,14.37-6.28,1.29-.26.74-2.24-.54-2a31.91,31.91,0,0,0-9.47,3.16c-4.59,2.57-8.69,6.43-14.38,5a1,1,0,0,0-.54,2Z"/><path class="cls-3" d="M227.74,182.7a20.18,20.18,0,0,0,9.15-2.86c4.75-2.57,8.71-4.12,14.2-4a1,1,0,0,0,0-2,24.41,24.41,0,0,0-9.94,1.54c-4.61,1.89-8.18,5.15-13.41,5.35-1.31.05-1.32,2.1,0,2Z"/><path class="cls-3" d="M241.18,185.9a28,28,0,0,1,14.68-4.42c1.31-.06,1.32-2.11,0-2a30.07,30.07,0,0,0-15.71,4.7c-1.11.7-.09,2.47,1,1.77Z"/><path class="cls-3" d="M307.33,130.69a16.38,16.38,0,0,0-3.67,11.6c.1,1.3,2.14,1.32,2,0a14.28,14.28,0,0,1,3.07-10.16c.81-1-.62-2.47-1.45-1.45Z"/><path class="cls-3" d="M296.66,133A23.16,23.16,0,0,0,295,148.88a1,1,0,0,0,2-.54,20.9,20.9,0,0,1,1.41-14.26c.56-1.18-1.2-2.22-1.77-1Z"/><path class="cls-3" d="M287,134.3a34.79,34.79,0,0,0-2.59,10.8c-.2,4.26,1.72,7.87,2,12,.09,1.31,2.14,1.32,2,0-.25-3.61-2-6.82-2-10.48a31.17,31.17,0,0,1,2.54-11.79c.47-1.23-1.5-1.76-2-.54Z"/><path class="cls-3" d="M277,139.42a17.33,17.33,0,0,0-2.76,12.15c.77,5,4.82,8.55,5.63,13.5.21,1.3,2.18.75,2-.54-.55-3.36-2.49-5.71-4-8.67a15,15,0,0,1,.94-15.41c.71-1.11-1.06-2.14-1.77-1Z"/><path class="cls-3" d="M267,148.86a15.5,15.5,0,0,0,.21,10.59c2.09,5.19,6.89,8.61,7.26,14.55.08,1.31,2.13,1.32,2,0-.58-9.47-10.69-14.21-7.54-24.6a1,1,0,0,0-2-.54Z"/><text class="cls-4" transform="translate(183.83 333.28)">Saintpaulia / African violet</text><text class="cls-5" transform="translate(226.97 351.81)">@Purple Shamrock</text><g class="cls-6"><circle class="cls-7" cx="464.3" cy="25.79" r="0.89"/><circle class="cls-7" cx="456.3" cy="25.79" r="0.89"/><circle class="cls-7" cx="448.31" cy="25.79" r="0.89"/><circle class="cls-7" cx="440.32" cy="25.79" r="0.89"/><circle class="cls-7" cx="432.32" cy="25.79" r="0.89"/><circle class="cls-7" cx="424.33" cy="25.79" r="0.89"/><circle class="cls-7" cx="416.33" cy="25.79" r="0.89"/><circle class="cls-7" cx="408.34" cy="25.79" r="0.89"/><circle class="cls-7" cx="400.35" cy="25.79" r="0.89"/><circle class="cls-7" cx="392.35" cy="25.79" r="0.89"/><circle class="cls-7" cx="384.36" cy="25.79" r="0.89"/><circle class="cls-7" cx="376.36" cy="25.79" r="0.89"/><circle class="cls-7" cx="464.3" cy="35.11" r="0.89"/><circle class="cls-7" cx="456.3" cy="35.11" r="0.89"/><circle class="cls-7" cx="448.31" cy="35.11" r="0.89"/><circle class="cls-7" cx="440.32" cy="35.11" r="0.89"/><circle class="cls-7" cx="432.32" cy="35.11" r="0.89"/><circle class="cls-7" cx="424.33" cy="35.11" r="0.89"/><circle class="cls-7" cx="416.33" cy="35.11" r="0.89"/><circle class="cls-7" cx="408.34" cy="35.11" r="0.89"/><circle class="cls-7" cx="400.35" cy="35.11" r="0.89"/><circle class="cls-7" cx="392.35" cy="35.11" r="0.89"/><circle class="cls-7" cx="384.36" cy="35.11" r="0.89"/><circle class="cls-7" cx="376.36" cy="35.11" r="0.89"/><circle class="cls-7" cx="464.3" cy="44.44" r="0.89"/><circle class="cls-7" cx="456.3" cy="44.44" r="0.89"/><circle class="cls-7" cx="448.31" cy="44.44" r="0.89"/><circle class="cls-7" cx="440.32" cy="44.44" r="0.89"/><circle class="cls-7" cx="432.32" cy="44.44" r="0.89"/><circle class="cls-7" cx="424.33" cy="44.44" r="0.89"/><circle class="cls-7" cx="416.33" cy="44.44" r="0.89"/><circle class="cls-7" cx="408.34" cy="44.44" r="0.89"/><circle class="cls-7" cx="400.35" cy="44.44" r="0.89"/><circle class="cls-7" cx="392.35" cy="44.44" r="0.89"/><circle class="cls-7" cx="384.36" cy="44.44" r="0.89"/><circle class="cls-7" cx="376.36" cy="44.44" r="0.89"/></g><g class="cls-6"><circle class="cls-7" cx="24.82" cy="252.66" r="0.89"/><circle class="cls-7" cx="24.82" cy="260.65" r="0.89"/><circle class="cls-7" cx="24.82" cy="268.65" r="0.89"/><circle class="cls-7" cx="24.82" cy="276.64" r="0.89"/><circle class="cls-7" cx="24.82" cy="284.63" r="0.89"/><circle class="cls-7" cx="24.82" cy="292.63" r="0.89"/><circle class="cls-7" cx="24.82" cy="300.62" r="0.89"/><circle class="cls-7" cx="24.82" cy="308.62" r="0.89"/><circle class="cls-7" cx="24.82" cy="316.61" r="0.89"/><circle class="cls-7" cx="24.82" cy="324.6" r="0.89"/><circle class="cls-7" cx="24.82" cy="332.6" r="0.89"/><circle class="cls-7" cx="24.82" cy="340.59" r="0.89"/><circle class="cls-7" cx="34.15" cy="252.66" r="0.89"/><circle class="cls-7" cx="34.15" cy="260.65" r="0.89"/><circle class="cls-7" cx="34.15" cy="268.65" r="0.89"/><circle class="cls-7" cx="34.15" cy="276.64" r="0.89"/><circle class="cls-7" cx="34.15" cy="284.63" r="0.89"/><circle class="cls-7" cx="34.15" cy="292.63" r="0.89"/><circle class="cls-7" cx="34.15" cy="300.62" r="0.89"/><circle class="cls-7" cx="34.15" cy="308.62" r="0.89"/><circle class="cls-7" cx="34.15" cy="316.61" r="0.89"/><circle class="cls-7" cx="34.15" cy="324.6" r="0.89"/><circle class="cls-7" cx="34.15" cy="332.6" r="0.89"/><circle class="cls-7" cx="34.15" cy="340.59" r="0.89"/><circle class="cls-7" cx="43.47" cy="252.66" r="0.89"/><circle class="cls-7" cx="43.47" cy="260.65" r="0.89"/><circle class="cls-7" cx="43.47" cy="268.65" r="0.89"/><circle class="cls-7" cx="43.47" cy="276.64" r="0.89"/><circle class="cls-7" cx="43.47" cy="284.63" r="0.89"/><circle class="cls-7" cx="43.47" cy="292.63" r="0.89"/><circle class="cls-7" cx="43.47" cy="300.62" r="0.89"/><circle class="cls-7" cx="43.47" cy="308.62" r="0.89"/><circle class="cls-7" cx="43.47" cy="316.61" r="0.89"/><circle class="cls-7" cx="43.47" cy="324.6" r="0.89"/><circle class="cls-7" cx="43.47" cy="332.6" r="0.89"/><circle class="cls-7" cx="43.47" cy="340.59" r="0.89"/></g><g class="cls-6"><circle class="cls-7" cx="480.68" cy="249.55" r="0.89"/><circle class="cls-7" cx="480.68" cy="257.54" r="0.89"/><circle class="cls-7" cx="480.68" cy="265.54" r="0.89"/><circle class="cls-7" cx="480.68" cy="273.53" r="0.89"/><circle class="cls-7" cx="490.01" cy="249.55" r="0.89"/><circle class="cls-7" cx="490.01" cy="257.54" r="0.89"/><circle class="cls-7" cx="490.01" cy="265.54" r="0.89"/><circle class="cls-7" cx="490.01" cy="273.53" r="0.89"/><circle class="cls-7" cx="499.33" cy="249.55" r="0.89"/><circle class="cls-7" cx="499.33" cy="257.54" r="0.89"/><circle class="cls-7" cx="499.33" cy="265.54" r="0.89"/><circle class="cls-7" cx="499.33" cy="273.53" r="0.89"/></g><g class="cls-6"><circle class="cls-7" cx="368.43" cy="354.01" r="0.89"/><circle class="cls-7" cx="376.42" cy="354.01" r="0.89"/><circle class="cls-7" cx="384.42" cy="354.01" r="0.89"/><circle class="cls-7" cx="392.41" cy="354.01" r="0.89"/><circle class="cls-7" cx="368.43" cy="344.68" r="0.89"/><circle class="cls-7" cx="376.42" cy="344.68" r="0.89"/><circle class="cls-7" cx="384.42" cy="344.68" r="0.89"/><circle class="cls-7" cx="392.41" cy="344.68" r="0.89"/><circle class="cls-7" cx="368.43" cy="335.35" r="0.89"/><circle class="cls-7" cx="376.42" cy="335.35" r="0.89"/><circle class="cls-7" cx="384.42" cy="335.35" r="0.89"/><circle class="cls-7" cx="392.41" cy="335.35" r="0.89"/></g><g class="cls-6"><circle class="cls-8" cx="19.83" cy="43.6" r="0.89"/><circle class="cls-8" cx="27.83" cy="43.6" r="0.89"/><circle class="cls-8" cx="35.82" cy="43.6" r="0.89"/><circle class="cls-8" cx="43.82" cy="43.6" r="0.89"/><circle class="cls-8" cx="19.83" cy="34.28" r="0.89"/><circle class="cls-8" cx="27.83" cy="34.28" r="0.89"/><circle class="cls-8" cx="35.82" cy="34.28" r="0.89"/><circle class="cls-8" cx="43.82" cy="34.28" r="0.89"/><circle class="cls-8" cx="19.83" cy="24.95" r="0.89"/><circle class="cls-8" cx="27.83" cy="24.95" r="0.89"/><circle class="cls-8" cx="35.82" cy="24.95" r="0.89"/><circle class="cls-8" cx="43.82" cy="24.95" r="0.89"/></g><g class="cls-6"><line class="cls-9" x1="462.34" y1="344.85" x2="455.79" y2="344.85"/><line class="cls-9" x1="459.07" y1="341.58" x2="459.07" y2="348.13"/></g><g class="cls-6"><line class="cls-9" x1="212.98" y1="37.75" x2="206.43" y2="37.75"/><line class="cls-9" x1="209.71" y1="34.47" x2="209.71" y2="41.03"/></g><g class="cls-6"><line class="cls-9" x1="95.2" y1="102.83" x2="88.65" y2="102.83"/><line class="cls-9" x1="91.93" y1="99.56" x2="91.93" y2="106.11"/></g><circle class="cls-10" cx="483.94" cy="142.32" r="5.01"/><circle class="cls-11" cx="44.43" cy="200.06" r="4.3"/><polygon class="cls-12" points="90.5 314.13 88.02 309.84 85.54 314.13 90.5 314.13"/><polygon class="cls-12" points="138.93 359.13 133.97 350.54 129.01 359.13 138.93 359.13"/><polygon class="cls-12" points="390.63 244.19 385.06 244.69 388.27 249.27 390.63 244.19"/><polygon class="cls-12" points="80.22 48.78 76.42 49.12 78.61 52.24 80.22 48.78"/><polygon class="cls-12" points="450.03 73.53 433.79 74.99 443.17 88.32 450.03 73.53"/><text class="cls-4" transform="translate(183.83 333.28)">Saintpaulia / African violet</text><g class="cls-6"><circle class="cls-7" cx="464.3" cy="25.79" r="0.89"/><circle class="cls-7" cx="456.3" cy="25.79" r="0.89"/><circle class="cls-7" cx="448.31" cy="25.79" r="0.89"/><circle class="cls-7" cx="440.32" cy="25.79" r="0.89"/><circle class="cls-7" cx="432.32" cy="25.79" r="0.89"/><circle class="cls-7" cx="424.33" cy="25.79" r="0.89"/><circle class="cls-7" cx="416.33" cy="25.79" r="0.89"/><circle class="cls-7" cx="408.34" cy="25.79" r="0.89"/><circle class="cls-7" cx="400.35" cy="25.79" r="0.89"/><circle class="cls-7" cx="392.35" cy="25.79" r="0.89"/><circle class="cls-7" cx="384.36" cy="25.79" r="0.89"/><circle class="cls-7" cx="376.36" cy="25.79" r="0.89"/><circle class="cls-7" cx="464.3" cy="35.11" r="0.89"/><circle class="cls-7" cx="456.3" cy="35.11" r="0.89"/><circle class="cls-7" cx="448.31" cy="35.11" r="0.89"/><circle class="cls-7" cx="440.32" cy="35.11" r="0.89"/><circle class="cls-7" cx="432.32" cy="35.11" r="0.89"/><circle class="cls-7" cx="424.33" cy="35.11" r="0.89"/><circle class="cls-7" cx="416.33" cy="35.11" r="0.89"/><circle class="cls-7" cx="408.34" cy="35.11" r="0.89"/><circle class="cls-7" cx="400.35" cy="35.11" r="0.89"/><circle class="cls-7" cx="392.35" cy="35.11" r="0.89"/><circle class="cls-7" cx="384.36" cy="35.11" r="0.89"/><circle class="cls-7" cx="376.36" cy="35.11" r="0.89"/><circle class="cls-7" cx="464.3" cy="44.44" r="0.89"/><circle class="cls-7" cx="456.3" cy="44.44" r="0.89"/><circle class="cls-7" cx="448.31" cy="44.44" r="0.89"/><circle class="cls-7" cx="440.32" cy="44.44" r="0.89"/><circle class="cls-7" cx="432.32" cy="44.44" r="0.89"/><circle class="cls-7" cx="424.33" cy="44.44" r="0.89"/><circle class="cls-7" cx="416.33" cy="44.44" r="0.89"/><circle class="cls-7" cx="408.34" cy="44.44" r="0.89"/><circle class="cls-7" cx="400.35" cy="44.44" r="0.89"/><circle class="cls-7" cx="392.35" cy="44.44" r="0.89"/><circle class="cls-7" cx="384.36" cy="44.44" r="0.89"/><circle class="cls-7" cx="376.36" cy="44.44" r="0.89"/></g><g class="cls-6"><circle class="cls-7" cx="24.82" cy="252.66" r="0.89"/><circle class="cls-7" cx="24.82" cy="260.65" r="0.89"/><circle class="cls-7" cx="24.82" cy="268.65" r="0.89"/><circle class="cls-7" cx="24.82" cy="276.64" r="0.89"/><circle class="cls-7" cx="24.82" cy="284.63" r="0.89"/><circle class="cls-7" cx="24.82" cy="292.63" r="0.89"/><circle class="cls-7" cx="24.82" cy="300.62" r="0.89"/><circle class="cls-7" cx="24.82" cy="308.62" r="0.89"/><circle class="cls-7" cx="24.82" cy="316.61" r="0.89"/><circle class="cls-7" cx="24.82" cy="324.6" r="0.89"/><circle class="cls-7" cx="24.82" cy="332.6" r="0.89"/><circle class="cls-7" cx="24.82" cy="340.59" r="0.89"/><circle class="cls-7" cx="34.15" cy="252.66" r="0.89"/><circle class="cls-7" cx="34.15" cy="260.65" r="0.89"/><circle class="cls-7" cx="34.15" cy="268.65" r="0.89"/><circle class="cls-7" cx="34.15" cy="276.64" r="0.89"/><circle class="cls-7" cx="34.15" cy="284.63" r="0.89"/><circle class="cls-7" cx="34.15" cy="292.63" r="0.89"/><circle class="cls-7" cx="34.15" cy="300.62" r="0.89"/><circle class="cls-7" cx="34.15" cy="308.62" r="0.89"/><circle class="cls-7" cx="34.15" cy="316.61" r="0.89"/><circle class="cls-7" cx="34.15" cy="324.6" r="0.89"/><circle class="cls-7" cx="34.15" cy="332.6" r="0.89"/><circle class="cls-7" cx="34.15" cy="340.59" r="0.89"/><circle class="cls-7" cx="43.47" cy="252.66" r="0.89"/><circle class="cls-7" cx="43.47" cy="260.65" r="0.89"/><circle class="cls-7" cx="43.47" cy="268.65" r="0.89"/><circle class="cls-7" cx="43.47" cy="276.64" r="0.89"/><circle class="cls-7" cx="43.47" cy="284.63" r="0.89"/><circle class="cls-7" cx="43.47" cy="292.63" r="0.89"/><circle class="cls-7" cx="43.47" cy="300.62" r="0.89"/><circle class="cls-7" cx="43.47" cy="308.62" r="0.89"/><circle class="cls-7" cx="43.47" cy="316.61" r="0.89"/><circle class="cls-7" cx="43.47" cy="324.6" r="0.89"/><circle class="cls-7" cx="43.47" cy="332.6" r="0.89"/><circle class="cls-7" cx="43.47" cy="340.59" r="0.89"/></g><g class="cls-6"><circle class="cls-7" cx="480.68" cy="249.55" r="0.89"/><circle class="cls-7" cx="480.68" cy="257.54" r="0.89"/><circle class="cls-7" cx="480.68" cy="265.54" r="0.89"/><circle class="cls-7" cx="480.68" cy="273.53" r="0.89"/><circle class="cls-7" cx="490.01" cy="249.55" r="0.89"/><circle class="cls-7" cx="490.01" cy="257.54" r="0.89"/><circle class="cls-7" cx="490.01" cy="265.54" r="0.89"/><circle class="cls-7" cx="490.01" cy="273.53" r="0.89"/><circle class="cls-7" cx="499.33" cy="249.55" r="0.89"/><circle class="cls-7" cx="499.33" cy="257.54" r="0.89"/><circle class="cls-7" cx="499.33" cy="265.54" r="0.89"/><circle class="cls-7" cx="499.33" cy="273.53" r="0.89"/></g><g class="cls-6"><circle class="cls-7" cx="368.43" cy="354.01" r="0.89"/><circle class="cls-7" cx="376.42" cy="354.01" r="0.89"/><circle class="cls-7" cx="384.42" cy="354.01" r="0.89"/><circle class="cls-7" cx="392.41" cy="354.01" r="0.89"/><circle class="cls-7" cx="368.43" cy="344.68" r="0.89"/><circle class="cls-7" cx="376.42" cy="344.68" r="0.89"/><circle class="cls-7" cx="384.42" cy="344.68" r="0.89"/><circle class="cls-7" cx="392.41" cy="344.68" r="0.89"/><circle class="cls-7" cx="368.43" cy="335.35" r="0.89"/><circle class="cls-7" cx="376.42" cy="335.35" r="0.89"/><circle class="cls-7" cx="384.42" cy="335.35" r="0.89"/><circle class="cls-7" cx="392.41" cy="335.35" r="0.89"/></g><g class="cls-6"><circle class="cls-8" cx="19.83" cy="43.6" r="0.89"/><circle class="cls-8" cx="27.83" cy="43.6" r="0.89"/><circle class="cls-8" cx="35.82" cy="43.6" r="0.89"/><circle class="cls-8" cx="43.82" cy="43.6" r="0.89"/><circle class="cls-8" cx="19.83" cy="34.28" r="0.89"/><circle class="cls-8" cx="27.83" cy="34.28" r="0.89"/><circle class="cls-8" cx="35.82" cy="34.28" r="0.89"/><circle class="cls-8" cx="43.82" cy="34.28" r="0.89"/><circle class="cls-8" cx="19.83" cy="24.95" r="0.89"/><circle class="cls-8" cx="27.83" cy="24.95" r="0.89"/><circle class="cls-8" cx="35.82" cy="24.95" r="0.89"/><circle class="cls-8" cx="43.82" cy="24.95" r="0.89"/></g><g class="cls-6"><line class="cls-9" x1="462.34" y1="344.85" x2="455.79" y2="344.85"/><line class="cls-9" x1="459.07" y1="341.58" x2="459.07" y2="348.13"/></g><g class="cls-6"><line class="cls-9" x1="212.98" y1="37.75" x2="206.43" y2="37.75"/><line class="cls-9" x1="209.71" y1="34.47" x2="209.71" y2="41.03"/></g><g class="cls-6"><line class="cls-9" x1="95.2" y1="102.83" x2="88.65" y2="102.83"/><line class="cls-9" x1="91.93" y1="99.56" x2="91.93" y2="106.11"/></g><circle class="cls-10" cx="483.94" cy="142.32" r="5.01"/><circle class="cls-11" cx="44.43" cy="200.06" r="4.3"/><polygon class="cls-12" points="90.5 314.13 88.02 309.84 85.54 314.13 90.5 314.13"/><polygon class="cls-12" points="138.93 359.13 133.97 350.54 129.01 359.13 138.93 359.13"/><polygon class="cls-12" points="390.63 244.19 385.06 244.69 388.27 249.27 390.63 244.19"/><polygon class="cls-12" points="80.22 48.78 76.42 49.12 78.61 52.24 80.22 48.78"/><polygon class="cls-12" points="450.03 73.53 433.79 74.99 443.17 88.32 450.03 73.53"/><text class="cls-4" transform="translate(183.83 333.28)">Saintpaulia / African violet</text><g class="cls-6"><circle class="cls-7" cx="464.3" cy="25.79" r="0.89"/><circle class="cls-7" cx="456.3" cy="25.79" r="0.89"/><circle class="cls-7" cx="448.31" cy="25.79" r="0.89"/><circle class="cls-7" cx="440.32" cy="25.79" r="0.89"/><circle class="cls-7" cx="432.32" cy="25.79" r="0.89"/><circle class="cls-7" cx="424.33" cy="25.79" r="0.89"/><circle class="cls-7" cx="416.33" cy="25.79" r="0.89"/><circle class="cls-7" cx="408.34" cy="25.79" r="0.89"/><circle class="cls-7" cx="400.35" cy="25.79" r="0.89"/><circle class="cls-7" cx="392.35" cy="25.79" r="0.89"/><circle class="cls-7" cx="384.36" cy="25.79" r="0.89"/><circle class="cls-7" cx="376.36" cy="25.79" r="0.89"/><circle class="cls-7" cx="464.3" cy="35.11" r="0.89"/><circle class="cls-7" cx="456.3" cy="35.11" r="0.89"/><circle class="cls-7" cx="448.31" cy="35.11" r="0.89"/><circle class="cls-7" cx="440.32" cy="35.11" r="0.89"/><circle class="cls-7" cx="432.32" cy="35.11" r="0.89"/><circle class="cls-7" cx="424.33" cy="35.11" r="0.89"/><circle class="cls-7" cx="416.33" cy="35.11" r="0.89"/><circle class="cls-7" cx="408.34" cy="35.11" r="0.89"/><circle class="cls-7" cx="400.35" cy="35.11" r="0.89"/><circle class="cls-7" cx="392.35" cy="35.11" r="0.89"/><circle class="cls-7" cx="384.36" cy="35.11" r="0.89"/><circle class="cls-7" cx="376.36" cy="35.11" r="0.89"/><circle class="cls-7" cx="464.3" cy="44.44" r="0.89"/><circle class="cls-7" cx="456.3" cy="44.44" r="0.89"/><circle class="cls-7" cx="448.31" cy="44.44" r="0.89"/><circle class="cls-7" cx="440.32" cy="44.44" r="0.89"/><circle class="cls-7" cx="432.32" cy="44.44" r="0.89"/><circle class="cls-7" cx="424.33" cy="44.44" r="0.89"/><circle class="cls-7" cx="416.33" cy="44.44" r="0.89"/><circle class="cls-7" cx="408.34" cy="44.44" r="0.89"/><circle class="cls-7" cx="400.35" cy="44.44" r="0.89"/><circle class="cls-7" cx="392.35" cy="44.44" r="0.89"/><circle class="cls-7" cx="384.36" cy="44.44" r="0.89"/><circle class="cls-7" cx="376.36" cy="44.44" r="0.89"/></g><g class="cls-6"><circle class="cls-7" cx="24.82" cy="252.66" r="0.89"/><circle class="cls-7" cx="24.82" cy="260.65" r="0.89"/><circle class="cls-7" cx="24.82" cy="268.65" r="0.89"/><circle class="cls-7" cx="24.82" cy="276.64" r="0.89"/><circle class="cls-7" cx="24.82" cy="284.63" r="0.89"/><circle class="cls-7" cx="24.82" cy="292.63" r="0.89"/><circle class="cls-7" cx="24.82" cy="300.62" r="0.89"/><circle class="cls-7" cx="24.82" cy="308.62" r="0.89"/><circle class="cls-7" cx="24.82" cy="316.61" r="0.89"/><circle class="cls-7" cx="24.82" cy="324.6" r="0.89"/><circle class="cls-7" cx="24.82" cy="332.6" r="0.89"/><circle class="cls-7" cx="24.82" cy="340.59" r="0.89"/><circle class="cls-7" cx="34.15" cy="252.66" r="0.89"/><circle class="cls-7" cx="34.15" cy="260.65" r="0.89"/><circle class="cls-7" cx="34.15" cy="268.65" r="0.89"/><circle class="cls-7" cx="34.15" cy="276.64" r="0.89"/><circle class="cls-7" cx="34.15" cy="284.63" r="0.89"/><circle class="cls-7" cx="34.15" cy="292.63" r="0.89"/><circle class="cls-7" cx="34.15" cy="300.62" r="0.89"/><circle class="cls-7" cx="34.15" cy="308.62" r="0.89"/><circle class="cls-7" cx="34.15" cy="316.61" r="0.89"/><circle class="cls-7" cx="34.15" cy="324.6" r="0.89"/><circle class="cls-7" cx="34.15" cy="332.6" r="0.89"/><circle class="cls-7" cx="34.15" cy="340.59" r="0.89"/><circle class="cls-7" cx="43.47" cy="252.66" r="0.89"/><circle class="cls-7" cx="43.47" cy="260.65" r="0.89"/><circle class="cls-7" cx="43.47" cy="268.65" r="0.89"/><circle class="cls-7" cx="43.47" cy="276.64" r="0.89"/><circle class="cls-7" cx="43.47" cy="284.63" r="0.89"/><circle class="cls-7" cx="43.47" cy="292.63" r="0.89"/><circle class="cls-7" cx="43.47" cy="300.62" r="0.89"/><circle class="cls-7" cx="43.47" cy="308.62" r="0.89"/><circle class="cls-7" cx="43.47" cy="316.61" r="0.89"/><circle class="cls-7" cx="43.47" cy="324.6" r="0.89"/><circle class="cls-7" cx="43.47" cy="332.6" r="0.89"/><circle class="cls-7" cx="43.47" cy="340.59" r="0.89"/></g><g class="cls-6"><circle class="cls-7" cx="480.68" cy="249.55" r="0.89"/><circle class="cls-7" cx="480.68" cy="257.54" r="0.89"/><circle class="cls-7" cx="480.68" cy="265.54" r="0.89"/><circle class="cls-7" cx="480.68" cy="273.53" r="0.89"/><circle class="cls-7" cx="490.01" cy="249.55" r="0.89"/><circle class="cls-7" cx="490.01" cy="257.54" r="0.89"/><circle class="cls-7" cx="490.01" cy="265.54" r="0.89"/><circle class="cls-7" cx="490.01" cy="273.53" r="0.89"/><circle class="cls-7" cx="499.33" cy="249.55" r="0.89"/><circle class="cls-7" cx="499.33" cy="257.54" r="0.89"/><circle class="cls-7" cx="499.33" cy="265.54" r="0.89"/><circle class="cls-7" cx="499.33" cy="273.53" r="0.89"/></g><g class="cls-6"><circle class="cls-7" cx="368.43" cy="354.01" r="0.89"/><circle class="cls-7" cx="376.42" cy="354.01" r="0.89"/><circle class="cls-7" cx="384.42" cy="354.01" r="0.89"/><circle class="cls-7" cx="392.41" cy="354.01" r="0.89"/><circle class="cls-7" cx="368.43" cy="344.68" r="0.89"/><circle class="cls-7" cx="376.42" cy="344.68" r="0.89"/><circle class="cls-7" cx="384.42" cy="344.68" r="0.89"/><circle class="cls-7" cx="392.41" cy="344.68" r="0.89"/><circle class="cls-7" cx="368.43" cy="335.35" r="0.89"/><circle class="cls-7" cx="376.42" cy="335.35" r="0.89"/><circle class="cls-7" cx="384.42" cy="335.35" r="0.89"/><circle class="cls-7" cx="392.41" cy="335.35" r="0.89"/></g><g class="cls-6"><circle class="cls-8" cx="19.83" cy="43.6" r="0.89"/><circle class="cls-8" cx="27.83" cy="43.6" r="0.89"/><circle class="cls-8" cx="35.82" cy="43.6" r="0.89"/><circle class="cls-8" cx="43.82" cy="43.6" r="0.89"/><circle class="cls-8" cx="19.83" cy="34.28" r="0.89"/><circle class="cls-8" cx="27.83" cy="34.28" r="0.89"/><circle class="cls-8" cx="35.82" cy="34.28" r="0.89"/><circle class="cls-8" cx="43.82" cy="34.28" r="0.89"/><circle class="cls-8" cx="19.83" cy="24.95" r="0.89"/><circle class="cls-8" cx="27.83" cy="24.95" r="0.89"/><circle class="cls-8" cx="35.82" cy="24.95" r="0.89"/><circle class="cls-8" cx="43.82" cy="24.95" r="0.89"/></g><g class="cls-6"><line class="cls-9" x1="462.34" y1="344.85" x2="455.79" y2="344.85"/><line class="cls-9" x1="459.07" y1="341.58" x2="459.07" y2="348.13"/></g><g class="cls-6"><line class="cls-9" x1="212.98" y1="37.75" x2="206.43" y2="37.75"/><line class="cls-9" x1="209.71" y1="34.47" x2="209.71" y2="41.03"/></g><g class="cls-6"><line class="cls-9" x1="95.2" y1="102.83" x2="88.65" y2="102.83"/><line class="cls-9" x1="91.93" y1="99.56" x2="91.93" y2="106.11"/></g><circle class="cls-10" cx="483.94" cy="142.32" r="5.01"/><circle class="cls-11" cx="44.43" cy="200.06" r="4.3"/><polygon class="cls-12" points="90.5 314.13 88.02 309.84 85.54 314.13 90.5 314.13"/><polygon class="cls-12" points="138.93 359.13 133.97 350.54 129.01 359.13 138.93 359.13"/><polygon class="cls-12" points="390.63 244.19 385.06 244.69 388.27 249.27 390.63 244.19"/><polygon class="cls-12" points="80.22 48.78 76.42 49.12 78.61 52.24 80.22 48.78"/><polygon class="cls-12" points="450.03 73.53 433.79 74.99 443.17 88.32 450.03 73.53"/><text class="cls-4" transform="translate(183.83 333.28)">Saintpaulia / African violet</text><g class="cls-6"><circle class="cls-7" cx="464.3" cy="25.79" r="0.89"/><circle class="cls-7" cx="456.3" cy="25.79" r="0.89"/><circle class="cls-7" cx="448.31" cy="25.79" r="0.89"/><circle class="cls-7" cx="440.32" cy="25.79" r="0.89"/><circle class="cls-7" cx="432.32" cy="25.79" r="0.89"/><circle class="cls-7" cx="424.33" cy="25.79" r="0.89"/><circle class="cls-7" cx="416.33" cy="25.79" r="0.89"/><circle class="cls-7" cx="408.34" cy="25.79" r="0.89"/><circle class="cls-7" cx="400.35" cy="25.79" r="0.89"/><circle class="cls-7" cx="392.35" cy="25.79" r="0.89"/><circle class="cls-7" cx="384.36" cy="25.79" r="0.89"/><circle class="cls-7" cx="376.36" cy="25.79" r="0.89"/><circle class="cls-7" cx="464.3" cy="35.11" r="0.89"/><circle class="cls-7" cx="456.3" cy="35.11" r="0.89"/><circle class="cls-7" cx="448.31" cy="35.11" r="0.89"/><circle class="cls-7" cx="440.32" cy="35.11" r="0.89"/><circle class="cls-7" cx="432.32" cy="35.11" r="0.89"/><circle class="cls-7" cx="424.33" cy="35.11" r="0.89"/><circle class="cls-7" cx="416.33" cy="35.11" r="0.89"/><circle class="cls-7" cx="408.34" cy="35.11" r="0.89"/><circle class="cls-7" cx="400.35" cy="35.11" r="0.89"/><circle class="cls-7" cx="392.35" cy="35.11" r="0.89"/><circle class="cls-7" cx="384.36" cy="35.11" r="0.89"/><circle class="cls-7" cx="376.36" cy="35.11" r="0.89"/><circle class="cls-7" cx="464.3" cy="44.44" r="0.89"/><circle class="cls-7" cx="456.3" cy="44.44" r="0.89"/><circle class="cls-7" cx="448.31" cy="44.44" r="0.89"/><circle class="cls-7" cx="440.32" cy="44.44" r="0.89"/><circle class="cls-7" cx="432.32" cy="44.44" r="0.89"/><circle class="cls-7" cx="424.33" cy="44.44" r="0.89"/><circle class="cls-7" cx="416.33" cy="44.44" r="0.89"/><circle class="cls-7" cx="408.34" cy="44.44" r="0.89"/><circle class="cls-7" cx="400.35" cy="44.44" r="0.89"/><circle class="cls-7" cx="392.35" cy="44.44" r="0.89"/><circle class="cls-7" cx="384.36" cy="44.44" r="0.89"/><circle class="cls-7" cx="376.36" cy="44.44" r="0.89"/></g><g class="cls-6"><circle class="cls-7" cx="24.82" cy="252.66" r="0.89"/><circle class="cls-7" cx="24.82" cy="260.65" r="0.89"/><circle class="cls-7" cx="24.82" cy="268.65" r="0.89"/><circle class="cls-7" cx="24.82" cy="276.64" r="0.89"/><circle class="cls-7" cx="24.82" cy="284.63" r="0.89"/><circle class="cls-7" cx="24.82" cy="292.63" r="0.89"/><circle class="cls-7" cx="24.82" cy="300.62" r="0.89"/><circle class="cls-7" cx="24.82" cy="308.62" r="0.89"/><circle class="cls-7" cx="24.82" cy="316.61" r="0.89"/><circle class="cls-7" cx="24.82" cy="324.6" r="0.89"/><circle class="cls-7" cx="24.82" cy="332.6" r="0.89"/><circle class="cls-7" cx="24.82" cy="340.59" r="0.89"/><circle class="cls-7" cx="34.15" cy="252.66" r="0.89"/><circle class="cls-7" cx="34.15" cy="260.65" r="0.89"/><circle class="cls-7" cx="34.15" cy="268.65" r="0.89"/><circle class="cls-7" cx="34.15" cy="276.64" r="0.89"/><circle class="cls-7" cx="34.15" cy="284.63" r="0.89"/><circle class="cls-7" cx="34.15" cy="292.63" r="0.89"/><circle class="cls-7" cx="34.15" cy="300.62" r="0.89"/><circle class="cls-7" cx="34.15" cy="308.62" r="0.89"/><circle class="cls-7" cx="34.15" cy="316.61" r="0.89"/><circle class="cls-7" cx="34.15" cy="324.6" r="0.89"/><circle class="cls-7" cx="34.15" cy="332.6" r="0.89"/><circle class="cls-7" cx="34.15" cy="340.59" r="0.89"/><circle class="cls-7" cx="43.47" cy="252.66" r="0.89"/><circle class="cls-7" cx="43.47" cy="260.65" r="0.89"/><circle class="cls-7" cx="43.47" cy="268.65" r="0.89"/><circle class="cls-7" cx="43.47" cy="276.64" r="0.89"/><circle class="cls-7" cx="43.47" cy="284.63" r="0.89"/><circle class="cls-7" cx="43.47" cy="292.63" r="0.89"/><circle class="cls-7" cx="43.47" cy="300.62" r="0.89"/><circle class="cls-7" cx="43.47" cy="308.62" r="0.89"/><circle class="cls-7" cx="43.47" cy="316.61" r="0.89"/><circle class="cls-7" cx="43.47" cy="324.6" r="0.89"/><circle class="cls-7" cx="43.47" cy="332.6" r="0.89"/><circle class="cls-7" cx="43.47" cy="340.59" r="0.89"/></g><g class="cls-6"><circle class="cls-7" cx="480.68" cy="249.55" r="0.89"/><circle class="cls-7" cx="480.68" cy="257.54" r="0.89"/><circle class="cls-7" cx="480.68" cy="265.54" r="0.89"/><circle class="cls-7" cx="480.68" cy="273.53" r="0.89"/><circle class="cls-7" cx="490.01" cy="249.55" r="0.89"/><circle class="cls-7" cx="490.01" cy="257.54" r="0.89"/><circle class="cls-7" cx="490.01" cy="265.54" r="0.89"/><circle class="cls-7" cx="490.01" cy="273.53" r="0.89"/><circle class="cls-7" cx="499.33" cy="249.55" r="0.89"/><circle class="cls-7" cx="499.33" cy="257.54" r="0.89"/><circle class="cls-7" cx="499.33" cy="265.54" r="0.89"/><circle class="cls-7" cx="499.33" cy="273.53" r="0.89"/></g><g class="cls-6"><circle class="cls-7" cx="368.43" cy="354.01" r="0.89"/><circle class="cls-7" cx="376.42" cy="354.01" r="0.89"/><circle class="cls-7" cx="384.42" cy="354.01" r="0.89"/><circle class="cls-7" cx="392.41" cy="354.01" r="0.89"/><circle class="cls-7" cx="368.43" cy="344.68" r="0.89"/><circle class="cls-7" cx="376.42" cy="344.68" r="0.89"/><circle class="cls-7" cx="384.42" cy="344.68" r="0.89"/><circle class="cls-7" cx="392.41" cy="344.68" r="0.89"/><circle class="cls-7" cx="368.43" cy="335.35" r="0.89"/><circle class="cls-7" cx="376.42" cy="335.35" r="0.89"/><circle class="cls-7" cx="384.42" cy="335.35" r="0.89"/><circle class="cls-7" cx="392.41" cy="335.35" r="0.89"/></g><g class="cls-6"><circle class="cls-8" cx="19.83" cy="43.6" r="0.89"/><circle class="cls-8" cx="27.83" cy="43.6" r="0.89"/><circle class="cls-8" cx="35.82" cy="43.6" r="0.89"/><circle class="cls-8" cx="43.82" cy="43.6" r="0.89"/><circle class="cls-8" cx="19.83" cy="34.28" r="0.89"/><circle class="cls-8" cx="27.83" cy="34.28" r="0.89"/><circle class="cls-8" cx="35.82" cy="34.28" r="0.89"/><circle class="cls-8" cx="43.82" cy="34.28" r="0.89"/><circle class="cls-8" cx="19.83" cy="24.95" r="0.89"/><circle class="cls-8" cx="27.83" cy="24.95" r="0.89"/><circle class="cls-8" cx="35.82" cy="24.95" r="0.89"/><circle class="cls-8" cx="43.82" cy="24.95" r="0.89"/></g><g class="cls-6"><line class="cls-9" x1="462.34" y1="344.85" x2="455.79" y2="344.85"/><line class="cls-9" x1="459.07" y1="341.58" x2="459.07" y2="348.13"/></g><g class="cls-6"><line class="cls-9" x1="212.98" y1="37.75" x2="206.43" y2="37.75"/><line class="cls-9" x1="209.71" y1="34.47" x2="209.71" y2="41.03"/></g><g class="cls-6"><line class="cls-9" x1="95.2" y1="102.83" x2="88.65" y2="102.83"/><line class="cls-9" x1="91.93" y1="99.56" x2="91.93" y2="106.11"/></g><circle class="cls-10" cx="483.94" cy="142.32" r="5.01"/><circle class="cls-11" cx="44.43" cy="200.06" r="4.3"/><polygon class="cls-12" points="90.5 314.13 88.02 309.84 85.54 314.13 90.5 314.13"/><polygon class="cls-12" points="138.93 359.13 133.97 350.54 129.01 359.13 138.93 359.13"/><polygon class="cls-12" points="390.63 244.19 385.06 244.69 388.27 249.27 390.63 244.19"/><polygon class="cls-12" points="80.22 48.78 76.42 49.12 78.61 52.24 80.22 48.78"/><polygon class="cls-12" points="450.03 73.53 433.79 74.99 443.17 88.32 450.03 73.53"/><text class="cls-4" transform="translate(183.83 333.28)">Saintpaulia / African violet</text><g class="cls-6"><circle class="cls-7" cx="464.3" cy="25.79" r="0.89"/><circle class="cls-7" cx="456.3" cy="25.79" r="0.89"/><circle class="cls-7" cx="448.31" cy="25.79" r="0.89"/><circle class="cls-7" cx="440.32" cy="25.79" r="0.89"/><circle class="cls-7" cx="432.32" cy="25.79" r="0.89"/><circle class="cls-7" cx="424.33" cy="25.79" r="0.89"/><circle class="cls-7" cx="416.33" cy="25.79" r="0.89"/><circle class="cls-7" cx="408.34" cy="25.79" r="0.89"/><circle class="cls-7" cx="400.35" cy="25.79" r="0.89"/><circle class="cls-7" cx="392.35" cy="25.79" r="0.89"/><circle class="cls-7" cx="384.36" cy="25.79" r="0.89"/><circle class="cls-7" cx="376.36" cy="25.79" r="0.89"/><circle class="cls-7" cx="464.3" cy="35.11" r="0.89"/><circle class="cls-7" cx="456.3" cy="35.11" r="0.89"/><circle class="cls-7" cx="448.31" cy="35.11" r="0.89"/><circle class="cls-7" cx="440.32" cy="35.11" r="0.89"/><circle class="cls-7" cx="432.32" cy="35.11" r="0.89"/><circle class="cls-7" cx="424.33" cy="35.11" r="0.89"/><circle class="cls-7" cx="416.33" cy="35.11" r="0.89"/><circle class="cls-7" cx="408.34" cy="35.11" r="0.89"/><circle class="cls-7" cx="400.35" cy="35.11" r="0.89"/><circle class="cls-7" cx="392.35" cy="35.11" r="0.89"/><circle class="cls-7" cx="384.36" cy="35.11" r="0.89"/><circle class="cls-7" cx="376.36" cy="35.11" r="0.89"/><circle class="cls-7" cx="464.3" cy="44.44" r="0.89"/><circle class="cls-7" cx="456.3" cy="44.44" r="0.89"/><circle class="cls-7" cx="448.31" cy="44.44" r="0.89"/><circle class="cls-7" cx="440.32" cy="44.44" r="0.89"/><circle class="cls-7" cx="432.32" cy="44.44" r="0.89"/><circle class="cls-7" cx="424.33" cy="44.44" r="0.89"/><circle class="cls-7" cx="416.33" cy="44.44" r="0.89"/><circle class="cls-7" cx="408.34" cy="44.44" r="0.89"/><circle class="cls-7" cx="400.35" cy="44.44" r="0.89"/><circle class="cls-7" cx="392.35" cy="44.44" r="0.89"/><circle class="cls-7" cx="384.36" cy="44.44" r="0.89"/><circle class="cls-7" cx="376.36" cy="44.44" r="0.89"/></g><g class="cls-6"><circle class="cls-7" cx="24.82" cy="252.66" r="0.89"/><circle class="cls-7" cx="24.82" cy="260.65" r="0.89"/><circle class="cls-7" cx="24.82" cy="268.65" r="0.89"/><circle class="cls-7" cx="24.82" cy="276.64" r="0.89"/><circle class="cls-7" cx="24.82" cy="284.63" r="0.89"/><circle class="cls-7" cx="24.82" cy="292.63" r="0.89"/><circle class="cls-7" cx="24.82" cy="300.62" r="0.89"/><circle class="cls-7" cx="24.82" cy="308.62" r="0.89"/><circle class="cls-7" cx="24.82" cy="316.61" r="0.89"/><circle class="cls-7" cx="24.82" cy="324.6" r="0.89"/><circle class="cls-7" cx="24.82" cy="332.6" r="0.89"/><circle class="cls-7" cx="24.82" cy="340.59" r="0.89"/><circle class="cls-7" cx="34.15" cy="252.66" r="0.89"/><circle class="cls-7" cx="34.15" cy="260.65" r="0.89"/><circle class="cls-7" cx="34.15" cy="268.65" r="0.89"/><circle class="cls-7" cx="34.15" cy="276.64" r="0.89"/><circle class="cls-7" cx="34.15" cy="284.63" r="0.89"/><circle class="cls-7" cx="34.15" cy="292.63" r="0.89"/><circle class="cls-7" cx="34.15" cy="300.62" r="0.89"/><circle class="cls-7" cx="34.15" cy="308.62" r="0.89"/><circle class="cls-7" cx="34.15" cy="316.61" r="0.89"/><circle class="cls-7" cx="34.15" cy="324.6" r="0.89"/><circle class="cls-7" cx="34.15" cy="332.6" r="0.89"/><circle class="cls-7" cx="34.15" cy="340.59" r="0.89"/><circle class="cls-7" cx="43.47" cy="252.66" r="0.89"/><circle class="cls-7" cx="43.47" cy="260.65" r="0.89"/><circle class="cls-7" cx="43.47" cy="268.65" r="0.89"/><circle class="cls-7" cx="43.47" cy="276.64" r="0.89"/><circle class="cls-7" cx="43.47" cy="284.63" r="0.89"/><circle class="cls-7" cx="43.47" cy="292.63" r="0.89"/><circle class="cls-7" cx="43.47" cy="300.62" r="0.89"/><circle class="cls-7" cx="43.47" cy="308.62" r="0.89"/><circle class="cls-7" cx="43.47" cy="316.61" r="0.89"/><circle class="cls-7" cx="43.47" cy="324.6" r="0.89"/><circle class="cls-7" cx="43.47" cy="332.6" r="0.89"/><circle class="cls-7" cx="43.47" cy="340.59" r="0.89"/></g><g class="cls-6"><circle class="cls-7" cx="480.68" cy="249.55" r="0.89"/><circle class="cls-7" cx="480.68" cy="257.54" r="0.89"/><circle class="cls-7" cx="480.68" cy="265.54" r="0.89"/><circle class="cls-7" cx="480.68" cy="273.53" r="0.89"/><circle class="cls-7" cx="490.01" cy="249.55" r="0.89"/><circle class="cls-7" cx="490.01" cy="257.54" r="0.89"/><circle class="cls-7" cx="490.01" cy="265.54" r="0.89"/><circle class="cls-7" cx="490.01" cy="273.53" r="0.89"/><circle class="cls-7" cx="499.33" cy="249.55" r="0.89"/><circle class="cls-7" cx="499.33" cy="257.54" r="0.89"/><circle class="cls-7" cx="499.33" cy="265.54" r="0.89"/><circle class="cls-7" cx="499.33" cy="273.53" r="0.89"/></g><g class="cls-6"><circle class="cls-7" cx="368.43" cy="354.01" r="0.89"/><circle class="cls-7" cx="376.42" cy="354.01" r="0.89"/><circle class="cls-7" cx="384.42" cy="354.01" r="0.89"/><circle class="cls-7" cx="392.41" cy="354.01" r="0.89"/><circle class="cls-7" cx="368.43" cy="344.68" r="0.89"/><circle class="cls-7" cx="376.42" cy="344.68" r="0.89"/><circle class="cls-7" cx="384.42" cy="344.68" r="0.89"/><circle class="cls-7" cx="392.41" cy="344.68" r="0.89"/><circle class="cls-7" cx="368.43" cy="335.35" r="0.89"/><circle class="cls-7" cx="376.42" cy="335.35" r="0.89"/><circle class="cls-7" cx="384.42" cy="335.35" r="0.89"/><circle class="cls-7" cx="392.41" cy="335.35" r="0.89"/></g><g class="cls-6"><circle class="cls-8" cx="19.83" cy="43.6" r="0.89"/><circle class="cls-8" cx="27.83" cy="43.6" r="0.89"/><circle class="cls-8" cx="35.82" cy="43.6" r="0.89"/><circle class="cls-8" cx="43.82" cy="43.6" r="0.89"/><circle class="cls-8" cx="19.83" cy="34.28" r="0.89"/><circle class="cls-8" cx="27.83" cy="34.28" r="0.89"/><circle class="cls-8" cx="35.82" cy="34.28" r="0.89"/><circle class="cls-8" cx="43.82" cy="34.28" r="0.89"/><circle class="cls-8" cx="19.83" cy="24.95" r="0.89"/><circle class="cls-8" cx="27.83" cy="24.95" r="0.89"/><circle class="cls-8" cx="35.82" cy="24.95" r="0.89"/><circle class="cls-8" cx="43.82" cy="24.95" r="0.89"/></g><g class="cls-6"><line class="cls-9" x1="462.34" y1="344.85" x2="455.79" y2="344.85"/><line class="cls-9" x1="459.07" y1="341.58" x2="459.07" y2="348.13"/></g><g class="cls-6"><line class="cls-9" x1="212.98" y1="37.75" x2="206.43" y2="37.75"/><line class="cls-9" x1="209.71" y1="34.47" x2="209.71" y2="41.03"/></g><g class="cls-6"><line class="cls-9" x1="95.2" y1="102.83" x2="88.65" y2="102.83"/><line class="cls-9" x1="91.93" y1="99.56" x2="91.93" y2="106.11"/></g><circle class="cls-10" cx="483.94" cy="142.32" r="5.01"/><circle class="cls-11" cx="44.43" cy="200.06" r="4.3"/><polygon class="cls-12" points="90.5 314.13 88.02 309.84 85.54 314.13 90.5 314.13"/><polygon class="cls-12" points="138.93 359.13 133.97 350.54 129.01 359.13 138.93 359.13"/><polygon class="cls-12" points="390.63 244.19 385.06 244.69 388.27 249.27 390.63 244.19"/><polygon class="cls-12" points="80.22 48.78 76.42 49.12 78.61 52.24 80.22 48.78"/><polygon class="cls-12" points="450.03 73.53 433.79 74.99 443.17 88.32 450.03 73.53"/></g></g></svg>