<?xml version="1.0" encoding="utf-8"?>
<!-- Generator: Adobe Illustrator 21.0.0, SVG Export Plug-In . SVG Version: 6.00 Build 0)  -->
<svg version="1.1" id="Layer_1" xmlns="http://www.w3.org/2000/svg" xmlns:xlink="http://www.w3.org/1999/xlink" x="0px" y="0px"
	 viewBox="0 0 517 220" style="enable-background:new 0 0 517 220;" xml:space="preserve">
<style type="text/css">
	.st0{fill:#B2B1B6;}
	.st1{fill:#FFFFFF;}
	.st2{fill:#FFFFFF;stroke:#FFFFFF;stroke-width:9.000000e-02;stroke-miterlimit:10;}
	.st3{fill:none;stroke:#FFFFFF;stroke-width:1.11;stroke-linecap:round;stroke-miterlimit:10;}
	.st4{fill:#FCFBFA;}
	.st5{font-family:'Lato-Bold';}
	.st6{font-size:10.18px;}
	.st7{fill:#201600;}
	.st8{font-size:6.12px;}
</style>
<title>image</title>
<rect class="st0" width="517" height="220"/>
<g>
	<circle class="st1" cx="462.5" cy="144.1" r="0.6"/>
	<circle class="st1" cx="462.5" cy="149.1" r="0.6"/>
	<circle class="st1" cx="462.5" cy="154.2" r="0.6"/>
	<circle class="st1" cx="462.5" cy="159.2" r="0.6"/>
	<circle class="st1" cx="468.4" cy="144.1" r="0.6"/>
	<circle class="st1" cx="468.4" cy="149.1" r="0.6"/>
	<circle class="st1" cx="468.4" cy="154.2" r="0.6"/>
	<circle class="st1" cx="468.4" cy="159.2" r="0.6"/>
	<circle class="st1" cx="474.3" cy="144.1" r="0.6"/>
	<circle class="st1" cx="474.3" cy="149.1" r="0.6"/>
	<circle class="st1" cx="474.3" cy="154.2" r="0.6"/>
	<circle class="st1" cx="474.3" cy="159.2" r="0.6"/>
</g>
<g>
	<circle class="st1" cx="391.6" cy="200" r="0.6"/>
	<circle class="st1" cx="396.6" cy="200" r="0.6"/>
	<circle class="st1" cx="401.7" cy="200" r="0.6"/>
	<circle class="st1" cx="406.7" cy="200" r="0.6"/>
	<circle class="st1" cx="391.6" cy="194.1" r="0.6"/>
	<circle class="st1" cx="396.6" cy="194.1" r="0.6"/>
	<circle class="st1" cx="401.7" cy="194.1" r="0.6"/>
	<circle class="st1" cx="406.7" cy="194.1" r="0.6"/>
	<circle class="st1" cx="391.6" cy="188.2" r="0.6"/>
	<circle class="st1" cx="396.6" cy="188.2" r="0.6"/>
	<circle class="st1" cx="401.7" cy="188.2" r="0.6"/>
	<circle class="st1" cx="406.7" cy="188.2" r="0.6"/>
</g>
<g>
	<circle class="st2" cx="42.7" cy="25" r="0.6"/>
	<circle class="st2" cx="47.7" cy="25" r="0.6"/>
	<circle class="st2" cx="52.8" cy="25" r="0.6"/>
	<circle class="st2" cx="57.8" cy="25" r="0.6"/>
	<circle class="st2" cx="42.7" cy="19.1" r="0.6"/>
	<circle class="st2" cx="47.7" cy="19.1" r="0.6"/>
	<circle class="st2" cx="52.8" cy="19.1" r="0.6"/>
	<circle class="st2" cx="57.8" cy="19.1" r="0.6"/>
	<circle class="st2" cx="42.7" cy="13.2" r="0.6"/>
	<circle class="st2" cx="47.7" cy="13.2" r="0.6"/>
	<circle class="st2" cx="52.8" cy="13.2" r="0.6"/>
	<circle class="st2" cx="57.8" cy="13.2" r="0.6"/>
</g>
<g>
	<line class="st3" x1="450.9" y1="194.2" x2="446.8" y2="194.2"/>
	<line class="st3" x1="448.9" y1="192.1" x2="448.9" y2="196.3"/>
</g>
<g>
	<line class="st3" x1="207.7" y1="31.1" x2="203.5" y2="31.1"/>
	<line class="st3" x1="205.6" y1="29" x2="205.6" y2="33.2"/>
</g>
<g>
	<line class="st3" x1="120.5" y1="61" x2="116.3" y2="61"/>
	<line class="st3" x1="118.4" y1="58.9" x2="118.4" y2="63.1"/>
</g>
<polygon class="st1" points="405.6,140.7 402.1,141 404.1,143.9 "/>
<polygon class="st1" points="80.9,28.3 78.4,28.5 79.8,30.5 "/>
<g>
	<circle class="st1" cx="462.5" cy="144.1" r="0.6"/>
	<circle class="st1" cx="462.5" cy="149.1" r="0.6"/>
	<circle class="st1" cx="462.5" cy="154.2" r="0.6"/>
	<circle class="st1" cx="462.5" cy="159.2" r="0.6"/>
	<circle class="st1" cx="468.4" cy="144.1" r="0.6"/>
	<circle class="st1" cx="468.4" cy="149.1" r="0.6"/>
	<circle class="st1" cx="468.4" cy="154.2" r="0.6"/>
	<circle class="st1" cx="468.4" cy="159.2" r="0.6"/>
	<circle class="st1" cx="474.3" cy="144.1" r="0.6"/>
	<circle class="st1" cx="474.3" cy="149.1" r="0.6"/>
	<circle class="st1" cx="474.3" cy="154.2" r="0.6"/>
	<circle class="st1" cx="474.3" cy="159.2" r="0.6"/>
</g>
<g>
	<circle class="st1" cx="391.6" cy="200" r="0.6"/>
	<circle class="st1" cx="396.6" cy="200" r="0.6"/>
	<circle class="st1" cx="401.7" cy="200" r="0.6"/>
	<circle class="st1" cx="406.7" cy="200" r="0.6"/>
	<circle class="st1" cx="391.6" cy="194.1" r="0.6"/>
	<circle class="st1" cx="396.6" cy="194.1" r="0.6"/>
	<circle class="st1" cx="401.7" cy="194.1" r="0.6"/>
	<circle class="st1" cx="406.7" cy="194.1" r="0.6"/>
	<circle class="st1" cx="391.6" cy="188.2" r="0.6"/>
	<circle class="st1" cx="396.6" cy="188.2" r="0.6"/>
	<circle class="st1" cx="401.7" cy="188.2" r="0.6"/>
	<circle class="st1" cx="406.7" cy="188.2" r="0.6"/>
</g>
<g>
	<circle class="st2" cx="42.7" cy="25" r="0.6"/>
	<circle class="st2" cx="47.7" cy="25" r="0.6"/>
	<circle class="st2" cx="52.8" cy="25" r="0.6"/>
	<circle class="st2" cx="57.8" cy="25" r="0.6"/>
	<circle class="st2" cx="42.7" cy="19.1" r="0.6"/>
	<circle class="st2" cx="47.7" cy="19.1" r="0.6"/>
	<circle class="st2" cx="52.8" cy="19.1" r="0.6"/>
	<circle class="st2" cx="57.8" cy="19.1" r="0.6"/>
	<circle class="st2" cx="42.7" cy="13.2" r="0.6"/>
	<circle class="st2" cx="47.7" cy="13.2" r="0.6"/>
	<circle class="st2" cx="52.8" cy="13.2" r="0.6"/>
	<circle class="st2" cx="57.8" cy="13.2" r="0.6"/>
</g>
<g>
	<line class="st3" x1="450.9" y1="194.2" x2="446.8" y2="194.2"/>
	<line class="st3" x1="448.9" y1="192.1" x2="448.9" y2="196.3"/>
</g>
<g>
	<line class="st3" x1="207.7" y1="31.1" x2="203.5" y2="31.1"/>
	<line class="st3" x1="205.6" y1="29" x2="205.6" y2="33.2"/>
</g>
<g>
	<line class="st3" x1="120.5" y1="61" x2="116.3" y2="61"/>
	<line class="st3" x1="118.4" y1="58.9" x2="118.4" y2="63.1"/>
</g>
<polygon class="st1" points="405.6,140.7 402.1,141 404.1,143.9 "/>
<polygon class="st1" points="80.9,28.3 78.4,28.5 79.8,30.5 "/>
<g>
	<circle class="st1" cx="462.5" cy="144.1" r="0.6"/>
	<circle class="st1" cx="462.5" cy="149.1" r="0.6"/>
	<circle class="st1" cx="462.5" cy="154.2" r="0.6"/>
	<circle class="st1" cx="462.5" cy="159.2" r="0.6"/>
	<circle class="st1" cx="468.4" cy="144.1" r="0.6"/>
	<circle class="st1" cx="468.4" cy="149.1" r="0.6"/>
	<circle class="st1" cx="468.4" cy="154.2" r="0.6"/>
	<circle class="st1" cx="468.4" cy="159.2" r="0.6"/>
	<circle class="st1" cx="474.3" cy="144.1" r="0.6"/>
	<circle class="st1" cx="474.3" cy="149.1" r="0.6"/>
	<circle class="st1" cx="474.3" cy="154.2" r="0.6"/>
	<circle class="st1" cx="474.3" cy="159.2" r="0.6"/>
</g>
<g>
	<circle class="st1" cx="391.6" cy="200" r="0.6"/>
	<circle class="st1" cx="396.6" cy="200" r="0.6"/>
	<circle class="st1" cx="401.7" cy="200" r="0.6"/>
	<circle class="st1" cx="406.7" cy="200" r="0.6"/>
	<circle class="st1" cx="391.6" cy="194.1" r="0.6"/>
	<circle class="st1" cx="396.6" cy="194.1" r="0.6"/>
	<circle class="st1" cx="401.7" cy="194.1" r="0.6"/>
	<circle class="st1" cx="406.7" cy="194.1" r="0.6"/>
	<circle class="st1" cx="391.6" cy="188.2" r="0.6"/>
	<circle class="st1" cx="396.6" cy="188.2" r="0.6"/>
	<circle class="st1" cx="401.7" cy="188.2" r="0.6"/>
	<circle class="st1" cx="406.7" cy="188.2" r="0.6"/>
</g>
<g>
	<circle class="st2" cx="42.7" cy="25" r="0.6"/>
	<circle class="st2" cx="47.7" cy="25" r="0.6"/>
	<circle class="st2" cx="52.8" cy="25" r="0.6"/>
	<circle class="st2" cx="57.8" cy="25" r="0.6"/>
	<circle class="st2" cx="42.7" cy="19.1" r="0.6"/>
	<circle class="st2" cx="47.7" cy="19.1" r="0.6"/>
	<circle class="st2" cx="52.8" cy="19.1" r="0.6"/>
	<circle class="st2" cx="57.8" cy="19.1" r="0.6"/>
	<circle class="st2" cx="42.7" cy="13.2" r="0.6"/>
	<circle class="st2" cx="47.7" cy="13.2" r="0.6"/>
	<circle class="st2" cx="52.8" cy="13.2" r="0.6"/>
	<circle class="st2" cx="57.8" cy="13.2" r="0.6"/>
</g>
<g>
	<line class="st3" x1="450.9" y1="194.2" x2="446.8" y2="194.2"/>
	<line class="st3" x1="448.9" y1="192.1" x2="448.9" y2="196.3"/>
</g>
<g>
	<line class="st3" x1="207.7" y1="31.1" x2="203.5" y2="31.1"/>
	<line class="st3" x1="205.6" y1="29" x2="205.6" y2="33.2"/>
</g>
<g>
	<line class="st3" x1="120.5" y1="61" x2="116.3" y2="61"/>
	<line class="st3" x1="118.4" y1="58.9" x2="118.4" y2="63.1"/>
</g>
<polygon class="st1" points="405.6,140.7 402.1,141 404.1,143.9 "/>
<polygon class="st1" points="80.9,28.3 78.4,28.5 79.8,30.5 "/>
<text transform="matrix(1 0 0 1 207.6799 184.77)" class="st4 st5 st6"> Air Plants / Tillandsia</text>
<text transform="matrix(1 0 0 1 230.95 199.55)" class="st7 st5 st8">@Purple Shamrock</text>
<path class="st7" d="M219.5,102.1c24.4,1.1,49.3,3.4,73.5-1c1.1-0.2,0.6-1.8-0.5-1.6c-24,4.4-48.8,2-73.1,0.9
	C218.4,100.4,218.4,102,219.5,102.1L219.5,102.1z"/>
<path class="st7" d="M220.1,116.2c12.9,0.9,25.7,2.2,38.7,1.7c3-0.1,6.1-0.2,9.1-0.5s6.1-1,9.2-1.4s6.1-0.3,9.1-0.7
	c2.8-0.4,5.6-1.2,8.2-2.4c1-0.4,0.1-1.9-0.9-1.4c-5.9,2.5-11.8,2.1-17.9,3.1c-6.3,1-12.6,1.6-19,1.8c-12.2,0.4-24.4-0.9-36.5-1.8
	C219.1,114.4,219.1,116.1,220.1,116.2L220.1,116.2z"/>
<path class="st7" d="M292.3,100.3c-0.5,3.9,0.9,7.6,1,11.5c0,0.5,0.4,0.8,0.8,0.8c0.5,0,0.8-0.4,0.8-0.8c-0.1-3.9-1.4-7.6-1-11.5
	C294.1,99.2,292.4,99.2,292.3,100.3z"/>
<path class="st7" d="M218.4,101.1c-0.6,4.6,0.3,9.2,0.8,13.7c0.1,1.1,1.8,1.1,1.7,0c-0.5-4.5-1.4-9.2-0.8-13.7
	C220.3,100.1,218.6,100.1,218.4,101.1z"/>
<path class="st7" d="M223,116.1c2.7,7.7,4.8,15.6,6.3,23.7c1.5,8,2.7,16,5,23.8c0.1,0.4,0.6,0.7,1,0.6c0.4-0.1,0.7-0.6,0.6-1l0,0
	c-2.2-7.8-3.5-15.9-5-23.8c-1.5-8-3.6-15.9-6.3-23.7C224.3,114.7,222.6,115.1,223,116.1z"/>
<path class="st7" d="M289.6,113.6c-4.6,15.5-8.1,31.4-10.4,47.4c-0.1,1.1,1.5,1.5,1.6,0.4c2.3-16,5.8-31.9,10.4-47.4
	c0.1-0.4-0.1-0.9-0.6-1C290.2,112.8,289.8,113.1,289.6,113.6L289.6,113.6z"/>
<path class="st7" d="M234.9,164.2c8.3,1.8,16.7,3.5,25.2,3.4c7-0.1,14.9-0.6,20.4-5.5c0.8-0.7-0.4-1.9-1.2-1.2
	c-5.6,4.9-14.3,5.1-21.4,5c-7.6-0.1-15.1-1.7-22.5-3.3C234.3,162.4,233.8,164,234.9,164.2L234.9,164.2z"/>
<path class="st7" d="M227.7,61.4c-1.4-0.9-3.4-1.7-4.7-0.1s-0.1,3.4,1.4,4.1c1,0.4,1.8-1,0.9-1.5c-0.6-0.2-1.6-1.2-0.8-1.8
	s1.8,0.3,2.3,0.7C227.7,63.4,228.6,62,227.7,61.4z"/>
<path class="st7" d="M225,64.3c-1.6,0.4-2.5,1.9-2.2,3.5c0,0.2,0.1,0.4,0.2,0.5c0.9,1.7,3.6,3,4.9,1c0.6-0.9-0.9-1.7-1.4-0.8
	c-0.5,0.7-2-0.7-2.1-1.3c-0.1-0.6,0.4-1.2,1-1.4C226.5,65.6,226,64,225,64.3L225,64.3z"/>
<path class="st7" d="M226.8,68.8c0,2.1,1.6,3.8,3.7,3.8c1.8,0,3.4-1.2,3.7-3c0.3-1.1-1.4-1.5-1.6-0.4c-0.2,1.1-1.3,1.9-2.4,1.7
	c-1-0.2-1.7-1-1.7-2C228.5,67.7,226.8,67.7,226.8,68.8L226.8,68.8z"/>
<path class="st7" d="M233.3,70.1c1.6,1.1,3.7,0.9,5.1-0.4c1.2-1.3,1.2-3.2,0-4.5c-0.7-0.8-1.9,0.4-1.2,1.2c0.6,0.7,0.5,1.6-0.1,2.2
	c-0.9,0.6-2,0.6-2.9,0C233.3,68.1,232.4,69.6,233.3,70.1L233.3,70.1z"/>
<path class="st7" d="M237.9,66.5c1.4-1,2.8-2.5,2.5-4.4c-0.2-1.5-1.5-2.6-3-2.5c-0.2,0-0.3,0-0.5,0.1c-1,0.3-0.6,1.9,0.4,1.6
	s1.6,0.8,1.4,1.7c-0.3,0.8-0.9,1.5-1.6,2C236.2,65.7,237.1,67.2,237.9,66.5L237.9,66.5z"/>
<path class="st7" d="M237.6,60.9c1.6-2.1,1.2-5.4-1.5-6.4c-1.6-0.6-3.4,0.2-4,1.9c-0.2,0.6-0.3,1.3-0.1,1.9c0.3,1,1.9,0.6,1.6-0.5
	c-0.2-0.8,0.2-1.6,1-1.8c0.5-0.1,1,0,1.4,0.3c1.4,0.9,1,2.7,0.1,3.8C235.5,61,237,61.8,237.6,60.9L237.6,60.9z"/>
<path class="st7" d="M233.3,58.1c-0.3-1.9-2-3.2-3.9-3c-0.1,0-0.3,0-0.4,0.1c-2.4,0.8-2.1,3.5-1.3,5.3c0.4,1,2,0.5,1.6-0.5
	s-1.2-2.7,0.1-3.3s2.1,0.7,2.3,1.7S233.6,59.2,233.3,58.1L233.3,58.1z"/>
<path class="st7" d="M229.2,60.3c-0.4-1.2-1.6-3.6-3.2-2.8c-1.8,0.9-0.4,3.3,0.1,4.5c0.2,0.4,0.7,0.5,1.1,0.3
	c0.4-0.2,0.5-0.7,0.3-1.2l-0.5-1.1c-0.1-0.2-0.2-0.4-0.2-0.6s-0.1-0.5-0.1-0.5l-0.2,0.1l0.1,0.1c0.1,0.2,0.2,0.3,0.3,0.5
	c0.2,0.3,0.4,0.7,0.5,1.1C227.9,61.8,229.6,61.4,229.2,60.3L229.2,60.3z"/>
<path class="st7" d="M267.1,70.7c-0.7-1.7-2.9-2.8-4.4-1.5c-0.9,0.7-1.1,2.1-0.3,3c0.3,0.4,0.7,0.6,1.1,0.7c1.1,0.2,1.5-1.4,0.5-1.6
	c-0.6-0.1-0.5-0.8,0.1-1c0.8-0.3,1.4,0.5,1.6,1.2C266.1,72.5,267.5,71.6,267.1,70.7L267.1,70.7z"/>
<path class="st7" d="M264.1,71.7c-1.6-0.5-3.3,0.3-3.8,1.9c-0.5,1.6,0.3,3.3,1.9,3.8c0.5,0.2,1,0.2,1.6,0.1c1.1-0.2,0.6-1.8-0.5-1.6
	c-0.8,0.1-1.5-0.5-1.6-1.3c0-0.1,0-0.3,0-0.4c0.3-0.8,1.2-1.1,1.9-0.8C264.6,73.7,265.1,72,264.1,71.7L264.1,71.7z"/>
<path class="st7" d="M262.9,75.9c-1.2,1.3-1.3,3.3-0.1,4.7c1.3,1.3,4,1.2,4.3-0.9c0.2-1.1-1.5-1.5-1.6-0.4s-1.4,0.6-1.7-0.1
	c-0.3-0.7-0.2-1.5,0.3-2C264.9,76.3,263.7,75,262.9,75.9L262.9,75.9z"/>
<path class="st7" d="M266,80c1.3,2.1,4.1,2.7,6.1,1.4c1.5-1,2.7-3.6,0.7-4.8c-0.4-0.2-0.9-0.1-1.2,0.3c-0.2,0.4-0.1,0.9,0.3,1.2l0,0
	c1.1,0.6-1,2.1-1.5,2.2c-1.2,0.3-2.4-0.2-3.1-1.2C266.8,78.3,265.4,79.2,266,80L266,80z"/>
<path class="st7" d="M272.6,78.2c1.8-0.3,3.8-1.8,3.9-3.7s-1.8-2.7-3.4-2.7c-0.5,0-0.8,0.4-0.8,0.8c0,0.5,0.4,0.8,0.8,0.8
	c0.9,0,2.1,0.3,1.5,1.4c-0.5,0.9-1.5,1.5-2.5,1.7C271.1,76.7,271.6,78.3,272.6,78.2L272.6,78.2z"/>
<path class="st7" d="M273.5,73.3c2.1-1,3.3-3.7,1.7-5.7c-1.1-1.3-3-1.4-4.2-0.4c-0.4,0.4-0.7,0.8-0.9,1.4c-0.1,0.4,0.1,0.9,0.6,1
	c0.4,0.1,0.9-0.1,1-0.6c0.4-1.3,2.1-1,2.5,0.2s-0.5,2.2-1.5,2.7S272.5,73.8,273.5,73.3L273.5,73.3z"/>
<path class="st7" d="M271.3,69c0.4-1.8-0.8-3.5-2.5-3.9c-0.2,0-0.4-0.1-0.6-0.1c-2.5,0.1-2.6,4-2.5,5.7c0,1.1,1.7,1.1,1.7,0
	c0-0.7,0-1.4,0.1-2.1c0-0.6,0.2-1.2,0.5-1.7c0.7-0.9,2,0.8,1.8,1.7C269.4,69.6,271,70.1,271.3,69L271.3,69z"/>
<path class="st7" d="M259.4,50.6c-0.8-0.7-1.8-1.1-2.8-1.1c-0.9,0.1-1.7,0.7-2,1.5c-0.5,1.8,0.2,3.8,1.9,4.7c1,0.5,1.8-1,0.9-1.5
	c-0.8-0.5-1.3-1.4-1.2-2.3c0.1-1.6,1.8-0.4,2.5,0.1C259.3,52.7,260.2,51.2,259.4,50.6L259.4,50.6z"/>
<path class="st7" d="M257,54.3c-1.6,0-2.8,1.3-2.8,2.9c0,0.2,0,0.4,0.1,0.5c0.5,1.7,2.2,2.8,4,2.6c1.1-0.1,1.1-1.8,0-1.7
	c-0.9,0.1-1.8-0.2-2.3-1c-0.3-0.6,0-1.2,0.5-1.5c0.2-0.1,0.3-0.1,0.5-0.1C258.1,56.1,258.1,54.4,257,54.3L257,54.3z"/>
<path class="st7" d="M258.1,59.1c-1.9,1-1.7,3.7-0.1,4.8c1.8,1.2,5,0.8,6-1.2c0.5-1-1-1.8-1.5-0.8s-2.2,1.3-3.2,0.9
	s-1.5-1.7-0.4-2.2S259,58.6,258.1,59.1L258.1,59.1z"/>
<path class="st7" d="M262.9,62.6c1.5,1.3,3.8,1.1,5.1-0.5c0,0,0.1-0.1,0.1-0.1c0.7-0.7,1.1-1.8,0.9-2.8c-0.2-0.9-1-1.6-2-1.7
	c-1.1-0.1-1.1,1.6,0,1.7c1.3,0.1-0.5,2-0.8,2.2c-0.6,0.5-1.5,0.4-2.1-0.1C263.3,60.7,262.1,61.9,262.9,62.6L262.9,62.6z"/>
<path class="st7" d="M267.2,59.1c1.9-0.3,4.2-1.8,4.5-3.8s-2.7-2.9-4.3-2.8c-1.1,0-1.1,1.7,0,1.7c0.6,0,1.2,0.1,1.8,0.3
	c0.7,0.3,1,0.6,0.5,1.3c-0.7,1-1.8,1.6-3,1.8C265.7,57.7,266.1,59.3,267.2,59.1L267.2,59.1z"/>
<path class="st7" d="M268.2,53.5c0-1.1,1.2-1.9,1.3-3.1c0-1.1-0.5-2.2-1.3-3c-0.7-0.8-1.9-1.1-2.9-0.7c-1,0.5-1.7,1.8-2.1,2.8
	s1,1.8,1.5,0.8c0.3-0.5,0.6-1.7,1.2-2s1.2,0.2,1.5,0.6c0.3,0.3,0.5,0.8,0.5,1.3c0,1.2-1.3,2-1.3,3.3c0,0.5,0.4,0.8,0.8,0.8
	C267.9,54.3,268.2,53.9,268.2,53.5L268.2,53.5z"/>
<path class="st7" d="M264.7,50.1c0.1-2.2-1.4-4.5-3.8-4.2c-2.7,0.4-2.7,3.4-2.4,5.5c0.2,1.1,1.8,0.6,1.6-0.5s-0.4-3.1,1-3.4
	s2,1.4,2,2.5S264.7,51.2,264.7,50.1L264.7,50.1z"/>
<path class="st7" d="M254.6,96.9c-4.7-1.9-7.9-6.3-8.2-11.3c-0.3-5,1.6-9.9,1.9-15l-1.4,0.6c1.3,1.6,3,2.3,4.7,3.5
	c2.3,1.7,4.1,4,5.2,6.6c2.3,4.8,3.4,10.5,0.3,15.2c-0.6,0.9,0.9,1.8,1.5,0.8c3-4.6,2.4-10.2,0.4-15.1c-0.9-2.4-2.2-4.6-3.8-6.5
	c-2-2.4-5.2-3.3-7.1-5.7c-0.5-0.6-1.4-0.1-1.4,0.6c-0.3,5.9-3,12-1.4,17.9c1.2,4.4,4.4,8,8.6,9.8C254.7,98.8,255.6,97.4,254.6,96.9
	L254.6,96.9z"/>
<path class="st7" d="M246.3,89.2c-6.8,0-15.8-2.2-19.6-8.4c-2.7-4.4-2.7-9.9-6.6-13.6l-0.8,1.4c5,1.4,10.5,2.7,15,5.3
	c4.2,2.4,6.7,6.7,10.4,9.7c0.8,0.7,2-0.5,1.2-1.2c-3.8-3.1-6.4-7.5-10.8-10c-4.7-2.7-10.3-4-15.4-5.4c-0.5-0.1-0.9,0.2-1,0.6
	c-0.1,0.3,0,0.6,0.2,0.8c4.6,4.3,3.9,11.6,8.6,16c4.9,4.6,12.3,6.5,18.9,6.5c0.5,0,0.8-0.4,0.8-0.8
	C247.1,89.6,246.7,89.3,246.3,89.2L246.3,89.2z"/>
<path class="st7" d="M247.6,72.6c-7.7-7.2-3.6-18.1,0.3-26.1l-1.3,0.2c2.8,3.6,6.9,7.8,7.9,12.4s-0.9,9.6-2.6,13.9
	c-0.4,1,1.2,1.4,1.6,0.4c1.8-4.6,3.7-9.8,2.6-14.8s-5.3-9.2-8.3-13.2c-0.3-0.3-0.9-0.3-1.2,0c-0.1,0.1-0.1,0.1-0.1,0.2
	c-4.3,8.7-8.3,20.4,0,28.1C247.2,74.5,248.4,73.3,247.6,72.6L247.6,72.6z"/>
<path class="st7" d="M252.8,74.8c0.5,0,0.8-0.4,0.8-0.8c0-0.5-0.4-0.8-0.8-0.8S252,73.5,252,74C252,74.5,252.4,74.8,252.8,74.8z"/>
<path class="st7" d="M239,74.9c-1.3-4.3,1-7.9,3.8-10.9c0.7-0.8-0.4-2-1.2-1.2c-3.2,3.5-5.7,7.7-4.3,12.6c0.1,0.5,0.6,0.7,1.1,0.6
	C238.9,75.8,239.1,75.4,239,74.9z"/>
<path class="st7" d="M233.8,86.8c-2.6-0.2-5.4-0.1-8-0.5s-5-1.5-7.4-2.4c-0.4-0.1-0.9,0.1-1,0.6c0,0.1,0,0.1,0,0.2
	c0.1,3.1,1.7,5.3,3.8,7.4c1.7,1.7,4.1,4.7,6.6,5.1c1.1,0.2,1.5-1.4,0.4-1.6c-1.8-0.3-3.9-2.9-5.1-4c-2.1-1.9-4-3.8-4-6.9l-1.1,0.8
	c2.4,0.9,5,2.2,7.6,2.5s5.5,0.3,8.2,0.5C235,88.6,235,86.9,233.8,86.8L233.8,86.8z"/>
<path class="st7" d="M258.8,97.4c2.8-4.6,6.1-9.3,11-11.9c5.1-2.7,11.2-3.7,16.6-5.1l-1-1c-1.3,7-5.3,13.2-11.1,17.2
	c-0.9,0.6,0,2.1,0.9,1.4c6.2-4.3,10.5-10.8,11.8-18.3c0.1-0.5-0.2-0.9-0.7-1c-0.1,0-0.2,0-0.3,0c-5.9,1.6-12.6,2.6-17.9,5.8
	c-4.7,2.8-7.9,7.4-10.7,12C256.8,97.4,258.3,98.3,258.8,97.4L258.8,97.4z"/>
<path class="st7" d="M257.9,80.5c-1.5-11,9.1-17.1,17.7-20.9l-1.2-0.5c2.2,7,5.8,14.8,1.6,21.8c-0.2,0.4-0.1,0.9,0.3,1.2
	c0.4,0.2,0.9,0.1,1.1-0.3c4.5-7.4,0.9-15.6-1.4-23.1c-0.1-0.5-0.6-0.7-1.1-0.6c-0.1,0-0.1,0-0.2,0.1c-9.1,4-20.1,10.8-18.5,22.3
	C256.4,81.6,258.1,81.6,257.9,80.5L257.9,80.5z"/>
<path class="st7" d="M260,87.4c3.9-4.9,10.5-4.7,16.2-5.2c1.1-0.1,1.1-1.8,0-1.7c-6.1,0.5-13.1,0.4-17.4,5.7
	C258.1,87.1,259.3,88.2,260,87.4z"/>
<path class="st7" d="M278.8,68.2c2.4-3.4,5.6-6,9.3-7.8l-1.2-0.5c1.2,7.1-0.8,14.3-5.5,19.7c-0.7,0.8,0.5,2,1.2,1.2
	c5-5.9,7.2-13.7,5.9-21.4c-0.1-0.6-0.8-0.7-1.2-0.5c-4,1.8-7.4,4.7-9.9,8.3C276.8,68.3,278.2,69.1,278.8,68.2L278.8,68.2z"/>
<path class="st7" d="M269,53.5c3-5.7,9.4-7.5,15.2-8.9l-1.1-0.8c-0.1,8.1,0,15.8-5.2,22.5c-0.7,0.8,0.5,2,1.2,1.2
	c2.5-3.1,4.2-6.7,5-10.6c0.9-4.3,0.6-8.8,0.7-13.1c0-0.5-0.4-0.8-0.9-0.8c-0.1,0-0.1,0-0.2,0c-6.3,1.6-13,3.6-16.2,9.7
	C267,53.7,268.5,54.5,269,53.5L269,53.5z"/>
<path class="st7" d="M232,55.7c-2.6-3-2.3-6.9-1.6-10.6l-1,0.6c5.3,1.5,11,3.7,12.9,9.4c0.3,1,2,0.6,1.6-0.5
	c-2.1-6.3-8.1-8.9-14.1-10.6c-0.4-0.1-0.9,0.2-1,0.6c-0.9,4.3-1.1,8.7,2,12.2C231.6,57.6,232.8,56.5,232,55.7L232,55.7z"/>
<path class="st7" d="M283.1,89.8c3.5-4.2,9.5-5.1,12.9-9.4l-1.4-0.8c-1.2,5.9-3.9,11.4-8.1,15.8c-0.7,0.8,0.5,2,1.2,1.2
	c4.3-4.6,7.3-10.3,8.5-16.5c0.1-0.7-0.8-1.5-1.4-0.8c-3.4,4.3-9.4,5.3-12.9,9.4C281.2,89.4,282.4,90.6,283.1,89.8L283.1,89.8z"/>
<path class="st7" d="M256.4,97.7c-6.6-4.4-6.9-13.2-5.4-20.2l-0.8,0.1c3.9,6,4.6,13.6,5.9,20.5c0.1,0.5,0.9,0.3,0.8-0.2
	c-1.3-7-2-14.7-6-20.7c-0.1-0.2-0.4-0.3-0.6-0.1c-0.1,0.1-0.1,0.1-0.2,0.2c-1.5,7.3-1.2,16.5,5.8,21.1
	C256.5,98.8,256.9,98,256.4,97.7L256.4,97.7z"/>
<path class="st7" d="M248.4,70.6c-2.5-4.9-1-11.8,0.9-16.7h-0.8c1.4,6.1,2.7,12.3,1.7,18.6c-0.1,0.5,0.7,0.8,0.8,0.2
	c1.1-6.4-0.3-12.8-1.7-19c-0.1-0.4-0.7-0.4-0.8,0c-2,5.2-3.4,12.2-0.8,17.3C247.9,71.5,248.7,71.1,248.4,70.6L248.4,70.6z"/>
<path class="st7" d="M254.9,75.5c-0.3-4.1,3-9.4,6-12l-0.7-0.2c0.3,1.8,0.3,3.6-0.1,5.3c-0.1,0.5,0.7,0.8,0.8,0.2
	c0.4-1.9,0.5-3.9,0.1-5.8c-0.1-0.2-0.3-0.4-0.5-0.3c-0.1,0-0.1,0.1-0.2,0.1c-1.8,1.7-3.3,3.7-4.3,6c-1,2.1-2.1,4.3-1.9,6.6
	C254.1,76.1,254.9,76.1,254.9,75.5L254.9,75.5z"/>
<path class="st7" d="M271.3,55.4c1-3,5.4-5,8.2-6.2l-0.5-0.4c-0.3,4.3-1.3,8.5-3,12.5c-0.2,0.5,0.5,0.9,0.7,0.4
	c1.8-4.1,2.8-8.4,3.1-12.9c0-0.2-0.2-0.4-0.4-0.4c0,0-0.1,0-0.1,0c-3.1,1.3-7.6,3.4-8.8,6.8C270.3,55.7,271.2,55.9,271.3,55.4
	L271.3,55.4z"/>
<path class="st7" d="M279.1,71.3c1.3-1.8,3-3.3,4.9-4.6l-0.6-0.3c0.5,1.1-0.5,3.3-0.8,4.4s-0.6,2.4-1,3.6c-0.6,2.2-1.3,4.5-3.1,6
	c-0.4,0.3,0.2,0.9,0.6,0.6c2-1.6,2.7-4,3.3-6.4c0.5-1.6,0.9-3.2,1.3-4.7c0.3-1.1,0.9-2.5,0.5-3.7c-0.1-0.2-0.3-0.4-0.5-0.3
	c0,0-0.1,0-0.1,0c-2,1.3-3.7,3-5.1,4.9C278.1,71.3,278.8,71.7,279.1,71.3L279.1,71.3z"/>
<path class="st7" d="M262.3,83.4c-0.5-2.2-0.1-4.5,1.3-6.4c0.3-0.4-0.4-0.9-0.7-0.4c-1.5,2-1.9,4.6-1.4,7.1
	C261.6,84.2,262.4,83.9,262.3,83.4L262.3,83.4z"/>
<path class="st7" d="M270.4,67.2c0.9-1.4,2-2.6,3.3-3.6l-0.7-0.2c0.4,1.3,0.6,2.8,0.6,4.2c0,0.2,0.2,0.4,0.4,0.4
	c0.2,0,0.4-0.2,0.4-0.4c0-1.5-0.2-3-0.6-4.4c-0.1-0.2-0.3-0.4-0.5-0.3c-0.1,0-0.1,0.1-0.2,0.1c-1.3,1.1-2.5,2.4-3.4,3.8
	C269.4,67.3,270.1,67.7,270.4,67.2L270.4,67.2z"/>
<path class="st7" d="M274.1,76.1c0.1,1.6-0.1,3.3-0.6,4.8c-0.2,0.5,0.6,0.7,0.8,0.2c0.5-1.6,0.8-3.3,0.6-5
	C275,75.6,274.1,75.6,274.1,76.1L274.1,76.1z"/>
<path class="st7" d="M257.7,101c2.1-4,5.7-7.2,9.4-9.8c3.4-2.5,7.3-4.5,11.4-5.7l-0.4-0.7c-1.8,2-3,4.5-4.8,6.4
	c-1.4,1.3-3,2.4-4.7,3.3c-3.2,1.9-6.9,4.3-10.6,5.2c-0.5,0.1-0.3,0.9,0.2,0.8c3.8-0.9,7.5-3.3,10.8-5.3c1.6-0.9,3.2-2,4.6-3.2
	c2-1.8,3.2-4.6,5.1-6.7c0.2-0.2,0.2-0.4,0-0.6c-0.1-0.1-0.3-0.1-0.4-0.1c-4.4,1.3-8.5,3.4-12.1,6.1c-3.6,2.6-7.1,5.8-9.2,9.7
	C256.7,101,257.4,101.4,257.7,101L257.7,101z"/>
<path class="st7" d="M234.7,54.3c-1-1.2-1.5-2.7-1.5-4.2l-0.7,0.3c1.8,1.4,4.2,1.8,5.9,3.5c1.9,2,2.7,4.6,3.3,7.3
	c0.1,0.5,0.9,0.3,0.8-0.2c-0.4-2.5-1.4-4.8-2.8-6.9c-1.8-2.2-4.4-2.6-6.5-4.2c-0.2-0.2-0.4-0.1-0.6,0c-0.1,0.1-0.1,0.2-0.1,0.3
	c0,1.8,0.6,3.5,1.8,4.8C234.4,55.3,235,54.7,234.7,54.3L234.7,54.3z"/>
<path class="st7" d="M246.4,80.1c-2.5-2.9-3.3-6.8-2.2-10.5c0.1-0.2-0.1-0.5-0.3-0.5c-0.2,0-0.4,0.1-0.5,0.3
	c-1.1,3.9-0.2,8.2,2.4,11.3C246.1,81.1,246.7,80.5,246.4,80.1z"/>
<path class="st7" d="M245.5,85.9c-2.3-2.3-4.7-4.6-7.2-6.7c-1.1-0.8-2.3-1.5-3.6-1.9c-1.6-0.5-3.2-0.7-4.6-1.6
	c-0.4-0.2-0.8,0.2-0.6,0.6c1.6,2.8,3.3,5.5,6,7.4c3.1,2,6.5,3.5,10.1,4.6c0.5,0.2,0.7-0.6,0.2-0.8c-3.2-1-6.4-2.4-9.3-4.2
	c-2.9-1.8-4.6-4.6-6.3-7.5l-0.6,0.6c2.3,1.6,5.3,1.5,7.6,3.2c2.8,1.9,5.1,4.6,7.5,6.9C245.3,86.8,245.9,86.2,245.5,85.9L245.5,85.9z
	"/>
<path class="st7" d="M252.3,97.2c-3.3-2.2-6.9-4.5-10.8-5.3c-4.5-0.9-9.4-0.9-14-1.3c-0.2,0-0.4,0.2-0.4,0.4c0,0.1,0,0.2,0.1,0.3
	c2.1,1.9,4.5,3.4,7.1,4.4c2.9,0.9,5.9,1.1,8.7,2.3c0.5,0.2,0.9-0.5,0.4-0.7c-2.3-0.9-4.7-1.6-7.2-2c-3.1-0.9-6-2.4-8.4-4.6l-0.3,0.7
	c4.5,0.4,9.3,0.4,13.7,1.3c3.9,0.8,7.4,3,10.6,5.2C252.3,98.2,252.7,97.5,252.3,97.2L252.3,97.2z"/>
<path class="st7" d="M279.5,94.1c3-2.3,6.3-4.1,9.9-5.4l-0.5-0.6c-1,1.6-1.6,3.5-3,4.9c-3.1,3-8.1,3.9-12.1,4.7
	c-0.5,0.1-0.3,0.9,0.2,0.8c4.1-0.8,9-1.7,12.3-4.7c1.6-1.5,2.2-3.5,3.3-5.3c0.1-0.2,0.1-0.5-0.1-0.6c-0.1-0.1-0.2-0.1-0.3,0
	c-3.7,1.3-7.1,3.2-10.2,5.6C278.5,93.8,279.1,94.4,279.5,94.1L279.5,94.1z"/>
<path class="st7" d="M222.5,101.8c0.1,4.6,0.6,9.3,1.5,13.8c0.1,0.5,0.9,0.3,0.8-0.2c-0.9-4.5-1.4-9-1.5-13.6
	C223.4,101.2,222.5,101.2,222.5,101.8L222.5,101.8z"/>
<path class="st7" d="M226.6,102.3c0.8,4.5,1.5,9.1,2.2,13.6c0.1,0.5,0.9,0.3,0.8-0.2c-0.7-4.5-1.4-9.1-2.2-13.6
	C227.3,101.5,226.6,101.8,226.6,102.3z"/>
<path class="st7" d="M231.4,102.5c0.8,4.5,1,9,1.5,13.5c0.1,0.5,0.9,0.5,0.8,0c-0.4-4.6-0.7-9.2-1.5-13.7
	C232.1,101.7,231.3,101.9,231.4,102.5L231.4,102.5z"/>
<path class="st7" d="M236,103l1.9,13.6c0.1,0.5,0.9,0.3,0.8-0.2l-1.9-13.6C236.7,102.3,235.9,102.5,236,103z"/>
<path class="st7" d="M240.7,102.5c0.1,4.9,2,9.6,2,14.6c0,0.2,0.2,0.4,0.4,0.4c0.2,0,0.4-0.2,0.4-0.4c-0.1-4.9-1.9-9.7-2-14.6
	C241.6,102,240.7,102,240.7,102.5z"/>
<path class="st7" d="M246.1,103.2c0.9,4.6,1.5,9.4,1.6,14.1c0,0.5,0.9,0.5,0.8,0c-0.2-4.8-0.7-9.6-1.6-14.3
	C246.9,102.5,246.1,102.7,246.1,103.2L246.1,103.2z"/>
<path class="st7" d="M250.6,103.9c0.8,2.3,0.7,4.8,1,7.2c0.3,2.2,0.7,4.3,1.3,6.4c0.1,0.2,0.3,0.3,0.5,0.3c0.2-0.1,0.3-0.3,0.3-0.5
	c-0.7-2.5-1.2-5.1-1.4-7.8c0-2-0.3-3.9-0.9-5.8C251.2,103.2,250.4,103.4,250.6,103.9L250.6,103.9z"/>
<path class="st7" d="M256.6,103.1l1,13.2c0,0.5,0.9,0.5,0.8,0l-1-13.2C257.5,102.6,256.6,102.6,256.6,103.1z"/>
<path class="st7" d="M260.9,102.9c0.4,4.7,0.8,9.3,1.2,14c0,0.5,0.9,0.5,0.8,0c-0.4-4.7-0.8-9.3-1.2-14
	C261.7,102.4,260.8,102.4,260.9,102.9z"/>
<path class="st7" d="M264.4,103.3c0.2,4.7,2.3,9,2.3,13.7c0,0.2,0.2,0.4,0.4,0.4c0.2,0,0.4-0.2,0.4-0.4c0-4.7-2.1-9-2.3-13.7
	C265.2,102.7,264.3,102.7,264.4,103.3z"/>
<path class="st7" d="M269.6,103.1c0.6,4.3,0.7,8.6,0.5,12.9c0,0.5,0.8,0.5,0.8,0c0.3-4.3,0.1-8.6-0.5-12.9
	C270.4,102.6,269.5,102.6,269.6,103.1z"/>
<path class="st7" d="M273.3,103l2.5,11.9c0.1,0.5,0.9,0.3,0.8-0.2l-2.5-11.9C274,102.3,273.2,102.5,273.3,103z"/>
<path class="st7" d="M278.8,102.5c0.5,3.7,0.6,7.5,0.4,11.2c0,0.5,0.8,0.5,0.8,0c0.2-3.7,0.1-7.5-0.4-11.2
	C279.6,102,278.8,102,278.8,102.5z"/>
<path class="st7" d="M283.1,102.3c0.7,3.6,1,7.4,0.9,11.1c0,0.2,0.2,0.4,0.4,0.4c0.2,0,0.4-0.2,0.4-0.4c0.1-3.8-0.2-7.6-0.9-11.3
	C283.8,101.5,283,101.8,283.1,102.3z"/>
<path class="st7" d="M287.6,102.5l0.3,9.5c0,0.2,0.2,0.4,0.4,0.4c0.2,0,0.4-0.2,0.4-0.4l-0.3-9.5c0-0.2-0.2-0.4-0.4-0.4
	C287.7,102.1,287.6,102.3,287.6,102.5z"/>
<path class="st7" d="M287.7,101.8v1.1c0,0.2,0.2,0.4,0.4,0.4c0.2,0,0.4-0.2,0.4-0.4v-1.1c0-0.2-0.2-0.4-0.4-0.4
	C287.9,101.4,287.7,101.6,287.7,101.8z"/>
<path class="st7" d="M287.9,111.9v1.5c0,0.2,0.2,0.4,0.4,0.4c0.2,0,0.4-0.2,0.4-0.4v-1.5c0-0.2-0.2-0.4-0.4-0.4
	C288,111.5,287.9,111.6,287.9,111.9z"/>
<path class="st7" d="M289.1,101.5c0.7,3.8,1,7.6,0.9,11.5c0,0.2,0.2,0.4,0.4,0.4c0.2,0,0.4-0.2,0.4-0.4c0.1-3.9-0.2-7.8-1-11.7
	C289.7,100.8,288.9,101,289.1,101.5L289.1,101.5z"/>
<path class="st7" d="M227.7,97.1c4,1.1,8.1,1.7,12.3,1.7c2.1,0,4.2-0.1,6.4,0.1c2.8,0.2,5.5,1.5,7.4,3.5c0.8,0.7,2-0.4,1.2-1.2
	c-3.2-3-6.3-4-10.8-4.1c-5.5-0.1-10.7-0.2-16.1-1.6c-0.4-0.1-0.9,0.1-1,0.6C227,96.5,227.3,97,227.7,97.1L227.7,97.1z"/>
<path class="st7" d="M249.8,96.4c2.2,1.2,3.8,3.2,4.4,5.7c0.1,0.4,0.6,0.7,1,0.6c0.4-0.1,0.7-0.6,0.6-1l0,0
	c-0.7-2.9-2.6-5.3-5.2-6.7C249.7,94.4,248.9,95.8,249.8,96.4L249.8,96.4z"/>
<path class="st7" d="M253.5,98.3c1.5,0.6,1.7,2.3,1.9,3.7c0.1,1.1,1.8,0.6,1.6-0.4c-0.3-1.9-0.8-3.9-2.7-4.7
	C253.3,96.4,252.5,97.8,253.5,98.3z"/>
<path class="st7" d="M257.9,95.6c-1.5,1.6-2.4,3.8-2.3,6.1c0,0.5,0.4,0.8,0.8,0.8s0.8-0.4,0.8-0.8c-0.1-1.8,0.6-3.6,1.8-4.9
	C259.8,96,258.7,94.8,257.9,95.6L257.9,95.6z"/>
<path class="st7" d="M274.5,96.2c-3.9,2.7-8.4,2.4-12.9,2.9c-2.2,0.2-4.2,0.6-5.1,2.8c-0.4,1,1.2,1.4,1.6,0.4c1-2.5,7.7-1.8,10-2.1
	c2.6-0.3,5.1-1.2,7.3-2.6C276.3,97,275.4,95.6,274.5,96.2L274.5,96.2z"/>
<path class="st7" d="M286.6,95.3c-3.5,3.1-9.4,3.4-13.8,3.5c-3.1,0.1-6.1,0.3-8.2,2.8c-0.7,0.8,0.5,2,1.2,1.2
	c2.9-3.4,8.5-2.1,12.5-2.7c3.4-0.5,6.9-1.2,9.5-3.6C288.6,95.7,287.4,94.6,286.6,95.3L286.6,95.3z"/>
<path class="st7" d="M249.4,101.7c-3.3-2.7-7.8-2.4-11.4-4.6c-0.4-0.2-0.9-0.1-1.2,0.3c-0.2,0.4-0.1,0.9,0.3,1.2l0,0
	c3.4,2,7.9,1.7,11.1,4.3C249,103.6,250.2,102.4,249.4,101.7z"/>
</svg>
