<?xml version="1.0" encoding="utf-8"?>
<!-- Generator: Adobe Illustrator 21.0.0, SVG Export Plug-In . SVG Version: 6.00 Build 0)  -->
<svg version="1.1" id="Layer_1" xmlns="http://www.w3.org/2000/svg" xmlns:xlink="http://www.w3.org/1999/xlink" x="0px" y="0px"
	 viewBox="0 0 3710 3710" style="enable-background:new 0 0 3710 3710;" xml:space="preserve">
<style type="text/css">
	.st0{fill:#29236D;}
	.st1{fill:#FFFFFF;}
	.st2{fill:url(#SVGID_1_);}
	.st3{fill:url(#SVGID_2_);}
	.st4{fill:url(#SVGID_3_);}
	.st5{fill:#09006D;}
	.st6{fill:url(#SVGID_4_);}
	.st7{fill:#BDD0FB;}
	.st8{fill:url(#SVGID_5_);}
	.st9{fill:url(#SVGID_6_);}
	.st10{fill:url(#SVGID_7_);}
	.st11{fill:url(#SVGID_8_);}
	.st12{fill:url(#SVGID_9_);}
	.st13{fill:url(#SVGID_10_);}
	.st14{fill:url(#SVGID_11_);}
	.st15{fill:url(#SVGID_12_);}
	.st16{fill:url(#SVGID_13_);}
	.st17{fill:url(#SVGID_14_);}
	.st18{fill:url(#SVGID_15_);}
	.st19{fill:url(#SVGID_16_);}
	.st20{fill:url(#SVGID_17_);}
	.st21{opacity:0.7;fill:#FFFFFF;enable-background:new    ;}
	.st22{fill:url(#SVGID_18_);}
	.st23{fill:url(#SVGID_19_);}
	.st24{fill:url(#SVGID_20_);}
	.st25{fill:url(#SVGID_21_);}
	.st26{fill:url(#SVGID_22_);}
	.st27{fill:url(#SVGID_23_);}
	.st28{fill:url(#SVGID_24_);}
	.st29{fill:url(#SVGID_25_);}
	.st30{fill:url(#SVGID_26_);}
	.st31{fill:url(#SVGID_27_);}
	.st32{fill:url(#SVGID_28_);}
	.st33{fill:url(#SVGID_29_);}
	.st34{fill:url(#SVGID_30_);}
</style>
<title>landing_img</title>
<g id="Illustration">
	<path class="st0" d="M812.2,2713.9c0,0,386.7-893.3,93.9-1834.3c-1.9-6.1-12.8-5-13.6,1.5C822,1450.2,801,2066.6,812.2,2713.9z"/>
	<path class="st1" d="M813.8,2695.1c2.2,0,4.2-1.5,4.8-3.6c68.6-243.7,94.7-657.8,104.5-962.3c10.6-329.7,5-605.5,4.9-608.2
		c0.1-2.6-2-4.8-4.6-4.9c-0.2,0-0.3,0-0.5,0c-2.7,0.1-4.9,2.3-4.9,5.1c0.1,2.7,5.7,278.3-4.9,607.8
		c-9.8,303.9-35.8,717.1-104.1,959.9c-0.7,2.7,0.9,5.4,3.5,6.1C812.9,2695,813.4,2695.1,813.8,2695.1L813.8,2695.1z"/>
	<path class="st0" d="M748,2532.8c0,0,144.4-1112.4-400-2178.9c-3.6-7-14.1-3.9-13.1,3.8C417.7,1040,562.6,1770.7,748,2532.8z"/>
	
		<linearGradient id="SVGID_1_" gradientUnits="userSpaceOnUse" x1="3671.8774" y1="2139.3232" x2="3995.1934" y2="2139.3232" gradientTransform="matrix(-1 0 0 -1 4420 3710)">
		<stop  offset="0" style="stop-color:#DAE3FE"/>
		<stop  offset="1" style="stop-color:#E9EFFD"/>
	</linearGradient>
	<path class="st2" d="M743.5,2509.5c2.5-0.2,4.5-2.4,4.5-4.9c5.2-569.7-310.4-1856.5-313.6-1869.4c-1-2.6-3.8-3.9-6.4-3
		c-2.2,0.8-3.5,3-3.2,5.3c3.1,12.9,318.4,1298.5,313.3,1866.9c0,2.7,2.2,5,4.9,5L743.5,2509.5z"/>
	<path class="st0" d="M670.3,2836.6c0,0-20.2-746-553.2-1341.4c-3.5-3.9-11-0.1-9.4,4.8C249.1,1927.4,442.7,2375.3,670.3,2836.6z"/>
	
		<linearGradient id="SVGID_2_" gradientUnits="userSpaceOnUse" x1="3752.7871" y1="1468.5956" x2="4212.5771" y2="1468.5956" gradientTransform="matrix(-1 0 0 -1 4420 3710)">
		<stop  offset="0" style="stop-color:#DAE3FE"/>
		<stop  offset="1" style="stop-color:#E9EFFD"/>
	</linearGradient>
	<path class="st3" d="M664,2822.9L664,2822.9c2.1-0.4,3.5-2.3,3.2-4.4c-32.4-193.5-153.8-497.7-249.8-718.8
		c-104-239.4-201.6-435.7-202.6-437.7c-0.9-1.9-3.2-2.8-5.1-1.9c-1.9,0.9-2.8,3.2-1.9,5.1c0,0.1,0.1,0.1,0.1,0.2
		c1,2,98.5,198.1,202.4,437.3c95.9,220.7,216.9,524.2,249.3,716.9C659.9,2821.8,661.9,2823.3,664,2822.9z"/>
	<path class="st0" d="M1010.1,2872.2c0,0-326.4-1165.7,192.5-2276.2c3.4-7.3,16.6-4,16.5,4.1
		C1210.5,1313.3,1132.8,2076.5,1010.1,2872.2z"/>
	
		<linearGradient id="SVGID_3_" gradientUnits="userSpaceOnUse" x1="3272.4731" y1="1843.3527" x2="3433.4187" y2="1843.3527" gradientTransform="matrix(-1 0 0 -1 4420 3710)">
		<stop  offset="0" style="stop-color:#DAE3FE"/>
		<stop  offset="1" style="stop-color:#E9EFFD"/>
	</linearGradient>
	<path class="st4" d="M1011.4,2848.8c-2.7-0.4-4.9-2.5-5.3-5.3c-43.6-311.9-6.1-826.5,33-1203.4c42.3-408.1,95.6-747,96.2-750.4
		c0.3-3.2,3.2-5.6,6.5-5.2c0.2,0,0.4,0.1,0.6,0.1c3.4,0.5,5.7,3.7,5.1,7.1c0,0,0,0,0,0c-0.5,3.4-53.8,342-96.1,749.8
		c-39,376.2-76.4,889.8-33,1200.4c0.5,3.4-1.9,6.5-5.2,7C1012.6,2848.9,1012,2848.9,1011.4,2848.8L1011.4,2848.8z"/>
	<path class="st5" d="M1117.2,2874.9c0,0-256.8-1415.5,480.4-2671.8c4.8-8.2,20.1-2.9,19.1,6.7
		C1527.2,1052.7,1350.6,1947,1117.2,2874.9z"/>
	
		<linearGradient id="SVGID_4_" gradientUnits="userSpaceOnUse" x1="2920.3389" y1="2017.4716" x2="3306.2617" y2="2017.4716" gradientTransform="matrix(-1 0 0 -1 4420 3710)">
		<stop  offset="0" style="stop-color:#DAE3FE"/>
		<stop  offset="1" style="stop-color:#E9EFFD"/>
	</linearGradient>
	<path class="st6" d="M1121.3,2847.3c-3.2-0.7-5.5-3.5-5.7-6.8c-16.9-373.8,84.5-978.6,172.6-1420.2
		c95.4-478.2,196-873.2,197.1-877.1c0.8-3.8,4.5-6.2,8.3-5.5c0.2,0,0.5,0.1,0.7,0.2c3.9,1,6.3,5,5.3,8.9
		c-1,3.9-101.6,398.6-196.9,876.4c-87.9,440.7-189.1,1044.3-172.3,1416.6c0.2,4-3,7.5-7,7.7
		C1122.6,2847.5,1121.9,2847.5,1121.3,2847.3L1121.3,2847.3z"/>
	<path class="st5" d="M883.4,2858.2c0,0,270.4-1240.9-240.7-2496.6c-3.3-8.2-15.5-5.8-15.2,3
		C655.1,1142.4,747.9,1980.6,883.4,2858.2z"/>
	<path class="st7" d="M880.6,2831.5c2.9,0,5.3-2.2,5.6-5.1c60.9-642.1-170.7-2124.2-173.1-2139.1c-0.6-3.1-3.5-5.1-6.5-4.5
		c-3,0.5-5,3.3-4.6,6.3c2.3,14.9,233.7,1495.6,173,2136.3c-0.3,3.1,2,5.8,5.1,6.1c0,0,0,0,0,0L880.6,2831.5z"/>
	<path class="st5" d="M766,2906.4c0,0,114.5-956.1-454-1816.5c-3.7-5.6-14.1-2.2-12.9,4.3C399.1,1666.5,562.1,2274.8,766,2906.4z"/>
	<path class="st7" d="M760.4,2887.8L760.4,2887.8c2.8-0.1,5-2.3,5-5.1c-5.1-253.1-102.8-664.2-183.8-964.5
		C493.8,1593,406.1,1324,405.2,1321.4c-0.5-2.7-3.2-4.5-5.9-3.9c-2.7,0.5-4.5,3.2-3.9,5.9c0.1,0.4,0.2,0.8,0.4,1.1
		c0.9,2.7,88.5,271.4,176.2,596.4c80.9,299.7,178.4,710,183.5,962.1C755.5,2885.6,757.7,2887.8,760.4,2887.8z"/>
	
		<linearGradient id="SVGID_5_" gradientUnits="userSpaceOnUse" x1="3411.9436" y1="10.0396" x2="3543.6038" y2="1115.9596" gradientTransform="matrix(-1 0 0 -1 4420 3710)">
		<stop  offset="0" style="stop-color:#690F63"/>
		<stop  offset="1" style="stop-color:#691263"/>
	</linearGradient>
	<path class="st8" d="M1392,2584.3H402.1c-74.1,0-129.5,69.7-115.8,142.5c59.1,312.8,178.8,589.2,303.2,820.4
		c27.8,51.6,81.6,84.6,140.3,84.6h323c59.5,0,114.3-32.4,142.9-84.6c155.3-282.6,231.2-563,294.5-837.4
		C1504.8,2646.7,1456.8,2584.3,1392,2584.3z"/>
	
		<linearGradient id="SVGID_6_" gradientUnits="userSpaceOnUse" x1="3842.22" y1="1793.89" x2="4969.5098" y2="4309.6499" gradientTransform="matrix(-1 0 0 -1 4420 3710)">
		<stop  offset="0" style="stop-color:#690F63"/>
		<stop  offset="1" style="stop-color:#691263"/>
	</linearGradient>
	<path class="st9" d="M1537.3,2721.3H248.7c-11.1,0-20.1-9-20.1-20.1v-163.5c0-11.1,9-20.1,20.1-20.1h1288.6
		c11.1,0,20.1,9,20.1,20.1v163.5C1557.3,2712.3,1548.3,2721.3,1537.3,2721.3z"/>
	<path class="st5" d="M1708.2,2623.6c3.5,2.1,23.8,14.5,47.1,9.5c140.1-30.1-64.9-591.7,192.3-1101
		c104.8-207.6,241.3-317.2,245.2-547.2c0.7-41.8,1.4-170.5-67.5-305.5c-43.4-85,9-324.5-54.5-401.6
		C1871.3,35.5,1820.6,74.4,1718.6,49.9c-113.8-27.4-315,156.3-326.4,347.1c-12.6,210,212.6,297.8,173.9,475.8
		c-30.1,138.4-174.4,122.5-230.1,286c-73.8,217.1,108.4,457.2,131.7,487.2c104.1,133.5,155.3,93,220.7,192
		C1866.2,2107.2,1579.7,2545.3,1708.2,2623.6z"/>
	<path class="st0" d="M1721.3,517.4c15.6,15.5,30.3,31.8,44.2,48.8c13.9,17,27.1,34.6,39.6,52.7c12.4,18.1,24.4,36.7,35.4,55.8
		c10.9,19.2,21.5,38.6,30.9,58.6c5,9.9,9.1,20.2,13.6,30.3c4,10.3,8.5,20.5,12.2,31s7.7,20.8,10.9,31.5c1.7,5.3,3.5,10.6,5,15.9
		l4.4,16.1c3.1,10.7,5.2,21.7,7.8,32.5c2.4,10.9,4.1,21.9,6.2,32.9c1.5,11.1,3.2,22.1,4.4,33.3l1.5,16.7c0.5,5.6,1,11.2,1.1,16.8
		c2,44.9-1.1,89.9-9.3,134.1l-3.1,16.6l-3.5,15.9l-7,31.9c-4.7,21.2-9,42.5-13.6,63.8c-17.9,85.1-34.2,170.4-49,256
		c-29.4,171.2-51.9,343.4-56.8,517.1c-3.8,87.6-12.9,174.6-24.3,261.1s-25.6,172.6-42.3,258.3l-5-0.9c12.1-86.2,22-172.8,30.5-259.3
		c4-43.3,7.7-86.6,10.4-130s5-86.7,5.5-130c0.2-87.1,5.4-175,13.7-262c8.7-87.1,20.7-173.7,34.4-260s30.3-172.1,47.7-257.6
		c4.5-21.4,8.7-42.8,13.4-64.1l6.9-32l3.4-16l3-15.5c8-41.5,11.3-83.8,9.8-126c-0.1-10.6-1.2-21.1-1.7-31.7
		c-0.8-10.5-2.2-21.1-3.3-31.6c-1.7-10.5-3.1-21-5.1-31.4c-2.2-10.4-3.9-20.9-6.6-31.2c-9.6-41.7-22.8-82.4-39.3-121.9
		c-8-19.9-17.1-39.4-26.6-58.7c-9.8-19.2-19.9-38.2-30.7-56.9c-21.9-37.2-45.6-73.6-72.6-107.5L1721.3,517.4z"/>
	
		<linearGradient id="SVGID_7_" gradientUnits="userSpaceOnUse" x1="1533.4375" y1="2426.3201" x2="2584.0618" y2="2426.3201" gradientTransform="matrix(-1 0 0 -1 4420 3710)">
		<stop  offset="0" style="stop-color:#690F63"/>
		<stop  offset="1" style="stop-color:#691263"/>
	</linearGradient>
	<path class="st10" d="M1910,2512.2c-4,1-27,6.7-47.7-5c-124.6-70.7,238.9-545.2,145.7-1108.1c-37.9-229.4-135.4-374.8-70.3-595.5
		c11.8-40.1,49.6-163.1,155.8-271.4c66.8-68.1,110.7-79.4,194.3-134C2550.5,226.7,2565,46.1,2669.7,53.1
		c116.8,7.9,253.9,243.4,207.7,428.9c-50.8,204.2-291.9,220.6-308.2,402c-12.7,141.1,129.8,169,134,341.7
		c5.5,229.3-240.1,403.9-271.4,425.5c-139.2,96.3-176,42.3-268,117.3C1913.6,1972.2,2056,2475.9,1910,2512.2z"/>
	<path class="st5" d="M2527.3,498.4c-19.5,10.1-38.5,21.2-56.8,33.4c-18.4,12.1-36.2,24.9-53.5,38.5c-17.3,13.6-34.2,27.7-50.5,42.7
		s-32,30.4-47,46.7c-7.7,8-14.7,16.6-22.1,24.8c-6.9,8.6-14.2,17-20.9,25.9s-13.6,17.6-19.8,26.8c-3.2,4.6-6.5,9-9.6,13.7l-9,14
		c-6.2,9.3-11.4,19.1-17.2,28.7c-5.5,9.7-10.5,19.7-15.8,29.5c-4.7,10.1-9.7,20.2-14.1,30.4l-6.4,15.5c-2.2,5.2-4.3,10.3-6,15.7
		c-15.3,42.2-25.8,86.1-31.3,130.7l-2,16.7l-1.4,16.3l-2.9,32.5c-1.9,21.7-4.1,43.3-6.1,64.9c-8.4,86.5-18.4,172.9-29.9,259
		c-23.1,172.2-53.2,343.2-100.4,510.5c-22.6,84.7-39.8,170.4-54.8,256.4s-27.2,172.4-36.8,259.1l5,0.7
		c14.3-85.9,30.6-171.4,48.4-256.6c9.1-42.5,18.6-85,28.9-127.1s21.1-84.2,33.6-125.7c25.8-83.2,47.1-168.6,65.3-254.1
		c17.8-85.7,32.2-172,44.9-258.4s22.5-173.3,31.5-260.1c2.1-21.7,4.4-43.4,6.4-65.2l3-32.6l1.5-16.3l1.8-15.7
		c4.7-42,14.2-83.3,28.3-123.1c3.3-10.1,7.4-19.8,11.1-29.7c3.9-9.8,8.4-19.4,12.6-29.2c4.8-9.5,9.2-19.1,14.3-28.5
		c5.2-9.3,10-18.8,15.6-27.8c21.6-36.9,46.4-71.8,73.9-104.5c13.6-16.6,28.1-32.5,42.9-48.1c15-15.4,30.4-30.5,46.3-45.1
		c32-28.9,65.6-56.6,101.4-80.9L2527.3,498.4z"/>
	
		<linearGradient id="SVGID_8_" gradientUnits="userSpaceOnUse" x1="2397.7139" y1="2763.2549" x2="4089.2539" y2="4073.0449" gradientTransform="matrix(-1 0 0 -1 4420 3710)">
		<stop  offset="0" style="stop-color:#690F63"/>
		<stop  offset="1" style="stop-color:#691263"/>
	</linearGradient>
	<path class="st11" d="M2083.9,2463.7c-20.7,6.6-51.4,4.6-67.8-12.5c-63.2-65.9,165.7-275.3,278.3-608.9
		c130.4-386.3-7.6-606.4,180.1-765.9c90.3-76.7,151.6-50.8,240.6-151.8c123.9-140.7,65.7-260,164.1-369.5
		c113.1-126,365.9-164,514.6-56.1c199.9,145.1,157.8,515.1,7.7,684.3c-97.5,109.9-253.1,149.3-242.3,187.1
		c10.3,36.1,148.5-12.4,209.7,54.9c80.1,88.2,10.4,355.4-142.9,426.2c-141.1,65.1-338.7-42.9-356.1-2c-6.9,16.1,23.7,32.9,21.2,54.3
		c-4.4,38.2-112.1,74.3-479.7,88c-106.7,44.4-161.7,102.8-192.3,149C2128.8,2276.7,2162.8,2438.5,2083.9,2463.7z"/>
	<path class="st5" d="M3154.4,754.4c-17,82.4-41.8,162.7-75.8,238.8c-33.7,75.9-76.8,147.2-128.5,212.2
		c-25.9,32.3-53.4,63.4-82.1,93.6c-14.7,14.9-29,29.9-44.1,44.5c-14.8,14.8-29.7,29.5-44.8,44.2l-90.5,88.3l-22.5,22.3l-22.2,22.7
		c-14.9,15-29.4,30.5-44,45.8c-29.2,30.7-57.5,62.2-85.5,94c-13.9,16-27.8,32-41.2,48.4l-20.2,24.5l-20,24.7l-19.9,24.8l-19.4,25.1
		l-19.4,25.1l-18.9,25.5l-18.8,25.6l-18.3,26c-12.2,17.3-24.4,34.6-36,52.3l-17.6,26.4l-8.8,13.2l-8.5,13.4
		c-11.1,18-22.5,35.9-33.4,54l-31.9,54.9c-10.5,18.4-20.2,37.2-30.2,55.9c-39,75.1-73.8,152.5-101.3,232.4l4.4,1.7
		c34.3-76.7,72.9-151.3,115.7-223.6l16.3-26.9c5.5-8.9,10.5-18.1,16.3-26.9l33.9-52.9c23.5-34.7,46.9-69.4,71.5-103.4
		c12-17.2,24.6-33.9,37.2-50.6l18.9-25.1l19.4-24.7l19.2-24.8l19.7-24.5l19.7-24.5l20.1-24.1c53.8-64.2,109.2-127,167.1-187.6
		s117.9-119.1,177.9-178.4c15-14.9,30-29.7,44.8-45c14.9-15.1,29.2-30.8,43.8-46.3c28.6-31.6,56.4-64,82.1-98.3
		c6.4-8.6,12.4-17.5,18.6-26.2l9.2-13.2l8.6-13.6c5.7-9.1,11.6-18,17.1-27.2l15.9-27.9c5.5-9.2,10-18.9,14.8-28.5l7.1-14.4
		c2.4-4.8,4.8-9.6,6.8-14.5c8.4-19.7,17.3-39.1,24.8-59c30-79.8,49.8-163.2,58-247.3L3154.4,754.4z"/>
	
		<linearGradient id="SVGID_9_" gradientUnits="userSpaceOnUse" x1="4042.7646" y1="3347.7129" x2="5227.5049" y2="4354.7329" gradientTransform="matrix(-1 0 0 -1 4420 3710)">
		<stop  offset="0" style="stop-color:#690F63"/>
		<stop  offset="1" style="stop-color:#691263"/>
	</linearGradient>
	<path class="st12" d="M1657.8,2464.7c17.2,13.3,46.8,21.8,68,11.3c81.9-40.5-62.3-315.2-54.8-667.2
		c8.7-407.6,213.2-567.8,90.9-781.5c-58.8-102.8-125.3-99.3-174.7-224.6c-68.7-174.4,26.6-266.8-28.7-403.3
		c-63.6-156.9-288.4-278.6-464.9-227.7c-237.3,68.5-323.4,430.8-239.8,640.9c54.3,136.5,187.3,226.4,164.3,258.3
		c-21.9,30.4-135.4-62.2-215.8-19.6c-105.3,55.7-130.6,330.7-10.4,449.4c110.6,109.2,333.1,74.8,335.6,119.1
		c1,17.4-33.5,22.8-38.4,43.8c-8.8,37.5,80.2,107.9,421.3,245.8c85.3,78,117.1,151.7,130.2,205.4
		C1679.1,2273.5,1592.2,2414.2,1657.8,2464.7z"/>
	<path class="st5" d="M1231.9,493.3c-12,83.3-16,167.3-9.9,250.3c5.9,82.8,22.3,164.5,48.7,243.2c13.3,39.2,28.7,77.8,45.4,115.9
		c8.7,19,17.1,38,26.3,56.8c8.9,18.9,17.9,37.8,27.1,56.8l55.2,113.8l13.6,28.6l13.2,28.9c8.9,19.2,17.3,38.7,25.8,58.1
		c17,38.8,32.9,78.1,48.4,117.5c7.6,19.8,15.3,39.5,22.3,59.5l10.8,29.9l10.3,30l10.3,30.1l9.8,30.2l9.7,30.2l9.2,30.4l9,30.5
		l8.3,30.7c5.6,20.4,11.2,40.8,16.1,61.4l7.6,30.8l3.8,15.4l3.4,15.5c4.3,20.7,8.9,41.4,13.1,62.2l11.4,62.5
		c3.7,20.9,6.3,41.9,9.4,62.8c11.2,83.9,17.6,168.5,16.3,253l-4.7,0.1c-6.2-83.8-17.1-167.1-32.8-249.6l-6.2-30.8
		c-2.1-10.3-3.7-20.6-6.2-30.8l-13.9-61.3c-10.3-40.6-20.5-81.2-32.1-121.5c-5.4-20.2-11.7-40.2-17.8-60.3l-9.2-30l-9.8-29.8
		l-9.6-29.9l-10.1-29.8l-10.2-29.7l-10.7-29.5c-28.8-78.7-59.5-156.6-93.4-233.2s-70.4-152-106.7-228.3c-9-19.1-18.1-38.2-26.8-57.5
		s-17-38.9-25.4-58.4c-16.1-39.4-31.3-79.4-43.8-120.4c-3.1-10.3-5.7-20.7-8.6-31l-4.2-15.5l-3.5-15.7c-2.3-10.5-4.8-20.9-6.8-31.4
		l-5.4-31.7c-2.1-10.5-3-21.2-4.2-31.8l-1.8-15.9c-0.6-5.3-1.3-10.6-1.5-16c-1.2-21.3-3-42.6-3.2-63.9
		c-1.1-85.3,8.6-170.4,29.6-252.3L1231.9,493.3z"/>
	
		<linearGradient id="SVGID_10_" gradientUnits="userSpaceOnUse" x1="2875.0237" y1="1200.0684" x2="3250.1938" y2="1996.4781" gradientTransform="matrix(-1 0 0 -1 4420 3710)">
		<stop  offset="0" style="stop-color:#690F63"/>
		<stop  offset="1" style="stop-color:#691263"/>
	</linearGradient>
	<path class="st13" d="M1637.1,2379.4c9.2,3,23,2.1,30.3-5.6c28.2-29.4-74-122.8-124.2-271.8c-58.2-172.4-4.3-222.3-88.1-293.4
		c-40.3-34.2-90.7-8.3-130.4-53.4c-55.3-62.8,1.4-178.8-42.4-227.7c-50.5-56.2-163.3-73.2-229.7-25.1
		c-89.2,64.8-98.7,240.3-31.8,315.8c43.5,49,87.5,54.6,82.6,71.5c-4.6,16.1-12.4-3.9-39.7,26.1c-35.8,39.3-4.7,158.6,63.8,190.2
		c63,29.1,151.2-19.1,158.9-0.9c3.1,7.2,99.7-12.1,100.8-2.6c2,17.1-60.3,59.9,103.8,66.1c47.6,19.8,72.2,45.9,85.8,66.5
		C1617,2295.9,1601.9,2368.1,1637.1,2379.4z"/>
	<path class="st5" d="M1159.3,1616.5c7.6,36.8,18.7,72.6,33.8,106.6c15,33.9,34.3,65.7,57.3,94.7c11.5,14.4,23.8,28.3,36.7,41.8
		c6.6,6.6,13,13.4,19.7,19.9s13.3,13.2,20,19.7l40.4,39.4l10.1,9.9l9.9,10.1c6.6,6.7,13.1,13.6,19.6,20.5c13,13.7,25.7,27.8,38.2,42
		c6.2,7.2,12.4,14.3,18.4,21.6l9.1,10.9l8.9,11l8.9,11.1l8.7,11.2l8.7,11.2l8.5,11.4l8.4,11.4l8.2,11.6c5.4,7.7,10.9,15.4,16.1,23.4
		l7.9,11.8l3.9,5.9l3.8,6c5,8,10,16,14.9,24.1l14.3,24.5c4.7,8.2,9,16.6,13.5,24.9c17.4,33.5,32.9,68.1,45.2,103.7l-1.9,0.8
		c-15.3-34.2-32.5-67.5-51.6-99.8l-7.3-12c-2.4-4-4.7-8.1-7.3-12l-15.1-23.6c-10.5-15.5-20.9-31-31.9-46.1
		c-5.3-7.7-11-15.1-16.6-22.6l-8.4-11.2l-8.7-11l-8.6-11.1l-8.8-10.9l-8.8-10.9l-9-10.8c-24-28.7-48.7-56.7-74.6-83.7
		s-52.6-53.1-79.4-79.6c-6.7-6.6-13.4-13.3-20-20.1s-13-13.8-19.5-20.7c-12.8-14.1-25.2-28.6-36.7-43.9c-2.8-3.8-5.5-7.8-8.3-11.7
		l-4.1-5.9l-3.8-6.1c-2.5-4.1-5.2-8-7.6-12.2l-7.1-12.5c-2.5-4.1-4.5-8.4-6.6-12.7l-3.2-6.4c-1.1-2.1-2.1-4.3-3-6.5
		c-3.8-8.8-7.7-17.4-11-26.3c-13.4-35.5-22.1-72.6-25.9-110.4L1159.3,1616.5z"/>
	
		<linearGradient id="SVGID_11_" gradientUnits="userSpaceOnUse" x1="2447.3518" y1="-338.6903" x2="2493.4221" y2="997.4296" gradientTransform="matrix(-1 0 0 -1 4420 3710)">
		<stop  offset="0" style="stop-color:#FF928E"/>
		<stop  offset="1" style="stop-color:#F5CAD3"/>
	</linearGradient>
	<path class="st14" d="M2554.9,2328.4h-1252c-93.7,0-163.8,88.2-146.4,180.3c74.8,395.6,226.2,745.2,383.5,1037.6
		c35.2,65.3,103.2,107.1,177.4,107.1H2126c75.3,0,144.5-41,180.7-107c196.4-357.4,292.4-712.1,372.5-1059.1
		C2697.7,2407.3,2637,2328.4,2554.9,2328.4z"/>
	
		<linearGradient id="SVGID_12_" gradientUnits="userSpaceOnUse" x1="2541.7249" y1="1863.5804" x2="2407.885" y2="314.8605" gradientTransform="matrix(-1 0 0 -1 4420 3710)">
		<stop  offset="0" style="stop-color:#FF928E"/>
		<stop  offset="1" style="stop-color:#F5CAD3"/>
	</linearGradient>
	<path class="st15" d="M2744,2501.7H1103.6c-11.1,0-20.1-9-20.1-20.1v-217.4c0-11.1,9-20.1,20.1-20.1H2744c11.1,0,20.1,9,20.1,20.1
		v217.4C2764.1,2492.7,2755.1,2501.7,2744,2501.7z"/>
	<path class="st1" d="M1253.7,2231c-0.3-11.8-0.5-23.5-0.7-35.1c0-2.4,1.9-4.4,4.3-4.5c0,0,0,0,0,0c2.4,0,4.3,1.9,4.5,4.3
		c0.2,11.6,0.4,23.3,0.7,35.1c0.1,2.4-1.9,4.4-4.3,4.5c0,0,0,0,0,0h-0.1C1255.7,2235.3,1253.7,2233.4,1253.7,2231z M1252.5,2160.8
		c-0.1-11.8-0.2-23.5-0.3-35.1c0-2.4,1.9-4.4,4.4-4.4l0,0c2.4,0,4.4,2,4.4,4.4c0.1,11.6,0.1,23.3,0.3,35.1c0,2.4-1.9,4.4-4.3,4.4
		c0,0,0,0,0,0l0,0C1254.5,2165.1,1252.5,2163.2,1252.5,2160.8L1252.5,2160.8z M1256.5,2094.9c-2.4,0-4.4-2-4.4-4.4
		c0-11.8,0.1-23.5,0.2-35.1c0-2.4,2-4.4,4.4-4.4l0,0c2.4,0,4.4,2,4.3,4.4v0c-0.1,11.6-0.2,23.3-0.2,35.1
		C1260.9,2092.9,1258.9,2094.9,1256.5,2094.9L1256.5,2094.9z M1257.2,2024.7c-2.4,0-4.4-2-4.3-4.5c0,0,0,0,0,0
		c0.2-11.8,0.4-23.5,0.7-35.1c0.1-2.4,2-4.3,4.4-4.3h0.1c2.4,0.1,4.3,2.1,4.3,4.5c0,0,0,0,0,0c-0.3,11.6-0.5,23.2-0.7,35.1
		C1261.6,2022.8,1259.6,2024.7,1257.2,2024.7L1257.2,2024.7z M1258.9,1954.5c-2.4-0.1-4.3-2.1-4.2-4.5c0,0,0,0,0,0
		c0.4-11.8,0.8-23.5,1.3-35.1c0.1-2.4,2.1-4.3,4.5-4.3s4.3,2.1,4.3,4.5c0,0.1,0,0.1,0,0.2c-0.5,11.5-0.9,23.2-1.3,35
		c-0.1,2.4-2,4.2-4.4,4.2L1258.9,1954.5z M1261.8,1884.4c-2.4-0.1-4.3-2.2-4.2-4.6c0,0,0,0,0,0c0.6-11.8,1.3-23.5,2-35.1
		c0.2-2.4,2.3-4.2,4.8-4c2.3,0.2,4.1,2.2,4,4.5c-0.7,11.5-1.4,23.2-2,35c-0.1,2.3-2,4.2-4.4,4.2L1261.8,1884.4z M1266,1814.3
		c-2.4-0.2-4.2-2.3-4.1-4.7c0,0,0,0,0,0c0.9-11.8,1.8-23.5,2.8-35c0.2-2.4,2.2-4.2,4.6-4c0,0,0.1,0,0.1,0c2.4,0.2,4.2,2.3,4,4.7
		c-1,11.5-1.9,23.1-2.8,34.9c-0.2,2.3-2.1,4.1-4.4,4.1L1266,1814.3z M1271.9,1744.4c-2.4-0.2-4.2-2.4-3.9-4.8c0,0,0,0,0,0
		c1.2-11.8,2.4-23.5,3.7-35c0.3-2.4,2.6-4.1,5-3.7c2.3,0.3,4,2.4,3.8,4.7c-1.3,11.4-2.5,23.1-3.7,34.8c-0.2,2.3-2.1,4-4.4,4
		L1271.9,1744.4z M1279.6,1674.6c-2.4-0.3-4.1-2.5-3.8-4.9c1.5-11.8,3.1-23.4,4.7-34.8c0.4-2.4,2.7-4,5-3.6c2.3,0.4,3.9,2.5,3.6,4.9
		c-1.6,11.4-3.2,22.9-4.7,34.7c-0.3,2.2-2.1,3.8-4.3,3.8C1279.9,1674.6,1279.8,1674.6,1279.6,1674.6L1279.6,1674.6z M1289.3,1605.1
		c-2.4-0.4-4-2.6-3.6-5c1.9-11.8,3.9-23.5,5.9-34.7c0.4-2.4,2.7-3.9,5.1-3.5c2.4,0.4,3.9,2.7,3.5,5.1c-2,11.2-4,22.8-5.9,34.5
		C1294,1603.9,1291.8,1605.5,1289.3,1605.1L1289.3,1605.1z M1301.7,1536c-2.4-0.5-3.9-2.8-3.4-5.2c2.3-11.6,4.8-23.2,7.4-34.4
		c0.6-2.4,3-3.8,5.3-3.2c2.3,0.6,3.7,2.8,3.2,5.1c-2.5,11.2-5,22.7-7.3,34.2C1306.3,1534.9,1304,1536.5,1301.7,1536L1301.7,1536z
		 M1317,1467.5c-2.3-0.6-3.8-3-3.2-5.3c0,0,0,0,0,0c2.9-11.6,6-23,9.2-34c0.6-2.3,3-3.8,5.4-3.1c2.3,0.6,3.8,3,3.1,5.4
		c0,0.1,0,0.1-0.1,0.2c-3.1,10.9-6.2,22.2-9.1,33.8c-0.5,1.9-2.2,3.3-4.3,3.3C1317.7,1467.6,1317.4,1467.6,1317,1467.5z M1336,1400
		c-2.3-0.7-3.6-3.2-2.8-5.5c3.7-11.4,7.5-22.7,11.4-33.3c0.9-2.2,3.5-3.3,5.8-2.3c2.1,0.9,3.2,3.2,2.5,5.3
		c-3.8,10.6-7.6,21.7-11.3,33C1340.8,1399.4,1338.3,1400.7,1336,1400C1336,1400,1336,1400,1336,1400L1336,1400z M1359.7,1334
		c-2.2-0.9-3.3-3.5-2.4-5.7c0,0,0,0,0,0c4.6-11.1,9.4-22,14.2-32.3c1-2.2,3.6-3.2,5.8-2.3s3.2,3.6,2.3,5.8c0,0.1-0.1,0.1-0.1,0.2
		c-4.8,10.2-9.5,20.9-14,31.9C1364.5,1333.8,1362,1334.9,1359.7,1334C1359.7,1334,1359.7,1334,1359.7,1334L1359.7,1334z
		 M1389.2,1270.4c-2.1-1.1-2.9-3.8-1.8-5.9c0,0,0,0,0,0c5.7-10.6,11.7-20.8,17.8-30.5c1.2-2.1,3.9-2.8,6-1.6c2.1,1.2,2.8,3.9,1.6,6
		c-0.1,0.1-0.1,0.2-0.2,0.3c-6,9.5-11.9,19.6-17.5,30C1394,1270.7,1391.3,1271.5,1389.2,1270.4
		C1389.2,1270.4,1389.2,1270.4,1389.2,1270.4L1389.2,1270.4z M1426.1,1210.8c-1.9-1.4-2.3-4.2-0.9-6.1c7.2-9.7,14.7-18.9,22.3-27.5
		c1.6-1.8,4.4-2,6.2-0.4c1.8,1.6,2,4.4,0.3,6.2c-7.5,8.4-14.8,17.4-21.8,26.9C1430.8,1211.9,1428.1,1212.3,1426.1,1210.8
		L1426.1,1210.8z M1472.2,1158.2c-1.6-1.8-1.5-4.6,0.3-6.2c8.7-8,17.9-15.5,27.5-22.4c2-1.4,4.7-0.8,6.1,1.2c1.3,1.9,0.9,4.5-1,5.9
		c-9.3,6.7-18.3,14-26.8,21.8C1476.6,1160.1,1473.8,1160,1472.2,1158.2L1472.2,1158.2z M1836.2,1120.2c-11.1-4.2-22.2-8.1-32.9-11.6
		c-2.3-0.7-3.7-3.1-3-5.4c0.7-2.3,3.1-3.7,5.4-3c0.1,0,0.2,0.1,0.3,0.1c10.9,3.5,22.1,7.4,33.3,11.7c2.3,0.8,3.5,3.3,2.8,5.6
		c-0.8,2.3-3.3,3.5-5.6,2.8C1836.4,1120.3,1836.3,1120.2,1836.2,1120.2L1836.2,1120.2z M1528.4,1116.6c-1.2-2.1-0.4-4.8,1.7-6
		c0,0,0,0,0.1,0c10.4-5.7,21.2-10.7,32.3-14.9c2.3-0.7,4.8,0.5,5.5,2.8c0.7,2.1-0.3,4.4-2.4,5.3c-10.7,4.1-21.1,9-31.2,14.5
		C1532.2,1119.5,1529.5,1118.7,1528.4,1116.6C1528.3,1116.6,1528.3,1116.5,1528.4,1116.6L1528.4,1116.6z M1769.8,1099
		c-11.5-2.9-22.9-5.4-34-7.3c-2.4-0.3-4.1-2.6-3.7-5c0.3-2.4,2.6-4.1,5-3.7c0.1,0,0.2,0,0.3,0.1c11.3,2,22.9,4.5,34.6,7.5
		c2.3,0.6,3.8,3,3.2,5.3c-0.5,1.9-2.2,3.3-4.2,3.3C1770.5,1099.1,1770.2,1099.1,1769.8,1099z M1593.1,1090.3
		c-0.6-2.4,0.9-4.7,3.2-5.3c11.5-2.8,23.2-4.9,35-6.2c2.4-0.2,4.5,1.6,4.8,4c0.2,2.3-1.4,4.4-3.8,4.7c-11.4,1.3-22.8,3.4-33.9,6.1
		c-0.3,0.1-0.7,0.1-1,0.1C1595.4,1093.7,1593.6,1092.3,1593.1,1090.3L1593.1,1090.3z M1701.4,1087c-11.1-1-22-1.5-32.7-1.5h-2
		c-2.4,0-4.4-2-4.4-4.4s2-4.4,4.4-4.4h2c10.9,0,22.2,0.5,33.5,1.6c2.4,0.2,4.2,2.4,4,4.8c-0.2,2.2-2.1,4-4.4,4L1701.4,1087z"/>
	<path class="st1" d="M1330.4,2244.3l-0.5-15.1c-0.1-2.4,1.8-4.4,4.3-4.5c0,0,0,0,0,0c2.4,0,4.3,1.9,4.5,4.3l0.5,15.1
		c0.1,2.4-1.8,4.5-4.2,4.5c0,0,0,0,0,0h-0.1C1332.4,2248.5,1330.5,2246.6,1330.4,2244.3z M1329,2194.1c-0.3-11.8-0.6-23.5-0.8-35.1
		c-0.1-2.4,1.9-4.4,4.3-4.5c0,0,0,0,0,0h0.1c2.4,0,4.3,1.9,4.4,4.3c0.2,11.6,0.5,23.3,0.8,35.1c0.1,2.4-1.9,4.4-4.3,4.5h-0.1
		C1331,2198.3,1329.1,2196.4,1329,2194.1L1329,2194.1z M1327.5,2123.9c-0.2-11.8-0.3-23.5-0.5-35.1c0-2.4,1.9-4.4,4.3-4.4
		c0,0,0,0,0,0l0,0c2.4,0,4.4,1.9,4.4,4.3c0.1,11.6,0.3,23.3,0.5,35.1c0,2.4-1.9,4.4-4.3,4.5c0,0,0,0,0,0h-0.1
		C1329.5,2128.2,1327.6,2126.3,1327.5,2123.9L1327.5,2123.9z M1326.8,2053.7c0-9.5-0.1-19-0.1-28.3v-6.8c0-2.4,2-4.4,4.4-4.4l0,0
		c2.4,0,4.4,2,4.4,4.4l0,0v6.8c0,9.3,0,18.8,0.1,28.3c0,2.4-1.9,4.4-4.4,4.4l0,0C1328.8,2058,1326.8,2056.1,1326.8,2053.7
		L1326.8,2053.7L1326.8,2053.7z M1331.3,1987.8c-2.4,0-4.4-2-4.3-4.4c0.1-11.8,0.2-23.6,0.4-35.1c0.1-2.4,2.1-4.3,4.4-4.3
		c2.4,0,4.4,2,4.3,4.4c-0.2,11.6-0.3,23.2-0.4,35.1C1335.6,1985.9,1333.7,1987.8,1331.3,1987.8L1331.3,1987.8z M1332.3,1917.6
		c-2.4-0.1-4.3-2.1-4.3-4.5c0,0,0,0,0,0c0.3-11.9,0.6-23.6,0.9-35.1c0.1-2.4,2.1-4.3,4.5-4.3c2.4,0.1,4.3,2.1,4.3,4.5c0,0,0,0,0,0
		c-0.3,11.5-0.6,23.2-0.9,35.1C1336.7,1915.7,1334.7,1917.6,1332.3,1917.6L1332.3,1917.6z M1334.3,1847.5c-2.4-0.1-4.3-2.1-4.2-4.5
		c0,0,0,0,0,0c0.5-11.9,1-23.6,1.5-35.1c0.1-2.4,2.2-4.3,4.6-4.2c2.4,0.1,4.3,2.2,4.2,4.6c-0.5,11.5-1,23.2-1.5,35
		c-0.1,2.4-2,4.2-4.4,4.2L1334.3,1847.5z M1337.5,1777.3c-2.4-0.1-4.3-2.2-4.1-4.6c0,0,0,0,0,0c0.7-11.9,1.4-23.6,2.2-35.1
		c0.2-2.4,2.3-4.2,4.7-4.1c2.4,0.2,4.2,2.3,4.1,4.7c-0.8,11.5-1.5,23.1-2.2,35c-0.1,2.3-2.1,4.1-4.4,4.1L1337.5,1777.3z
		 M1342.2,1707.3c-2.4-0.2-4.2-2.3-4-4.7c1-11.9,2-23.5,3-35c0.2-2.4,2.3-4.2,4.7-4.1c2.4,0.2,4.2,2.3,4.1,4.7c0,0.1,0,0.1,0,0.2
		c-1.1,11.4-2.1,23.1-3,34.9c-0.2,2.3-2.1,4-4.4,4L1342.2,1707.3z M1348.7,1637.4c-2.4-0.3-4.1-2.4-3.9-4.8
		c1.3-11.9,2.6-23.5,4.1-34.9c0.4-2.4,2.6-4,5-3.7c2.3,0.4,3.9,2.4,3.7,4.8c-1.4,11.4-2.7,23-4,34.8c-0.2,2.2-2.1,3.9-4.4,3.9
		L1348.7,1637.4z M1357.2,1567.8c-2.4-0.3-4.1-2.6-3.7-5c0,0,0,0,0,0c1.7-11.8,3.5-23.5,5.3-34.8c0.3-2.4,2.5-4.1,4.9-3.8
		c2.4,0.3,4.1,2.5,3.8,4.9c0,0.1,0,0.2-0.1,0.3c-1.8,11.2-3.6,22.9-5.3,34.6C1361.8,1566.4,1359.6,1568.1,1357.2,1567.8
		C1357.2,1567.7,1357.2,1567.7,1357.2,1567.8L1357.2,1567.8z M1368.4,1498.5c-2.4-0.4-4-2.7-3.5-5.1c2.2-11.7,4.5-23.3,6.9-34.5
		c0.6-2.3,3-3.8,5.3-3.2c2.2,0.6,3.6,2.7,3.2,5c-2.4,11.1-4.7,22.7-6.8,34.3c-0.4,2.1-2.2,3.6-4.3,3.6
		C1368.9,1498.5,1368.6,1498.5,1368.4,1498.5L1368.4,1498.5z M1382.8,1429.8c-2.4-0.6-3.8-3-3.2-5.3c0,0,0,0,0,0
		c2.8-11.6,5.8-23.1,8.9-34.1c0.7-2.3,3.2-3.6,5.5-2.9c2.2,0.7,3.5,3,2.9,5.2c-3.1,10.9-6,22.3-8.8,33.8
		C1387.5,1428.9,1385.1,1430.4,1382.8,1429.8C1382.8,1429.8,1382.8,1429.8,1382.8,1429.8L1382.8,1429.8z M1401.5,1362.2
		c-2.3-0.7-3.6-3.2-2.8-5.5c3.7-11.5,7.6-22.7,11.6-33.3c0.8-2.3,3.2-3.6,5.5-2.8c2.3,0.8,3.6,3.2,2.8,5.5c0,0.1-0.1,0.2-0.1,0.3
		c-3.9,10.5-7.8,21.6-11.5,32.9C1406.3,1361.7,1403.8,1363,1401.5,1362.2L1401.5,1362.2z M1425.9,1296.5c-2.2-1-3.2-3.6-2.2-5.8
		c4.9-11.1,10.1-21.8,15.3-31.8c1-2.2,3.6-3.1,5.8-2.1c2.2,1,3.1,3.6,2.1,5.8c-0.1,0.1-0.1,0.2-0.2,0.3
		c-5.2,9.9-10.2,20.4-15.1,31.3C1430.7,1296.4,1428.1,1297.5,1425.9,1296.5L1425.9,1296.5z M1457.9,1234.2c-2.1-1.3-2.7-4-1.4-6.1
		c0,0,0,0,0,0c6.5-10.3,13.3-20,20.3-29c1.5-1.9,4.3-2.2,6.2-0.7c1.9,1.5,2.2,4.2,0.8,6.1c-6.8,8.8-13.5,18.3-19.8,28.3
		C1462.7,1234.9,1460,1235.5,1457.9,1234.2C1457.9,1234.2,1457.9,1234.2,1457.9,1234.2L1457.9,1234.2z M1500.3,1178.6
		c-1.7-1.7-1.7-4.5,0-6.2c0,0,0,0,0,0c8.3-8.5,17.2-16.4,26.6-23.6c1.9-1.5,4.7-1.1,6.2,0.8c1.5,1.9,1.1,4.7-0.8,6.2
		c-9.1,7-17.7,14.7-25.7,22.8C1504.8,1180.3,1502.1,1180.3,1500.3,1178.6C1500.4,1178.6,1500.4,1178.6,1500.3,1178.6L1500.3,1178.6z
		 M1862.5,1146.6c-11.1-4.2-22.2-8.2-32.9-11.7c-2.3-0.7-3.6-3.2-2.9-5.5c0.7-2.3,3.2-3.6,5.5-2.9c0.1,0,0.1,0,0.2,0.1
		c10.8,3.6,22,7.6,33.2,11.9c2.3,0.9,3.4,3.4,2.5,5.7c-0.6,1.7-2.3,2.8-4.1,2.8C1863.6,1146.8,1863,1146.7,1862.5,1146.6
		L1862.5,1146.6z M1554.9,1135c-1.2-2.1-0.4-4.8,1.7-6c0,0,0,0,0,0c10.4-5.8,21.2-10.7,32.4-14.9c2.2-0.9,4.8,0.1,5.8,2.3
		c0.9,2.2-0.1,4.8-2.3,5.8c-0.1,0.1-0.3,0.1-0.4,0.1c-10.7,4-21.1,8.7-31.1,14.3C1558.7,1137.9,1556,1137.1,1554.9,1135
		C1554.8,1135,1554.8,1135,1554.9,1135L1554.9,1135z M1796.3,1124.6c-11.5-3.2-22.9-5.9-33.8-8.2c-2.4-0.6-3.8-3-3.2-5.3
		c0.5-2.2,2.7-3.7,5-3.3c11.2,2.3,22.7,5.1,34.4,8.3c2.4,0.6,3.8,2.9,3.2,5.3s-2.9,3.8-5.3,3.2
		C1796.5,1124.6,1796.4,1124.6,1796.3,1124.6L1796.3,1124.6z M1619.8,1109.6c-0.5-2.4,1-4.7,3.4-5.2c11.6-2.4,23.4-4.1,35.2-4.9
		c2.4-0.3,4.6,1.5,4.8,3.9s-1.5,4.6-3.9,4.8c-0.1,0-0.2,0-0.3,0c-11.4,0.9-22.8,2.5-34.1,4.8
		C1622.6,1113.5,1620.3,1112,1619.8,1109.6C1619.8,1109.6,1619.8,1109.6,1619.8,1109.6L1619.8,1109.6z M1728.2,1110.5
		c-11.8-1.5-23.4-2.5-34.6-2.9c-2.4-0.1-4.3-2.1-4.2-4.6c0-2.4,2-4.3,4.3-4.2c0.1,0,0.2,0,0.2,0c11.4,0.4,23.3,1.4,35.4,3
		c2.4,0.2,4.2,2.4,4,4.8c-0.2,2.4-2.4,4.2-4.8,4C1728.4,1110.5,1728.3,1110.5,1728.2,1110.5L1728.2,1110.5z"/>
	<path class="st1" d="M1414.6,2239l-0.3-11.9c-0.1-2.4,1.8-4.4,4.3-4.5c2.4,0,4.4,1.9,4.5,4.3l0.3,11.8c0.1,2.4-1.8,4.4-4.3,4.5
		h-0.1C1416.6,2243.3,1414.7,2241.4,1414.6,2239z M1413.4,2192c-0.3-11.8-0.5-23.5-0.8-35.1c0-2.4,1.9-4.4,4.3-4.5h0.1
		c2.4,0,4.3,1.9,4.4,4.3c0.2,11.6,0.5,23.3,0.8,35.1c0.1,2.4-1.9,4.4-4.3,4.5c0,0,0,0,0,0h-0.1
		C1415.4,2196.3,1413.4,2194.4,1413.4,2192z M1412,2121.8c-0.2-11.8-0.3-23.5-0.5-35.1c0-2.4,1.9-4.4,4.3-4.4c0,0,0,0,0,0
		c2.3-0.1,4.3,1.7,4.4,4c0,0.1,0,0.2,0,0.3c0.1,11.6,0.3,23.3,0.5,35.1c0,2.4-1.9,4.4-4.3,4.5c0,0,0,0,0,0h-0.1
		C1414,2126.1,1412,2124.2,1412,2121.8z M1411.2,2051.6c-0.1-11.8-0.1-23.5-0.1-35.1c0-2.4,2-4.4,4.4-4.4l0,0c2.4,0,4.4,2,4.4,4.4
		c0,11.6,0,23.3,0.1,35.1c0,2.4-1.9,4.4-4.4,4.4l0,0C1413.2,2056,1411.2,2054,1411.2,2051.6
		C1411.2,2051.6,1411.2,2051.6,1411.2,2051.6L1411.2,2051.6z M1415.6,1985.8c-2.4,0-4.4-2-4.4-4.4v0c0.1-11.9,0.1-23.6,0.3-35.1
		c0-2.4,2-4.3,4.4-4.3l0,0c2.4,0,4.4,2,4.3,4.4c0,0,0,0,0,0c-0.1,11.5-0.2,23.2-0.3,35.1C1419.9,1983.8,1417.9,1985.8,1415.6,1985.8
		L1415.6,1985.8z M1416.3,1915.6c-2.4,0-4.4-2-4.3-4.5c0,0,0,0,0,0c0.2-11.9,0.4-23.6,0.7-35.1c0.1-2.4,2.1-4.3,4.5-4.3
		c2.4,0.1,4.3,2.1,4.3,4.5c0,0,0,0,0,0c-0.3,11.5-0.5,23.2-0.7,35.1C1420.7,1913.6,1418.7,1915.6,1416.3,1915.6L1416.3,1915.6z
		 M1417.9,1845.4c-2.4-0.1-4.3-2.1-4.3-4.5c0.4-11.9,0.8-23.6,1.2-35.1c0.2-2.4,2.3-4.2,4.7-4.1c2.3,0.2,4.1,2.1,4.1,4.4
		c-0.4,11.5-0.9,23.2-1.2,35c-0.1,2.4-2,4.2-4.4,4.3L1417.9,1845.4z M1420.5,1775.3c-2.4-0.1-4.3-2.2-4.2-4.6
		c0.6-11.9,1.2-23.6,1.8-35.1c0.2-2.4,2.2-4.2,4.6-4.1c2.4,0.1,4.3,2.2,4.1,4.6c0,0,0,0,0,0c-0.7,11.5-1.3,23.1-1.8,35
		c-0.1,2.3-2,4.2-4.4,4.2L1420.5,1775.3z M1424.5,1705.2c-2.4-0.2-4.2-2.3-4.1-4.7c0,0,0,0,0,0c0.8-11.9,1.7-23.6,2.6-35.1
		c0.3-2.4,2.4-4.2,4.8-3.9c2.3,0.2,4.1,2.3,3.9,4.6c-0.9,11.4-1.8,23.1-2.6,35c-0.2,2.3-2.1,4.1-4.4,4.1L1424.5,1705.2z
		 M1430,1635.2c-2.4-0.2-4.2-2.3-4-4.7c0,0,0,0,0,0c1.1-11.9,2.3-23.6,3.5-35c0.4-2.4,2.6-4,5-3.7c2.2,0.3,3.8,2.3,3.7,4.6
		c-1.2,11.4-2.4,23-3.5,34.9c-0.2,2.3-2.1,4-4.4,4L1430,1635.2z M1437.3,1565.4c-2.4-0.3-4.1-2.5-3.8-4.9c1.5-11.9,3-23.7,4.6-34.9
		c0.4-2.4,2.7-4,5.1-3.6c2.3,0.4,3.9,2.5,3.6,4.8c-1.6,11.2-3.1,22.8-4.6,34.7c-0.3,2.2-2.1,3.8-4.3,3.8
		C1437.6,1565.4,1437.5,1565.4,1437.3,1565.4L1437.3,1565.4z M1447,1495.9c-2.4-0.4-4-2.6-3.6-5c1.9-11.8,4-23.5,6.1-34.7
		c0.3-2.4,2.6-4.1,5-3.7c2.4,0.3,4.1,2.6,3.7,5c0,0.1,0,0.3-0.1,0.4c-2.1,11.1-4.1,22.7-6,34.5
		C1451.7,1494.6,1449.4,1496.3,1447,1495.9L1447,1495.9z M1459.7,1426.9c-2.4-0.5-3.9-2.9-3.4-5.2c2.6-11.8,5.3-23.4,8-34.3
		c0.7-2.3,3.1-3.7,5.4-3c2.2,0.6,3.6,2.9,3.1,5.1c-2.7,10.8-5.4,22.3-8,34C1464.4,1425.8,1462,1427.3,1459.7,1426.9L1459.7,1426.9z
		 M1476.6,1358.8c-2.3-0.7-3.7-3.1-3-5.4c0,0,0,0,0,0c3.4-11.6,7.1-22.9,10.8-33.6c0.7-2.3,3.2-3.6,5.5-2.9s3.6,3.2,2.9,5.5
		c0,0.1-0.1,0.2-0.1,0.3c-3.7,10.6-7.3,21.7-10.7,33.2c-0.5,1.9-2.3,3.2-4.2,3.2C1477.4,1359,1477,1358.9,1476.6,1358.8
		L1476.6,1358.8z M1499.5,1292.5c-2.2-0.9-3.3-3.5-2.3-5.8c4.8-11.3,9.8-22.1,15-32.1c0.9-2.2,3.5-3.3,5.8-2.3
		c2.2,0.9,3.3,3.5,2.3,5.8c-0.1,0.2-0.2,0.4-0.3,0.6c-5.1,9.8-10,20.3-14.7,31.4c-0.7,1.6-2.3,2.7-4,2.7
		C1500.6,1292.8,1500,1292.7,1499.5,1292.5L1499.5,1292.5z M1531.3,1230.1c-2-1.3-2.6-4-1.3-6.1c0,0,0,0,0,0
		c6.5-9.9,13.7-19.4,21.6-28.3c1.7-1.8,4.4-1.9,6.2-0.2c1.7,1.6,1.9,4.2,0.4,6c-7.6,8.6-14.5,17.8-20.8,27.3
		C1536,1230.9,1533.3,1231.4,1531.3,1230.1L1531.3,1230.1z M1808.9,1188c-10.6-5.7-21.1-10.8-31.2-15.3c-2.3-0.8-3.4-3.4-2.6-5.6
		c0.8-2.3,3.4-3.4,5.6-2.6c0.2,0.1,0.4,0.1,0.5,0.2c10.3,4.6,21,9.8,31.8,15.6c2.1,1.2,2.9,3.9,1.7,6
		C1813.5,1188.3,1811,1189.1,1808.9,1188L1808.9,1188z M1576.8,1177.3c-1.5-1.9-1.1-4.7,0.8-6.2c9.5-7.4,19.7-13.7,30.6-18.8
		c2.2-1,4.8-0.1,5.8,2.2s0.1,4.8-2.2,5.8l0,0c-10.3,4.8-20,10.8-28.9,17.7C1581,1179.6,1578.3,1179.3,1576.8,1177.3L1576.8,1177.3z
		 M1745.4,1160c-10.9-3.7-22-6.7-33.3-8.9c-2.4-0.4-4-2.7-3.6-5.1c0.4-2.4,2.7-4,5.1-3.6c0.1,0,0.2,0,0.3,0.1
		c11.7,2.3,23.2,5.4,34.4,9.2c2.3,0.7,3.6,3.1,2.9,5.5c-0.7,2.3-3.1,3.6-5.5,2.9C1745.6,1160.1,1745.5,1160,1745.4,1160L1745.4,1160
		z M1638.9,1146.4c-0.5-2.4,1.1-4.7,3.5-5.1c0,0,0,0,0,0c10.4-2,20.9-3,31.4-3c1.4,0,2.9,0,4.3,0c2.4,0.1,4.3,2.1,4.3,4.5
		c0,0,0,0,0,0c-0.1,2.4-2.1,4.3-4.5,4.3c-1.4,0-2.7,0-4.1,0c-10,0-20,0.9-29.8,2.8C1641.7,1150.3,1639.4,1148.8,1638.9,1146.4
		C1638.9,1146.4,1638.9,1146.4,1638.9,1146.4L1638.9,1146.4z"/>
	<path class="st1" d="M1481.6,2238.9l-0.1-2c-0.1-2.4,1.8-4.5,4.2-4.5c0,0,0,0,0,0c2.4-0.1,4.4,1.7,4.5,4.1c0,0.1,0,0.1,0,0.2
		l0.1,2.1c0,2.4-1.9,4.4-4.3,4.5c0,0,0,0,0,0h-0.1C1483.6,2243.2,1481.7,2241.3,1481.6,2238.9z M1480.6,2201.8
		c-0.3-11.8-0.6-23.5-0.9-35.1c-0.1-2.4,1.9-4.4,4.3-4.5c0,0,0,0,0,0c2.4-0.1,4.4,1.7,4.5,4.1c0,0.1,0,0.1,0,0.2
		c0.3,11.6,0.6,23.3,0.9,35.1c0.1,2.4-1.8,4.4-4.3,4.5h-0.2C1482.6,2206.1,1480.7,2204.2,1480.6,2201.8L1480.6,2201.8z M1479,2131.6
		c-0.2-11.8-0.5-23.5-0.7-35.1c0-2.4,1.9-4.4,4.3-4.5c0,0,0,0,0,0h0.1c2.4,0,4.3,1.9,4.4,4.3c0.2,11.6,0.4,23.3,0.7,35.1
		c0.1,2.4-1.9,4.4-4.3,4.5c0,0,0,0,0,0h-0.1C1481,2135.9,1479,2134,1479,2131.6L1479,2131.6z M1477.7,2061.4
		c-0.2-11.8-0.3-23.6-0.4-35.1c0-2.4,1.9-4.4,4.3-4.4c0,0,0,0,0,0l0,0c2.4,0,4.4,1.9,4.4,4.3c0.1,11.6,0.3,23.3,0.4,35.1
		c0,2.4-1.9,4.4-4.3,4.4h-0.1C1479.7,2065.7,1477.7,2063.8,1477.7,2061.4L1477.7,2061.4z M1477,1991.1c-0.1-11.9-0.1-23.6-0.2-35.1
		c0-2.4,2-4.4,4.4-4.4l0,0l0,0c2.4,0,4.4,2,4.4,4.4c0,11.5,0.1,23.2,0.2,35.1c0,2.4-1.9,4.4-4.4,4.4c0,0,0,0,0,0l0,0
		C1479,1995.5,1477,1993.6,1477,1991.1L1477,1991.1z M1481.2,1925.3c-2.4,0-4.4-2-4.4-4.4l0,0c0-11.9,0.1-23.6,0.2-35.1
		c0-2.4,2-4.4,4.4-4.3l0,0c2.4,0,4.4,2,4.3,4.4c-0.1,11.5-0.1,23.2-0.2,35.1C1485.6,1923.3,1483.6,1925.3,1481.2,1925.3
		L1481.2,1925.3z M1481.7,1855.1c-2.4,0-4.4-2-4.3-4.4c0.2-11.9,0.3-23.6,0.6-35.1c0-2.4,2-4.3,4.4-4.3h0.1c2.4,0,4.3,2,4.3,4.5
		c-0.2,11.5-0.4,23.2-0.6,35.1C1486.1,1853.2,1484.1,1855.1,1481.7,1855.1L1481.7,1855.1z M1483,1784.9c-2.4-0.1-4.3-2.1-4.3-4.5
		c0,0,0,0,0,0c0.3-11.9,0.6-23.6,1-35.1c0.2-2.4,2.3-4.2,4.7-4.1c2.3,0.2,4.1,2.1,4.1,4.4c-0.4,11.5-0.7,23.1-1,35
		C1487.4,1783,1485.5,1784.9,1483,1784.9L1483,1784.9z M1485.3,1714.7c-2.4-0.1-4.3-2.1-4.2-4.6c0.5-11.9,1-23.6,1.7-35.1
		c0.1-2.4,2.1-4.2,4.5-4.2c0,0,0.1,0,0.1,0c2.4,0.1,4.3,2.2,4.2,4.6c-0.6,11.4-1.2,23.1-1.7,35c-0.1,2.3-2,4.2-4.4,4.2
		L1485.3,1714.7z M1488.9,1644.6c-2.4-0.2-4.3-2.2-4.1-4.7c0.8-12,1.6-23.6,2.4-35.1c0.1-2.4,2.1-4.3,4.6-4.2
		c2.4,0.1,4.3,2.1,4.2,4.6c0,0.1,0,0.2,0,0.3c-0.9,11.4-1.7,23.1-2.4,35c-0.1,2.3-2.1,4.1-4.4,4.1L1488.9,1644.6z M1494.1,1574.6
		c-2.4-0.2-4.2-2.3-4-4.7c0,0,0,0,0,0c1.1-12,2.3-23.8,3.5-35c0.1-2.4,2.2-4.3,4.6-4.1s4.3,2.2,4.1,4.6c0,0.1,0,0.3,0,0.4
		c-1.2,11.2-2.4,22.9-3.4,34.8c-0.2,2.3-2.1,4-4.4,4L1494.1,1574.6z M1501.5,1504.9c-2.4-0.3-4.1-2.5-3.8-4.9c0,0,0,0,0,0
		c1.5-12,3.2-23.7,4.9-34.8c0.3-2.4,2.4-4.2,4.8-3.9c2.4,0.3,4.2,2.4,3.9,4.8c0,0.1,0,0.3-0.1,0.4c-1.7,11.1-3.3,22.7-4.9,34.7
		c-0.3,2.2-2.1,3.8-4.3,3.8C1501.9,1504.9,1501.7,1504.9,1501.5,1504.9L1501.5,1504.9z M1511.9,1435.5c-2.4-0.4-4-2.7-3.5-5.1
		c2.2-11.9,4.5-23.5,7-34.6c0.6-2.4,2.9-3.8,5.3-3.2c2.3,0.6,3.7,2.8,3.3,5.1c-2.4,10.9-4.8,22.4-6.9,34.2c-0.4,2.1-2.2,3.6-4.3,3.6
		C1512.5,1435.5,1512.2,1435.5,1511.9,1435.5L1511.9,1435.5z M1526.9,1366.9c-2.3-0.6-3.7-3.1-3.1-5.4c3.2-11.9,6.7-23.3,10.3-33.8
		c0.9-2.3,3.4-3.4,5.7-2.6c2.2,0.8,3.3,3.2,2.7,5.4c-3.5,10.4-6.9,21.6-10.1,33.3c-0.5,1.9-2.3,3.2-4.2,3.2
		C1527.6,1367.1,1527.2,1367,1526.9,1366.9L1526.9,1366.9z M1549.1,1300.4c-2.2-1-3.2-3.5-2.3-5.8c0,0,0,0,0,0
		c4.7-10.9,10.1-21.5,16.1-31.7c1.2-2.1,3.9-2.9,6-1.7c2.1,1.2,2.9,3.9,1.7,6c0,0.1-0.1,0.1-0.1,0.2c-5.8,9.9-11,20.2-15.6,30.8
		c-0.7,1.6-2.3,2.6-4,2.6C1550.2,1300.8,1549.6,1300.7,1549.1,1300.4L1549.1,1300.4z M1583.9,1239.9c-1.8-1.6-2.1-4.3-0.5-6.2l0,0
		c7.8-9.2,16.7-17.4,26.5-24.4c2.1-1.2,4.8-0.5,6,1.6c1.1,1.9,0.7,4.2-1,5.6c-9.2,6.6-17.6,14.3-24.9,22.9
		C1588.5,1241.3,1585.8,1241.5,1583.9,1239.9L1583.9,1239.9L1583.9,1239.9z M1808.9,1236.2c-10.7-5.7-21.2-10.9-31.2-15.4
		c-2.2-1.1-3-3.7-2-5.9c1-2,3.4-3,5.6-2.1c10.1,4.6,20.8,9.8,31.8,15.7c2.1,1.2,2.9,3.9,1.7,6
		C1813.6,1236.5,1811,1237.3,1808.9,1236.2L1808.9,1236.2z M1745.5,1208.1c-10.9-3.7-22-6.7-33.3-8.8c-2.4-0.5-3.9-2.8-3.4-5.2
		c0.5-2.3,2.7-3.8,5-3.4c11.7,2.2,23.2,5.3,34.5,9.2c2.3,0.8,3.5,3.3,2.7,5.6c-0.6,1.8-2.3,2.9-4.1,3
		C1746.4,1208.3,1745.9,1208.2,1745.5,1208.1L1745.5,1208.1z M1639.5,1198.8c-0.7-2.3,0.5-4.8,2.9-5.5c11.5-3.6,23.5-5.5,35.6-5.8
		h0.1c2.4,0,4.4,1.9,4.4,4.3c0,2.4-1.9,4.4-4.3,4.4c-11.3,0.2-22.4,2-33.2,5.4c-0.4,0.1-0.9,0.2-1.3,0.2
		C1641.8,1201.9,1640,1200.7,1639.5,1198.8L1639.5,1198.8z"/>
	
		<linearGradient id="SVGID_13_" gradientUnits="userSpaceOnUse" x1="1893.1388" y1="2452.2224" x2="1682.4387" y2="2201.2825" gradientTransform="matrix(-0.98 0.19 -0.19 -0.98 4603.0698 3036.0601)">
		<stop  offset="0" style="stop-color:#F5DA8B"/>
		<stop  offset="1" style="stop-color:#E9605A"/>
	</linearGradient>
	<path class="st16" d="M2214,1137.8l369.3-73.4l-5.8-29.4c-1.2-6-6.9-9.8-12.9-8.7c0,0-0.1,0-0.1,0l-347.7,69.1
		c-6,1.2-9.8,6.9-8.7,12.9c0,0,0,0.1,0,0.1L2214,1137.8z"/>
	
		<linearGradient id="SVGID_14_" gradientUnits="userSpaceOnUse" x1="1837.8932" y1="1486.668" x2="2298.623" y2="2230.428" gradientTransform="matrix(-1 0 0 -1 4420 3710)">
		<stop  offset="0" style="stop-color:#FF928E"/>
		<stop  offset="1" style="stop-color:#F5CAD3"/>
	</linearGradient>
	<polygon class="st17" points="2217.3,1384.1 1857.5,1221.1 1832.7,1263.9 2232.9,1750.9 	"/>
	
		<linearGradient id="SVGID_15_" gradientUnits="userSpaceOnUse" x1="-1264.0842" y1="2599.4453" x2="-910.1043" y2="2599.4453" gradientTransform="matrix(-0.28 -1.1 0.97 -0.25 -4.39 790.02)">
		<stop  offset="0" style="stop-color:#FF928E"/>
		<stop  offset="1" style="stop-color:#F5CAD3"/>
	</linearGradient>
	<path class="st18" d="M2793.8,1556.8c0.6-0.1,1.2-0.3,1.9-0.4l88.9-22.6c54.6-13.9,86.7-73.6,71.6-133.1l-44.4-174.5
		c-15.1-59.5-71.9-96.6-126.4-82.8l-88.9,22.6c-18.8,5.1-29.9,24.6-24.8,43.4c5,18.4,23.7,29.5,42.2,25.1l88.9-22.6
		c16.5-4.2,35,10.3,40.5,31.6l44.4,174.5c5.4,21.3-3.9,42.9-20.4,47.1l-88.9,22.6c-18.9,4.9-30.3,24.2-25.4,43.1
		C2757.5,1549,2775.5,1560.3,2793.8,1556.8L2793.8,1556.8z"/>
	
		<linearGradient id="SVGID_16_" gradientUnits="userSpaceOnUse" x1="2591.5759" y1="3244.8291" x2="2446.7761" y2="3021.0391" gradientTransform="matrix(-1 0 0 -1 4420 3710)">
		<stop  offset="0" style="stop-color:#FF928E"/>
		<stop  offset="1" style="stop-color:#F5CAD3"/>
	</linearGradient>
	<path class="st19" d="M2163.2,1137.1l458.5-91.1c26.8-5.3,53.1,11.2,59.9,37.6l121.4,469.7c0.2,0.9,0.5,1.9,0.6,2.8l12.8,64.2
		c5.5,27.9-12.6,55-40.5,60.5c0,0,0,0,0,0l-512.5,101.8c-27.9,5.5-55-12.6-60.5-40.5c0,0,0,0,0,0l-12.8-64.2c-0.2-1-0.4-1.9-0.5-2.9
		l-67.4-480.4C2118.5,1167.7,2136.4,1142.4,2163.2,1137.1z"/>
	
		<linearGradient id="SVGID_17_" gradientUnits="userSpaceOnUse" x1="3555.0569" y1="4070.7419" x2="3219.3867" y2="3504.7019" gradientTransform="matrix(-1 0 0 -1 4420 3710)">
		<stop  offset="0" style="stop-color:#FF928E"/>
		<stop  offset="1" style="stop-color:#F5CAD3"/>
	</linearGradient>
	<path class="st20" d="M1697.7,1260.1l146-169.9c2.3-2.7,6.4-3,9.1-0.7l11,9.5c1.1,0.9,1.8,2.1,2.1,3.5l-0.1,121.6l-33.7,40.8
		l-119,15.5c-1.4-0.1-2.7-0.6-3.8-1.6l-11-9.5C1695.6,1266.9,1695.3,1262.8,1697.7,1260.1
		C1697.6,1260.1,1697.6,1260.1,1697.7,1260.1z"/>
	<path class="st21" d="M2522,1682.2c1.2,0.7,2.6,0.9,3.9,0.7l208.6-41.5c20.8-4.1,34.4-24.4,30.2-45.2c-0.1-0.7-0.3-1.4-0.5-2.1
		l-86.4-335.9c-0.8-3-3.8-4.8-6.8-4c-3,0.8-4.8,3.8-4,6.8l0,0l86.4,335.9c3.8,14.6-5,29.5-19.7,33.3c-0.5,0.1-1,0.2-1.5,0.3
		l-208.6,41.5c-3,0.6-5,3.5-4.4,6.5C2519.6,1680.1,2520.6,1681.5,2522,1682.2L2522,1682.2z"/>
	
		<linearGradient id="SVGID_18_" gradientUnits="userSpaceOnUse" x1="181.7442" y1="2211.4153" x2="930.7842" y2="1087.8652" gradientTransform="matrix(0.9474 -0.3201 -0.3201 -0.9474 3165.2546 3810.8557)">
		<stop  offset="0" style="stop-color:#FEBBBA"/>
		<stop  offset="1" style="stop-color:#FF928E"/>
	</linearGradient>
	<path class="st22" d="M2912.9,1731.9c0.7-16.9-12.4-31.1-29.3-31.8c-3.3-0.1-6.6,0.3-9.7,1.2c-51.1,14.7-144,28.4-243-20.7
		c-64.3-31.8-136-202.3-136-202.3s-37.5-77.6-57.8-70.8s17.1,50.6,17.1,50.6s-40.4,47.5-104.7,24.1s30.7,57.3,88.1,60.5
		c0,0,115.3,405.5,450.5,299.2c12.3-3.9,20.9-15.1,21.4-28L2912.9,1731.9z"/>
	
		<linearGradient id="SVGID_19_" gradientUnits="userSpaceOnUse" x1="-1391.7898" y1="531.8101" x2="-983.699" y2="531.8101" gradientTransform="matrix(1 0 0 -1 4598.8599 3710)">
		<stop  offset="0" style="stop-color:#FEBBBA"/>
		<stop  offset="1" style="stop-color:#FF928E"/>
	</linearGradient>
	<path class="st23" d="M3207.1,2801.4c0,0,218.3,475.8,332.9,672.9c0,0,22.8,124,0,163l-19.4,8.6l90.5-2.7c0,0,8-166.8,1.8-176.1
		s-18.8-8.7-18.8-8.7s-38.8-307.4-151.2-373l-108.9-375.1L3207.1,2801.4z"/>
	
		<linearGradient id="SVGID_20_" gradientUnits="userSpaceOnUse" x1="-830.8455" y1="1444.4823" x2="-1032.9553" y2="130.7624" gradientTransform="matrix(1 0 0 -1 4598.8599 3710)">
		<stop  offset="0" style="stop-color:#690F63"/>
		<stop  offset="1" style="stop-color:#691263"/>
	</linearGradient>
	<path class="st24" d="M3481.9,3669.3c-0.1,2.2,70.7,1.2,109.1,0.5c14.2-0.3,26.3-10.2,29.3-24.1l29-152.6
		c2.8-14.5-6.4-28.6-20.8-31.9l-16.2-3.7c0,0-23.1,31.7-15.9,61.6s13.8,107.2-4.6,116.2s-71.3,10.6-71.3,10.6
		S3483.1,3649.7,3481.9,3669.3z"/>
	
		<linearGradient id="SVGID_21_" gradientUnits="userSpaceOnUse" x1="812.6246" y1="197.2959" x2="1220.7046" y2="1263.5559" gradientTransform="matrix(-1 0 0 -1 4420 3710)">
		<stop  offset="0" style="stop-color:#690F63"/>
		<stop  offset="1" style="stop-color:#691263"/>
	</linearGradient>
	<path class="st25" d="M3430.5,3039.3L3312.2,2384l-218.4,136.5c0,0,146.9,410.5,227.5,573.4s191.1,345.8,191.1,345.8
		s36.4,9.1,81.9-45.5C3594.3,3394.3,3567,3148.5,3430.5,3039.3z"/>
	
		<linearGradient id="SVGID_22_" gradientUnits="userSpaceOnUse" x1="-1258.4484" y1="1510.2767" x2="-1460.5684" y2="196.5467" gradientTransform="matrix(1 0 0 -1 4598.8599 3710)">
		<stop  offset="0" style="stop-color:#690F63"/>
		<stop  offset="1" style="stop-color:#691263"/>
	</linearGradient>
	<path class="st26" d="M3000.1,3672.1c-3.8,2.2-5.1,7.1-2.9,10.9c1.4,2.5,4.1,4,6.9,4c64.4-0.6,208.6-2.7,221.4-8
		c16.5-6.9-6-66.3-29.8-86.4l-131.2,42.8L3000.1,3672.1z"/>
	
		<linearGradient id="SVGID_23_" gradientUnits="userSpaceOnUse" x1="-1639.4299" y1="501.45" x2="-1403.0999" y2="501.45" gradientTransform="matrix(1 0 0 -1 4598.8599 3710)">
		<stop  offset="0" style="stop-color:#FEBBBA"/>
		<stop  offset="1" style="stop-color:#FF928E"/>
	</linearGradient>
	<path class="st27" d="M2959.4,2771.1c0,0,141.1,682.5,181,815.6L3046,3646c0,0,47.3-8,82.4-10.6s67.4-42.8,67.4-42.8l-11.3-18
		c0,0-35.4-678.8-26.8-755.9L2959.4,2771.1z"/>
	
		<linearGradient id="SVGID_24_" gradientUnits="userSpaceOnUse" x1="1848.0736" y1="3151.8513" x2="1716.4335" y2="2789.8413" gradientTransform="matrix(-1 0 0 -1 4420 3710)">
		<stop  offset="0" style="stop-color:#FF928E"/>
		<stop  offset="1" style="stop-color:#F5CAD3"/>
	</linearGradient>
	<path class="st28" d="M2901.7,1689c54.1,15,237.3,63.2,351.6,61.2l-70.2,396.3l5.6,64.6l-229-1c0,0-64.4-149.7-115.3-224.3
		c-14.7-21.6-3.8-47.3,4.6-72l-11.4-7.6c-11.6-7.7-16.7-22.3-12.3-35.6L2881,1700C2883.9,1691.4,2893,1686.5,2901.7,1689z"/>
	
		<linearGradient id="SVGID_25_" gradientUnits="userSpaceOnUse" x1="18905.3516" y1="20786.918" x2="20169.0723" y2="22083.5488" gradientTransform="matrix(1 0 0 -1 3128.76 3710)">
		<stop  offset="0" style="stop-color:#690F63"/>
		<stop  offset="1" style="stop-color:#691263"/>
	</linearGradient>
	<path class="st29" d="M2941.5,2176.3l3.4,29.5c0.7,6,0,12.1-2,17.9c-10.9,30.7-45.2,146.4-22,324.2c0,0,132.7,51.2,272.4,12.1
		c78.7-22.1,128.7-98.9,117.3-179.9c-2.4-16.4-6.2-32.5-11.3-48.3c-18.3-58.6-75.3-99.2-99.4-114.2c-6.9-4.3-11.3-11.8-11.7-20
		l-1.4-29.2C3186.8,2168.4,3002,2201.8,2941.5,2176.3z"/>
	
		<linearGradient id="SVGID_26_" gradientUnits="userSpaceOnUse" x1="-1567.7896" y1="2047.4282" x2="-1423.1597" y2="2047.4282" gradientTransform="matrix(1 0 0 -1 4598.8599 3710)">
		<stop  offset="0" style="stop-color:#FEBBBA"/>
		<stop  offset="1" style="stop-color:#FF928E"/>
	</linearGradient>
	<path class="st30" d="M3031.1,1720.9c-0.8-1.1,47.8-146.7,47.8-146.7l69.6,6.3l27.2,165.3
		C3175.7,1745.8,3066.6,1767.8,3031.1,1720.9z"/>
	
		<linearGradient id="SVGID_27_" gradientUnits="userSpaceOnUse" x1="-1337.9396" y1="2234.3254" x2="-285.2796" y2="2162.7454" gradientTransform="matrix(1 0 0 -1 4598.8599 3710)">
		<stop  offset="0" style="stop-color:#FEBBBA"/>
		<stop  offset="1" style="stop-color:#FF928E"/>
	</linearGradient>
	<path class="st31" d="M3131.8,1344.5c-4.6,2.9-148.8,62.4-117.8,212.1c1.8,8.9,7.8,16.3,16,20c21.1,9.4,66.7,25.6,121.1,20.1
		c75.5-7.7,125-139.4,122.9-177.8S3177.8,1315.8,3131.8,1344.5z"/>
	
		<linearGradient id="SVGID_28_" gradientUnits="userSpaceOnUse" x1="3350.2947" y1="2333.9431" x2="2850.2046" y2="1363.0631" gradientTransform="matrix(-1 0 0 -1 6440.9302 3710)">
		<stop  offset="0" style="stop-color:#09005D"/>
		<stop  offset="1" style="stop-color:#1A0F91"/>
	</linearGradient>
	<path class="st32" d="M3082.9,1646.6c0-27.3,5.6-54.2,16.5-79.2c12-27.3,9.5-59.2-9.6-82.1c-31.3-37.5-42.7-85-25.4-126.5
		c26.9-64.9,113.3-90.8,192.9-57.7c56.4,23.4,94.3,70.1,101.9,118.5c4.4,27.7,19.3,52.7,41.6,69.6c32.1,24.5,55.9,58.2,68.4,96.6
		c8.5,26.2,25.5,48.8,49.4,62.5c55.9,31.8,100.2,80.7,126.4,139.6c68.4,153.2-0.7,333.1-154.4,401.8s-333.9,0.1-402.3-153.1
		c-38-85.1-33.5-178.5,4.3-256.4c9.5-19.6,11.5-42.1,3.6-62.3C3087.4,1695,3082.9,1670.9,3082.9,1646.6z"/>
	
		<linearGradient id="SVGID_29_" gradientUnits="userSpaceOnUse" x1="19232.5391" y1="20468.1094" x2="20496.2598" y2="21764.7402" gradientTransform="matrix(1 0 0 -1 3128.76 3710)">
		<stop  offset="0" style="stop-color:#690F63"/>
		<stop  offset="1" style="stop-color:#691263"/>
	</linearGradient>
	<path class="st33" d="M3202.9,3539.9c12.4-3.5-45.5-919.2-45.5-919.2l36.4-91l-273,18.2c0,0,109.2,828.1,172.9,1001.1
		C3093.7,3549,3139.2,3558.1,3202.9,3539.9z"/>
	
		<linearGradient id="SVGID_30_" gradientUnits="userSpaceOnUse" x1="-371.9982" y1="1610.6172" x2="248.7017" y2="1987.1171" gradientTransform="matrix(1 0 0 -1 3128.76 3710)">
		<stop  offset="0" style="stop-color:#690F63"/>
		<stop  offset="1" style="stop-color:#691263"/>
	</linearGradient>
	<path class="st34" d="M2959.4,1704.2l50.3,12c0,0-34.3,340.2,56.8,467.7l-54.6,9.1C3011.8,2192.9,2916.1,1998.1,2959.4,1704.2z"/>
</g>
</svg>
